<svg xmlns="http://www.w3.org/2000/svg" width="146" height="146" viewBox="0 0 146 146" fill="none">
  <rect width="146" height="146" rx="10" fill="#DCDDDE"/>
  <path d="M100.862 117H45.1381C40.1098 117 35.7659 117 33.7211 117C33.0811 116.999 32.6122 116.424 32.7918 115.809C34.4799 110.036 43.4537 85.2224 73 85.2224C102.546 85.2224 111.52 110.036 113.208 115.809C113.388 116.424 112.919 116.999 112.279 117C110.234 117 105.89 117 100.862 117Z" stroke="#3B4255" stroke-width="3" stroke-linecap="round"/>
  <path d="M73 68.1109C84.191 68.1109 93.2631 59.3556 93.2631 48.5554C93.2631 37.7553 84.191 29 73 29C61.8089 29 52.7368 37.7553 52.7368 48.5554C52.7368 59.3556 61.8089 68.1109 73 68.1109Z" stroke="#3B4255" stroke-width="3" stroke-linecap="round"/>
</svg>
