<svg width="20" height="20" viewBox="0 0 20 20" fill="none" xmlns="http://www.w3.org/2000/svg">
<g opacity="0.8">
<path d="M14.8125 18H5.1875C4.84568 18 4.52217 18 4.23398 18C3.59829 18 3.14338 17.4184 3.38709 16.8312C4.08786 15.1431 5.89365 12.2223 10 12.2223C14.1064 12.2223 15.9121 15.1431 16.6129 16.8312C16.8566 17.4184 16.4017 18 15.766 18C15.4778 18 15.1543 18 14.8125 18Z" stroke="white" stroke-width="1.4" stroke-linecap="round"/>
<path d="M10 9.11106C11.933 9.11106 13.5 7.5192 13.5 5.55553C13.5 3.59187 11.933 2 10 2C8.067 2 6.5 3.59187 6.5 5.55553C6.5 7.5192 8.067 9.11106 10 9.11106Z" stroke="white" stroke-width="1.4" stroke-linecap="round"/>
</g>
</svg>
