<svg width="20" height="20" viewBox="0 0 20 20" fill="none" xmlns="http://www.w3.org/2000/svg">
<g clip-path="url(#clip0_743_1661)">
<path d="M18.485 2.72726H1.51534C1.19387 2.72726 0.885562 2.85497 0.658245 3.08229C0.430928 3.3096 0.303223 3.61791 0.303223 3.93939V16.0606C0.303223 16.3821 0.430928 16.6904 0.658245 16.9177C0.885562 17.145 1.19387 17.2727 1.51534 17.2727H18.485C18.8065 17.2727 19.1148 17.145 19.3421 16.9177C19.5695 16.6904 19.6972 16.3821 19.6972 16.0606V3.93939C19.6972 3.61791 19.5695 3.3096 19.3421 3.08229C19.1148 2.85497 18.8065 2.72726 18.485 2.72726ZM17.5517 16.0606H2.5214L6.76383 11.6727L5.8911 10.8303L1.51534 15.3576V4.8606L9.04868 12.3576C9.27578 12.5833 9.583 12.71 9.90322 12.71C10.2234 12.71 10.5307 12.5833 10.7578 12.3576L18.485 4.67272V15.2788L14.0244 10.8182L13.1699 11.6727L17.5517 16.0606ZM2.30928 3.93939H17.5032L9.90322 11.497L2.30928 3.93939Z" fill="white"/>
</g>
<defs>
<clipPath id="clip0_743_1661">
<rect width="20" height="20" fill="white"/>
</clipPath>
</defs>
</svg>
