<svg width="24" height="24" viewBox="0 0 24 24" fill="none" xmlns="http://www.w3.org/2000/svg">
<path d="M17.8669 8.04562C17.8669 6.54828 17.2488 5.11227 16.1486 4.05349C15.0483 2.99472 13.5561 2.3999 12.0002 2.3999C10.4443 2.3999 8.95205 2.99472 7.85184 4.05349C6.75162 5.11227 6.13353 6.54828 6.13353 8.04562C6.13353 14.6323 3.2002 17.5999 3.2002 17.5999H20.8002C20.8002 17.5999 17.8669 14.6323 17.8669 8.04562Z" stroke="white" stroke-width="1.3" stroke-linecap="round" stroke-linejoin="round"/>
<path d="M14.4001 20.7998C14.1562 21.0431 13.8061 21.2451 13.3849 21.3855C12.9637 21.5259 12.4862 21.5998 12.0001 21.5998C11.514 21.5998 11.0365 21.5259 10.6153 21.3855C10.1941 21.2451 9.844 21.0431 9.6001 20.7998" stroke="white" stroke-width="1.3" stroke-linecap="round" stroke-linejoin="round"/>
</svg>
