<svg width="20" height="20" viewBox="0 0 20 20" fill="none" xmlns="http://www.w3.org/2000/svg">
<path d="M14.5 19C7.05625 19 1 12.9438 1 5.50001C1.00281 4.22319 1.46919 2.99083 2.31243 2.03206C3.15566 1.07329 4.31837 0.453355 5.58437 0.287507C5.90711 0.251724 6.23284 0.319672 6.51435 0.481498C6.79586 0.643324 7.01851 0.890614 7.15 1.18751L9.03437 5.58438C9.13212 5.81261 9.17131 6.06163 9.14839 6.30885C9.12547 6.55607 9.04116 6.79364 8.90312 7.00001L7.34687 9.38126C8.05158 10.8114 9.21273 11.966 10.6469 12.6625L13 11.0969C13.2061 10.9579 13.4443 10.8738 13.692 10.8525C13.9397 10.8312 14.1888 10.8733 14.4156 10.975L18.8125 12.85C19.1094 12.9815 19.3567 13.2041 19.5185 13.4857C19.6803 13.7672 19.7483 14.0929 19.7125 14.4156C19.5467 15.6816 18.9267 16.8443 17.9679 17.6876C17.0092 18.5308 15.7768 18.9972 14.5 19ZM5.77187 1.77813C4.86714 1.89443 4.03582 2.33652 3.43356 3.02161C2.8313 3.70671 2.4994 4.58783 2.5 5.50001C2.50248 8.68184 3.76756 11.7326 6.01746 13.9825C8.26736 16.2324 11.3182 17.4975 14.5 17.5C15.4122 17.5006 16.2933 17.1687 16.9784 16.5664C17.6635 15.9642 18.1056 15.1329 18.2219 14.2281L13.825 12.3531L11.4812 13.9188C11.2656 14.0613 11.0168 14.1457 10.7589 14.1638C10.501 14.1819 10.2428 14.133 10.0094 14.0219C8.26276 13.177 6.84994 11.7708 5.99687 10.0281C5.8844 9.7955 5.83393 9.53775 5.85036 9.27988C5.86678 9.022 5.94955 8.77274 6.09062 8.55626L7.65625 6.17501L5.77187 1.77813Z" fill="white"/>
</svg>
