<svg width="20" height="20" viewBox="0 0 20 20" fill="none" xmlns="http://www.w3.org/2000/svg">
<path d="M7.09152 16.6154L7.55462 16.0254L7.09152 16.6154ZM9.75 4.93062L9.21073 5.45186C9.35204 5.59806 9.54666 5.68062 9.75 5.68062C9.95334 5.68062 10.148 5.59806 10.2893 5.45186L9.75 4.93062ZM12.4085 16.6154L12.8716 17.2053L12.4085 16.6154ZM7.55462 16.0254C6.22279 14.9799 4.78314 13.9709 3.64006 12.6891C2.52271 11.4363 1.75 9.98268 1.75 8.09918H0.25C0.25 10.4529 1.23579 12.2469 2.52057 13.6875C3.77962 15.0993 5.38573 16.2298 6.62841 17.2053L7.55462 16.0254ZM1.75 8.09918C1.75 6.26292 2.79183 4.72612 4.2092 4.08095C5.58014 3.45692 7.43431 3.61397 9.21073 5.45186L10.2893 4.40939C8.12833 2.17366 5.6075 1.79638 3.58778 2.71573C1.61449 3.61394 0.25 5.69822 0.25 8.09918H1.75ZM6.62841 17.2053C7.07577 17.5565 7.56196 17.9358 8.05611 18.2234C8.55009 18.5108 9.1229 18.75 9.75 18.75V17.25C9.5021 17.25 9.19991 17.1535 8.81052 16.9269C8.4213 16.7004 8.01575 16.3874 7.55462 16.0254L6.62841 17.2053ZM12.8716 17.2053C14.1143 16.2298 15.7204 15.0993 16.9794 13.6875C18.2642 12.2469 19.25 10.4529 19.25 8.09918H17.75C17.75 9.98268 16.9773 11.4363 15.8599 12.6891C14.7169 13.9709 13.2772 14.9799 11.9454 16.0254L12.8716 17.2053ZM19.25 8.09918C19.25 5.69822 17.8855 3.61394 15.9122 2.71573C13.8925 1.79638 11.3717 2.17366 9.21073 4.40939L10.2893 5.45186C12.0657 3.61397 13.9199 3.45692 15.2908 4.08095C16.7082 4.72612 17.75 6.26292 17.75 8.09918H19.25ZM11.9454 16.0254C11.4843 16.3874 11.0787 16.7004 10.6895 16.9269C10.3001 17.1535 9.9979 17.25 9.75 17.25V18.75C10.3771 18.75 10.9499 18.5108 11.4439 18.2234C11.938 17.9358 12.4242 17.5565 12.8716 17.2053L11.9454 16.0254Z" fill="white"/>
</svg>
