<svg width="20" height="20" viewBox="0 0 20 20" fill="none" xmlns="http://www.w3.org/2000/svg">
<path d="M2.11553 12.8247C1.37184 11.9621 1 11.5308 1 10.25C1 8.96924 1.37184 8.53791 2.11553 7.67526C3.60047 5.95278 6.09085 4 9.75 4C13.4092 4 15.8995 5.95278 17.3845 7.67526C18.1282 8.53791 18.5 8.96924 18.5 10.25C18.5 11.5308 18.1282 11.9621 17.3845 12.8247C15.8995 14.5472 13.4092 16.5 9.75 16.5C6.09085 16.5 3.60047 14.5472 2.11553 12.8247Z" stroke="white" stroke-width="1.5"/>
<path d="M12.25 10.25C12.25 11.6307 11.1307 12.75 9.75 12.75C8.36929 12.75 7.25 11.6307 7.25 10.25C7.25 8.86929 8.36929 7.75 9.75 7.75C11.1307 7.75 12.25 8.86929 12.25 10.25Z" stroke="white" stroke-width="1.5"/>
</svg>
