<svg width="50" height="50" viewBox="0 0 50 50" fill="none" xmlns="http://www.w3.org/2000/svg">
<path d="M0 29.1693C0.63 29.2822 1.43 29.7027 1.86 29.4565C2.53135 29.1511 3.27173 29.041 4 29.1386C4.52 29.1386 5 29.436 5.56 29.4873C5.92652 29.4667 6.2876 29.3871 6.63 29.2514C7.29 30.995 8.76 31.0873 10.46 30.8001C10.46 30.5437 10.51 30.2668 10.51 29.9899C10.51 27.0668 10.51 24.1437 10.51 21.2206C10.4319 20.2267 10.305 19.2374 10.13 18.2565C10.03 17.4565 10.41 17.1693 11.13 17.2309C12.0061 17.277 12.8839 17.277 13.76 17.2309C14.2286 17.1424 14.6926 17.0294 15.15 16.8924C15.4811 16.836 15.8189 16.836 16.15 16.8924C16.5793 17.0307 17.0169 17.1404 17.46 17.2206C19.38 17.2206 21.3 17.2206 23.31 17.2206V14.7796C24.08 14.7796 24.17 14.2873 24.13 13.6719C24.09 13.0565 24.13 12.2873 24.13 11.5386H26.58V12.8309H24.68V14.5232L25.54 14.6668V17.0975C25.88 17.0975 26.15 17.0975 26.42 17.0975C27.97 17.0975 29.53 17.0975 31.09 17.0975C31.64 17.0975 32.24 17.3129 32.72 16.7078C32.85 16.5437 33.36 16.6565 33.72 16.7078C34.1306 16.8625 34.5517 16.986 34.98 17.077C36.2 17.1283 37.42 17.077 38.63 17.077C38.7644 17.0644 38.8999 17.0823 39.0268 17.1294C39.1537 17.1765 39.2689 17.2516 39.3644 17.3495C39.4598 17.4474 39.5331 17.5656 39.579 17.6957C39.6249 17.8259 39.6423 17.9648 39.63 18.1027C39.63 18.6155 39.63 19.1283 39.63 19.6617C39.63 19.7437 39.46 19.8258 39.37 19.9078C38.97 19.9078 38.58 19.9078 38.18 19.9078H10.78C10.8861 20.3147 10.9596 20.7297 11 21.1488C11 24.154 11 27.1591 11 30.1642C11 30.4104 11.21 30.6565 11.33 30.9027C11.4425 30.6734 11.52 30.4278 11.56 30.1745C11.56 27.2617 11.56 24.3386 11.56 21.4155C11.56 21.1283 11.56 20.8309 11.56 20.5334H11.75L11.9 21.4975H13L13.15 20.5232H13.31L13.44 21.477H14.71L14.83 20.5129H15.02L15.14 21.4463H16.41L16.53 20.5027H16.7L16.85 21.477H17.92L18.08 20.5027H18.23L18.37 21.4565H19.64L19.76 20.4924H19.94L20.07 21.4258H21.34L21.45 20.4719H21.65L21.75 21.4258H23L23.15 20.4514H23.31L23.44 21.395H24.71L24.83 20.4309H25.02L25.14 21.3642H26.41L26.53 20.4206H26.69L26.85 21.3847H28L28.15 20.4104H28.31L28.45 21.3642H29.71L29.83 20.4001H30.02L30.14 21.3334H31.41L31.53 20.3899H31.7L31.85 21.354H32.92L33.08 20.3796H33.24L33.37 21.3334H34.6L34.72 20.3693H34.91L35.03 21.3027H36.48L36.58 20.3488H36.78L36.88 21.3027H37.8L37.97 20.3283H38.18V30.5847L38.53 30.6668C38.65 30.3779 38.734 30.0747 38.78 29.7642C38.78 26.7591 38.78 23.7437 38.78 20.7386C38.78 20.2668 38.84 19.8873 39.34 19.7129C39.2913 19.9636 39.2579 20.217 39.24 20.4719C39.24 23.6001 39.24 26.7181 39.24 29.8463C39.24 30.0104 39.24 30.1847 39.24 30.3386C41.57 30.636 43.17 30.5437 43.48 28.9129C43.8141 29.112 44.1936 29.2168 44.58 29.2168C44.9664 29.2168 45.3459 29.112 45.68 28.9129C46.0593 28.7375 46.4749 28.6606 46.89 28.6892C47.3052 28.7179 47.707 28.8511 48.06 29.077C48.52 29.354 49.26 29.1283 49.97 29.1283V37.7334C49.7679 37.7656 49.5643 37.7862 49.36 37.795H0.42H0V29.1693ZM36 34.8514V31.7745H37.19V34.8514H38.06V31.7745H39.28V34.8514H40.15V31.7745H41.41V34.8514L41.7 34.9847C41.84 34.7899 42.1 34.6052 42.11 34.4104C42.11 33.3847 42.11 32.4104 42.11 31.3334H8.11V34.7386C8.84 34.8309 8.85 34.8309 8.87 34.2565C8.87 33.4258 8.87 32.5847 8.87 31.6924H10.12V34.7693C10.83 34.9745 10.98 34.6975 10.96 34.1334C10.96 33.3334 10.96 32.5334 10.96 31.6924H12.2V34.7693H13.07V31.6924H14.27V34.7693H15.16V31.6924H16.39C16.39 32.5745 16.39 33.4155 16.39 34.2463C16.39 34.8104 16.59 34.9642 17.16 34.7283V31.7745H18.5C18.5 32.6668 18.5 33.477 18.5 34.277C18.5 34.4924 18.73 34.6873 18.85 34.9027C18.97 34.6873 19.19 34.4924 19.2 34.277C19.2 33.4463 19.2 32.6155 19.2 31.7642H20.53V34.9027L21.39 34.8309V31.754H22.55C22.55 32.6052 22.55 33.4052 22.55 34.2155C22.55 35.0258 22.79 35.0155 23.45 34.8104V31.7334H24.62V34.8104H25.49V31.7334H26.78V34.8719L27.67 34.7693V31.6924H28.84C28.84 32.5745 28.84 33.4052 28.84 34.236C28.84 34.8104 29.04 34.9745 29.67 34.7386V31.7642H30.92V34.9129L31.77 34.8206V31.6822L33.07 31.7745V34.8514L33.38 34.9847C33.52 34.7488 33.77 34.5334 33.78 34.2975C33.83 33.4668 33.78 32.6258 33.78 31.7642H35.08V34.8924L36 34.8514ZM8.19 37.0668H42.19C41.88 36.4822 42.6 35.5796 41.43 35.3847L41.33 36.7078H40.14L40.06 35.4258H39.28L39.18 36.6668H38.06L38 35.4052L37.21 35.477L37.12 36.7078H36L35.87 35.4155L35.12 35.4668L35 36.6975H33.86L33.79 35.5078H33.1L33 36.7488H31.77L31.7 35.4258L31 35.5078L30.92 36.7899H29.92C29.4 36.4411 30.17 35.2514 28.92 35.5078L28.81 36.7386H27.72L27.61 35.5078H26.82L26.73 36.7488H25.56L25.48 35.5078H24.69L24.59 36.7386H23.48L23.4 35.436L22.63 35.5283L22.54 36.7386H21.44L21.34 35.4668H20.59L20.52 36.7693H19.3L19.19 35.5078C17.96 35.3847 18.84 36.5334 18.35 36.7899H17.2L17.14 35.5078H16.45L16.36 36.7386H15.22L15.12 35.4565L14.33 35.5078L14.22 36.7283H13.11L13.05 35.5078H12.27L12.17 36.7488H11L10.88 35.4565L10.13 35.5078L10.05 36.7591H9L8.86 35.5078C8 35.4155 8 35.5078 8.19 37.0668ZM4.34 30.4514C4.17 32.6975 4.34 34.9027 4.27 37.1283H5.27V31.4052H5.57V32.236C5.57 33.6822 5.57 35.1283 5.57 36.5745C5.57 37.0873 5.7 37.3437 6.24 37.1078V30.0411H0.64C0.64 32.2258 0.64 34.3591 0.64 36.4924C0.686087 36.7372 0.777761 36.9705 0.91 37.1796C1.05 36.954 1.29 36.7386 1.3 36.5027C1.3 35.0565 1.3 33.6104 1.3 32.1745C1.3 31.9078 1.3 31.6514 1.36 31.395H1.66V37.1181H2.59C2.59 35.3334 2.59 33.6001 2.59 31.877C2.54654 31.3912 2.4595 30.9106 2.33 30.4411L4.34 30.4514ZM44.59 31.4052L44.96 31.3232C45.0481 31.5648 45.1085 31.816 45.14 32.0719C45.14 33.5488 45.14 35.0258 45.14 36.5027C45.14 36.7283 45.34 36.9437 45.44 37.1693C45.58 36.954 45.84 36.7283 45.84 36.5027C45.84 34.9745 45.84 33.4258 45.84 31.9078C45.8001 31.4284 45.73 30.9522 45.63 30.4822H47.84C47.6726 30.8026 47.5577 31.1491 47.5 31.5078C47.5 33.2206 47.5 34.9232 47.5 36.636C47.5 37.2001 47.69 37.3745 48.27 37.1386C48.27 36.1642 48.22 35.1796 48.27 34.2052C48.32 33.2309 48.01 32.2873 48.6 31.4052C48.736 31.6484 48.8052 31.9249 48.8 32.2052C48.8 33.5078 48.8 34.8104 48.8 36.1129C48.8324 36.4719 48.9344 36.8206 49.1 37.1386C49.82 37.0155 49.45 36.4206 49.46 36.0309C49.46 34.5027 49.46 32.954 49.46 31.436V30.0104H43.85V37.1181C44.56 37.1181 44.56 37.1181 44.59 36.5334C44.59 36.3078 44.59 36.0719 44.59 35.8463V31.4052ZM35 30.8514H36.46V29.354H35V30.8514ZM28.41 29.354V30.8206H29.66V29.354H28.41ZM20.1 29.354V30.8514H21.36V29.354H20.1ZM19.67 29.354H18.38V30.8309H19.67V29.354ZM25.15 30.8206H26.43V29.354H25.15V30.8206ZM15.17 29.354V30.8514H16.43V29.354H15.17ZM23.46 30.8206H24.73V29.3847H23.46V30.8206ZM13.47 29.354V30.8514H14.74V29.354H13.47ZM23.07 29.354H21.78V30.8309H23.07V29.354ZM30.07 30.8309H31.36V29.354H30.08L30.07 30.8309ZM33.32 29.354V30.8411H34.6V29.354H33.32ZM18 29.354H16.85V30.8309H18V29.354ZM12 29.354V30.8514H13V29.354H12ZM26.93 29.354V30.8514H28V29.354H26.93ZM32.98 29.354H31.79V30.8309H32.92L32.98 29.354ZM37.84 29.354H36.9V30.9027L37.84 30.8514V29.354ZM35 24.954H36.53L36.45 24.2258H35V24.954ZM36.48 25.9283H35V26.6975H36.46L36.48 25.9283ZM35 22.4206V23.2001H36.5V22.4001L35 22.4206ZM36.5 27.6514H35V28.4309H36.47L36.5 27.6514ZM16.45 24.2258H15.11V25.0052H16.41L16.45 24.2258ZM18.37 25.0052H19.66V24.2258H18.37V25.0052ZM20.09 24.2052V25.0155H21.34V24.2052H20.09ZM23.09 25.0258L23.05 24.2258H21.72L21.78 25.0258H23.09ZM23.43 25.0258H24.8L24.75 24.2258H23.45L23.43 25.0258ZM25.13 25.0258H26.43V24.2258H25.13V25.0258ZM29.71 25.0258L29.67 24.2258H28.34L28.4 25.0258H29.71ZM30.06 25.0258H31.42L31.36 24.2258H30.08L30.06 25.0258ZM34.62 24.2258H33.27V25.0052H34.57L34.62 24.2258ZM13.48 25.877V26.7078H14.71V25.877H13.48ZM15.18 25.877C15.09 26.8411 15.12 26.9027 16.43 26.636V25.877H15.18ZM19.68 25.877H18.33L18.38 26.6565H19.68V25.877ZM21.37 25.877H20.08V26.6668H21.37V25.877ZM21.76 26.6565H23.12L23 25.9283H21.76V26.6565ZM24.76 25.8668H23.49V26.677H24.75L24.76 25.8668ZM25.21 25.8668V26.6975H26.43V25.8668H25.21ZM25.12 22.4104L25.19 23.2104H26.52L26.45 22.4104H25.12ZM29.69 25.8975H28.39V26.6975H29.68L29.69 25.8975ZM31.36 26.6975C31.45 25.7437 31.36 25.6719 30.1 25.9488V26.6975H31.36ZM33.36 26.6975H34.6V25.8975H33.31L33.36 26.6975ZM13.5 28.4411H14.76V27.6309H13.45L13.5 28.4411ZM16.45 28.4411V27.6104H15.17V28.4411H16.45ZM20.15 27.5796V28.4104H21.38V27.6104L20.15 27.5796ZM23.15 28.4309L23.09 27.6206H21.72L21.78 28.4309H23.15ZM23.51 28.4309H24.79V27.6309H23.47L23.51 28.4309ZM25.16 27.6206L25.21 28.4206H26.5L26.44 27.6206H25.16ZM29.78 28.4411L29.71 27.6514H28.33L28.41 28.4411H29.78ZM30.12 28.4411H31.41V27.6514H30.08L30.12 28.4411ZM33.39 27.6104V28.4411H34.61V27.6104H33.39ZM18.39 28.4411H19.68V27.6514H18.36L18.39 28.4411ZM14.78 22.4411H13.48V23.2001H14.78V22.4411ZM16.43 23.2617V22.4309H15.17V23.2617H16.43ZM19.75 23.2617L19.68 22.4719H18.32L18.39 23.2617H19.75ZM20.1 23.2617H21.39V22.4617H20.07L20.1 23.2617ZM21.82 22.4617V23.2001H23V22.3899L21.82 22.4617ZM23.48 23.2514H24.8L24.75 22.4719H23.45L23.48 23.2514ZM28.42 23.2514H29.71V22.4514H28.39L28.42 23.2514ZM30 22.4206L30.06 23.2206H31.38L31.33 22.4206H30ZM33.3 23.2001H34.66L34.59 22.4411H33.3V23.2001ZM13.39 24.1437L13.46 24.9437H14.79L14.72 24.1437H13.39ZM32.87 24.9642C32.97 24.0104 32.97 24.0104 31.79 24.2155V24.9642H32.87ZM27.97 24.9642V24.2258H26.87V25.036L27.97 24.9642ZM16.8 24.154L16.85 24.954H18V24.154H16.8ZM13.01 24.9745C13.1 24.0309 13.1 24.0309 11.92 24.2258V24.9745H13.01ZM32.92 22.4514H31.73L31.8 23.2206H32.92V22.4514ZM26.87 22.4514V23.2001H28V22.3899L26.87 22.4514ZM17.93 23.2719C18.02 22.3181 18.02 22.3181 16.85 22.5129V23.2001L17.93 23.2719ZM11.93 28.4617H13.12L13 27.6514H11.9L11.93 28.4617ZM13.04 23.3334V22.5027H12V23.3334H13.04ZM33.04 26.7899L32.97 26.0001H31.73L31.8 26.7899H33.04ZM18 26.7181V25.9181H16.8L16.85 26.7181H18ZM28 27.6514H26.87V28.4309H28V27.6514ZM16.85 28.4411H18V27.6411H16.84L16.85 28.4411ZM28 26.7181V25.9283H26.81L26.88 26.7181H28ZM32.83 28.4719V27.6411H31.81V28.4719H32.83ZM11.83 26.6873H13.1L13 25.9283H11.91L11.83 26.6873ZM37.76 22.4514H36.76L36.84 23.2822H37.78L37.76 22.4514ZM37.76 26.7181V25.9181H36.83V26.7181H37.76ZM36.76 27.6309L36.82 28.4309H37.82L37.76 27.6309H36.76ZM37.76 24.195H36.76L36.84 25.0155H37.78L37.76 24.195Z" fill="#3B4255"/>
</svg>
