<svg width="75" height="75" viewBox="0 0 75 75" fill="none" xmlns="http://www.w3.org/2000/svg">
<path d="M20.4182 11.9323C25.475 8.55346 31.4202 6.75 37.502 6.75C41.5401 6.75 45.5387 7.54537 49.2695 9.0907C53.0002 10.636 56.3901 12.9011 59.2455 15.7565C62.1009 18.6119 64.3659 22.0017 65.9113 25.7325C67.4566 29.4632 68.252 33.4619 68.252 37.5C68.252 43.5818 66.4485 49.527 63.0697 54.5838C59.6908 59.6406 54.8883 63.5819 49.2695 65.9093C43.6507 68.2367 37.4679 68.8456 31.5029 67.6592C25.538 66.4727 20.0589 63.544 15.7584 59.2435C11.458 54.9431 8.52932 49.4639 7.34282 43.499C6.15632 37.5341 6.76528 31.3513 9.09267 25.7325C11.4201 20.1137 15.3614 15.3112 20.4182 11.9323ZM23.3349 58.7025C27.5284 61.5045 32.4585 63 37.502 63C44.265 63 50.751 60.3134 55.5332 55.5312C60.3154 50.749 63.002 44.263 63.002 37.5C63.002 32.4566 61.5064 27.5264 58.7044 23.333C55.9025 19.1395 51.9199 15.8711 47.2604 13.9411C42.6009 12.011 37.4737 11.5061 32.5272 12.49C27.5806 13.4739 23.037 15.9025 19.4707 19.4688C15.9045 23.035 13.4759 27.5787 12.4919 32.5252C11.508 37.4717 12.013 42.5989 13.943 47.2584C15.8731 51.9179 19.1415 55.9005 23.3349 58.7025Z" fill="white" fill-opacity="0.1" stroke="white"/>
<path d="M37.5004 18.2501C34.4675 18.2505 31.559 19.4555 29.4144 21.6001C27.2695 23.745 26.0645 26.6542 26.0645 29.6876C26.0645 30.649 26.4464 31.571 27.1262 32.2508C27.806 32.9307 28.728 33.3126 29.6895 33.3126C30.6509 33.3126 31.5729 32.9307 32.2527 32.2508C32.9325 31.571 33.3145 30.649 33.3145 29.6876C33.3145 28.8594 33.56 28.0498 34.0202 27.3611C34.4803 26.6725 35.1343 26.1358 35.8995 25.8188C36.6646 25.5019 37.5066 25.419 38.3189 25.5805C39.1312 25.7421 39.8773 26.1409 40.463 26.7266C41.0486 27.3122 41.4474 28.0584 41.609 28.8706C41.7706 29.6829 41.6876 30.5249 41.3707 31.2901C41.0538 32.0552 40.517 32.7092 39.8284 33.1694C39.1398 33.6295 38.3302 33.8751 37.502 33.8751C36.5405 33.8751 35.6185 34.257 34.9387 34.9368C34.2589 35.6166 33.877 36.5387 33.877 37.5001V43.7501C33.877 44.7115 34.2589 45.6335 34.9387 46.3134C35.6185 46.9932 36.5405 47.3751 37.502 47.3751C38.4634 47.3751 39.3854 46.9932 40.0652 46.3134C40.745 45.6335 41.127 44.7115 41.127 43.7501V40.4935C43.6144 39.677 45.7495 38.0279 47.168 35.8185C48.6545 33.5032 49.2539 30.7286 48.8559 28.0061C48.4579 25.2836 47.0892 22.7968 45.0021 21.0039C42.9154 19.2114 40.2512 18.2334 37.5004 18.2501Z" fill="white" fill-opacity="0.1" stroke="white"/>
<path d="M40.127 53.125C40.127 54.5747 38.9517 55.75 37.502 55.75C36.0522 55.75 34.877 54.5747 34.877 53.125C34.877 51.6753 36.0522 50.5 37.502 50.5C38.9517 50.5 40.127 51.6753 40.127 53.125Z" fill="white" fill-opacity="0.1" stroke="white"/>
</svg>
