<svg width="75" height="75" viewBox="0 0 75 75" fill="none" xmlns="http://www.w3.org/2000/svg">
<g clip-path="url(#clip0_1000_5306)">
<path d="M35.9548 49.0414C35.5457 49.0414 35.1215 49.0414 34.7124 49.0414C34.5886 49.0242 34.4626 49.0328 34.3421 49.0666C34.2217 49.1005 34.1092 49.1589 34.0114 49.2384C33.9137 49.3179 33.8328 49.4168 33.7736 49.5291C33.7144 49.6414 33.6781 49.7648 33.667 49.8918C33.4851 50.773 33.0609 51.5615 32.9245 52.4583C32.9015 52.6074 32.827 52.7433 32.7145 52.8414C32.602 52.9395 32.4589 52.9935 32.3109 52.9935C32.1629 52.9935 32.0198 52.9395 31.9073 52.8414C31.7948 52.7433 31.7203 52.6074 31.6973 52.4583C31.4731 51.71 31.3408 50.9362 31.3033 50.1546C31.3033 45.1299 31.3033 40.1051 31.3033 35.0804C31.3033 34.2146 30.9851 33.859 30.1518 33.9054C28.5306 33.9982 26.8942 33.9054 25.2579 33.9054C21.8942 33.9054 18.5154 33.9054 15.1367 33.9054C14.1518 33.9054 13.8639 34.1991 13.8488 35.2505V43.5529C13.7579 46.0266 14.0154 49.0878 13.7276 52.1336C13.7276 52.5819 13.5154 52.9221 13.0761 52.9685C12.6367 53.0148 12.5306 52.6593 12.3488 52.3037C11.1064 49.8454 11.9851 50.0928 9.15181 50.0773C8.5609 50.0773 8.0003 50.2165 8.01545 50.8658C8.00632 51.0183 8.03249 51.1709 8.09185 51.3112C8.1512 51.4515 8.24208 51.5756 8.35713 51.6735C8.47218 51.7713 8.60818 51.8401 8.75413 51.8744C8.90007 51.9087 9.05188 51.9074 9.19727 51.8708C9.63666 51.8708 10.1367 51.7625 10.3942 52.2573C11.1325 53.3243 11.6482 54.5346 11.9094 55.8132C12.0003 57.3593 12.0306 58.7662 12.0003 60.2505C12.0354 61.102 11.8132 61.9439 11.3639 62.6623C10.8336 63.4663 10.4094 64.3476 9.84878 65.167C9.5609 65.6308 9.25787 66.2492 9.84878 66.7131C10.4397 67.1769 11.0458 66.7131 11.3639 65.9709C11.5761 65.538 11.8336 65.1361 12.0154 64.7032C12.5912 63.389 13.9245 62.4304 13.6821 60.7607C13.6821 60.3896 13.9851 60.4515 14.1973 60.4515H31.5003C32.0003 60.4515 32.1064 60.6679 32.0609 61.1008C31.9798 61.549 32.0492 62.012 32.2579 62.415C33.0407 63.6158 33.7492 64.8654 34.3791 66.1565C34.4204 66.2975 34.4929 66.4269 34.591 66.5347C34.6892 66.6425 34.8104 66.7258 34.9452 66.7781C35.08 66.8304 35.2247 66.8504 35.3683 66.8364C35.5119 66.8224 35.6503 66.775 35.773 66.6976C36.3791 66.3111 36.1367 65.739 35.8639 65.2597C35.3336 64.3166 34.773 63.3735 34.1973 62.4459C33.924 62.0195 33.7864 61.5173 33.8033 61.008C33.8033 59.462 33.8033 58.0396 33.8033 56.5554C33.8033 56.107 33.5609 55.6896 33.6973 55.2257C34.1064 53.958 34.4851 52.6902 34.9094 51.4224C34.9504 51.1818 35.0798 50.9662 35.2713 50.8196C35.4628 50.6731 35.7018 50.6067 35.9397 50.6339C36.4548 50.6339 36.8185 50.4638 36.8185 49.8763C36.8185 49.2888 36.4397 49.0878 35.9548 49.0414ZM26.5154 35.6524C27.3488 35.6524 28.167 35.6524 29.0003 35.6524C29.8336 35.6524 29.8185 35.8998 29.8185 36.5182C29.8185 39.7805 29.8185 43.0581 29.8185 46.3204C29.8185 46.8151 29.6973 47.0161 29.1821 46.9852C28.2882 46.9852 27.3942 46.9852 26.5154 46.9852C26.0003 46.9852 25.8639 46.8306 25.8639 46.3204C25.8639 44.6506 25.8639 42.9963 25.8639 41.3265C25.8639 39.6568 25.8639 38.0025 25.8639 36.3482C25.7882 35.8844 25.9397 35.6524 26.5154 35.6524ZM21.0609 36.3327C21.0609 35.8071 21.2124 35.6524 21.7124 35.637C24.2882 35.5597 24.2882 35.5442 24.2882 38.1571C24.2882 40.77 24.2882 43.4756 24.2882 46.1348C24.2882 46.8306 24.0912 47.0315 23.4397 46.9697C22.8797 46.9314 22.3178 46.9314 21.7579 46.9697C21.2579 46.9697 21.0306 46.8151 21.0306 46.243C21.0306 44.5424 21.0306 42.8571 21.0306 41.1565C21.0306 39.4558 21.0003 38.0179 20.9851 36.3946L21.0609 36.3327ZM15.6973 36.3327C15.6973 35.8225 15.8488 35.6215 16.3488 35.6524C17.1771 35.6524 18.0104 35.6524 18.8488 35.6524C19.3488 35.6524 19.5003 35.8225 19.4851 36.3327C19.4851 38.0025 19.4851 39.6568 19.4851 41.3265C19.4851 42.9963 19.4851 44.6506 19.4851 46.3049C19.4851 46.8151 19.3336 47.0161 18.8336 47.0006C17.9548 47.0006 17.0609 47.0006 16.1821 47.0006C15.5761 47.0006 15.7124 46.5677 15.7124 46.243C15.7124 43.9394 15.7124 41.6048 15.7124 39.3476C15.6367 38.389 15.6518 37.384 15.6215 36.3946L15.6973 36.3327ZM15.0609 53.6178C15.6017 52.3541 15.8206 50.9713 15.6973 49.598C15.6973 48.9178 15.8639 48.7477 16.5458 48.7477C20.6973 48.7477 24.8488 48.7477 29.0003 48.7477C29.6821 48.7477 29.8488 48.9332 29.8185 49.6135C29.7477 50.873 29.9228 52.1342 30.3336 53.3241C30.6215 54.0816 30.3336 54.4218 29.5306 54.4218H22.6064C20.2579 54.4218 17.9245 54.4218 15.5761 54.4218C14.8942 54.4991 14.773 54.2053 14.9851 53.6797L15.0609 53.6178ZM30.4548 58.658H22.8791C20.0458 58.658 17.2276 58.658 14.4094 58.658C13.8639 58.658 13.6518 58.5343 13.6518 57.9159C13.6518 56.2307 13.6518 56.2771 15.2882 56.2616C18.0458 56.2616 20.8033 56.2616 23.5609 56.2616C26.3185 56.2616 28.8185 56.2616 31.4397 56.2616C31.9245 56.2616 32.0306 56.4162 32.0457 56.88C32.1064 58.6735 32.1367 58.658 30.4548 58.658Z" fill="white"/>
<path d="M14.7576 23.7631C15.6988 23.7949 16.6365 23.6318 17.5142 23.2835C18.3919 22.9353 19.1913 22.4091 19.8642 21.7369C20.5371 21.0646 21.0695 20.2602 21.4293 19.3721C21.789 18.4841 21.9687 17.5308 21.9574 16.57C21.9462 15.6091 21.7442 14.6606 21.3637 13.7816C20.9832 12.9026 20.4321 12.1114 19.7436 11.4557C19.0552 10.8001 18.2436 10.2936 17.358 9.96689C16.4724 9.64016 15.5311 9.49995 14.5909 9.55473C12.7997 9.6591 11.117 10.4643 9.89286 11.8027C8.66874 13.1411 7.99758 14.9096 8.01905 16.7402C8.04053 18.5708 8.75298 20.3225 10.0081 21.6306C11.2633 22.9387 12.9645 23.7026 14.7576 23.7631ZM14.7576 11.9048C15.9913 11.9191 17.1688 12.4329 18.0312 13.3332C18.8936 14.2335 19.3702 15.4465 19.3561 16.7053C19.342 17.9642 18.8385 19.1657 17.9562 20.0457C17.0739 20.9257 15.8852 21.412 14.6515 21.3977C14.0443 21.3979 13.4431 21.2739 12.8836 21.0331C12.3241 20.7924 11.8175 20.4396 11.3938 19.9957C10.9701 19.5518 10.6378 19.0258 10.4167 18.4487C10.1955 17.8716 10.0899 17.2552 10.1061 16.6357C10.0936 16.0083 10.2059 15.3849 10.4364 14.8031C10.6669 14.2212 11.0107 13.6932 11.447 13.2509C11.8832 12.8086 12.4029 12.4613 12.9746 12.2299C13.5463 11.9985 14.158 11.8879 14.7728 11.9048H14.7576Z" fill="white"/>
<path d="M75.0006 21.0884C74.9659 20.8329 74.9153 20.5798 74.8491 20.3309C74.624 18.7011 74.0375 17.1451 73.1343 15.7815C72.2311 14.4178 71.035 13.2823 69.637 12.4613C67.6332 11.15 65.2401 10.6024 62.8794 10.9153C59.9951 11.3857 57.3375 12.7959 55.3036 14.9351C54.7582 15.4762 54.4855 15.4916 54.1824 14.7341C53.508 13.132 52.4692 11.717 51.1521 10.6061C49.8841 9.48455 48.3939 8.65537 46.7831 8.17511C45.1724 7.69484 43.4791 7.57478 41.8188 7.82313C39.7836 8.04484 37.8157 8.69523 36.0396 9.73313C34.2635 10.771 32.7179 12.1739 31.5006 13.8528C30.9249 14.6258 31.137 15.5535 32.0309 15.7081C33.8037 16.0173 35.6218 16.6512 37.3794 15.6153C37.7127 15.4298 38.0612 15.3061 38.3643 15.6153C38.5994 15.9285 38.9382 16.1437 39.3174 16.2205C39.6967 16.2973 40.0903 16.2306 40.4249 16.0328C40.5915 16.0328 40.8643 15.8627 40.9855 16.0328C41.0256 16.1343 41.0355 16.2457 41.014 16.3529C40.9924 16.4602 40.9403 16.5585 40.8643 16.6357C40.7275 16.7907 40.5751 16.9306 40.4097 17.0532C38.3921 18.6984 36.8274 20.8498 35.8687 23.2969C34.9099 25.744 34.5899 28.4031 34.94 31.0142C34.9339 31.2425 34.9941 31.4675 35.1128 31.661C35.2316 31.8546 35.4037 32.008 35.6076 32.1022C35.8115 32.1963 36.0381 32.2269 36.2589 32.1901C36.4798 32.1533 36.6851 32.0508 36.8491 31.8955C38.8501 30.5337 40.595 28.816 42.0006 26.8244C42.3188 26.376 42.6067 25.773 42.9552 26.8244C43.0016 27.0271 43.1028 27.2125 43.2474 27.3594C43.3919 27.5064 43.5739 27.6091 43.7727 27.6558C43.9716 27.7025 44.1793 27.6913 44.3722 27.6236C44.5652 27.5559 44.7356 27.4343 44.8643 27.2727C45.4552 26.7161 46.0309 26.1595 46.5915 25.5566C47.1521 24.9536 47.4703 24.6753 47.9552 25.5566C48.0038 25.6332 48.0683 25.6978 48.1443 25.746C48.2203 25.7941 48.3057 25.8244 48.3946 25.8349C49.2127 25.8349 49.0006 26.3142 48.8794 26.8089C48.243 29.2826 47.6673 31.7563 47.1673 34.261C46.0325 39.8114 45.3483 45.4479 45.1218 51.1132C45.1218 51.778 44.8643 51.9171 44.2733 51.9017C42.8491 51.9017 41.4249 51.9017 40.0006 51.9017C39.637 51.9017 39.243 51.9017 39.2279 52.4119C39.2127 52.9221 39.2279 53.2467 39.7733 53.3704C40.0263 53.4406 40.2849 53.4871 40.5461 53.5096H44.0764C44.94 53.5096 45.1218 53.7724 45.1067 54.5764C45.0897 58.2499 45.4605 61.9146 46.2127 65.5071C46.3037 66.0173 46.2127 66.1719 45.7127 66.2956C44.8652 66.4015 44.0379 66.636 43.2582 66.9913C43.0189 67.0855 42.8234 67.2685 42.711 67.5037C42.5986 67.7389 42.5776 68.0088 42.6521 68.2591C42.6739 68.4017 42.7237 68.5384 42.7987 68.6608C42.8737 68.7832 42.9723 68.8888 43.0885 68.9711C43.2046 69.0535 43.3359 69.111 43.4745 69.1401C43.6131 69.1692 43.756 69.1693 43.8946 69.1404C44.2988 69.0662 44.6985 68.9681 45.0915 68.8466C49.3643 67.8571 53.6218 67.4397 57.7279 69.5578C57.8586 69.6493 58.0072 69.7106 58.1635 69.7375C58.3198 69.7644 58.4799 69.7562 58.6328 69.7135C58.7856 69.6708 58.9275 69.5947 59.0486 69.4904C59.1697 69.3861 59.2671 69.2561 59.334 69.1095C59.4066 68.9722 59.4497 68.8207 59.4604 68.6651C59.4712 68.5095 59.4493 68.3534 59.3962 68.2071C59.3432 68.0608 59.2602 67.9277 59.1528 67.8167C59.0454 67.7057 58.916 67.6194 58.7733 67.5634C58.1844 67.1739 57.5603 66.8426 56.9097 66.5739C56.6454 66.5057 56.4091 66.3537 56.2349 66.1398C56.0606 65.9259 55.9574 65.661 55.94 65.3834C55.1218 61.9357 54.6521 58.4106 54.1067 54.901C54.0158 54.3445 54.1067 54.1435 54.637 54.1899C55.743 54.1899 56.8643 54.3599 57.9703 54.4836C59.5612 54.6691 61.1521 54.8856 62.743 55.0866C64.2704 55.1938 65.789 55.4056 67.2885 55.7205C68.6824 56.0915 70.1067 56.107 71.4855 56.478C71.9097 56.6017 72.3188 56.2925 72.4552 55.7514C72.5915 55.2103 72.2885 55.0557 71.9097 54.9165C71.6194 54.7741 71.3145 54.6652 71.0006 54.5918C68.3491 54.1435 65.6976 53.6796 63.0461 53.3241C60.3946 52.9685 57.4703 52.6747 54.6673 52.4119C54.0764 52.4119 53.8946 52.1181 53.8643 51.6079C53.7582 49.8299 53.6067 48.0519 53.5612 46.274C53.3832 40.039 53.9737 33.8058 55.3188 27.7211C55.4097 27.2882 55.4855 26.7934 56.1673 27.1336C56.3073 27.1914 56.4608 27.2062 56.6089 27.1759C56.757 27.1457 56.8932 27.0719 57.0006 26.9635C57.3643 26.6079 57.5915 26.7471 57.7885 27.18C58.1521 28.0303 58.5309 28.8806 58.9552 29.7155C59.5764 30.906 60.2885 30.9833 61.137 29.9784C61.2582 29.8392 61.334 29.6691 61.5461 29.731C61.7582 29.7928 61.6673 29.9629 61.6976 30.102C62.3128 32.5704 63.3377 34.9131 64.7279 37.0284C65.4552 38.1571 66.243 38.1571 66.94 36.9511C68.6137 33.965 69.2189 30.4783 68.6521 27.0872C68.2667 24.7938 67.3238 22.6356 65.9097 20.8101C65.6521 20.47 65.5764 20.0835 65.9097 19.8361C66.243 19.5887 66.44 20.0062 66.6218 20.2072C67.0764 20.7019 67.44 21.3358 68.2279 21.1503C69.0158 20.9647 69.0158 21.3513 69.137 21.8151C69.3803 22.6457 69.9212 23.3522 70.6521 23.7941C71.3657 24.2728 72.1277 24.6719 72.9249 24.9845C74.0158 25.4329 74.6824 24.9845 74.8643 23.8095C74.8643 23.5621 74.8643 23.3148 74.9552 22.9746C75.0254 22.3485 75.0406 21.7173 75.0006 21.0884ZM38.9703 13.0489C38.5764 12.5541 38.0006 12.786 37.4552 13.0489C36.8224 13.4314 36.1385 13.7178 35.4249 13.8992C35.2582 13.8992 35.0461 13.8992 34.9552 13.76C34.8643 13.6209 34.9552 13.4818 35.1218 13.389C39.334 9.43104 47.1521 8.64255 50.94 13.7446C51.3881 14.3071 51.7554 14.9318 52.0309 15.5999C49.6211 14.6166 46.9656 14.4486 44.4552 15.1206C44.0612 15.2443 43.9552 15.1206 44.0309 14.7341C44.1069 14.4961 44.1676 14.2534 44.2127 14.0074C44.2671 13.7831 44.2526 13.5472 44.1713 13.3315C44.09 13.1158 43.9458 12.9308 43.7582 12.8015C43.5837 12.6888 43.3814 12.629 43.1749 12.629C42.9683 12.629 42.7661 12.6888 42.5915 12.8015C42.1521 13.0025 41.7279 13.2035 41.3037 13.4354C40.4552 13.791 39.6976 14.0074 38.9703 13.0489ZM48.2127 20.9493C47.2582 21.8615 46.3037 22.7582 45.3794 23.7168C44.94 24.1806 44.743 24.1187 44.6218 23.5003C44.5461 23.1602 44.4552 22.8046 44.3643 22.449C44.3078 22.2114 44.1819 21.997 44.0034 21.8341C43.8248 21.6712 43.6019 21.5675 43.3643 21.5368C43.1401 21.5144 42.9143 21.5595 42.715 21.6667C42.5158 21.7739 42.3516 21.9384 42.243 22.1398C41.8036 22.8664 41.3794 23.5931 40.9552 24.3197C40.1472 25.7604 39.125 27.0643 37.9249 28.1849C37.7582 28.3395 37.6521 28.6023 37.2733 28.525C37.2525 26.5025 37.7766 24.5129 38.7885 22.7737C39.5322 21.2618 40.6235 19.9561 41.9691 18.9681C43.3147 17.98 44.8747 17.3389 46.5158 17.0996C48.5353 16.8953 50.5673 17.3327 52.334 18.3519C52.9097 18.6456 52.8491 19.5733 52.243 20.1917C52.0006 20.4545 51.6976 20.6555 51.44 20.9029C50.9097 21.3976 50.4703 22.0315 49.9249 20.9029C49.5612 20.1917 48.8643 20.3154 48.2127 20.9493ZM53.7885 24.227C52.7231 27.8415 51.9777 31.5463 51.5612 35.2968C51.107 39.48 50.9702 43.6927 51.1521 47.8973C51.3035 51.2512 51.6221 54.5951 52.1067 57.9159C52.44 60.1886 52.8643 62.4304 53.334 64.6722C53.5612 65.7699 53.5764 65.739 52.5158 65.7081C51.4818 65.6306 50.4437 65.6306 49.4097 65.7081C48.743 65.7854 48.5764 65.5226 48.4552 64.9969C47.9892 62.6869 47.6804 60.3467 47.5309 57.9932C47.4249 56.4471 47.3946 55.0247 47.3491 54.2362C47.5505 44.0054 49.1258 33.851 52.0309 24.0569C52.0854 23.9157 52.131 23.7711 52.1673 23.624C52.2097 23.3551 52.3285 23.1049 52.5089 22.9043C52.6894 22.7037 52.9236 22.5615 53.1824 22.4954C53.4097 22.449 53.9703 23.8559 53.7885 24.227ZM66.3946 29.6691C66.4129 30.8627 66.2494 32.0519 65.9097 33.1942C65.9097 33.3797 65.9097 33.6735 65.6067 33.6889C65.3036 33.7044 65.334 33.457 65.2279 33.2715C64.2396 31.1671 63.6534 28.8898 63.5006 26.5615C63.4097 25.8658 63.2885 25.201 62.5309 25.0155C61.7733 24.8299 61.3643 25.4174 61.0158 25.9586C60.8188 26.2369 60.743 26.7934 60.3794 26.7471C60.0158 26.7007 59.9552 26.1595 59.8037 25.8194C59.3188 24.7835 58.8643 23.7322 58.3794 22.7273C57.8946 21.7223 57.243 21.5213 56.3643 22.2325C56.1976 22.3717 56.0158 22.6036 55.8946 22.2325C55.5309 21.3513 54.7127 20.6865 55.0915 19.4805C55.2885 18.9085 55.5915 18.8312 56.0612 18.7693C58.1293 18.4643 60.2364 18.9186 62.0068 20.0512C63.7772 21.1839 65.0959 22.9212 65.7279 24.9536C66.2681 26.4624 66.5151 28.064 66.4552 29.6691H66.3946ZM72.4552 21.9388C72.3036 22.0934 72.1218 21.9388 71.9703 21.8615C71.6027 21.657 71.3221 21.3211 71.1824 20.9184C70.9855 20.2999 70.743 19.6815 70.5006 19.0631C70.4545 18.904 70.3755 18.7568 70.2689 18.6315C70.1623 18.5062 70.0305 18.4057 69.8826 18.3368C69.7347 18.268 69.574 18.2323 69.4114 18.2322C69.2487 18.2321 69.088 18.2677 68.94 18.3364C68.8304 18.3965 68.7099 18.433 68.5859 18.4436C68.4619 18.4542 68.3371 18.4388 68.2192 18.3982C68.1014 18.3576 67.9929 18.2928 67.9006 18.2077C67.8082 18.1226 67.734 18.0191 67.6824 17.9035C67.3643 17.4242 67.0461 16.945 66.6976 16.4966C66.5877 16.2947 66.4212 16.1309 66.2194 16.0262C66.0177 15.9215 65.7899 15.8807 65.5653 15.9089C65.3407 15.9372 65.1295 16.0332 64.9587 16.1847C64.7879 16.3363 64.6653 16.5364 64.6067 16.7594C64.334 17.316 64.3188 18.1973 63.7733 18.3828C63.2279 18.5683 62.7279 17.8262 62.1673 17.5788C60.8351 16.912 59.3897 16.5131 57.9097 16.4038C57.743 16.4038 57.5461 16.4038 57.4249 16.2956C57.3037 16.1874 57.4249 16.0328 57.5764 15.9091C59.3321 14.2891 61.577 13.3292 63.94 13.188C66.1568 13.211 68.2829 14.0895 69.8908 15.647C71.4986 17.2045 72.469 19.3254 72.6067 21.5832C72.6067 21.7378 72.6218 21.9079 72.5461 22.0006L72.4552 21.9388Z" fill="white"/>
<path d="M4.60585 17.8262C5.84828 17.8262 6.63616 17.3315 6.62101 16.5739C6.60585 15.8163 5.87858 15.368 4.65131 15.3525C3.42404 15.337 2.62101 15.7545 2.5907 16.5584C2.5604 17.3624 3.33313 17.8262 4.60585 17.8262Z" fill="white"/>
<path d="M22.5146 16.6203C22.5146 17.4088 23.2419 17.8881 24.5298 17.8881C25.8177 17.8881 26.5146 17.3933 26.5146 16.6358C26.5146 15.8782 25.7722 15.4144 24.545 15.4144C23.3177 15.4144 22.545 15.8163 22.5146 16.6203Z" fill="white"/>
<path d="M14.7575 8.71985C15.5151 8.71985 15.9394 7.96228 15.9394 6.6945C15.9394 5.42672 15.5606 4.62276 14.7575 4.59184C13.9545 4.56092 13.5303 5.34941 13.5303 6.64812C13.5303 7.94682 14.0151 8.73531 14.7575 8.71985Z" fill="white"/>
<path d="M13.5303 26.4842C13.5303 27.752 14.0151 28.556 14.7575 28.5405C15.5 28.5251 15.9394 27.7829 15.9394 26.5306C15.9394 25.2783 15.5606 24.4589 14.7575 24.428C13.9545 24.397 13.5303 25.1701 13.5303 26.4842Z" fill="white"/>
<path d="M20.6816 22.2944C20.121 22.8355 20.3331 23.7168 21.227 24.6444C22.121 25.572 23.0149 25.773 23.5301 25.2164C24.0452 24.6599 23.8483 23.825 22.9695 22.9283C22.0907 22.0315 21.2725 21.7378 20.6816 22.2944Z" fill="white"/>
<path d="M6.42428 23.2839C5.54549 24.1806 5.31821 25.1082 5.86367 25.6339C6.40912 26.1596 7.22731 25.9586 8.10609 25.0618C8.98488 24.1651 9.27276 23.3302 8.72731 22.7273C8.18185 22.1243 7.33337 22.3562 6.42428 23.2839Z" fill="white"/>
<path d="M22.8946 10.2041C23.8643 9.23005 24.0613 8.45702 23.5158 7.86951C22.9704 7.282 22.1219 7.49845 21.2279 8.4261C20.334 9.35374 20.1219 10.235 20.6673 10.7761C21.2128 11.3173 21.9703 11.0853 22.8946 10.2041Z" fill="white"/>
<path d="M8.74284 10.4978C9.258 9.94125 9.04587 9.10637 8.18224 8.20965C7.3186 7.31292 6.47012 7.01917 5.89436 7.57576C5.3186 8.13234 5.53072 8.99814 6.43981 9.92579C7.3489 10.8534 8.21254 11.039 8.74284 10.4978Z" fill="white"/>
<path d="M1.31818 54.2053C0.833333 54.2826 0.0757576 54.4372 0 55.1639C0 55.6586 0.787879 56.0451 1.59091 55.9369C2.60957 55.8819 3.62263 55.7475 4.62121 55.5349C5.30303 55.3494 6.13636 55.5349 6.63636 54.7155L7.31818 53.4632C7.16688 53.4516 7.01494 53.4516 6.86364 53.4632C5 53.6178 3.13636 53.8188 1.31818 54.2053Z" fill="white"/>
</g>
<defs>
<clipPath id="clip0_1000_5306">
<rect width="75" height="75" fill="white"/>
</clipPath>
</defs>
</svg>
