<svg width="75" height="75" viewBox="0 0 75 75" fill="none" xmlns="http://www.w3.org/2000/svg">
<g clip-path="url(#clip0_1000_5332)">
<path d="M74.0844 36.0914C72.6741 33.0457 71.0838 30.0914 69.3884 27.1827C64.0662 18.2343 57.8251 9.88311 50.7697 2.26904C49.8718 1.0618 48.5408 0.263024 47.0659 0.0463095C45.591 -0.170405 44.0915 0.212452 42.8931 1.11168C37.7021 4.38071 32.5961 7.78173 27.5751 11.3147C20.6287 16.1726 13.8173 21.1675 7.18599 26.4518C6.05486 27.2272 5.26562 28.4192 4.98556 29.7751C4.7055 31.1311 4.95662 32.5445 5.68569 33.7157C5.91074 34.1574 5.88073 34.401 5.52066 34.7056C4.39544 35.6497 3.30022 36.6091 2.205 37.5685C1.60494 37.9663 1.1009 38.4963 0.7303 39.1189C0.359703 39.7416 0.132077 40.441 0.0643312 41.1652C-0.00341497 41.8895 0.0904592 42.6199 0.338981 43.3022C0.587503 43.9845 0.984285 44.6013 1.49986 45.1066C4.84053 49.1675 8.34122 53.1421 12.002 57.0305C17.2126 62.5507 22.7223 67.772 28.5053 72.6701C29.6377 73.7494 31.0468 74.483 32.5711 74.7868C33.4431 75.0831 34.3912 75.0507 35.2416 74.6954C48.665 67.0761 61.0308 57.679 72.014 46.7513C72.972 45.8382 73.7333 44.7335 74.2497 43.5068C74.7662 42.2802 75.0266 40.9583 75.0146 39.6244C75.0118 38.3847 74.6913 37.1671 74.0844 36.0914ZM31.986 71.8629C31.8059 72.0761 31.5959 71.8629 31.4308 71.8629C30.4862 71.2966 29.6013 70.6333 28.7903 69.8833C19.5691 61.8519 11.0228 53.055 3.24021 43.5838C2.95379 43.2871 2.73018 42.9342 2.58312 42.5466C2.43605 42.159 2.36864 41.745 2.38503 41.33C2.41005 41.0209 2.49598 40.7201 2.63773 40.4454C2.77948 40.1708 2.97416 39.9278 3.2102 39.731L7.18599 36.3807C7.53106 36.0761 7.75611 36.0914 8.07117 36.3807C8.7013 37.0965 9.36143 37.7817 10.0216 38.4822C10.6817 39.1827 10.4717 39.3807 9.85653 39.7919C8.8811 40.4198 7.99731 41.1836 7.231 42.0609C6.85593 42.5178 6.7059 42.9594 7.231 43.3858C7.75611 43.8122 8.08617 43.5533 8.44625 43.1574C9.24833 42.2265 10.1901 41.4299 11.2368 40.797C11.5819 40.6142 11.8369 40.599 12.092 40.9036L12.197 41.0406C13.6973 42.8528 13.7873 42.5635 11.9419 43.7665C11.2026 44.2648 10.5096 44.8306 9.87153 45.4569C9.45145 45.8528 8.94135 46.2792 9.48145 46.8883C10.0216 47.4975 10.4867 47.0558 10.9818 46.6294C11.8849 45.7535 12.893 44.9962 13.9824 44.3756C14.8975 43.8122 15.1526 44.6497 15.5727 45.1218C15.9928 45.5939 15.7227 45.9289 15.3026 46.2944C14.4624 46.9949 13.6673 47.8173 12.8571 48.533C12.7691 48.5902 12.695 48.6669 12.6404 48.7574C12.5858 48.8478 12.5522 48.9497 12.5421 49.0553C12.532 49.1609 12.5456 49.2674 12.582 49.3669C12.6184 49.4664 12.6766 49.5561 12.7521 49.6294C12.8211 49.7101 12.9064 49.7748 13.0022 49.8191C13.0979 49.8635 13.202 49.8864 13.3072 49.8864C13.4125 49.8864 13.5165 49.8635 13.6123 49.8191C13.708 49.7748 13.7933 49.7101 13.8623 49.6294C14.6725 48.9289 15.5127 48.2589 16.2928 47.5279C16.7879 47.0558 17.133 47.0102 17.5981 47.5279C18.7383 48.9594 18.7533 48.9442 17.373 50.1624C16.8779 50.5888 16.3978 51.0305 15.8727 51.4721C15.3476 51.9137 15.1976 52.3553 15.7077 52.8579C16.2178 53.3604 16.5629 52.9645 16.8929 52.599C17.4966 51.9733 18.1489 51.3979 18.8433 50.8782C19.3834 50.4366 19.8035 50.5888 20.1786 51.1066C20.5537 51.6244 21.0488 52.0051 20.2836 52.6294C19.6097 53.1737 18.9731 53.7639 18.3782 54.3959C18.0182 54.7766 17.6431 55.2944 18.2132 55.797C18.7833 56.2995 19.1434 55.9036 19.5335 55.5533C20.0738 54.9513 20.6719 54.4055 21.3188 53.9239C21.3747 53.8663 21.4412 53.8206 21.5146 53.7894C21.588 53.7582 21.6668 53.7421 21.7464 53.7421C21.826 53.7421 21.9048 53.7582 21.9782 53.7894C22.0516 53.8206 22.1182 53.8663 22.174 53.9239C23.1942 54.8528 23.1942 55.2487 22.174 56.1015L20.8087 57.2589C20.4636 57.5635 20.1786 57.8985 20.5687 58.401C20.6285 58.4963 20.7085 58.577 20.8029 58.637C20.8972 58.697 21.0036 58.735 21.1142 58.7481C21.2248 58.7612 21.3369 58.7492 21.4424 58.7129C21.5478 58.6765 21.644 58.6168 21.7239 58.5381C22.3258 58.1554 22.8799 57.7003 23.3742 57.1827C23.7643 56.7716 24.0794 56.8173 24.3794 57.2741C24.4786 57.4585 24.5888 57.6365 24.7095 57.8071C25.2946 58.4772 25.3546 59.0558 24.5445 59.6497C24.1895 59.9691 23.8814 60.3383 23.6293 60.7462C23.3292 61.1269 23.4793 61.4619 23.7943 61.7665C23.8511 61.8482 23.9264 61.9149 24.0139 61.9609C24.1013 62.0069 24.1984 62.0309 24.2969 62.0309C24.3954 62.0309 24.4925 62.0069 24.58 61.9609C24.6674 61.9149 24.7427 61.8482 24.7995 61.7665C25.0996 61.4467 25.3546 61.0812 25.6697 60.7462C25.9848 60.4112 26.2698 60.4721 26.5249 60.8833C28.5283 64.2271 30.3611 67.6733 32.016 71.2081C31.986 71.5127 32.121 71.6954 31.986 71.8629ZM70.6937 44.8629C64.8587 50.6959 58.6053 56.0813 51.985 60.9746C46.7497 64.8195 41.3158 68.3778 35.7067 71.6345C34.9866 72.0457 34.6565 72.0305 34.2064 71.2081C27.6293 57.2368 18.8694 44.4371 8.26621 33.3046C6.55587 31.5076 6.76591 29.665 8.7163 28.0812C18.8733 20.0254 29.4504 12.5939 40.2976 5.51269C41.6929 4.59899 43.0882 3.68528 44.5135 2.81726C45.1267 2.36709 45.8848 2.16872 46.636 2.26191C47.3872 2.35511 48.0759 2.73297 48.5643 3.3198C57.996 13.1861 65.8477 24.4905 71.8339 36.8223C72.4329 38.0075 72.7222 39.3288 72.6741 40.6599C72.5745 42.2682 71.8646 43.7747 70.6937 44.8629Z" fill="white"/>
<path d="M56.5464 33.335C57.8817 32.3452 59.202 31.3249 60.5072 30.2893C60.7923 30.0457 61.1073 29.7411 60.7323 29.2995C60.6712 29.2046 60.5911 29.1237 60.4972 29.0623C60.4033 29.0009 60.2977 28.9602 60.1873 28.943C60.0769 28.9257 59.9642 28.9323 59.8564 28.9622C59.7487 28.9922 59.6484 29.0448 59.562 29.1168C59.442 29.1929 59.322 29.2995 59.202 29.3909C56.9515 31.0812 54.7011 32.7868 52.4206 34.4467C45.9893 39.1371 39.543 43.8173 33.0817 48.4873C31.9715 49.2792 30.8463 50.0102 29.7511 50.8477C29.421 51.0761 29.1209 51.3807 29.286 51.8223C29.3479 52.0027 29.4577 52.1622 29.6033 52.2831C29.749 52.404 29.9247 52.4817 30.1111 52.5076L30.5162 52.2335L33.6368 50.0254C41.3484 44.5736 48.9699 39.0152 56.5464 33.335Z" fill="white"/>
<path d="M33.3519 29.8782C33.682 29.6497 34.0721 29.4365 34.057 28.9797C34.0687 28.8048 34.0329 28.63 33.9535 28.4743C33.8742 28.3185 33.7543 28.1879 33.607 28.0964C33.3069 27.8832 33.0518 28.0964 32.7968 28.2335C30.6064 29.6345 28.596 31.2792 26.5255 32.802C24.05 34.6294 21.6046 36.4569 19.1441 38.3147C18.784 38.5888 18.3339 38.9086 18.739 39.4873C18.808 39.6045 18.9029 39.7039 19.0162 39.7776C19.1295 39.8513 19.258 39.8973 19.3918 39.9121C19.5255 39.9268 19.6609 39.9099 19.7871 39.8626C19.9133 39.8154 20.027 39.739 20.1193 39.6396L21.5445 38.5584C25.5053 35.6193 29.3161 32.6041 33.3519 29.8782Z" fill="white"/>
<path d="M36.0068 33.3503C36.7569 32.8629 36.8769 32.1624 36.2918 31.8274C35.7067 31.4924 35.4967 31.8274 35.1516 32.0102C31.9677 33.98 28.8925 36.1254 25.9397 38.4366C24.4394 39.5939 23.0292 40.8122 21.5739 42C21.4056 42.0964 21.2769 42.2507 21.2109 42.435C21.1449 42.6193 21.1459 42.8215 21.2138 43.0051C21.2521 43.1673 21.345 43.3109 21.4765 43.411C21.608 43.5111 21.7698 43.5614 21.9339 43.5533C22.0973 43.5435 22.257 43.5008 22.4039 43.4275C22.5507 43.3543 22.6817 43.2521 22.7891 43.1269C25.9939 40.3661 29.3554 37.7982 32.8561 35.4365C33.9514 34.6751 35.0166 34.0355 36.0068 33.3503Z" fill="white"/>
<path d="M38.8581 36.731C39.1881 36.5178 39.5332 36.3198 39.5482 35.7563C39.527 35.6236 39.4751 35.4979 39.3969 35.3894C39.3187 35.2809 39.2163 35.1927 39.0981 35.132C38.678 34.8731 38.363 35.132 38.0329 35.3452C34.7183 37.4124 31.5362 39.6911 28.506 42.1675C27.2907 43.1726 26.1055 44.2234 24.9203 45.2132C24.8263 45.2739 24.7469 45.3552 24.6878 45.4509C24.6286 45.5467 24.5912 45.6547 24.5783 45.7669C24.5654 45.8792 24.5772 45.993 24.613 46.1C24.6488 46.2071 24.7077 46.3047 24.7852 46.3858C24.8571 46.4723 24.9466 46.5418 25.0477 46.5896C25.1488 46.6373 25.2589 46.662 25.3704 46.662C25.4818 46.662 25.5919 46.6373 25.693 46.5896C25.7941 46.5418 25.8836 46.4723 25.9555 46.3858L26.5706 45.8528C27.5458 45.0152 28.491 44.1777 29.4812 43.3706C32.4703 40.9652 35.6018 38.7478 38.8581 36.731Z" fill="white"/>
<path d="M29.8708 25.1269C29.3307 24.3655 28.7755 24.9442 28.2654 25.2487L28.0554 25.4162C25.1898 27.5025 22.4293 29.7107 19.6837 31.9645C18.4685 32.9695 17.2833 34.0051 16.083 35.0102C15.9339 35.113 15.8213 35.2617 15.7618 35.4345C15.7024 35.6073 15.6993 35.7948 15.7529 35.9695C15.8035 36.1119 15.8948 36.2358 16.015 36.3253C16.1353 36.4148 16.2791 36.4659 16.4281 36.4721C16.8176 36.4505 17.1836 36.2757 17.4483 35.9848C21.229 32.665 25.1898 29.5584 29.2406 26.5888C29.7357 26.2538 30.4259 25.8883 29.8708 25.1269Z" fill="white"/>
<path d="M27.4251 22.9036C27.6186 22.8202 27.7779 22.6717 27.8763 22.4831C27.9747 22.2945 28.0061 22.0773 27.9652 21.868C27.9135 21.711 27.8178 21.5727 27.69 21.4699C27.5621 21.3672 27.4075 21.3044 27.2451 21.2893C26.915 21.2893 26.675 21.4264 26.4199 21.5787C23.1236 23.5249 19.9788 25.7242 17.013 28.1574C15.9328 29.0558 14.8826 29.9848 13.8174 30.8985C13.6328 31.0249 13.4963 31.2118 13.4308 31.4279C13.3653 31.644 13.3747 31.8763 13.4573 32.0863C13.5165 32.2279 13.6218 32.3446 13.7557 32.4167C13.8896 32.4888 14.0438 32.5119 14.1925 32.4822C14.5675 32.4822 14.7776 32.2538 15.0176 32.0254C17.6238 29.6182 20.413 27.4236 23.3593 25.4619C24.6946 24.5787 26.0598 23.7868 27.4251 22.9036Z" fill="white"/>
<path d="M45.7741 54.9137C45.8148 54.7431 45.8026 54.5638 45.7392 54.4005C45.6758 54.2371 45.5643 54.0976 45.4199 54.001C45.2754 53.9043 45.1051 53.8553 44.9322 53.8606C44.7593 53.8659 44.5922 53.9252 44.4538 54.0305C41.1669 55.8114 38.0394 57.8802 35.1069 60.2132C34.7619 60.4873 34.3568 60.7919 34.7769 61.3401C34.8431 61.4501 34.9334 61.5431 35.0408 61.6118C35.1482 61.6806 35.2698 61.7233 35.3961 61.7365C35.5224 61.7498 35.65 61.7333 35.769 61.6883C35.888 61.6433 35.9951 61.5711 36.0821 61.4772C38.9765 59.2221 42.0303 57.1861 45.219 55.3858C45.519 55.2792 45.7741 55.0812 45.7741 54.9137Z" fill="white"/>
<path d="M46.4041 57.9289C46.1439 57.943 45.8957 58.0448 45.699 58.2183C42.9801 59.7312 40.3816 61.4572 37.9274 63.3807C37.4623 63.7462 36.9822 64.1117 36.5471 64.5228C36.4628 64.5873 36.3931 64.6694 36.3427 64.7636C36.2924 64.8578 36.2627 64.9619 36.2556 65.0689C36.2485 65.1758 36.2641 65.283 36.3015 65.3833C36.3389 65.4835 36.3971 65.5744 36.4721 65.6497C36.5934 65.8046 36.7692 65.9055 36.9624 65.931C37.1556 65.9566 37.351 65.9049 37.5073 65.7868C37.6535 65.6888 37.7938 65.582 37.9274 65.467C40.6299 63.3022 43.4997 61.362 46.5091 59.665C46.7576 59.5611 46.9712 59.3866 47.1243 59.1624C47.2044 59.0351 47.247 58.8871 47.247 58.736C47.247 58.5849 47.2044 58.437 47.1243 58.3096C47.0632 58.1738 46.9591 58.0626 46.8287 57.9936C46.6982 57.9246 46.5488 57.9019 46.4041 57.9289Z" fill="white"/>
<path d="M36.0068 56.5127L42.6681 51.9442C42.8499 51.8524 43.0115 51.724 43.143 51.567C43.2746 51.4099 43.3733 51.2274 43.4333 51.0305C43.4214 50.8873 43.3735 50.7497 43.2941 50.6308C43.2147 50.512 43.1066 50.4158 42.98 50.3516C42.8535 50.2873 42.7128 50.2572 42.5715 50.2641C42.4301 50.271 42.2929 50.3146 42.173 50.3909C41.4679 50.8325 40.7777 51.3046 40.1026 51.7766L33.9064 56.132C33.4863 56.4365 32.9312 56.7411 33.3362 57.3959C33.7413 58.0508 34.3565 57.7766 34.8365 57.3959C35.3166 57.0152 35.6317 56.7716 36.0068 56.5127Z" fill="white"/>
<path d="M57.0115 49.2487L56.7714 49.3858C55.2906 50.4155 53.8681 51.5289 52.5106 52.7208C51.7904 53.3452 51.1003 54 50.4101 54.67C50.2666 54.7769 50.1651 54.932 50.1239 55.1078C50.0827 55.2835 50.1044 55.4684 50.1851 55.6294C50.2574 55.7651 50.3604 55.8813 50.4856 55.9687C50.6108 56.0561 50.7546 56.112 50.9052 56.132C51.2233 56.0692 51.5128 55.9036 51.7304 55.6599C52.2405 55.203 52.7206 54.7157 53.2307 54.2589C54.7025 52.9557 56.267 51.7647 57.9116 50.6954C58.3467 50.4061 58.6318 50.0254 58.2867 49.4924C58.2337 49.3751 58.1538 49.2725 58.0536 49.1931C57.9535 49.1137 57.836 49.0598 57.7111 49.0359C57.5863 49.012 57.4575 49.0189 57.3358 49.0559C57.2141 49.093 57.1028 49.1591 57.0115 49.2487Z" fill="white"/>
<path d="M55.9164 46.9492C56.0997 46.8832 56.2513 46.7489 56.3404 46.5735C56.4296 46.3982 56.4497 46.1949 56.3965 46.0051C56.335 45.8387 56.2297 45.6926 56.0922 45.5825C55.9547 45.4725 55.7902 45.4027 55.6164 45.3807L55.1063 45.5939C52.6047 46.8328 50.3029 48.4503 48.2799 50.3909C47.8898 50.7716 47.4397 51.1827 47.9949 51.7462C48.55 52.3096 48.9551 51.9594 49.3901 51.5482C50.4331 50.5302 51.5627 49.6079 52.7658 48.7919C53.786 48.1523 54.8362 47.5127 55.9164 46.9492Z" fill="white"/>
<path d="M54.2061 42.198C54.1481 42.0744 54.0631 41.9659 53.9575 41.8807C53.8519 41.7956 53.7286 41.736 53.5968 41.7066C53.4651 41.6773 53.3285 41.6788 53.1975 41.7112C53.0665 41.7435 52.9445 41.8059 52.8408 41.8934C51.5955 42.6548 50.3353 43.4162 49.1351 44.1929C47.9348 44.9695 47.1397 45.7157 46.1345 46.4619C45.9696 46.5686 45.8474 46.7313 45.7897 46.921C45.732 47.1107 45.7425 47.315 45.8194 47.4975C45.8642 47.6319 45.9459 47.7507 46.0548 47.8397C46.1638 47.9287 46.2955 47.9843 46.4345 48C46.5791 48.0033 46.7229 47.9766 46.857 47.9216C46.9911 47.8666 47.1128 47.7845 47.2147 47.6802C49.1937 46.0044 51.3409 44.5446 53.621 43.3249C54.011 43.0964 54.5361 42.8071 54.2061 42.198Z" fill="white"/>
<path d="M66.433 38.467C66.421 38.3193 66.3755 38.1765 66.3 38.0497C66.2245 37.9229 66.1211 37.8155 65.9979 37.736C65.8201 37.6553 65.6228 37.6295 65.4307 37.662C65.2385 37.6945 65.0601 37.7839 64.9177 37.9188C62.8929 39.2164 60.9895 40.6998 59.2316 42.3503C58.8265 42.731 58.5264 43.1726 58.9315 43.6751C59.3366 44.1777 59.8317 43.9797 60.2368 43.6751C62.0528 42.0381 63.9832 40.5367 66.0129 39.1827C66.1356 39.1077 66.2381 39.0032 66.3113 38.8783C66.3846 38.7535 66.4264 38.6122 66.433 38.467Z" fill="white"/>
<path d="M67.0188 41.3909C65.9086 42.1523 64.8284 42.9137 63.7632 43.7513C62.698 44.5888 61.8728 45.2741 60.9426 46.0812C60.8543 46.1393 60.7797 46.2163 60.7239 46.3068C60.6681 46.3973 60.6325 46.4991 60.6197 46.6051C60.6068 46.7111 60.6169 46.8186 60.6494 46.9201C60.6819 47.0217 60.7359 47.1148 60.8076 47.1929C60.8717 47.279 60.9527 47.3506 61.0456 47.4032C61.1385 47.4557 61.2412 47.488 61.347 47.4981C61.4529 47.5081 61.5597 47.4956 61.6605 47.4614C61.7614 47.4272 61.8541 47.3721 61.9328 47.2995C62.2929 47.0406 62.6229 46.7513 62.983 46.4772L67.709 42.8223C67.8718 42.7259 68.0131 42.5963 68.1242 42.4416C68.2352 42.287 68.3135 42.1107 68.3541 41.9239C68.3381 41.7748 68.2822 41.6329 68.1925 41.5137C68.1028 41.3946 67.9827 41.3025 67.8452 41.2476C67.7077 41.1928 67.558 41.1771 67.4123 41.2023C67.2667 41.2276 67.1306 41.2928 67.0188 41.3909Z" fill="white"/>
<path d="M57.1911 39.7462C57.5211 40.203 57.9711 40.1117 58.3761 39.8223L63.7011 35.7868C63.8285 35.7215 63.9354 35.6212 64.0096 35.4974C64.0838 35.3736 64.1224 35.2312 64.1211 35.0863C64.1211 34.3249 63.4311 34.0203 62.7711 34.5076C60.9411 35.8325 59.1561 37.2183 57.3561 38.5736C57.26 38.6318 57.178 38.711 57.116 38.8055C57.054 38.9001 57.0136 39.0075 56.9978 39.1199C56.982 39.2323 56.9911 39.3469 57.0246 39.4553C57.058 39.5636 57.1149 39.663 57.1911 39.7462Z" fill="white"/>
<path d="M40.8379 33.1218C41.7681 35.0102 41.7831 35.0102 43.5835 33.8832L43.7335 33.7919C48.2344 30.9137 52.7353 27.8985 56.9961 24.6548C57.9113 23.9695 57.9263 23.467 57.1462 22.6142C55.101 20.353 53.2442 17.9233 51.5951 15.3503C50.2368 13.2368 49.0091 11.0396 47.9193 8.77157C47.7393 8.37563 47.5593 7.91878 46.9591 7.91878C46.7341 7.94446 46.5209 8.03421 46.344 8.17766C41.483 11.2234 36.7721 14.4822 32.1512 17.8934C31.191 18.6091 31.146 19.1117 31.9561 20.0406C35.4962 23.965 38.485 28.367 40.8379 33.1218ZM34.0115 18.533C37.6573 15.8376 41.393 13.3096 45.2188 10.9188C46.314 10.2183 46.434 10.3096 47.1542 11.4213C49.5404 15.4712 52.2554 19.3119 55.2708 22.9036C55.6609 23.3147 55.6159 23.6802 55.1508 24.0152C51.475 26.7563 47.6493 29.3299 43.8385 31.797C43.6163 31.9307 43.3725 32.0235 43.1184 32.0711C42.4282 32.1777 42.2782 31.8122 42.0532 31.4924C40.0278 28.4467 38.3174 25.203 36.052 22.3553C35.3468 21.5025 34.6567 20.6345 33.9365 19.797C33.4564 19.3096 33.4864 18.9137 34.0115 18.533Z" fill="white"/>
</g>
<defs>
<clipPath id="clip0_1000_5332">
<rect width="75" height="75" fill="white"/>
</clipPath>
</defs>
</svg>
