<svg width="75" height="75" viewBox="0 0 75 75" fill="none" xmlns="http://www.w3.org/2000/svg">
<g clip-path="url(#clip0_1000_5422)">
<path d="M54.81 61.2195C54.81 64.2382 54.81 67.106 54.81 70.0492C54.8391 70.4201 54.7882 70.7929 54.6607 71.1421C54.5333 71.4913 54.3323 71.8087 54.0716 72.0724C53.8109 72.3362 53.4966 72.5401 53.1503 72.6703C52.8039 72.8004 52.4337 72.8537 52.065 72.8264H4.725C4.379 72.8431 4.03329 72.7879 3.70947 72.6641C3.38564 72.5404 3.09064 72.3508 2.8429 72.1071C2.59516 71.8635 2.4 71.5711 2.2696 71.2482C2.13919 70.9253 2.07635 70.5788 2.085 70.2303C2.085 68.9625 2.085 67.6795 2.085 66.3966C2.085 55.7606 2.085 45.1146 2.085 34.4585C2.085 24.6326 2.085 14.8369 2.085 5.01097C2.0485 4.62387 2.09691 4.23343 2.22679 3.86721C2.35668 3.50099 2.56488 3.16793 2.83669 2.89154C3.1085 2.61515 3.4373 2.40217 3.79987 2.26765C4.16244 2.13313 4.54994 2.08034 4.935 2.11301C20.595 2.11301 36.265 2.11301 51.945 2.11301C52.3392 2.05121 52.7423 2.08391 53.1216 2.20845C53.5009 2.33299 53.8456 2.54585 54.1277 2.82972C54.4098 3.11359 54.6214 3.46045 54.7451 3.8421C54.8689 4.22375 54.9014 4.6294 54.84 5.02607V24.2704C55.6004 23.1654 56.287 22.0107 56.895 20.814C56.9411 20.6154 56.9411 20.4088 56.895 20.2102C56.895 14.9426 56.895 9.6447 56.895 4.40723C56.907 3.25691 56.4654 2.14871 55.6669 1.32542C54.8684 0.502136 53.7781 0.0309133 52.635 0.0149994L4.215 0.0149994C3.09922 0.0383707 2.03607 0.496835 1.24972 1.29371C0.463383 2.09059 0.0153126 3.16361 0 4.28648C0 26.4237 0 48.5207 0 70.5775C0.073277 71.7211 0.555852 72.7992 1.35838 73.6123C2.16091 74.4254 3.22903 74.9183 4.365 74.9999C15.615 74.9093 26.865 74.9999 38.145 74.9999C42.765 74.9999 47.37 74.9999 51.975 74.9999C52.6475 75.0494 53.3227 74.9526 53.9547 74.716C54.5867 74.4794 55.1606 74.1086 55.6374 73.6288C56.1142 73.149 56.4827 72.5715 56.7178 71.9356C56.9529 71.2997 57.0492 70.6203 57 69.9436V58.4724C56.46 58.88 56.115 59.1969 55.71 59.4535C55.4055 59.6278 55.1581 59.8877 54.9982 60.2014C54.8384 60.5151 54.7729 60.8689 54.81 61.2195Z" fill="white"/>
<path d="M49.8755 32.7682C49.9245 32.538 49.8811 32.2977 49.7546 32.0997C49.6281 31.9018 49.4289 31.7622 49.2005 31.7116C48.8364 31.5974 48.4568 31.5414 48.0755 31.5456H21.7505C20.4455 31.5456 19.7555 31.938 19.7405 32.6625C19.7255 33.387 20.4455 33.8096 21.7205 33.8096H48.0005C48.3802 33.8241 48.7599 33.7783 49.1255 33.6738C49.3387 33.6408 49.5326 33.5305 49.6707 33.3637C49.8088 33.1969 49.8816 32.9852 49.8755 32.7682Z" fill="white"/>
<path d="M20.8053 22.6555C21.0401 22.6706 21.2756 22.6706 21.5103 22.6555H48.5103C49.1853 22.6555 49.7703 22.5498 49.8303 21.7046C49.8903 20.8593 49.5303 20.5273 48.5853 20.5273H20.8803C20.7391 20.5126 20.5963 20.5277 20.4612 20.5717C20.3261 20.6157 20.2016 20.6876 20.0957 20.7828C19.9898 20.8779 19.9048 20.9943 19.8462 21.1245C19.7876 21.2546 19.7566 21.3957 19.7553 21.5385C19.7513 21.6813 19.7753 21.8234 19.8259 21.9568C19.8765 22.0902 19.9528 22.2122 20.0503 22.3159C20.1478 22.4197 20.2647 22.503 20.3942 22.5613C20.5238 22.6196 20.6635 22.6516 20.8053 22.6555Z" fill="white"/>
<path d="M48.4647 11.0787H21.3147C20.3847 11.0787 19.8147 11.5164 19.7397 12.1503C19.6647 12.7843 20.2647 13.2069 21.2397 13.2069H48.6597C49.5897 13.2069 49.9947 12.7994 49.8597 11.9994C49.7247 11.1994 49.1247 11.0787 48.4647 11.0787Z" fill="white"/>
<path d="M34.7849 17.9161H38.1449H48.8699C49.5749 17.9161 49.8149 17.4633 49.8449 16.9199C49.8614 16.7785 49.8461 16.6351 49.8001 16.5004C49.7541 16.3657 49.6787 16.2432 49.5793 16.1418C49.48 16.0403 49.3593 15.9627 49.2261 15.9145C49.0929 15.8663 48.9507 15.8488 48.8099 15.8634H32.6999H20.9999C20.2799 15.8634 19.8149 16.2407 19.7999 16.8746C19.7936 17.0078 19.8148 17.1409 19.8621 17.2654C19.9095 17.39 19.9819 17.5033 20.0749 17.5983C20.1679 17.6933 20.2795 17.7679 20.4025 17.8174C20.5256 17.8669 20.6575 17.8902 20.7899 17.8859L34.7849 17.9161Z" fill="white"/>
<path d="M45.1201 42.896C45.3751 42.3073 45.7051 41.7639 46.0801 41.0545H20.8651C20.7233 41.0505 20.5821 41.0747 20.4495 41.1256C20.3169 41.1765 20.1956 41.2532 20.0926 41.3514C19.9895 41.4495 19.9066 41.5671 19.8487 41.6974C19.7908 41.8278 19.759 41.9684 19.7551 42.1111C19.7479 42.261 19.7729 42.4107 19.8284 42.5499C19.884 42.6892 19.9688 42.8147 20.0771 42.9179C20.1854 43.0211 20.3145 43.0996 20.4557 43.1479C20.5969 43.1962 20.7468 43.2132 20.8951 43.1978H44.4601C44.7151 43.1978 45.0001 43.2431 45.1201 42.896Z" fill="white"/>
<path d="M47.7745 37.749C47.9755 37.3013 48.206 36.8677 48.4645 36.451H21.7795C21.4853 36.4206 21.1887 36.4206 20.8945 36.451C20.2945 36.5567 19.7995 36.8585 19.8895 37.5377C19.9795 38.2169 20.3995 38.383 21.0295 38.383C23.3395 38.383 25.6345 38.383 27.9445 38.383H46.6345C47.2045 38.4283 47.5645 38.3075 47.7745 37.749Z" fill="white"/>
<path d="M40.5004 52.2993H30.7504C27.4504 52.2993 24.1354 52.2993 20.8354 52.2993C20.5692 52.2694 20.3021 52.346 20.0916 52.5126C19.8811 52.6792 19.7442 52.9225 19.7104 53.1898C19.6806 53.4436 19.7431 53.6996 19.8866 53.9106C20.03 54.1215 20.2445 54.2729 20.4904 54.3369C20.7955 54.4339 21.1176 54.4648 21.4354 54.4274H39.4354C39.9304 54.4274 40.5004 54.6237 40.9354 54.3218C41.3704 54.0199 40.9354 53.4464 41.1004 53.0539C41.4904 52.2842 41.1154 52.2993 40.5004 52.2993Z" fill="white"/>
<path d="M21.3151 59.0914H39.3151C40.6651 59.0914 40.5451 59.0914 40.8151 57.7933C41.0701 56.8726 40.6651 56.9632 40.0801 56.9632H30.6301C27.3751 56.9632 24.1351 56.9632 20.8801 56.9632C20.6463 56.9412 20.4124 57.0034 20.2201 57.1389C20.0277 57.2744 19.8895 57.4742 19.8301 57.7028C19.6201 58.2159 19.9351 58.5631 20.2201 58.8801C20.5051 59.197 21.0001 59.0763 21.3151 59.0914Z" fill="white"/>
<path d="M21.135 63.7402C26.745 63.7402 32.355 63.7402 37.98 63.7402H40.98C40.794 63.2544 40.6681 62.7475 40.605 62.2308C40.605 61.6573 40.41 61.5516 39.885 61.5516H21.15C20.28 61.5516 19.65 62.0346 19.74 62.6685C19.83 63.3025 20.34 63.7402 21.135 63.7402Z" fill="white"/>
<path d="M7.90544 59.6196C7.80364 59.7224 7.72574 59.8465 7.67736 59.9832C7.62898 60.1199 7.61133 60.2657 7.62568 60.41C7.64003 60.5544 7.68601 60.6937 7.76033 60.8181C7.83464 60.9424 7.93543 61.0486 8.05544 61.129C8.31341 61.248 8.60465 61.2725 8.87864 61.198C9.15263 61.1236 9.39208 60.955 9.55544 60.7215C9.94544 60.2838 10.3654 59.6196 10.8304 59.5593C11.2954 59.4989 11.6404 60.2989 12.0904 60.6611C12.1932 60.7695 12.3035 60.8704 12.4204 60.963C12.6194 61.1631 12.8891 61.2756 13.1704 61.2756C13.4517 61.2756 13.7215 61.1631 13.9204 60.963C14.1194 60.7628 14.2311 60.4914 14.2311 60.2083C14.2311 59.9252 14.1194 59.6538 13.9204 59.4536C13.5599 59.0229 13.1635 58.624 12.7354 58.2612C12.4054 57.9744 12.4054 57.7782 12.7354 57.4915C13.1563 57.1209 13.5521 56.7225 13.9204 56.2991C14.0241 56.2029 14.1068 56.0863 14.1634 55.9564C14.2199 55.8265 14.2491 55.6862 14.2491 55.5444C14.2491 55.4026 14.2199 55.2623 14.1634 55.1324C14.1068 55.0025 14.0241 54.8858 13.9204 54.7897C13.8304 54.6894 13.7205 54.6092 13.5978 54.5543C13.4751 54.4995 13.3422 54.4711 13.2079 54.4711C13.0736 54.4711 12.9408 54.4995 12.8181 54.5543C12.6954 54.6092 12.5855 54.6894 12.4954 54.7897C12.3004 54.9557 12.1204 55.167 11.9254 55.3482C10.9504 56.3443 10.9504 56.3443 9.96044 55.3482C9.57044 54.9557 9.22544 54.4727 8.62544 54.4576C8.4148 54.4624 8.20985 54.5273 8.03454 54.6449C7.85923 54.7626 7.72081 54.9279 7.63544 55.1218C7.39544 55.6349 7.72544 55.967 7.95044 56.3292C8.34044 56.9179 9.34544 57.265 9.27044 57.8386C9.19544 58.4122 8.37044 59.0914 7.90544 59.6196Z" fill="white"/>
<path d="M14.3702 13.5993C14.2551 13.5073 14.1209 13.4422 13.9776 13.4088C13.8343 13.3755 13.6854 13.3747 13.5418 13.4065C13.3981 13.4383 13.2633 13.5019 13.1471 13.5927C13.031 13.6835 12.9364 13.7992 12.8702 13.9314C12.3602 14.671 11.8202 15.3653 11.2802 16.0747C10.1552 17.584 10.1552 17.584 8.62523 16.4671C8.52174 16.3687 8.39864 16.2935 8.2641 16.2466C8.12955 16.1996 7.98663 16.182 7.8448 16.1948C7.70298 16.2077 7.56548 16.2507 7.44142 16.3211C7.31737 16.3914 7.20959 16.4875 7.12523 16.6029C7.02375 16.6908 6.94231 16.7997 6.88649 16.9221C6.83066 17.0445 6.80176 17.1776 6.80176 17.3123C6.80176 17.447 6.83066 17.5802 6.88649 17.7026C6.94231 17.825 7.02375 17.9339 7.12523 18.0217C7.44717 18.4068 7.80925 18.7559 8.20523 19.0632C8.83523 19.4707 9.13523 20.3461 10.1102 20.3311C10.2473 20.3535 10.3879 20.3339 10.5137 20.2746C10.6395 20.2154 10.7446 20.1193 10.8152 19.999C12.2102 18.3689 13.5002 16.7388 14.6102 15.1087C14.7106 15.0011 14.7852 14.8718 14.8283 14.7307C14.8713 14.5896 14.8816 14.4405 14.8584 14.2947C14.8353 14.149 14.7792 14.0105 14.6946 13.89C14.6099 13.7694 14.499 13.67 14.3702 13.5993Z" fill="white"/>
<path d="M14.7603 35.0171C14.796 34.8102 14.7565 34.5972 14.6491 34.4171C14.5417 34.237 14.3736 34.1017 14.1753 34.036C14.0916 33.9874 13.9992 33.9558 13.9034 33.9431C13.8075 33.9304 13.7101 33.9369 13.6168 33.9621C13.5234 33.9873 13.4359 34.0308 13.3593 34.0901C13.2827 34.1495 13.2185 34.2234 13.1703 34.3077C12.4353 35.2435 11.6703 36.1944 11.0253 37.1302C10.1253 38.3377 10.1253 38.3377 9.0303 37.3566C8.94694 37.278 8.85656 37.2072 8.7603 37.1453C8.2053 36.7982 7.6803 36.6623 7.2603 37.2661C6.8403 37.8698 7.1403 38.3679 7.5753 38.7754C8.0103 39.1829 8.7453 39.8621 9.3603 40.3753C10.2603 41.1451 10.5603 41.1149 11.3103 40.1489C12.3903 38.715 13.4553 37.266 14.5353 35.8171C14.6315 35.7102 14.7019 35.5824 14.7409 35.4436C14.78 35.3048 14.7866 35.1589 14.7603 35.0171Z" fill="white"/>
<path d="M72.8853 16.3011C71.1903 15.3955 69.5253 14.4446 67.8153 13.5842C67.0246 13.1452 66.113 12.9784 65.2193 13.1092C64.3256 13.24 63.499 13.6612 62.8653 14.3087C62.3476 14.9767 61.9143 15.7068 61.5753 16.4822C60.4503 18.6104 59.4303 20.8141 58.2453 22.9121C55.5003 27.7571 52.9653 32.7078 50.3553 37.6132C48.9453 40.2395 47.4453 42.8054 46.1253 45.4921C45.0003 47.8316 43.3053 49.9145 43.3953 52.8426C43.3434 55.6352 43.128 58.4223 42.7503 61.1894C42.6523 61.7447 42.7481 62.317 43.0215 62.8094C43.2949 63.3018 43.729 63.684 44.2503 63.8911C44.7349 64.1229 45.2757 64.2092 45.8078 64.1396C46.3399 64.07 46.8407 63.8475 47.2503 63.4987C49.0203 61.9893 50.7903 60.6611 52.6353 59.3178C54.8227 57.7267 56.5724 55.6025 57.7203 53.1445C59.1303 50.2163 60.7953 47.3938 62.3253 44.511L70.5003 29.0401C71.7903 26.6251 73.1103 24.2252 74.3703 21.7951C74.6684 21.3322 74.8865 20.8219 75.0153 20.2858C75.1311 19.4796 74.9866 18.6574 74.6032 17.9401C74.2197 17.2228 73.6176 16.6482 72.8853 16.3011ZM45.7953 60.7366C45.7866 59.2726 45.8819 57.8098 46.0803 56.3594C46.1703 55.3934 46.1553 54.4275 46.2903 53.4615C46.4253 52.4955 46.2903 52.4955 47.2353 52.9483C48.4653 53.5822 49.6953 54.2312 50.9103 54.8954C51.3603 55.1519 51.9453 55.152 52.3203 55.6048L45.7953 60.7366ZM66.0003 31.123L62.4603 37.749C60.0703 42.1866 57.6903 46.6341 55.3203 51.0918C55.0693 51.4765 54.8581 51.8862 54.6903 52.3144C54.4353 53.1596 54.0903 53.22 53.3253 52.7974C51.5703 51.8314 49.7703 50.9408 47.9553 50.0956C47.4303 49.839 47.3703 49.6579 47.6403 49.1598C49.9303 44.8933 52.2053 40.6168 54.4653 36.3302C55.9653 33.4927 57.4653 30.6551 58.9653 27.8024C59.9253 25.9308 59.8953 25.9157 61.7553 26.8515L66.4353 29.191C66.5749 29.2745 66.71 29.3652 66.8403 29.4627C66.5253 30.0211 66.2703 30.5796 66.0003 31.123ZM71.7003 20.316C70.6203 22.3385 69.5253 24.361 68.4603 26.3534C68.2953 26.6553 68.1453 26.6855 67.8903 26.5496C65.8653 25.5232 63.8553 24.4969 61.8903 23.5309C61.5153 23.3347 61.4853 23.1536 61.6653 22.8064C62.7453 20.7839 63.7953 18.7311 64.8903 16.769C64.9618 16.5707 65.0958 16.4014 65.2718 16.2869C65.4479 16.1725 65.6563 16.1191 65.8653 16.135C66.3789 16.2277 66.8656 16.4339 67.2903 16.7388C68.6403 17.4482 69.9753 18.2481 71.3253 18.9424C71.4498 18.9971 71.5604 19.0794 71.6487 19.1831C71.7371 19.2869 71.801 19.4094 71.8356 19.5415C71.8703 19.6737 71.8747 19.812 71.8487 19.9461C71.8227 20.0802 71.7668 20.2067 71.6853 20.316H71.7003Z" fill="white"/>
</g>
<defs>
<clipPath id="clip0_1000_5422">
<rect width="75" height="75" fill="white"/>
</clipPath>
</defs>
</svg>
