<svg width="75" height="75" viewBox="0 0 75 75" fill="none" xmlns="http://www.w3.org/2000/svg">
<g clip-path="url(#clip0_1000_6155)">
<path d="M17.3084 51C16.7202 51 16.6025 51.45 16.6025 51.96V54.72C16.6025 55.635 16.6025 56.565 16.6025 57.48C16.6025 58.02 16.7202 58.515 17.3525 58.515C17.9849 58.515 18.0731 58.05 18.0731 57.54V51.9C18.0584 51.39 17.9114 51 17.3084 51Z" fill="white"/>
<path d="M15.9857 41.085C16.4563 41.205 16.618 41.4 16.6033 41.88C16.6033 42.96 16.6033 44.04 16.6033 45.12C16.6033 45.615 16.7504 46.08 17.3386 46.065C17.9269 46.05 18.0592 45.585 18.0592 45.075V26.625C18.0361 24.315 18.4351 22.0209 19.2357 19.86C20.8972 15.6055 23.9363 12.0592 27.8476 9.81067C31.759 7.56209 36.307 6.74668 40.7357 7.49998C45.3336 8.18109 49.531 10.5468 52.5433 14.1549C55.5556 17.763 57.1766 22.3665 57.1033 27.105C56.9857 31.77 57.1033 36.45 57.1033 41.115V57C57.0805 57.3045 57.0805 57.6104 57.1033 57.915C57.1219 58.0876 57.2064 58.2458 57.3385 58.3553C57.4706 58.4648 57.6398 58.5168 57.8092 58.5C57.9799 58.5042 58.1455 58.4411 58.2716 58.3237C58.3976 58.2063 58.4743 58.0437 58.4857 57.87C58.5003 57.5952 58.5003 57.3198 58.4857 57.045C58.4857 52.045 58.4857 47.045 58.4857 42.045C58.4857 41.415 58.6033 41.13 59.2651 40.995C60.1134 40.8308 60.8762 40.3625 61.4156 39.6748C61.955 38.9871 62.2354 38.1252 62.2063 37.245C62.2063 33.375 62.2063 29.49 62.2063 25.62C62.226 25.0943 62.1276 24.5709 61.9186 24.0899C61.7096 23.609 61.3955 23.1831 61.0004 22.845C60.798 22.6696 60.6324 22.4543 60.5136 22.212C60.3948 21.9697 60.3253 21.7054 60.3092 21.435C59.8101 17.2412 58.2938 13.2406 55.8974 9.79498C52.814 5.21735 48.1864 1.95776 42.8973 0.638091C37.6082 -0.681579 32.0279 0.0310357 27.221 2.63998C19.868 6.67498 15.9563 13.14 14.721 21.45C14.7338 21.678 14.6954 21.9059 14.6088 22.1165C14.5221 22.327 14.3895 22.5146 14.221 22.665C13.7635 23.0443 13.4009 23.529 13.1631 24.0793C12.9253 24.6296 12.8191 25.2296 12.8533 25.83C12.8533 29.55 12.8533 33.33 12.8533 36.99C12.7673 37.9508 13.0432 38.909 13.6251 39.6697C14.207 40.4304 15.051 40.9364 15.9857 41.085ZM60.8239 25.5C60.8239 29.5 60.8239 33.465 60.8239 37.395C60.8116 37.8509 60.6647 38.2925 60.4023 38.6618C60.1399 39.0312 59.7743 39.3111 59.3533 39.465C58.8239 39.705 58.471 39.705 58.4857 38.895C58.4857 36.585 58.4857 34.275 58.4857 31.515C58.3974 29.265 58.6474 26.565 58.3239 23.865C58.2357 23.25 58.5445 23.205 59.0151 23.31C59.5153 23.4118 59.9668 23.684 60.2954 24.0819C60.6241 24.4798 60.8104 24.9799 60.8239 25.5ZM16.2651 21.135C16.8828 16.4319 18.9255 12.0431 22.1079 8.58189C25.2903 5.12073 29.4532 2.76013 34.0151 1.82998C35.1047 1.60931 36.213 1.49877 37.3239 1.49998C41.9359 1.53797 46.4166 3.07141 50.1177 5.87852C53.8189 8.68562 56.5486 12.6208 57.9122 17.115C58.3237 18.3793 58.619 19.6799 58.7945 21C58.7945 21.285 59.0886 21.705 58.5739 21.825C58.0592 21.945 57.9121 21.615 57.7945 21.18C56.8763 17.624 55.0138 14.3955 52.4121 11.85C41.6474 1.16998 23.1033 5.20498 17.868 19.35C17.6246 20.0125 17.4184 20.6886 17.2504 21.375C17.1327 21.825 16.8533 21.855 16.5004 21.81C16.1474 21.765 16.2357 21.435 16.2651 21.18V21.135ZM14.3533 25.53C14.3661 25.012 14.5503 24.5136 14.8761 24.1159C15.2018 23.7183 15.6499 23.4448 16.1474 23.34C16.5739 23.265 16.8533 23.265 16.7798 23.865C16.5937 26.2349 16.5348 28.6135 16.6033 30.99C16.6033 33.9 16.6033 36.39 16.6033 38.88C16.6033 39.69 16.3092 39.78 15.6916 39.48C15.2841 39.3049 14.9366 39.0106 14.6932 38.6341C14.4498 38.2576 14.3212 37.816 14.3239 37.365C14.3141 33.455 14.3239 29.525 14.3533 25.575V25.53Z" fill="white"/>
<path d="M48.1758 56.13C45.6464 56.13 45.6611 56.13 45.6906 53.52C45.673 53.3253 45.7092 53.1294 45.7949 52.9545C45.8807 52.7796 46.0126 52.6326 46.1758 52.53C50.2438 49.5706 53.1101 45.1958 54.2347 40.23C55.22 36.39 54.867 32.475 54.9258 28.575C54.9258 27.99 54.5582 27.795 54.0582 27.735C53.5582 27.675 52.7935 27.585 52.1758 27.45C50.0437 26.9369 48.0341 25.9929 46.266 24.6738C44.4978 23.3546 43.007 21.6872 41.8817 19.77C40.9553 18.36 40.7053 18.36 39.7641 19.77C37.8157 22.9331 35.0876 25.5193 31.8523 27.27C28.636 28.8643 25.1313 29.7631 21.5582 29.91C20.3376 30 20.1906 30.135 20.1906 31.335C20.1906 32.535 20.1906 33.54 20.1906 34.65C20.2387 39.2621 21.6255 43.7562 24.1758 47.565C24.47 47.985 24.7935 48.42 25.3523 48.06C25.9111 47.7 25.6758 47.175 25.3523 46.71C22.7933 42.863 21.4865 38.292 21.617 33.645C21.617 31.41 21.617 31.44 23.7788 31.185C26.7976 30.9515 29.7381 30.0929 32.4208 28.6615C35.1035 27.2302 37.472 25.2562 39.3817 22.86C39.867 22.23 40.3229 21.585 40.8523 20.91L41.22 21.375C42.5378 23.4316 44.2674 25.1804 46.295 26.5066C48.3227 27.8328 50.6025 28.7064 52.9847 29.07C53.4847 29.145 53.5435 29.415 53.5435 29.82C53.5435 31.755 53.5435 33.705 53.5435 35.64C53.37 40.0459 51.8246 44.2807 49.1317 47.73C47.8659 49.4748 46.2411 50.916 44.3713 51.9525C42.5016 52.989 40.4322 53.5957 38.3082 53.73C35.2999 53.8928 32.3258 53.0155 29.867 51.24C29.4111 50.94 28.97 50.745 28.617 51.24C28.2641 51.735 28.617 52.11 29.0141 52.365C29.1765 52.4492 29.3099 52.5819 29.3966 52.7453C29.4833 52.9088 29.5191 53.0953 29.4994 53.28C29.4994 53.955 29.4994 54.63 29.4994 55.305C29.4994 55.98 29.3523 56.04 28.8229 56.01C28.0729 56.01 27.3523 56.01 26.5582 56.01C24.1963 56.0093 21.8696 56.5948 19.779 57.7158C17.6884 58.8369 15.8966 60.46 14.5582 62.445C12.0435 65.955 11.617 69.945 11.8523 74.13C11.8523 74.595 12.117 74.895 12.6023 74.865C13.0876 74.835 13.2788 74.505 13.2788 74.04C13.2788 73.005 13.2788 71.955 13.2788 70.905C13.3237 67.4197 14.6886 64.0872 17.0876 61.605C20.3523 58.14 24.4405 57.18 28.9994 57.465C29.4405 57.465 29.47 57.735 29.4847 58.065C29.4746 58.8963 29.509 59.7275 29.5876 60.555C29.8684 62.57 30.8656 64.4094 32.3895 65.7232C33.9134 67.0369 35.8577 67.7334 37.8523 67.68C39.8264 67.601 41.7065 66.7995 43.1486 65.4222C44.5907 64.0449 45.4983 62.184 45.7053 60.18C45.7935 59.295 45.2494 58.08 46.0141 57.615C46.7788 57.15 47.7641 57.48 48.6758 57.495C51.8771 57.5441 54.955 58.7621 57.351 60.928C59.747 63.094 61.3023 66.0643 61.7347 69.3C61.8865 70.89 61.9356 72.4885 61.8817 74.085C61.8817 74.565 62.0288 74.97 62.5729 75C63.117 75.03 63.3229 74.595 63.3229 74.07V71.49C63.353 69.4568 62.9811 67.4383 62.2294 65.555C61.4777 63.6716 60.3616 61.9621 58.9479 60.5284C57.5341 59.0948 55.8516 57.9664 54.0008 57.2107C52.1501 56.455 50.169 56.0875 48.1758 56.13ZM44.2494 57.405C44.3091 58.6325 44.2549 59.863 44.0876 61.08C43.72 62.6506 42.8208 64.0384 41.5482 64.9988C40.2757 65.9592 38.7117 66.4307 37.1317 66.33C35.6027 66.2155 34.1592 65.5666 33.0447 64.4927C31.9302 63.4188 31.213 61.9856 31.0141 60.435C30.8499 58.3846 30.7959 56.3265 30.8523 54.27C30.8523 53.505 31.2935 53.895 31.5729 54.015C34.2574 55.2343 37.2385 55.6052 40.1317 55.08C41.2371 54.9106 42.3122 54.5771 43.3229 54.09C44.1611 53.67 44.2641 53.97 44.22 54.735C44.1758 55.5 44.2494 56.4 44.2494 57.405Z" fill="white"/>
<path d="M32.3233 50.655C32.5696 50.6105 32.8234 50.6551 33.0409 50.781C33.2583 50.907 33.4259 51.1065 33.5145 51.345C33.737 51.8572 34.1026 52.2912 34.5656 52.5926C35.0285 52.8941 35.5683 53.0497 36.1175 53.04C37.0145 53.04 37.9263 53.04 38.8233 53.04C39.5972 52.9956 40.3257 52.6531 40.8616 52.0818C41.3974 51.5106 41.7006 50.7531 41.71 49.9625C41.7193 49.172 41.4341 48.4073 40.9119 47.823C40.3897 47.2387 39.6695 46.8785 38.8969 46.815C37.9998 46.815 37.088 46.815 36.191 46.815C35.612 46.7979 35.0416 46.9609 34.5556 47.2824C34.0696 47.6039 33.6911 48.0687 33.4704 48.615C33.4012 48.8138 33.2668 48.9821 33.09 49.0915C32.9131 49.2008 32.7046 49.2445 32.4998 49.215C30.6028 49.215 28.7057 49.215 26.8086 49.215C24.9116 49.215 23.1322 49.215 21.2939 49.215C20.0645 49.218 18.8687 48.8062 17.8925 48.0439C16.9164 47.2815 16.2148 46.2114 15.8969 45C15.7279 44.2144 15.7279 43.4007 15.8969 42.615C15.9851 42.135 15.8969 41.745 15.338 41.64C14.7792 41.535 14.5586 41.895 14.4851 42.375C14.3413 43.0343 14.2918 43.7113 14.3381 44.385C14.5191 46.097 15.3032 47.6838 16.5446 48.8508C17.786 50.0177 19.4004 50.6855 21.088 50.73C24.8086 50.7 28.5439 50.685 32.3233 50.655ZM36.088 48.3C37.0678 48.2485 38.0495 48.2485 39.0292 48.3C39.4126 48.3633 39.7605 48.5664 40.0081 48.8717C40.2557 49.1769 40.3862 49.5634 40.3754 49.9594C40.3646 50.3554 40.2133 50.734 39.9494 51.0247C39.6856 51.3154 39.3272 51.4985 38.941 51.54C38.4704 51.54 37.9851 51.54 37.4704 51.54C37.0145 51.54 36.5586 51.54 36.1175 51.54C35.7158 51.5411 35.3287 51.387 35.034 51.1087C34.7394 50.8304 34.559 50.4485 34.5292 50.04C34.5089 49.6057 34.6561 49.1805 34.9391 48.8553C35.2222 48.5302 35.6187 48.3309 36.0439 48.3H36.088Z" fill="white"/>
</g>
<defs>
<clipPath id="clip0_1000_6155">
<rect width="75" height="75" fill="white"/>
</clipPath>
</defs>
</svg>
