<svg width="75" height="75" viewBox="0 0 75 75" fill="none" xmlns="http://www.w3.org/2000/svg">
<g clip-path="url(#clip0_1013_8758)">
<path d="M74.2735 55.8957C70.3373 51.7247 66.4465 47.5228 62.4952 43.3672C60.1789 40.9418 57.7869 38.5782 55.5463 36.0756C55.4276 35.9846 55.3296 35.8684 55.259 35.7351C55.1885 35.6017 55.147 35.4544 55.1375 35.3032C55.106 34.3925 55.2289 33.4832 55.5008 32.6152C56.5304 29.64 56.7347 26.4324 56.0913 23.3463C55.5339 20.6539 54.5304 18.0783 53.124 15.7303C51.3296 12.6752 48.8623 10.0887 45.9177 8.17609C42.1521 5.61574 37.6728 4.37411 33.1553 4.63844C30.1704 4.87954 27.2675 5.75292 24.6319 7.20285C21.6279 8.83462 19.0366 11.1563 17.0622 13.9846C13.8527 18.6191 11.8846 23.5162 12.5204 29.3402C12.8038 32.1924 13.6373 34.9593 14.973 37.4814C15.5832 38.4889 15.8642 39.6682 15.7754 40.8491C15.7375 41.451 15.7375 42.0547 15.7754 42.6566C15.7881 42.8561 15.858 43.0475 15.9764 43.2068C16.0949 43.3661 16.2566 43.4863 16.4415 43.5526C16.7291 43.6607 16.9411 43.429 17.1379 43.2282C17.8495 42.4712 18.3036 42.4403 19.0303 43.2282C19.6622 43.9239 20.368 44.5456 21.1347 45.0819C24.0457 47.2215 27.3524 48.7352 30.8541 49.531C32.2186 49.9274 33.629 50.1352 35.0477 50.149C36.8464 49.9082 38.6234 49.5207 40.3616 48.9903C40.7429 48.8144 41.1611 48.7379 41.5786 48.7676C41.996 48.7972 42.3998 48.9322 42.7536 49.1603C43.6316 49.9018 44.4643 50.7051 45.297 51.5548C45.6407 51.9309 46.0584 52.2286 46.5229 52.4283C46.9873 52.628 47.4879 52.7251 47.9918 52.7134C48.8244 52.7134 49.6571 52.7134 50.4897 52.7134C51.0348 52.7134 51.2316 52.9296 51.2164 53.4549C51.2013 53.9801 51.2164 54.7989 51.2164 55.4632C51.2743 56.5849 51.7503 57.6416 52.5467 58.417C53.3432 59.1924 54.4 59.6279 55.5008 59.6342H58.0897C58.5893 59.6342 58.8466 59.6342 58.9829 60.3294C59.083 61.3903 59.3328 62.431 59.7247 63.419C60.3339 62.1945 60.709 60.8629 60.8299 59.4952C61.0721 58.2747 60.2092 57.4251 58.998 57.1779C57.7047 56.9904 56.3964 56.9334 55.0921 57.008C54.4714 57.008 54.2594 56.7763 54.2746 56.1429C54.2746 54.907 54.2746 53.6557 54.2746 52.4199C54.3075 52.0334 54.2566 51.6443 54.1255 51.2802C53.9945 50.9161 53.7864 50.5859 53.5162 50.3131C53.2459 50.0403 52.9201 49.8316 52.5619 49.7017C52.2037 49.5719 51.8218 49.5242 51.4435 49.5619H47.6587C47.4385 49.5722 47.2187 49.5333 47.0147 49.448C46.8107 49.3626 46.6275 49.2328 46.4778 49.0676C45.5392 48.048 44.5854 47.0593 43.6165 46.0706C42.6476 45.0819 42.3751 44.9429 40.9066 45.4836C39.3862 46.055 37.787 46.3783 36.168 46.4414C34.8424 46.5728 33.5045 46.4629 32.2166 46.117C31.1872 45.7617 30.082 45.6535 29.0525 45.2673C27.4985 44.6788 25.9816 43.9926 24.5107 43.2127C22.3183 42.1357 20.3735 40.5985 18.8032 38.7018C16.7549 35.9802 15.5621 32.6896 15.3817 29.2629C15.1635 26.8868 15.3014 24.4905 15.7905 22.1567C16.5255 18.5878 18.2859 15.3233 20.847 12.7797C23.505 9.97013 27.0595 8.22236 30.8692 7.85167C35.8652 7.38823 40.6341 7.85167 44.8579 10.9413C47.9832 13.0376 50.3661 16.1026 51.6555 19.685C53.3064 24.3948 53.3064 29.5429 51.6555 34.2527C51.4682 34.656 51.4201 35.1121 51.519 35.5469C51.618 35.9816 51.8581 36.3694 52.2005 36.6472C53.6084 38.0375 54.971 39.4742 56.3638 40.88L71.5031 56.3283C71.6902 56.4752 71.844 56.6617 71.9537 56.8751C72.0635 57.0884 72.1267 57.3235 72.1389 57.5641C72.1389 59.9895 72.1389 62.4149 72.1389 64.8557C72.1389 65.4736 71.9572 65.7053 71.3214 65.6899C69.5047 65.6899 67.688 65.6899 65.8864 65.6899H63.8274C63.9183 66.3387 64.2362 66.7249 64.6752 66.7404C65.4652 66.8368 66.2488 66.9813 67.0218 67.1729C68.8491 67.2754 70.6689 67.4869 72.472 67.8063C72.7096 67.8549 72.9545 67.8529 73.1913 67.8002C73.4281 67.7476 73.6516 67.6455 73.8479 67.5004C74.0441 67.3553 74.2088 67.1703 74.3315 66.9571C74.4543 66.7439 74.5325 66.507 74.5612 66.2615C74.5612 65.211 74.8034 64.176 74.7883 63.1718C74.7731 62.1677 74.7883 60.6383 74.8943 59.3561C75.0526 58.7688 75.0791 58.1527 74.9716 57.5535C74.8641 56.9544 74.6255 56.3877 74.2735 55.8957Z" fill="white"/>
<path d="M32.3227 21.044C32.9247 21.7649 33.2334 22.6935 33.1857 23.6393C33.1744 24.0021 33.2388 24.3633 33.3745 24.6988C33.5102 25.0344 33.7142 25.3367 33.9729 25.5858C34.0397 25.667 34.1231 25.7323 34.2173 25.7771C34.3114 25.8219 34.414 25.8451 34.5179 25.8451C34.6218 25.8451 34.7244 25.8219 34.8186 25.7771C34.9128 25.7323 34.9962 25.667 35.0629 25.5858C35.5212 25.1027 35.871 24.5235 36.088 23.8887C36.305 23.2538 36.384 22.5783 36.3195 21.9091C36.1215 21.0144 35.7307 20.1759 35.1755 19.4544C34.6204 18.733 33.9148 18.1467 33.11 17.7381C32.3326 17.119 31.3506 16.8311 30.3698 16.9348C28.2711 17.5161 26.4093 18.7664 25.0559 20.5033C24.5618 21.0175 24.2061 21.6531 24.0231 22.3486C23.8401 23.0441 23.8361 23.776 24.0113 24.4735C24.8591 27.9957 29.2343 31.348 33.216 28.969C33.4885 28.799 34.0183 28.7063 33.9275 28.4128C33.8637 28.2164 33.7453 28.0431 33.5867 27.9142C33.4281 27.7853 33.2362 27.7063 33.0343 27.6868C32.3379 27.5786 31.6566 27.3623 30.9753 27.2079C28.4168 26.5899 27.6598 25.7403 27.6598 23.3458C27.6417 22.8278 27.6823 22.3094 27.781 21.801C27.9878 21.3972 28.284 21.0481 28.6459 20.7814C29.0079 20.5146 29.4257 20.3375 29.8664 20.264C30.3071 20.1906 30.7584 20.2228 31.1848 20.3582C31.6111 20.4936 32.0007 20.7284 32.3227 21.044Z" fill="white"/>
<path d="M32.792 64.0826C32.792 63.2793 31.9744 63.1094 31.278 63.1094C26.5849 63.1094 21.8917 63.1094 17.1985 63.1094C16.5475 63.1094 15.6846 63.3102 15.6846 64.1135C15.6846 64.9168 16.5021 64.9168 17.1985 64.9168H31.278C31.9139 64.9168 32.792 64.9168 32.792 64.0826Z" fill="white"/>
<path d="M9.26481 54.3511C9.82433 54.3896 10.3858 54.3896 10.9453 54.3511C11.46 54.3511 12.0504 53.9803 12.0504 53.4705C12.0504 52.9607 11.46 52.6363 10.915 52.5436C10.769 52.5284 10.6219 52.5284 10.476 52.5436H6.73655C6.1007 52.5436 5.44971 52.7135 5.40429 53.4396C5.35888 54.1657 6.11584 54.3356 6.69113 54.382C7.53893 54.4283 8.40187 54.3511 9.26481 54.3511Z" fill="white"/>
<path d="M31.6865 68.5166H27.3264C26.7511 68.5166 26.2666 68.7947 26.2363 69.3354C26.2481 69.6004 26.3606 69.8502 26.55 70.0319C26.7394 70.2136 26.9907 70.3129 27.2507 70.3086C28.7646 70.3086 30.2785 70.3086 31.7924 70.3086C32.0509 70.3128 32.3005 70.213 32.4875 70.0309C32.6745 69.8488 32.7837 69.599 32.7916 69.3354C32.7916 68.7792 32.2769 68.5166 31.6865 68.5166Z" fill="white"/>
<path d="M22.194 53.5786C22.0728 53.1151 21.8003 52.6517 21.2856 52.7444C21.0514 52.7965 20.845 52.9367 20.7076 53.1371C20.5701 53.3375 20.5116 53.5833 20.5438 53.8257V56.0966C20.5438 56.8845 20.5438 57.6414 20.5438 58.4602C20.536 58.6918 20.6095 58.9186 20.7511 59.0999C20.8926 59.2811 21.0929 59.4049 21.3159 59.4489C21.8003 59.557 21.9669 59.1245 22.1334 58.7692C22.2857 58.5076 22.3643 58.2083 22.3605 57.9041C22.4415 56.4601 22.3857 55.0116 22.194 53.5786Z" fill="white"/>
<path d="M25.676 58.3825C25.6543 58.6312 25.727 58.8789 25.8791 59.0744C26.0313 59.27 26.2513 59.3983 26.4936 59.433C26.6144 59.4439 26.7361 59.4287 26.8507 59.3883C26.9654 59.348 27.0704 59.2835 27.159 59.1989C27.2475 59.1144 27.3177 59.0117 27.3647 58.8977C27.4118 58.7836 27.4348 58.6607 27.4322 58.537C27.4322 56.9922 27.4322 55.3238 27.4322 53.7172C27.4322 53.2537 27.0991 52.6358 26.4633 52.7439C25.8274 52.8521 25.7063 53.3927 25.6912 53.9334C25.676 54.4741 25.6912 55.3856 25.6912 56.1116C25.676 56.8686 25.6458 57.6256 25.676 58.3825Z" fill="white"/>
<path d="M16.5324 46.7188C16.1871 46.7188 15.856 46.8587 15.6118 47.1079C15.3676 47.357 15.2305 47.6949 15.2305 48.0473C15.2305 48.3997 15.3676 48.7376 15.6118 48.9867C15.856 49.2359 16.1871 49.3759 16.5324 49.3759C16.8778 49.3759 17.2089 49.2359 17.4531 48.9867C17.6973 48.7376 17.8344 48.3997 17.8344 48.0473C17.8344 47.6949 17.6973 47.357 17.4531 47.1079C17.2089 46.8587 16.8778 46.7188 16.5324 46.7188Z" fill="white"/>
<path d="M15.2146 53.331C15.2057 53.5972 15.2745 53.8602 15.4124 54.0865C15.5502 54.3127 15.7509 54.4921 15.9888 54.6018C16.2268 54.7115 16.4913 54.7465 16.7488 54.7024C17.0063 54.6584 17.2452 54.5372 17.435 54.3543C17.6249 54.1715 17.7572 53.9351 17.8152 53.6754C17.8732 53.4156 17.8542 53.1441 17.7606 52.8954C17.6671 52.6466 17.5032 52.4319 17.2898 52.2784C17.0764 52.1249 16.8231 52.0396 16.562 52.0333C16.2163 52.0289 15.8825 52.1619 15.6311 52.404C15.3797 52.6461 15.2303 52.9785 15.2146 53.331Z" fill="white"/>
<path d="M2.63384 53.3928C2.6342 53.0427 2.50218 52.7059 2.26528 52.4527C2.02838 52.1994 1.70488 52.0492 1.36214 52.0333C1.01644 52.0289 0.682615 52.1619 0.43119 52.404C0.179765 52.6461 0.030433 52.9785 0.0147448 53.331C0.0105843 53.6822 0.14134 54.0211 0.379022 54.2752C0.616703 54.5293 0.94242 54.6783 1.28644 54.6904C1.63214 54.6948 1.96597 54.5618 2.2174 54.3197C2.46882 54.0776 2.61815 53.7452 2.63384 53.3928Z" fill="white"/>
<path d="M31.6408 54.7059C31.9849 54.7019 32.3138 54.5607 32.5571 54.3124C32.8005 54.0641 32.9389 53.7285 32.9428 53.3774C32.9277 53.0273 32.7837 52.696 32.5395 52.4497C32.2953 52.2033 31.9689 52.0602 31.6257 52.0488C31.2817 52.0569 30.9544 52.2021 30.7139 52.4532C30.4734 52.7044 30.3388 53.0417 30.3389 53.3928C30.3389 53.5666 30.3726 53.7386 30.4383 53.8989C30.5039 54.0592 30.6 54.2047 30.7211 54.3268C30.8422 54.449 30.9859 54.5454 31.1437 54.6104C31.3016 54.6755 31.4706 54.708 31.6408 54.7059Z" fill="white"/>
<path d="M21.6798 68.1463C21.5108 68.1503 21.3442 68.1882 21.1896 68.258C21.0349 68.3277 20.8953 68.4278 20.7786 68.5526C20.6619 68.6774 20.5705 68.8245 20.5095 68.9854C20.4485 69.1463 20.4192 69.3178 20.4232 69.4903C20.439 69.84 20.5893 70.1692 20.8416 70.4064C21.0939 70.6436 21.4278 70.7696 21.7706 70.757C21.9503 70.7694 22.1305 70.743 22.2996 70.6798C22.4688 70.6166 22.623 70.5178 22.7523 70.3899C22.8817 70.2621 22.9833 70.1079 23.0505 69.9374C23.1178 69.767 23.1493 69.584 23.1429 69.4003C23.1365 69.2166 23.0924 69.0364 23.0135 68.8712C22.9345 68.706 22.8224 68.5596 22.6845 68.4414C22.5466 68.3232 22.3859 68.2359 22.2128 68.185C22.0398 68.1342 21.8582 68.121 21.6798 68.1463Z" fill="white"/>
<path d="M31.6258 57.4403C31.444 57.4203 31.2602 57.4395 31.0862 57.4967C30.9122 57.5539 30.752 57.6479 30.6159 57.7725C30.4799 57.8971 30.3711 58.0495 30.2966 58.2198C30.2221 58.3902 30.1836 58.5746 30.1836 58.7612C30.1836 58.9477 30.2221 59.1321 30.2966 59.3025C30.3711 59.4728 30.4799 59.6253 30.6159 59.7499C30.752 59.8745 30.9122 59.9684 31.0862 60.0257C31.2602 60.0829 31.444 60.1021 31.6258 60.082C31.9687 60.0626 32.2918 59.9118 32.5304 59.6597C32.769 59.4076 32.9055 59.0729 32.9126 58.7225C32.8973 58.3822 32.7559 58.0605 32.5171 57.8224C32.2782 57.5844 31.9596 57.4478 31.6258 57.4403Z" fill="white"/>
<path d="M16.4871 67.9917C16.2287 67.9795 15.9726 68.0461 15.7514 68.1831C15.5302 68.3201 15.3541 68.5212 15.2454 68.7608C15.1367 69.0004 15.1005 69.2676 15.1413 69.5283C15.1821 69.789 15.2981 70.0313 15.4744 70.2245C15.6508 70.4176 15.8796 70.5528 16.1316 70.6127C16.3835 70.6726 16.6473 70.6545 16.8892 70.5608C17.131 70.4671 17.3401 70.302 17.4896 70.0865C17.6391 69.871 17.7223 69.615 17.7286 69.3511C17.7369 69.0039 17.6116 68.6672 17.3795 68.4131C17.1475 68.159 16.8272 68.0077 16.4871 67.9917Z" fill="white"/>
<path d="M16.5474 60.0199C16.8011 60.0107 17.0464 59.9251 17.2525 59.774C17.4587 59.6229 17.6164 59.4129 17.7059 59.1706C17.7954 58.9282 17.8126 58.6642 17.7555 58.4119C17.6983 58.1596 17.5693 57.9301 17.3846 57.7524C17.2 57.5747 16.968 57.4567 16.7177 57.4132C16.4675 57.3697 16.2103 57.4027 15.9784 57.508C15.7465 57.6133 15.5503 57.7863 15.4145 58.0051C15.2787 58.2239 15.2094 58.4788 15.2152 58.7377C15.227 59.0874 15.3736 59.4181 15.623 59.6582C15.8725 59.8983 16.2047 60.0282 16.5474 60.0199Z" fill="white"/>
<path d="M6.16129 62.6925C5.84132 62.7061 5.53779 62.8408 5.31002 63.0705C5.08224 63.3002 4.94659 63.6084 4.92956 63.9347C4.91253 64.261 5.01535 64.5821 5.21793 64.8351C5.4205 65.0882 5.70828 65.2552 6.02503 65.3033C6.20232 65.3302 6.38317 65.3191 6.55599 65.2705C6.7288 65.222 6.88978 65.1372 7.0286 65.0215C7.16743 64.9058 7.28103 64.7618 7.36214 64.5987C7.44324 64.4356 7.49006 64.257 7.49959 64.0743C7.50912 63.8917 7.48116 63.709 7.41749 63.5381C7.35382 63.3671 7.25585 63.2116 7.12985 63.0815C7.00386 62.9514 6.85262 62.8496 6.68583 62.7826C6.51904 62.7156 6.34037 62.685 6.16129 62.6925Z" fill="white"/>
<path d="M12.1568 64.0988C12.0962 62.8895 12.0962 61.6778 12.1568 60.4684C12.165 59.7731 11.9041 59.1025 11.4308 58.6021C10.9574 58.1018 10.3099 57.8121 9.62854 57.7959C7.25167 57.7959 4.88994 57.7959 2.51308 57.7959C2.17048 57.8017 1.83253 57.8777 1.51926 58.0193C1.20598 58.1609 0.923781 58.3653 0.689389 58.6203C0.454997 58.8754 0.273193 59.1758 0.154762 59.5039C0.0363319 59.832 -0.0163115 60.181 -4.45591e-05 60.5302C0.0907911 62.9865 -4.45591e-05 65.4273 -4.45591e-05 67.8836C0.00369312 68.5259 0.252312 69.1415 0.69315 69.6C1.13399 70.0585 1.73242 70.3238 2.36168 70.3399C4.82939 70.3399 7.29709 70.3399 9.74965 70.3399C10.4006 70.2864 11.0089 69.9881 11.4565 69.5028C11.9041 69.0175 12.159 68.3799 12.1719 67.7137C12.1068 66.5098 12.1017 65.3032 12.1568 64.0988ZM9.55284 68.3625C8.37198 68.3625 7.17598 68.3625 5.99511 68.3625H2.61905C2.07404 68.3625 1.80153 68.2235 1.80153 67.6055C1.80153 65.242 1.80153 62.8784 1.80153 60.5148C1.80153 59.9278 2.01348 59.7269 2.58877 59.7269C4.91013 59.7269 7.22644 59.7269 9.5377 59.7269C10.113 59.7269 10.3552 59.9432 10.3098 60.5302C10.113 62.8792 10.113 65.2411 10.3098 67.5901C10.4006 68.2544 10.0827 68.3779 9.55284 68.3625Z" fill="white"/>
<path d="M12.1416 38.9027C12.1457 38.6013 12.0905 38.3022 11.9793 38.0229C11.8682 37.7436 11.7033 37.4899 11.4944 37.2768C11.2855 37.0636 11.0369 36.8954 10.7632 36.782C10.4895 36.6685 10.1963 36.6122 9.90097 36.6164H2.513C2.16547 36.5733 1.81289 36.6134 1.48317 36.7334C1.15344 36.8535 0.855616 37.0502 0.613266 37.3079C0.370916 37.5657 0.190692 37.8775 0.0868576 38.2187C-0.0169768 38.5598 -0.0415713 38.921 0.0150203 39.2735V46.2715C-0.026982 46.636 0.00910279 47.0054 0.120779 47.3542C0.232454 47.703 0.417056 48.0229 0.661813 48.2918C0.90657 48.5606 1.20564 48.772 1.53834 48.9113C1.87104 49.0506 2.22942 49.1145 2.5887 49.0986C4.92015 49.0986 7.28188 49.0986 9.61332 49.0986C9.96191 49.0906 10.3055 49.0121 10.6241 48.8676C10.9427 48.7231 11.2301 48.5156 11.4695 48.2569C11.7089 47.9982 11.8956 47.6936 12.0188 47.3608C12.1419 47.0279 12.1991 46.6735 12.187 46.3179C12.0659 43.8771 12.1567 41.4208 12.1416 38.9027ZM10.2189 44.7267C10.2189 45.2983 10.2189 45.8699 10.34 46.4415C10.4611 47.0131 10.1886 47.2293 9.62846 47.2139C7.28187 47.2139 4.93529 47.2139 2.60384 47.2139C1.99827 47.2139 1.81659 46.9667 1.83173 46.3951C1.83173 45.1902 1.83173 43.9698 1.83173 42.7648C1.83173 41.6371 1.83173 40.5248 1.83173 39.3971C1.83173 38.671 2.05882 38.4702 2.75523 38.4856C5.01098 38.4856 7.29701 38.4856 9.52249 38.4856C10.2946 38.4856 10.4611 38.8255 10.3703 39.4743C10.2139 41.2203 10.1634 42.9744 10.2189 44.7267Z" fill="white"/>
<path d="M6.07102 41.4209C5.72689 41.4208 5.39638 41.5582 5.15022 41.8036C4.90407 42.049 4.76182 42.3829 4.75391 42.734C4.76125 43.0828 4.89828 43.4157 5.13723 43.6653C5.37617 43.9149 5.69917 44.0624 6.04074 44.078C6.38605 44.078 6.71721 43.938 6.96138 43.6889C7.20555 43.4397 7.34272 43.1018 7.34272 42.7494C7.34272 42.3971 7.20555 42.0592 6.96138 41.81C6.71721 41.5609 6.38605 41.4209 6.04074 41.4209H6.07102Z" fill="white"/>
</g>
<defs>
<clipPath id="clip0_1013_8758">
<rect width="75" height="75" fill="white"/>
</clipPath>
</defs>
</svg>
