<svg width="75" height="75" viewBox="0 0 75 75" fill="none" xmlns="http://www.w3.org/2000/svg">
<path d="M68.7854 45.75C68.7627 45.1547 68.5775 44.5762 68.249 44.075C67.9206 43.5737 67.4609 43.1679 66.918 42.9C65.7088 42.195 64.3466 42.66 63.0609 42.54C62.6004 42.4872 62.1339 42.5504 61.7053 42.7237C61.2768 42.8969 60.9004 43.1744 60.6119 43.53C60.5108 43.6858 60.3735 43.816 60.2112 43.9098C60.0489 44.0037 59.8663 44.0586 59.6782 44.07C58.8177 44.0944 57.9604 43.9569 57.1527 43.665C56.4792 43.41 56.2649 43.08 56.6476 42.39C57.5355 40.8183 57.7973 38.9798 57.3823 37.23C57.2784 36.9757 57.2549 36.6967 57.315 36.4292C57.375 36.1617 57.5158 35.918 57.719 35.73C58.9282 34.8 59.0047 33.36 59.4333 32.085C59.7725 31.0666 59.6957 29.959 59.219 28.995C59.0362 28.6853 58.9544 28.3282 58.9845 27.9717C59.0146 27.6151 59.1552 27.2761 59.3874 27C60.2815 25.7358 60.6584 24.1886 60.4435 22.665C60.3205 21.4687 59.7798 20.3508 58.9129 19.5C58.2727 18.7988 57.4828 18.2444 56.5992 17.8762C55.7156 17.5081 54.7601 17.3352 53.8007 17.37C49.8976 17.37 46.0252 16.725 42.1221 16.86C41.2649 16.86 40.8823 16.545 41.066 15.765C41.2606 14.0169 41.3322 12.2577 41.2803 10.5C41.1935 8.65718 40.6694 6.85959 39.7496 5.24999C39.0124 3.60723 37.852 2.18056 36.3823 1.10999C35.8608 0.670941 35.2454 0.352248 34.5814 0.177432C33.9175 0.00261568 33.2219 -0.0238608 32.5461 0.0999559C31.8704 0.223773 31.2316 0.494722 30.6769 0.89281C30.1222 1.2909 29.6659 1.80596 29.3415 2.39999C28.6784 3.6202 28.3216 4.9777 28.3007 6.35999C28.2439 9.64504 26.8692 12.776 24.4741 15.075C23.6419 15.7924 22.7454 16.435 21.7956 16.995C21.2383 17.4866 20.5354 17.791 19.7893 17.8638C19.0432 17.9367 18.2929 17.7742 17.6476 17.4C16.4652 16.8335 15.1796 16.5033 13.8657 16.4286C12.5518 16.3539 11.2358 16.5363 9.99453 16.965C8.78637 17.1985 7.71286 17.8708 6.98907 18.8471C6.26528 19.8235 5.94467 21.0318 6.09147 22.23C6.09147 26.46 6.09147 30.69 6.09147 34.935C6.09147 39.435 6.09147 43.935 6.09147 48.435C6.14621 49.6809 6.68605 50.8588 7.59995 51.7266C8.51386 52.5943 9.73234 53.0858 11.0047 53.1C12.367 53.1 13.7598 53.1 15.1221 53.1C15.8658 53.2327 16.6324 53.1614 17.3374 52.8941C18.0423 52.6268 18.6582 52.1737 19.117 51.585C19.3855 51.0511 19.8516 50.6375 20.4203 50.4285C20.989 50.2195 21.6177 50.2308 22.1782 50.46C22.4578 50.6006 22.7498 50.716 23.0507 50.805C25.8211 51.375 28.5915 51.96 31.3772 52.5C32.7394 52.755 34.1323 52.905 35.5098 53.115C36.4435 53.25 36.5813 53.505 36.2292 54.375C36.0015 54.7704 35.8595 55.2076 35.8121 55.6593C35.7647 56.111 35.8129 56.5674 35.9537 57C36.0973 57.3252 36.157 57.68 36.1276 58.0331C36.0983 58.3862 35.9807 58.7269 35.7854 59.025C35.5205 59.5811 35.3977 60.192 35.4277 60.805C35.4577 61.418 35.6395 62.0146 35.9575 62.5433C36.2754 63.072 36.72 63.5168 37.2527 63.8395C37.7854 64.1621 38.3902 64.3528 39.0149 64.395C41.5252 64.68 44.0507 64.5 46.5609 64.725C47.3109 64.8 47.4639 64.95 47.3262 65.685C47.0458 66.937 47.0094 68.2297 47.219 69.495C47.3776 70.5346 47.7633 71.5285 48.3497 72.4086C48.9362 73.2888 49.7095 74.0346 50.617 74.595C51.0394 74.8416 51.5197 74.9769 52.0112 74.9875C52.5028 74.9982 52.9888 74.8839 53.4218 74.6558C53.8549 74.4278 54.2204 74.0937 54.4826 73.6861C54.7448 73.2785 54.8948 72.8113 54.918 72.33C54.9872 71.2145 55.1718 70.1089 55.469 69.03C55.7778 67.9084 56.3556 66.8753 57.1544 66.0169C57.9531 65.1584 58.9496 64.4995 60.0609 64.095C60.1894 64.0328 60.3308 64.0005 60.4741 64.0005C60.6175 64.0005 60.7589 64.0328 60.8874 64.095C62.2636 64.7708 63.8213 65.0068 65.3415 64.77C66.2608 64.7624 67.1409 64.4042 67.7953 63.7713C68.4496 63.1385 68.8267 62.2807 68.8466 61.38C68.8619 56.145 68.816 51 68.7854 45.75ZM15.566 50.775C14.0354 50.775 12.5047 50.775 11.0507 50.775C9.59658 50.775 8.67821 49.935 8.6629 48.375C8.6629 43.875 8.6629 39.375 8.6629 34.875H8.75474C8.75474 30.375 8.75474 25.785 8.75474 21.24C8.71196 20.7161 8.88026 20.1966 9.22359 19.7929C9.56691 19.3891 10.0579 19.1332 10.5915 19.08C12.3614 18.8101 14.1633 18.8101 15.9333 19.08C16.2615 19.1082 16.5807 19.1998 16.8725 19.3496C17.1643 19.4993 17.423 19.7042 17.6336 19.9525C17.8442 20.2007 18.0026 20.4873 18.0995 20.7959C18.1965 21.1044 18.2302 21.4287 18.1986 21.75C18.1986 30.6 18.1986 39.445 18.1986 48.285C18.2292 50.1 17.5864 50.79 15.566 50.775ZM35.8007 50.775C33.3138 50.6472 30.8469 50.2702 28.4384 49.65C25.8058 49.095 23.1272 48.645 20.5405 47.835C20.1165 47.7521 19.738 47.5204 19.476 47.1835C19.2139 46.8466 19.0863 46.4276 19.117 46.005C19.117 38.61 19.117 31.215 19.117 23.82C19.117 23.25 19.117 22.695 19.117 22.125C19.0656 21.8934 19.0617 21.6541 19.1057 21.421C19.1497 21.188 19.2405 20.9658 19.373 20.7675C19.5056 20.5693 19.677 20.3988 19.8775 20.2662C20.0779 20.1336 20.3033 20.0414 20.5405 19.995C22.8004 19.1987 24.832 17.8817 26.4639 16.155C28.4859 14.0142 29.8495 11.3572 30.3976 8.48999C30.6272 7.16999 30.7649 5.83499 30.918 4.49999C31.0098 3.59999 31.0711 2.68499 32.066 2.30999C32.5606 2.08793 33.1081 2.00404 33.6483 2.06756C34.1885 2.13109 34.7002 2.33956 35.1272 2.66999C36.3703 3.57224 37.3728 4.75518 38.0497 6.11833C38.7265 7.48149 39.0576 8.9846 39.0149 10.5C39.1074 12.1534 39.0305 13.8117 38.7854 15.45C38.5467 16.7398 38.1564 17.9982 37.6221 19.2H40.6833C44.02 19.2 47.3415 19.095 50.6629 19.2C52.5397 19.0582 54.4261 19.2982 56.2037 19.905C56.7856 20.1319 57.2825 20.5282 57.6274 21.0405C57.9722 21.5528 58.1485 22.1565 58.1323 22.77C58.2093 23.3626 58.2093 23.9624 58.1323 24.555C58.0261 25.2299 57.6615 25.8398 57.1127 26.2605C56.564 26.6813 55.8722 26.8814 55.1782 26.82C53.9537 26.82 52.7445 26.82 51.52 26.82C51.2652 26.8053 51.0096 26.8053 50.7547 26.82C50.5251 26.82 50.2956 26.94 50.2956 27.21C50.2956 27.48 50.5558 27.54 50.7854 27.555C51.4894 27.555 52.1935 27.675 52.8976 27.69C53.7282 27.6878 54.5576 27.753 55.3772 27.885C55.8798 27.9111 56.354 28.1216 56.7056 28.4745C57.0572 28.8274 57.2605 29.297 57.2751 29.79C57.4477 30.9137 57.3158 32.0621 56.8925 33.12C56.6555 33.7892 56.2004 34.3633 55.5973 34.7537C54.9942 35.1441 54.2768 35.329 53.5558 35.28H49.7292C49.3925 35.28 48.918 35.28 48.918 35.715C48.918 36.15 49.3925 36.045 49.6833 36.06C50.8995 36.0424 52.1158 36.0925 53.3262 36.21C53.6828 36.2108 54.0343 36.2936 54.3524 36.4518C54.6705 36.6099 54.9463 36.8389 55.1577 37.1205C55.3691 37.402 55.5101 37.7282 55.5695 38.0729C55.6289 38.4175 55.605 38.771 55.4996 39.105C55.3252 39.9912 55.0532 40.8563 54.6884 41.685C54.4478 42.2518 54.0355 42.7326 53.5073 43.0625C52.979 43.3924 52.3602 43.5556 51.7343 43.53C50.6782 43.53 49.6221 43.53 48.566 43.53C48.2784 43.5258 47.9911 43.5509 47.7088 43.605C47.4639 43.605 47.1884 43.77 47.2037 44.07C47.219 44.37 47.5405 44.415 47.7854 44.43H49.4078C51.8415 44.43 52.8517 45.675 52.2241 47.985C52.0418 48.7712 51.5831 49.4695 50.9283 49.9577C50.2735 50.4458 49.4643 50.6926 48.6425 50.655C44.3109 50.82 40.0558 50.865 35.8007 50.805V50.775ZM59.6782 62.7C57.7706 63.4197 56.1365 64.6995 54.9994 66.3642C53.8624 68.029 53.278 69.9973 53.3262 72C53.3262 72.54 53.3262 73.155 52.7139 73.38C52.4022 73.5074 52.0611 73.5496 51.7269 73.502C51.3926 73.4545 51.0778 73.319 50.816 73.11C50.2518 72.6642 49.7849 72.1118 49.4431 71.4856C49.1013 70.8595 48.8915 70.1723 48.8262 69.465C48.5415 67.6647 48.6989 65.8238 49.2854 64.095C49.6221 63.255 49.2854 63.105 48.5354 63.105C46.0711 63.105 43.6068 63.105 41.1425 63.105C40.3109 63.1171 39.4801 63.0467 38.6629 62.895C38.3677 62.8338 38.0894 62.711 37.8471 62.5348C37.6047 62.3586 37.404 62.1332 37.2587 61.874C37.1134 61.6148 37.0269 61.328 37.0051 61.033C36.9833 60.7381 37.0267 60.442 37.1323 60.165C37.1653 59.9046 37.2561 59.6545 37.3981 59.432C37.5402 59.2096 37.7301 59.0204 37.9547 58.8775C38.1792 58.7346 38.433 58.6415 38.6981 58.6048C38.9632 58.5681 39.2333 58.5886 39.4894 58.665C40.0465 58.8073 40.6314 58.8073 41.1884 58.665C41.3874 58.665 41.6782 58.575 41.6476 58.29C41.6202 58.1789 41.5555 58.0801 41.4639 58.0094C41.3723 57.9387 41.2591 57.9001 41.1425 57.9C40.5149 57.9 39.8721 57.9 39.2292 57.9C38.9763 57.9435 38.7163 57.924 38.4731 57.8433C38.2299 57.7625 38.0113 57.6231 37.8375 57.4378C37.6637 57.2526 37.5403 57.0274 37.4786 56.7832C37.4168 56.5389 37.4188 56.2833 37.4843 56.04C37.5636 55.1597 37.869 54.3134 38.3721 53.58C38.4691 53.4375 38.6057 53.3251 38.7656 53.256C38.9256 53.1869 39.1024 53.164 39.2752 53.19C41.8007 53.19 44.3262 53.19 46.8517 53.19C48.7762 53.3462 50.6898 52.7836 52.2088 51.615C52.996 50.972 53.617 50.1559 54.0213 49.2332C54.4256 48.3104 54.6017 47.3071 54.5354 46.305C54.5354 45.45 54.6272 45.21 55.5609 45.21C56.9886 45.2857 58.4044 45.5069 59.7854 45.87C60.4282 46.005 60.6731 46.47 60.6578 47.13C60.6578 49.515 60.6578 51.9 60.6578 54.285C60.6578 56.67 60.6578 58.92 60.6578 61.245C60.6695 61.5573 60.5814 61.8654 60.4058 62.1263C60.2302 62.3871 59.9758 62.5877 59.6782 62.7ZM65.8007 63.06C64.6833 63.06 63.5507 63.06 62.4333 63.06C61.7598 63.06 61.4537 62.76 61.4537 62.085V45C61.4367 44.7302 61.5281 44.4646 61.7083 44.26C61.8885 44.0554 62.1432 43.928 62.418 43.905C63.6519 43.7048 64.9129 43.7303 66.1374 43.98C66.8109 44.1 67.0251 44.55 67.0251 45.21C67.0251 48 67.0251 50.79 67.0251 53.58C67.0251 56.37 67.0251 59.1 67.0251 61.86C67.0098 62.7 66.6884 63.105 65.77 63L65.8007 63.06Z" fill="white"/>
<path d="M13.3166 44.01C13.0198 43.9891 12.7218 44.0319 12.4435 44.1352C12.1652 44.2386 11.9132 44.4 11.7049 44.6084C11.4966 44.8168 11.3371 45.0671 11.2375 45.3419C11.1379 45.6167 11.1004 45.9095 11.1279 46.2C11.1169 46.5088 11.1714 46.8164 11.288 47.1036C11.4045 47.3907 11.5805 47.651 11.8049 47.8681C12.0293 48.0851 12.2972 48.2542 12.5916 48.3647C12.886 48.4752 13.2007 48.5247 13.5156 48.51C14.1246 48.479 14.6977 48.2179 15.1144 47.7815C15.5311 47.3452 15.759 46.7676 15.7503 46.17C15.7706 45.8613 15.7196 45.5521 15.601 45.2654C15.4824 44.9788 15.2993 44.7221 15.0654 44.5144C14.8314 44.3068 14.5526 44.1536 14.2499 44.0662C13.9471 43.9789 13.6281 43.9597 13.3166 44.01ZM13.4697 47.7C13.2628 47.7241 13.0529 47.7019 12.856 47.635C12.6591 47.5682 12.4803 47.4584 12.3329 47.314C12.1856 47.1696 12.0736 46.9943 12.0053 46.8014C11.9371 46.6084 11.9145 46.4028 11.9391 46.2C11.9391 45.255 12.4289 44.82 13.4697 44.805C14.5105 44.79 15.0003 45.165 15.0003 46.215C15.0195 46.416 14.993 46.6187 14.9226 46.8084C14.8523 46.9982 14.7399 47.1703 14.5935 47.3123C14.4471 47.4543 14.2703 47.5628 14.076 47.6298C13.8817 47.6969 13.6746 47.7208 13.4697 47.7Z" fill="white"/>
<path d="M64.1937 45.48C64.0045 45.4688 63.8151 45.4974 63.638 45.5638C63.461 45.6302 63.3005 45.7328 63.1672 45.8649C63.0339 45.9969 62.9309 46.1553 62.8651 46.3295C62.7993 46.5037 62.7722 46.6897 62.7856 46.875C62.772 47.0754 62.8024 47.2763 62.8745 47.4643C62.9466 47.6523 63.0589 47.8231 63.2038 47.9651C63.3488 48.1071 63.523 48.2171 63.7148 48.2878C63.9066 48.3585 64.1117 48.3882 64.3162 48.375C64.706 48.352 65.0721 48.1839 65.3396 47.9051C65.6071 47.6262 65.7557 47.2577 65.755 46.875C65.7692 46.6763 65.7373 46.477 65.6618 46.2921C65.5863 46.1072 65.469 45.9414 65.3188 45.8072C65.1686 45.673 64.9894 45.5739 64.7946 45.5172C64.5997 45.4605 64.3943 45.4478 64.1937 45.48ZM64.2856 47.835C64.1065 47.8378 63.9301 47.7917 63.7762 47.7018C63.6224 47.6119 63.4971 47.4818 63.4145 47.3261C63.3319 47.1703 63.2951 46.9951 63.3084 46.8201C63.3217 46.645 63.3844 46.477 63.4897 46.335C63.4723 46.4242 63.4723 46.5158 63.4897 46.605C63.4733 46.7138 63.4821 46.8249 63.5154 46.9299C63.5487 47.035 63.6057 47.1314 63.6821 47.212C63.7585 47.2926 63.8523 47.3554 63.9568 47.3957C64.0612 47.4361 64.1736 47.4529 64.2856 47.445C64.806 47.445 65.1427 47.22 65.158 46.68C65.1795 46.4964 65.1363 46.3112 65.0356 46.155C65.1434 46.2441 65.2276 46.3575 65.2809 46.4856C65.3343 46.6136 65.3551 46.7523 65.3417 46.89C65.3531 47.0249 65.3328 47.1606 65.2824 47.2866C65.2319 47.4126 65.1527 47.5256 65.0506 47.6169C64.9486 47.7082 64.8266 47.7753 64.694 47.8131C64.5613 47.8509 64.4216 47.8584 64.2856 47.835Z" fill="white"/>
</svg>
