<svg width="75" height="75" viewBox="0 0 75 75" fill="none" xmlns="http://www.w3.org/2000/svg">
<g clip-path="url(#clip0_1067_13308)">
<path d="M65.3402 5.205C64.7627 3.73433 63.7737 2.46124 62.4914 1.53812C61.2092 0.615007 59.6881 0.0809911 58.1102 2.39885e-06H24.8102C24.4841 -0.015896 24.1585 0.0388725 23.8556 0.160556C23.5527 0.28224 23.2796 0.467963 23.0552 0.705002C18.6152 5.235 14.1452 9.705 9.64517 14.115C9.43986 14.3261 9.28158 14.5782 9.18075 14.8548C9.07992 15.1315 9.03883 15.4263 9.06017 15.72C9.06017 24.36 9.06017 33.01 9.06017 41.67C9.06017 50.325 9.06017 58.98 9.06017 67.62C8.95517 72 13.3202 75 16.3652 75C24.6302 75 32.8652 75 41.1452 75C41.4448 75.0225 41.7456 75.0225 42.0452 75C42.3645 74.9515 42.6596 74.8011 42.8866 74.5714C43.1136 74.3417 43.2604 74.0449 43.3052 73.725C43.4402 73.155 42.9902 72.795 42.5552 72.495C42.0576 72.2013 41.4808 72.0702 40.9052 72.12H16.1252C15.528 72.1432 14.9325 72.0427 14.376 71.8247C13.8196 71.6068 13.3142 71.2762 12.8916 70.8536C12.469 70.431 12.1384 69.9256 11.9204 69.3691C11.7025 68.8127 11.602 68.2172 11.6252 67.62C11.6252 61.305 11.6252 54.975 11.6252 48.66C11.6252 37.95 11.6252 27.24 11.6252 16.53C11.5964 16.2567 11.6286 15.9805 11.7194 15.7211C11.8102 15.4618 11.9573 15.2257 12.1502 15.03C15.9902 11.235 19.7852 7.44 23.5802 3.615C23.745 3.42207 23.9497 3.26718 24.1802 3.16101C24.4107 3.05484 24.6614 2.99991 24.9152 3H58.5602C59.1627 2.99973 59.7591 3.12045 60.314 3.35499C60.869 3.58953 61.3712 3.93312 61.7909 4.36539C62.2105 4.79766 62.5391 5.3098 62.7572 5.87144C62.9752 6.43308 63.0783 7.03279 63.0602 7.635C63.0602 10.965 63.0602 14.295 63.0602 17.625C63.0602 23.625 63.0602 29.625 63.0602 35.625C63.0602 36.705 63.3602 36.96 64.4102 36.9C65.4602 36.84 65.6252 36.585 65.6252 35.4V7.5C65.6597 6.72443 65.5633 5.94858 65.3402 5.205Z" fill="white"/>
<path d="M20.6251 15.09C19.2173 15.2647 17.7972 15.3199 16.3801 15.255C15.7775 15.2272 15.1737 15.2675 14.5801 15.375C14.0551 15.51 13.5751 15.705 13.5751 16.365C13.5341 16.6528 13.5938 16.9459 13.7442 17.1947C13.8945 17.4434 14.1263 17.6326 14.4001 17.73C14.735 17.8634 15.09 17.9395 15.4501 17.955C16.9501 17.955 18.4501 17.955 19.9501 17.955C20.621 17.9541 21.2827 17.8002 21.8851 17.505C24.5551 16.17 26.5201 14.31 26.7301 11.1C26.9398 9.39643 26.9398 7.67358 26.7301 5.97C26.7135 5.7915 26.661 5.61819 26.5759 5.4604C26.4909 5.3026 26.3749 5.16356 26.2349 5.05157C26.0949 4.93958 25.9338 4.85693 25.7611 4.80856C25.5885 4.76018 25.4079 4.74707 25.2301 4.77C24.8779 4.83072 24.559 5.01519 24.3307 5.29019C24.1025 5.56519 23.9799 5.91265 23.9851 6.27V8.76C23.9851 9.645 23.9851 10.515 23.9851 11.385C23.951 12.2994 23.5953 13.1723 22.9806 13.8501C22.366 14.5279 21.5318 14.967 20.6251 15.09Z" fill="white"/>
<path d="M43.9647 54.5101C46.2897 53.3851 48.5547 52.1701 50.8347 50.9551C51.3116 50.5652 51.9142 50.3624 52.5298 50.3845C53.1454 50.4066 53.7319 50.6521 54.1797 51.0751C54.6059 51.4667 55.1131 51.7598 55.6652 51.9335C56.2174 52.1072 56.801 52.1572 57.3747 52.0801C61.0197 51.5551 64.2747 47.3551 61.3197 43.3651C60.6863 42.5231 59.8276 41.8777 58.8428 41.5034C57.858 41.1291 56.7873 41.0413 55.7547 41.2501C54.4838 41.6144 53.3739 42.3985 52.6057 43.4744C51.8376 44.5504 51.4565 45.8548 51.5247 47.1751C51.6223 47.674 51.5197 48.1912 51.239 48.6151C50.9583 49.0389 50.5221 49.3352 50.0247 49.4401C48.9922 49.8723 47.9899 50.3734 47.0247 50.9401C45.7197 51.6301 44.4447 52.3501 43.1247 52.9951C42.7431 53.2659 42.2799 53.3974 41.8129 53.3673C41.3459 53.3373 40.9034 53.1476 40.5597 52.8301C40.1253 52.4323 39.6151 52.1262 39.0597 51.9301C37.7046 51.5031 36.2366 51.6196 34.9659 52.255C33.6952 52.8904 32.7212 53.9948 32.2497 55.3351C31.8876 56.4202 31.8816 57.5927 32.2324 58.6815C32.5833 59.7703 33.2726 60.7187 34.2001 61.3884C35.1276 62.058 36.2447 62.414 37.3886 62.4044C38.5326 62.3948 39.6435 62.0202 40.5597 61.3351C40.9464 60.9958 41.4353 60.7954 41.9488 60.7655C42.4624 60.7356 42.9712 60.878 43.3947 61.1701C45.8697 62.4301 48.3297 63.7351 50.8047 65.0101C51.1285 65.1304 51.4008 65.3588 51.5758 65.6567C51.7507 65.9545 51.8174 66.3037 51.7647 66.6451C51.5765 67.4137 51.5765 68.2164 51.7647 68.9851C52.9497 72.1801 56.8947 74.3851 60.1797 71.8351C61.0573 71.1709 61.7221 70.265 62.0925 69.2286C62.4628 68.1921 62.5227 67.0701 62.2647 66.0001C61.841 64.9333 61.1306 64.0045 60.212 63.3162C59.2935 62.628 58.2025 62.2071 57.0597 62.1001C55.7232 62.153 54.4506 62.6855 53.4747 63.6001C53.0997 63.9151 52.7247 64.1551 52.2447 63.9301C51.2247 63.4201 50.2047 62.9101 49.2447 62.4301C47.3997 61.4851 45.5697 60.5101 43.7097 59.5951C43.1097 59.2951 42.7047 58.9651 42.7947 58.2301C42.8191 57.8154 42.8191 57.3997 42.7947 56.9851C42.6516 56.5008 42.6917 55.9809 42.9075 55.5244C43.1233 55.0679 43.4996 54.7068 43.9647 54.5101ZM57.0597 43.0201C57.9868 43.02 58.8767 43.3852 59.5364 44.0366C60.1962 44.6879 60.5728 45.573 60.5847 46.5001C60.5477 47.4199 60.1611 48.291 59.5039 48.9357C58.8466 49.5803 57.9681 49.9499 57.0477 49.969C56.1273 49.9881 55.2343 49.6554 54.5508 49.0386C53.8673 48.4219 53.4449 47.5676 53.3697 46.6501C53.3524 46.1636 53.4364 45.6788 53.6166 45.2266C53.7967 44.7743 54.0689 44.3645 54.4159 44.0231C54.763 43.6817 55.1772 43.4163 55.6323 43.2436C56.0875 43.0709 56.5735 42.9948 57.0597 43.0201ZM37.2747 60.7501C36.3581 60.6909 35.4984 60.2851 34.8702 59.6151C34.242 58.9451 33.8924 58.061 33.8924 57.1426C33.8924 56.2241 34.242 55.3401 34.8702 54.67C35.4984 54 36.3581 53.5942 37.2747 53.5351C37.7508 53.5046 38.2279 53.5755 38.6747 53.743C39.1214 53.9105 39.5275 54.1708 39.8663 54.5067C40.205 54.8426 40.4687 55.2466 40.64 55.6919C40.8112 56.1372 40.8861 56.6137 40.8597 57.0901C40.8848 57.571 40.8099 58.0518 40.6396 58.5023C40.4693 58.9527 40.2074 59.3629 39.8705 59.7069C39.5335 60.0509 39.1288 60.3213 38.682 60.5008C38.2352 60.6804 37.756 60.7653 37.2747 60.7501ZM57.0597 64.0501C57.5376 64.033 58.0139 64.1151 58.4585 64.2912C58.9032 64.4672 59.3066 64.7334 59.6433 65.073C59.9801 65.4125 60.2429 65.8181 60.4152 66.2642C60.5876 66.7104 60.6657 67.1873 60.6447 67.6651C60.6447 68.6278 60.2622 69.5511 59.5815 70.2319C58.9007 70.9126 57.9774 71.2951 57.0147 71.2951C56.0519 71.2951 55.1286 70.9126 54.4479 70.2319C53.7671 69.5511 53.3847 68.6278 53.3847 67.6651C53.3741 67.1823 53.4624 66.7025 53.6441 66.2552C53.8258 65.8078 54.0971 65.4024 54.4413 65.0638C54.7856 64.7252 55.1954 64.4606 55.6457 64.2862C56.096 64.1119 56.5772 64.0315 57.0597 64.0501Z" fill="white"/>
</g>
<defs>
<clipPath id="clip0_1067_13308">
<rect width="75" height="75" fill="white"/>
</clipPath>
</defs>
</svg>
