<svg width="75" height="75" viewBox="0 0 75 75" fill="none" xmlns="http://www.w3.org/2000/svg">
<path fill-rule="evenodd" clip-rule="evenodd" d="M62.6214 38.4298C61.3161 37.6788 59.8826 37.177 58.3938 36.9501C57.8735 36.8363 57.6134 36.625 57.5483 36.0884C57.4181 35.1851 57.2389 34.2895 57.0118 33.4055C55.9865 28.5065 53.2837 24.1189 49.3697 20.9994C46.3427 18.4675 42.5917 16.9591 38.6546 16.6905C34.0979 16.2789 29.5518 17.5836 25.9069 20.349C22.5076 22.8458 19.9815 26.3505 18.6876 30.365C17.9946 32.2212 17.557 34.1631 17.3869 36.1372C17.3926 36.249 17.3736 36.3607 17.3314 36.4644C17.2891 36.5681 17.2246 36.6612 17.1424 36.7372C17.0602 36.8132 16.9623 36.8702 16.8556 36.9042C16.749 36.9382 16.6361 36.9483 16.5251 36.9339C16.1084 36.9012 15.6898 36.9012 15.2731 36.9339C14.4261 36.9922 13.6012 37.2297 12.8529 37.6305C12.1045 38.0313 11.4497 38.5864 10.9317 39.259C10.4254 39.9573 10.0922 40.7658 9.9594 41.618C9.82662 42.4702 9.89812 43.3418 10.168 44.161C10.4379 44.9802 10.8985 45.7236 11.5118 46.33C12.1251 46.9364 12.8737 47.3885 13.6959 47.649C15.6217 47.9982 17.5883 48.0639 19.5331 47.8441C20.3624 47.8441 20.6713 47.5352 20.6551 46.7385V38.0233C20.6551 37.4054 20.4925 37.1127 19.7933 37.0965C19.0941 37.0802 18.6063 36.69 18.7689 35.812C19.0222 33.978 19.4803 32.1782 20.1347 30.4463C21.1602 27.791 22.7584 25.3944 24.8156 23.4271C26.8728 21.4599 29.3384 19.9703 32.0368 19.0645C34.4227 18.2945 36.9514 18.0722 39.435 18.4141C41.9663 18.7377 44.3997 19.5969 46.573 20.9343C48.2876 22.0381 49.823 23.398 51.1258 24.9667C52.2046 26.199 53.1025 27.5787 53.7923 29.0642C54.8417 31.1888 55.5234 33.4758 55.8086 35.8282C55.8899 36.4461 55.8086 36.9176 55.0443 36.9989C54.8698 37.0024 54.6981 37.0443 54.5416 37.1217C54.3851 37.1991 54.2475 37.3101 54.1388 37.4467C54.0301 37.5834 53.9529 37.7424 53.9127 37.9123C53.8725 38.0822 53.8703 38.2589 53.9062 38.4298V46.9336C53.9062 47.6653 54.1988 48.1856 55.0769 47.9905C55.9232 47.8024 55.9537 48.1582 55.9985 48.6792L56.0037 48.7384C56.0525 49.2413 56.0525 49.7477 56.0037 50.2506C55.7598 52.2018 55.4021 52.4944 53.4509 52.4944H48.7681C48.4865 52.531 48.2003 52.4932 47.9378 52.3848C47.6754 52.2764 47.4459 52.1012 47.2722 51.8766C46.8082 51.3092 46.2041 50.8727 45.5197 50.6104C44.8353 50.348 44.0943 50.2688 43.3699 50.3807C42.6825 50.4873 42.0395 50.7869 41.5156 51.2445C40.9918 51.7022 40.6086 52.2991 40.4106 52.966C40.455 53.5021 40.6254 54.0201 40.9079 54.4778C41.1905 54.9356 41.5772 55.3201 42.0366 55.6C42.8923 56.0586 43.8818 56.2024 44.8326 56.0063C45.7834 55.8102 46.6353 55.2866 47.2397 54.5269C47.4203 54.2919 47.6552 54.1041 47.9242 53.9795C48.1931 53.8549 48.4883 53.7973 48.7843 53.8115H54.1501C54.8351 53.8738 55.5203 53.6929 56.0852 53.3004C56.6502 52.9079 57.0588 52.3289 57.2394 51.6652C57.4752 50.7754 57.4752 49.8396 57.2394 48.9498C57.1093 48.2832 57.2394 47.8929 58.0199 47.8767C59.1835 47.9198 60.3393 47.6681 61.3797 47.1451C62.42 46.6221 63.3114 45.8446 63.9709 44.8849C64.6428 43.8484 64.8779 42.5885 64.6251 41.3795C64.3724 40.1705 63.6522 39.1103 62.6214 38.4298ZM15.4682 45.6003C15.4682 46.332 14.9804 46.6247 14.2325 46.4458C13.3927 46.1489 12.666 45.5981 12.1533 44.8698C11.6405 44.1414 11.3671 43.2716 11.3708 42.3809C11.343 41.4799 11.6131 40.5948 12.1393 39.8629C12.6654 39.1309 13.4183 38.5929 14.2812 38.3322C15.2893 38.1046 15.9072 38.4298 15.7446 39.4216C15.5373 40.9707 15.5221 42.5107 15.5068 44.0552C15.5017 44.5696 15.4967 45.0844 15.4845 45.6003H15.4682ZM19.2892 39.0964V42.3484C19.2466 43.435 19.301 44.5233 19.4518 45.6003C19.4941 45.7158 19.4941 45.8425 19.4518 45.958C19.0424 46.6184 18.4291 46.5171 17.8472 46.4209C17.7128 46.3987 17.5801 46.3767 17.4519 46.3645C16.8662 46.3087 16.9024 46.0138 16.9554 45.5822C16.9642 45.5106 16.9734 45.4351 16.9804 45.3564C17.1593 43.3333 17.1593 41.2984 16.9804 39.2753C16.9804 38.5924 17.0779 38.316 17.6633 38.2184C18.7201 38.1046 19.273 38.3647 19.3055 39.1127L19.2892 39.0964ZM45.0934 54.1204H44.0528C43.6412 54.1448 43.2286 54.1448 42.817 54.1204C42.5786 54.0986 42.3553 53.9939 42.186 53.8246C42.0167 53.6553 41.912 53.432 41.8902 53.1936C41.8666 53.0761 41.8663 52.9552 41.8894 52.8376C41.9126 52.72 41.9587 52.6082 42.0252 52.5085C42.0917 52.4088 42.1771 52.3232 42.2767 52.2566C42.3764 52.19 42.4881 52.1438 42.6057 52.1205C43.4955 51.909 44.4183 51.8758 45.321 52.0229C45.9226 52.2343 46.3617 52.5595 46.2478 53.2424C46.2153 53.5118 46.0771 53.7573 45.8637 53.925C45.6503 54.0926 45.3791 54.1688 45.1097 54.1367L45.0934 54.1204ZM57.6947 45.8117C57.7316 45.9688 57.7088 46.1341 57.6307 46.2753C57.5525 46.4165 57.4247 46.5237 57.2719 46.5759C56.7466 46.7659 56.1713 46.7659 55.646 46.5759C55.5025 46.5376 55.3797 46.4447 55.3038 46.3171C55.2278 46.1896 55.2047 46.0373 55.2395 45.893C55.3965 44.7293 55.4564 43.5545 55.4183 42.3809C55.4523 41.2938 55.3925 40.2058 55.2395 39.1289C55.1991 38.9888 55.2158 38.8384 55.2858 38.7105C55.3559 38.5826 55.4736 38.4875 55.6134 38.446C56.1358 38.2395 56.7171 38.2395 57.2394 38.446C57.3742 38.5035 57.4841 38.607 57.5496 38.7381C57.6152 38.8691 57.632 39.0192 57.5971 39.1615C57.3786 41.3806 57.4167 43.6176 57.7109 45.8279L57.6947 45.8117ZM59.8247 46.6409C59.2556 46.7547 58.8166 46.4133 58.9142 45.8442C59.101 43.8283 59.1499 41.8019 59.0605 39.7793C59.0605 38.4948 59.6946 38.1534 60.9141 38.6086C61.6495 38.9361 62.2785 39.4631 62.7297 40.1299C63.1809 40.7966 63.4363 41.5764 63.4669 42.3809C63.4153 43.3927 63.0324 44.3595 62.3772 45.1323C61.7219 45.9051 60.8308 46.4409 59.841 46.6572L59.8247 46.6409Z" fill="white"/>
<path fill-rule="evenodd" clip-rule="evenodd" d="M35.1533 28.4802C35.8168 28.2184 36.5271 28.0963 37.2399 28.1214H37.2724C38.0064 28.0741 38.7424 28.1769 39.4354 28.4235C40.1284 28.67 40.7639 29.0552 41.3031 29.5555C41.8423 30.0558 42.2739 30.6607 42.5716 31.3333C42.8693 32.006 43.0268 32.7322 43.0346 33.4677C43.0423 34.2032 42.9001 34.9326 42.6166 35.6113C42.3332 36.2901 41.9144 36.9039 41.3858 37.4155C40.8573 37.927 40.23 38.3255 39.5424 38.5866C38.8547 38.8477 38.1211 38.9659 37.3862 38.9341C36.6578 38.9782 35.9283 38.8686 35.245 38.6123C34.5617 38.3561 33.94 37.959 33.4202 37.4469C32.9003 36.9347 32.4941 36.319 32.2277 35.6396C31.9614 34.9602 31.8409 34.2323 31.8742 33.5034C31.8469 32.7907 31.9669 32.08 32.2267 31.4158C32.4865 30.7515 32.8805 30.148 33.384 29.6429C33.8876 29.1378 34.4899 28.742 35.1533 28.4802ZM34.6399 36.2496C35.3709 36.9806 36.353 37.4056 37.3862 37.4382C38.3681 37.3489 39.281 36.8957 39.9458 36.1676C40.6106 35.4396 40.9792 34.4893 40.9792 33.5034C40.9792 32.5175 40.6106 31.5672 39.9458 30.8391C39.281 30.1111 38.3681 29.6579 37.3862 29.5685C36.8683 29.5642 36.3546 29.663 35.8753 29.8592C35.3959 30.0554 34.9604 30.3451 34.5942 30.7113C34.2279 31.0776 33.9383 31.5131 33.7421 31.9924C33.5458 32.4718 33.447 32.9854 33.4514 33.5034C33.4839 34.5366 33.9089 35.5187 34.6399 36.2496Z" fill="white"/>
<path fill-rule="evenodd" clip-rule="evenodd" d="M40.8372 45.1027C40.7946 45.6827 40.7518 46.265 40.7518 46.8526C40.7355 47.5192 40.4266 47.7631 39.825 47.8119H34.7682C34.1666 47.8119 33.8576 47.568 33.8576 46.8851C33.882 46.4085 33.882 45.9309 33.8576 45.4543V44.0234C33.8838 43.8331 33.8492 43.6395 33.7586 43.4701C33.6681 43.3007 33.5263 43.1643 33.3536 43.0803C33.0355 42.9559 32.8351 43.1725 32.6522 43.3701C32.6201 43.4048 32.5885 43.439 32.5569 43.4706L32.5405 43.4866C31.8308 44.1801 31.137 44.8582 30.4594 45.5681C30.1016 45.9258 29.7927 45.9583 29.4187 45.5681C28.0746 44.1806 26.7413 42.8364 25.4189 41.5357C25.3316 41.4798 25.2598 41.4028 25.21 41.3119C25.1603 41.221 25.1342 41.119 25.1342 41.0154C25.1342 40.9117 25.1603 40.8097 25.21 40.7188C25.2598 40.6279 25.3316 40.5509 25.4189 40.495C25.8958 40.0398 26.3583 39.57 26.8209 39.1003C27.0521 38.8654 27.2833 38.6306 27.5164 38.3975C27.5473 38.3666 27.5807 38.3357 27.6146 38.3042C27.8125 38.1208 28.0291 37.92 27.8903 37.6008C27.8084 37.4264 27.6724 37.2831 27.5024 37.1923C27.3325 37.1015 27.1378 37.068 26.9473 37.0968H24.0856C23.4514 37.113 23.1588 36.9017 23.1588 36.2188V31.0644C23.1425 30.5441 23.2888 30.3002 23.8742 30.1701C24.8152 30.0246 25.7686 29.9756 26.7196 30.0238C27.1424 30.0238 27.4676 30.0075 27.6627 29.536C27.8148 29.1685 27.5915 28.9985 27.3548 28.8183C27.2877 28.7672 27.2196 28.7154 27.1586 28.658C26.5785 28.1062 26.0477 27.5174 25.5125 26.9239L25.2725 26.658C24.9148 26.2678 25.0611 25.9264 25.3863 25.5686C26.6383 24.2841 27.8903 22.9833 29.0935 21.6663C29.1596 21.5595 29.2499 21.4697 29.3572 21.4045C29.4645 21.3392 29.5857 21.3002 29.711 21.2907C29.8362 21.2812 29.9619 21.3014 30.0779 21.3497C30.1938 21.398 30.2967 21.4731 30.3781 21.5687C30.8764 21.9575 31.3137 22.4012 31.7498 22.8437C32.0251 23.1231 32.2999 23.402 32.5894 23.6663C32.6272 23.7014 32.6647 23.7397 32.7024 23.7783C32.8914 23.9719 33.0879 24.1731 33.3861 24.024C33.5462 23.9479 33.6789 23.8243 33.7661 23.6701C33.8534 23.5159 33.8911 23.3386 33.8739 23.1622C33.8739 22.8749 33.8775 22.566 33.8811 22.2571C33.8884 21.6392 33.8956 21.0213 33.8739 20.5769C33.8414 19.9103 33.9877 19.4225 34.7519 19.4225C36.5456 19.2192 38.3565 19.2192 40.1502 19.4225C40.768 19.5038 40.9469 19.8452 40.9469 20.3818V23.0646C40.9243 23.2523 40.9607 23.4424 41.051 23.6085C41.1413 23.7746 41.2811 23.9084 41.4509 23.9914C41.7627 24.127 41.9615 23.9235 42.1509 23.7296C42.1887 23.6909 42.2261 23.6526 42.2639 23.6175C42.9205 22.943 43.6212 22.3129 44.3614 21.7313C44.7842 21.3899 45.0443 21.3736 45.4183 21.7313C46.0362 22.3492 46.6621 22.9549 47.2881 23.5605C47.9141 24.1662 48.5401 24.7719 49.158 25.3898C49.275 25.4905 49.3688 25.6153 49.4331 25.7556C49.4974 25.8959 49.5307 26.0484 49.5307 26.2028C49.5307 26.3571 49.4974 26.5096 49.4331 26.6499C49.3688 26.7902 49.275 26.915 49.158 27.0158C48.6399 27.6146 48.0624 28.1593 47.4345 28.6417L47.4268 28.6466C47.12 28.8403 46.7854 29.0516 46.9467 29.4547C47.0231 29.6308 47.155 29.7771 47.3224 29.871C47.4898 29.965 47.6834 30.0015 47.8735 29.975H50.8328C51.4506 29.9588 51.6783 30.2027 51.6783 30.8205V36.17C51.6783 36.8529 51.4181 37.0643 50.7677 37.0643H47.8085C47.6321 37.0471 47.4547 37.0847 47.3005 37.172C47.1463 37.2593 47.0228 37.392 46.9467 37.552C46.7935 37.8723 47.0101 38.0734 47.2082 38.2573C47.2414 38.2881 47.2741 38.3184 47.3044 38.3488L49.0605 40.1048C49.1846 40.1918 49.2859 40.3074 49.3559 40.4418C49.4258 40.5763 49.4624 40.7256 49.4624 40.8772C49.4624 41.0287 49.4258 41.178 49.3559 41.3125C49.2859 41.4469 49.1846 41.5625 49.0605 41.6495C47.8573 42.9015 46.654 44.1697 45.4671 45.438C45.0281 45.9095 44.6703 45.9258 44.2151 45.438C43.7487 44.9261 43.2585 44.4461 42.7666 43.9645C42.5554 43.7577 42.3439 43.5505 42.1338 43.3405L42.0954 43.3019C41.8965 43.1011 41.6924 42.8951 41.4021 43.0478C41.259 43.1188 41.1379 43.2274 41.052 43.3621C40.966 43.4968 40.9184 43.6523 40.9144 43.812C40.9005 44.2418 40.8689 44.6717 40.8372 45.1027ZM39.5811 44.7876C39.5974 44.6254 39.5974 44.462 39.5811 44.2998C39.3534 42.934 39.6949 41.9584 41.2883 41.7145C41.4073 41.6899 41.4973 41.6539 41.5752 41.6227C41.8064 41.5303 41.932 41.48 42.394 41.8934C42.7467 42.209 43.2054 42.5617 43.6219 42.8819C43.9349 43.1226 44.2241 43.3449 44.4265 43.5194C44.898 43.9258 45.0768 44.0397 45.6622 43.3893C45.8498 43.1808 46.0375 42.9706 46.2256 42.7599C46.6245 42.3132 47.0257 41.8638 47.4345 41.4219C47.8247 41.0804 47.7272 40.804 47.4345 40.5276C47.3114 40.4081 47.1874 40.2893 47.0635 40.1707C46.6314 39.7568 46.2003 39.3439 45.8085 38.9016C45.7335 38.8125 45.6178 38.7437 45.5022 38.6748C45.217 38.5051 44.9318 38.3353 45.2557 37.861C45.4025 37.646 45.4749 37.3821 45.5476 37.1171C45.7004 36.5601 45.8545 35.9985 46.7028 35.8773C47.4577 35.7831 48.2186 35.745 48.9792 35.7635C49.8897 35.796 50.2149 35.422 50.2149 34.5115C50.2149 31.7473 50.036 31.5685 47.2719 31.5685C46.9325 31.6222 46.5855 31.5444 46.3015 31.351C46.0175 31.1577 45.8179 30.8633 45.7435 30.5278L45.6873 30.3698C45.2049 29.0154 45.1969 28.9932 46.2313 27.9588C46.3333 27.8568 46.434 27.7534 46.5349 27.6499C46.7877 27.3904 47.0417 27.1297 47.3207 26.8857C47.4348 26.812 47.5286 26.7109 47.5936 26.5916C47.6585 26.4723 47.6926 26.3386 47.6926 26.2028C47.6926 26.0669 47.6585 25.9333 47.5936 25.814C47.5286 25.6947 47.4348 25.5936 47.3207 25.5199C46.7136 24.9742 46.1683 24.3635 45.6947 23.6988C45.3858 23.211 45.1581 22.9671 44.4915 23.6012C44.2058 23.873 43.9111 24.1358 43.6164 24.3986C43.2236 24.749 42.8307 25.0994 42.459 25.4711C42.3366 25.6119 42.1687 25.7054 41.9844 25.7351C41.8002 25.7648 41.6114 25.7289 41.4509 25.6337C39.451 24.7394 39.1583 24.1703 39.6298 21.9427C39.6614 21.7598 39.6614 21.5728 39.6298 21.3899C39.5811 20.9509 39.3209 20.5769 38.8982 20.6907C38.0887 20.8392 37.2635 20.8829 36.4429 20.8208C35.7763 20.8533 35.4511 21.081 35.4511 21.8126V24.0077C35.4511 24.0872 35.4606 24.163 35.4697 24.2353C35.5035 24.5031 35.5311 24.7227 35.0446 24.902C34.6585 25.0442 34.3296 25.2309 34.0062 25.4144C33.8121 25.5246 33.6199 25.6336 33.4186 25.7312C33.2449 25.8386 33.0376 25.878 32.8366 25.842C32.6356 25.806 32.4549 25.6971 32.3292 25.5361C31.7601 24.8857 30.9146 24.0727 30.5244 23.6988C30.4837 23.6598 30.4459 23.6218 30.41 23.5859C30.102 23.2773 29.9413 23.1163 29.4025 23.6988C28.8009 24.3492 28.1667 24.967 27.5164 25.5849C27.409 25.6561 27.321 25.7527 27.2601 25.8662C27.1992 25.9797 27.1673 26.1065 27.1673 26.2353C27.1673 26.3641 27.1992 26.4909 27.2601 26.6044C27.321 26.7178 27.409 26.8145 27.5164 26.8857C27.7684 27.1214 28.0123 27.3735 28.2562 27.6255C28.5001 27.8775 28.744 28.1295 28.996 28.3653C29.1951 28.5238 29.3353 28.7445 29.3943 28.9921C29.4532 29.2397 29.4275 29.4999 29.3212 29.7311L29.2578 29.9306C29.0131 30.703 28.8838 31.1112 28.6054 31.3268C28.2934 31.5685 27.7943 31.5685 26.7359 31.5685C24.6546 31.5685 24.6546 31.5847 24.6546 33.666C24.6546 35.7472 24.6546 35.8773 26.8009 35.7472C27.3221 35.6344 27.8668 35.7292 28.3192 36.0116C28.7716 36.2939 29.096 36.7416 29.2236 37.2594C29.2842 37.4103 29.3548 37.5569 29.435 37.6984C29.6626 38.0236 29.5651 38.2512 29.2887 38.5114C29.0028 38.7903 28.7229 39.0722 28.4438 39.3533C28.0721 39.7276 27.702 40.1004 27.3212 40.4625C27.2759 40.5099 27.232 40.5529 27.191 40.593C26.8938 40.8841 26.7497 41.0253 27.3212 41.5682C27.9716 42.1861 28.5895 42.8202 29.2074 43.4706C29.2786 43.5779 29.3752 43.6659 29.4887 43.7268C29.6022 43.7878 29.729 43.8196 29.8578 43.8196C29.9865 43.8196 30.1133 43.7878 30.2268 43.7268C30.3403 43.6659 30.4369 43.5779 30.5081 43.4706C31.1174 42.7769 31.7987 42.1501 32.5406 41.6007C32.7357 41.4706 32.8821 41.3731 33.1422 41.3731C33.4468 41.4055 33.7419 41.4977 34.0107 41.6445C34.2795 41.7913 34.5167 41.9898 34.7086 42.2285C34.9004 42.4672 35.0433 42.7415 35.1288 43.0355C35.2144 43.3296 35.241 43.6377 35.2072 43.9421V44.1372L35.2032 44.4121C35.1878 45.4242 35.1801 45.9262 35.4273 46.1744C35.6705 46.4185 36.1603 46.4171 37.132 46.4143C37.2428 46.4139 37.3599 46.4136 37.4836 46.4136H37.9551C38.7681 46.4136 39.1746 46.4136 39.3778 46.2103C39.5811 46.0071 39.5811 45.6006 39.5811 44.7876Z" fill="white"/>
<path fill-rule="evenodd" clip-rule="evenodd" d="M32.9562 1.88209C35.4657 -0.62736 39.5343 -0.627363 42.0438 1.88208L73.1179 32.9562C75.6274 35.4657 75.6274 39.5343 73.1179 42.0438L42.0438 73.1179C39.5343 75.6274 35.4657 75.6274 32.9562 73.1179L1.88209 42.0438C-0.627359 39.5343 -0.627365 35.4657 1.88208 32.9562L32.9562 1.88209ZM40.3398 3.58599L71.414 34.6601C72.9824 36.2286 72.9824 38.7714 71.414 40.3398L40.3398 71.414C38.7714 72.9824 36.2286 72.9824 34.6602 71.414L3.58599 40.3399C2.01759 38.7714 2.01759 36.2286 3.58599 34.6602L34.6601 3.58599C36.2286 2.01759 38.7714 2.01759 40.3398 3.58599Z" fill="white"/>
</svg>
