<svg width="75" height="75" viewBox="0 0 75 75" fill="none" xmlns="http://www.w3.org/2000/svg">
<path d="M75 4.28918C74.9545 3.55845 74.6395 2.87243 74.1183 2.3691C73.5972 1.86577 72.9086 1.58247 72.1911 1.5762C71.8306 1.5762 71.4851 1.5762 71.1246 1.5762H4.04066C3.17959 1.46528 2.30739 1.66089 1.57127 2.13001C0.835138 2.59913 0.28016 3.31303 0 4.15123L0 60.2348C0.195273 60.2348 0.270379 60.4341 0.375526 60.5874C0.670367 61.1229 1.08038 61.5831 1.57472 61.9336C2.06906 62.284 2.63485 62.5155 3.22952 62.6106C4.694 62.7206 6.16338 62.7462 7.63068 62.6873H20.5337C20.832 62.7483 21.1417 62.706 21.4137 62.5672C21.6858 62.4284 21.9047 62.201 22.0359 61.9209C22.1604 61.6979 22.2207 61.4436 22.2099 61.1872C22.1991 60.9307 22.1177 60.6826 21.9749 60.4713C21.8322 60.26 21.6339 60.0941 21.4029 59.9926C21.1719 59.8911 20.9175 59.8582 20.6689 59.8976H4.80673C3.30463 59.8976 2.68876 59.2845 2.6437 57.7365C2.6437 55.8512 2.82395 53.9659 2.82395 52.0806C2.82395 40.309 2.82395 28.5272 2.82395 16.7352C2.82395 15.2024 2.82395 15.2024 4.32606 15.4017H4.94192H21.7054H40.7671H58.9876C59.4683 15.4017 59.979 15.2331 60.4897 15.2791C63.2836 15.555 66.0775 15.2791 68.8714 15.4017C69.2319 15.4017 69.5774 15.2484 69.5774 14.7732C69.5835 14.6746 69.5705 14.5756 69.539 14.4821C69.5076 14.3886 69.4583 14.3024 69.3941 14.2283C69.3299 14.1543 69.252 14.0939 69.1649 14.0506C69.0778 14.0074 68.9832 13.9821 68.8864 13.9762C68.5363 13.9533 68.1851 13.9533 67.835 13.9762H3.55998C3.04927 13.9762 2.82395 13.731 2.82395 13.2098C2.82395 10.8954 2.82395 8.61156 2.82395 6.26644C2.80762 6.01078 2.87776 5.75714 3.02266 5.54791C3.16756 5.33867 3.37844 5.18652 3.62007 5.11687C4.33848 4.91344 5.09079 4.86644 5.82816 4.97892H70.7791C71.8906 4.97892 72.5215 5.54604 72.5215 6.51168V57.951C72.5633 58.2177 72.5423 58.4907 72.4603 58.7475C72.3782 59.0042 72.2374 59.2373 72.0495 59.4276C71.8616 59.6178 71.632 59.7596 71.3798 59.8414C71.1275 59.9231 70.8598 59.9424 70.5988 59.8976H52.5736C51.5372 59.8976 51.2067 60.2502 51.2217 61.3078C51.2367 62.3654 51.6423 62.6873 52.844 62.6873C58.9876 62.6873 65.1462 62.6873 71.3048 62.6873C71.9838 62.7009 72.6542 62.5308 73.2478 62.1942C73.8415 61.8577 74.3372 61.3667 74.6846 60.7713C74.8346 60.0047 74.8951 59.2227 74.8648 58.4415V5.89858C74.8648 5.36211 74.8648 4.82565 74.8648 4.27385L75 4.28918Z" fill="white"/>
<path d="M58.4917 48.9699C59.9222 45.8985 60.4442 42.4683 59.9938 39.0989C59.5471 35.5015 58.0562 32.1226 55.7128 29.3966C50.6507 23.7407 44.5372 21.1197 37.0417 22.959C32.8747 23.9184 29.1604 26.317 26.527 29.7491C24.9627 31.7495 23.8036 34.0471 23.1172 36.5085C22.5203 38.7594 22.357 41.107 22.6365 43.4213C23.0834 47.5196 24.8476 51.3516 27.6535 54.3192C28.9303 55.7293 29.0355 56.0972 28.1492 57.8599C26.8424 60.4502 25.4304 62.964 23.9283 65.5237C23.3978 66.3873 23.1165 67.386 23.1165 68.4052C23.1165 69.4245 23.3978 70.4232 23.9283 71.2868C24.2388 71.9997 24.7576 72.5973 25.4137 72.9979C26.0697 73.3984 26.831 73.5824 27.5934 73.5247C28.5929 73.5439 29.5782 73.2824 30.4418 72.7688C31.3055 72.2552 32.0141 71.5092 32.4903 70.6124L37.8228 61.186C37.941 60.9255 38.1368 60.7097 38.3822 60.5693C38.6276 60.429 38.9102 60.3712 39.1897 60.4043C39.9393 60.5289 40.6984 60.5854 41.4579 60.5729C43.2738 60.4862 45.0736 60.1827 46.8204 59.6685C49.4216 58.88 51.8183 57.511 53.8369 55.6606C55.8556 53.8102 57.4456 51.5247 58.4917 48.9699ZM30.9281 70.0453C30.5225 70.6856 29.9227 71.1731 29.2203 71.4332C28.5179 71.6933 27.7514 71.7119 27.0377 71.4861C26.3235 71.3098 25.691 70.8869 25.2475 70.289C24.804 69.6912 24.5767 68.9553 24.6043 68.206C24.5956 67.8319 24.6673 67.4604 24.8146 67.1177C25.16 66.0755 25.9862 65.9528 26.6621 66.7805C27.0777 67.3195 27.5948 67.7681 28.183 68.0998C28.7712 68.4315 29.4186 68.6396 30.0869 68.7118C30.853 68.8038 31.3487 69.3249 30.9281 70.0453ZM35.7649 61.4619C34.8186 63.1479 33.8873 64.8493 32.956 66.5353C32.6848 67.082 32.2403 67.5189 31.6948 67.7749C31.1493 68.031 30.535 68.0911 29.9517 67.9454C29.071 67.8345 28.2484 67.4381 27.6048 66.8146C26.9613 66.191 26.5308 65.3732 26.3767 64.4814C26.3557 64.3624 26.361 64.2401 26.3921 64.1234C26.4233 64.0067 26.4796 63.8986 26.557 63.807C27.5183 62.029 28.5097 60.2663 29.4861 58.4883C29.7715 57.9518 30.2221 57.2314 30.853 57.3541C31.5064 57.4543 32.1371 57.6723 32.7156 57.9978C33.5793 58.3344 34.3971 58.7825 35.149 59.3313C35.9602 60.0057 36.3207 60.4502 35.7649 61.4619ZM41.4278 58.5956C39.1519 58.6642 36.8864 58.2555 34.7714 57.3948C32.6565 56.5342 30.7371 55.2399 29.132 53.592C27.5269 51.9441 26.2703 49.9776 25.4398 47.8143C24.6093 45.651 24.2227 43.3368 24.3038 41.0149C24.3485 38.7424 24.8339 36.5015 25.7318 34.4214C26.6298 32.3413 27.9225 30.4633 29.5355 28.8958C31.1485 27.3283 33.0498 26.1022 35.1296 25.2885C37.2094 24.4747 39.4266 24.0893 41.6531 24.1545C46.1621 24.2471 50.4544 26.1462 53.6024 29.4416C56.7504 32.737 58.5013 37.164 58.4767 41.7659C58.4016 46.3042 56.5636 50.6263 53.3666 53.7822C50.1696 56.938 45.8754 58.6694 41.4278 58.5956Z" fill="white"/>
<path d="M40.5568 26.1164C36.8644 26.3418 33.3924 27.9845 30.8381 30.7146C30.6279 30.9292 30.2974 31.1898 30.5527 31.4657C30.8081 31.7416 31.0484 31.3584 31.2437 31.1745C31.439 30.9905 31.6643 30.7453 31.8746 30.5307C33.0789 29.371 34.4989 28.4693 36.0504 27.879C37.6273 27.3178 39.2782 27.0025 40.9473 26.944C42.9654 26.7984 44.9875 27.1616 46.8355 28.0016C47.8886 28.4802 48.8946 29.0602 49.8398 29.7337C49.99 29.841 50.1402 29.9636 50.3204 29.8563C50.5007 29.749 50.4105 29.7183 50.5307 29.4884L49.9749 29.1052C47.3067 26.9529 43.9506 25.8878 40.5568 26.1164Z" fill="white"/>
<path d="M6.62414 9.59284C6.59543 9.78545 6.61045 9.98223 6.66805 10.168C6.72565 10.3537 6.8243 10.5235 6.95638 10.6642C7.08845 10.8049 7.25043 10.9128 7.42983 10.9795C7.60922 11.0462 7.80124 11.07 7.99106 11.049C8.37431 11.0497 8.74332 10.9009 9.02257 10.633C9.30182 10.3652 9.47017 9.99853 9.49316 9.60817C9.50644 9.40338 9.47668 9.19806 9.40589 9.00595C9.3351 8.81384 9.2249 8.63939 9.08268 8.49426C8.94046 8.34914 8.76949 8.23669 8.58123 8.16446C8.39297 8.09222 8.19175 8.06186 7.99106 8.07541C6.99967 8.16737 6.50398 8.65786 6.62414 9.59284Z" fill="white"/>
<path d="M11.3263 9.5931C11.2976 9.78572 11.3126 9.98249 11.3702 10.1682C11.4278 10.354 11.5264 10.5238 11.6585 10.6645C11.7906 10.8052 11.9526 10.913 12.132 10.9797C12.3114 11.0464 12.5034 11.0702 12.6932 11.0492C13.0765 11.0499 13.4455 10.9011 13.7247 10.6333C14.004 10.3654 14.1723 9.99879 14.1953 9.60843C14.2111 9.40304 14.1831 9.19659 14.1132 9.0033C14.0433 8.81001 13.9332 8.63448 13.7904 8.4888C13.6477 8.34312 13.4757 8.23074 13.2862 8.15942C13.0968 8.0881 12.8945 8.05953 12.6932 8.07567C11.7018 8.16764 11.2061 8.65812 11.3263 9.5931Z" fill="white"/>
<path d="M15.9673 9.59284C15.9386 9.78545 15.9536 9.98223 16.0112 10.168C16.0688 10.3537 16.1675 10.5235 16.2995 10.6642C16.4316 10.8049 16.5936 10.9128 16.773 10.9795C16.9524 11.0462 17.1444 11.07 17.3342 11.049C17.7303 11.0699 18.1183 10.9302 18.4138 10.6602C18.7093 10.3903 18.8882 10.0121 18.9114 9.60817C18.9247 9.40338 18.895 9.19806 18.8242 9.00595C18.7534 8.81384 18.6432 8.63939 18.5009 8.49426C18.3587 8.34914 18.1878 8.23669 17.9995 8.16446C17.8112 8.09222 17.61 8.06186 17.4093 8.07541C16.3579 8.16737 15.8622 8.65786 15.9673 9.59284Z" fill="white"/>
</svg>
