<svg width="22" height="22" viewBox="0 0 22 22" fill="none" xmlns="http://www.w3.org/2000/svg">
<path d="M11.0001 4.05617C11.1224 4.05617 11.2369 4.07542 11.3439 4.11392C11.4508 4.15181 11.5501 4.21659 11.6418 4.30825L17.6918 10.3583C17.8751 10.5416 17.9668 10.7594 17.9668 11.0118C17.9668 11.2636 17.8751 11.4812 17.6918 11.6645C17.5085 11.8478 17.2946 11.9395 17.0501 11.9395C16.8057 11.9395 16.5918 11.8478 16.4085 11.6645L11.9168 7.17283L11.9168 17.4395C11.9168 17.6992 11.8288 17.9131 11.6528 18.0812C11.4774 18.2492 11.2599 18.3333 11.0001 18.3333C10.7404 18.3333 10.5225 18.2456 10.3465 18.0702C10.1712 17.8942 10.0835 17.6763 10.0835 17.4166L10.0835 7.17283L5.5918 11.6645C5.40846 11.8478 5.19457 11.9395 4.95013 11.9395C4.70569 11.9395 4.4918 11.8478 4.30846 11.6645C4.12513 11.4812 4.03346 11.2636 4.03346 11.0118C4.03346 10.7594 4.12513 10.5416 4.30846 10.3583L10.3585 4.30825C10.4501 4.21659 10.5494 4.15181 10.6564 4.11392C10.7633 4.07542 10.8779 4.05617 11.0001 4.05617Z" fill="#8A8C8E"/>
</svg>
