<svg width="22" height="22" viewBox="0 0 22 22" fill="none" xmlns="http://www.w3.org/2000/svg">
<path d="M10.9999 17.9438C10.8776 17.9438 10.7631 17.9246 10.6561 17.8861C10.5492 17.8482 10.4499 17.7834 10.3582 17.6917L4.3082 11.6417C4.12487 11.4584 4.0332 11.2406 4.0332 10.9882C4.0332 10.7364 4.12487 10.5188 4.3082 10.3355C4.49154 10.1522 4.70543 10.0605 4.94987 10.0605C5.19431 10.0605 5.4082 10.1522 5.59154 10.3355L10.0832 14.8272V4.5605C10.0832 4.30078 10.1712 4.08689 10.3472 3.91883C10.5226 3.75078 10.7401 3.66675 10.9999 3.66675C11.2596 3.66675 11.4775 3.75444 11.6535 3.92983C11.8288 4.10583 11.9165 4.32369 11.9165 4.58341V14.8272L16.4082 10.3355C16.5915 10.1522 16.8054 10.0605 17.0499 10.0605C17.2943 10.0605 17.5082 10.1522 17.6915 10.3355C17.8749 10.5188 17.9665 10.7364 17.9665 10.9882C17.9665 11.2406 17.8749 11.4584 17.6915 11.6417L11.6415 17.6917C11.5499 17.7834 11.4506 17.8482 11.3436 17.8861C11.2367 17.9246 11.1221 17.9438 10.9999 17.9438Z" fill="white"/>
</svg>
