<svg width="20" height="20" viewBox="0 0 20 20" fill="none" xmlns="http://www.w3.org/2000/svg">
<title>Плохая история</title>
<path d="M3.33301 11.5469C3.33301 15.2948 6.31778 18.333 9.99967 18.333C13.6816 18.333 16.6663 15.2948 16.6663 11.5469C16.6663 7.82845 14.5386 3.48933 11.2188 1.93764C10.8318 1.75677 10.4158 1.66634 9.99967 1.66634C9.58359 1.66634 9.16751 1.75677 8.78056 1.93764C5.46078 3.48933 3.33301 7.82845 3.33301 11.5469Z" stroke="#D71920" stroke-width="1.8"/>
<path d="M11 15C11 15.5523 10.5523 16 10 16C9.44772 16 9 15.5523 9 15C9 14.4477 9.44772 14 10 14C10.5523 14 11 14.4477 11 15Z" fill="#D71920"/>
<path d="M10 5L10 12" stroke="#D71920" stroke-width="1.8" stroke-linecap="round"/>
</svg>
