<svg width="20" height="20" viewBox="0 0 20 20" fill="none" xmlns="http://www.w3.org/2000/svg">
<title>Горящая путевка</title>
<path d="M12.7987 18.3337C14.4846 17.7843 16.6663 16.1553 16.6663 12.443C16.6663 8.4101 12.453 4.0785 9.64362 1.8377C9.17975 1.4677 8.5128 1.73412 8.29638 2.30111C6.92492 5.89425 3.33301 9.69751 3.33301 12.443C3.33301 15.1539 5.20433 17.0753 6.73419 18.0025" stroke="url(#paint0_linear_2637_15755)" stroke-width="1.8"/>
<path opacity="0.5" d="M12.9748 18.3139C12.6179 18.4296 12.3834 17.9961 12.5968 17.6765C13.3251 16.5861 14.167 14.9228 14.167 13.3579C14.167 11.6768 12.807 9.69211 11.745 8.46798C11.5022 8.18811 11.0788 8.37329 11.0655 8.75028C11.0216 9.99923 10.8325 11.6702 10.0168 12.9798C9.88545 13.1906 9.60674 13.2081 9.45713 13.011C9.20226 12.6752 8.94739 12.2603 8.69252 11.9326C8.55523 11.7561 8.3071 11.7536 8.14875 11.9099C7.53136 12.5189 6.66699 13.4687 6.66699 14.6506C6.66699 15.5032 7.05693 16.564 7.45894 17.3857C7.6415 17.7589 7.30281 18.1967 6.95488 17.9868" stroke="url(#paint1_linear_2637_15755)" stroke-width="1.8"/>
<defs>
<linearGradient id="paint0_linear_2637_15755" x1="3.74161" y1="19.9784" x2="16.9093" y2="16.2209" gradientUnits="userSpaceOnUse">
<stop stop-color="#EF4D29"/>
<stop offset="1" stop-color="#EC996A"/>
</linearGradient>
<linearGradient id="paint1_linear_2637_15755" x1="6.89683" y1="19.3198" x2="14.3718" y2="17.3201" gradientUnits="userSpaceOnUse">
<stop stop-color="#EF4D29"/>
<stop offset="1" stop-color="#EC996A"/>
</linearGradient>
</defs>
</svg>
