<svg width="20" height="20" viewBox="0 0 20 20" fill="none" xmlns="http://www.w3.org/2000/svg">
<g clip-path="url(#clip0_385_539)">
<path d="M18.75 1H1.25C0.918479 1 0.600537 1.12292 0.366116 1.34171C0.131696 1.5605 0 1.85725 0 2.16667V13.8333C0 14.1428 0.131696 14.4395 0.366116 14.6583C0.600537 14.8771 0.918479 15 1.25 15H18.75C19.0815 15 19.3995 14.8771 19.6339 14.6583C19.8683 14.4395 20 14.1428 20 13.8333V2.16667C20 1.85725 19.8683 1.5605 19.6339 1.34171C19.3995 1.12292 19.0815 1 18.75 1ZM17.7875 13.8333H2.2875L6.6625 9.61L5.7625 8.79917L1.25 13.1567V3.05333L9.01875 10.2692C9.25295 10.4865 9.56977 10.6084 9.9 10.6084C10.2302 10.6084 10.547 10.4865 10.7812 10.2692L18.75 2.8725V13.0808L14.15 8.7875L13.2687 9.61L17.7875 13.8333ZM2.06875 2.16667H17.7375L9.9 9.44083L2.06875 2.16667Z" fill="white"/>
</g>
<defs>
<clipPath id="clip0_385_539">
<rect width="20" height="20" fill="white"/>
</clipPath>
</defs>
</svg>
