<svg width="12" height="16" viewBox="0 0 12 16" fill="none" xmlns="http://www.w3.org/2000/svg">
<path d="M6.0013 14.6665L5.63328 15.005C5.72796 15.1079 5.86144 15.1665 6.0013 15.1665C6.14117 15.1665 6.27464 15.1079 6.36932 15.005L6.0013 14.6665ZM9.77254 10.566L10.1406 10.9045L10.1406 10.9045L9.77254 10.566ZM2.23007 10.566L2.59809 10.2275L2.59809 10.2275L2.23007 10.566ZM2.23006 2.36499L1.86204 2.02652L1.86204 2.02652L2.23006 2.36499ZM9.77254 2.36499L9.40452 2.70346L9.40452 2.70346L9.77254 2.36499ZM6.36932 15.005L10.1406 10.9045L9.40452 10.2275L5.63328 14.328L6.36932 15.005ZM1.86205 10.9045L5.63328 15.005L6.36932 14.328L2.59809 10.2275L1.86205 10.9045ZM1.86204 2.02652C-0.396724 4.4825 -0.396722 8.44849 1.86205 10.9045L2.59809 10.2275C0.691264 8.15422 0.691262 4.77676 2.59809 2.70346L1.86204 2.02652ZM10.1406 2.02652C7.85968 -0.453501 4.14292 -0.453501 1.86204 2.02652L2.59809 2.70346C4.4828 0.654186 7.5198 0.654186 9.40452 2.70346L10.1406 2.02652ZM10.1406 10.9045C12.3993 8.44848 12.3993 4.4825 10.1406 2.02652L9.40452 2.70346C11.3113 4.77677 11.3113 8.15422 9.40452 10.2275L10.1406 10.9045ZM7.50098 5.99988C7.50098 6.8283 6.8294 7.49988 6.00098 7.49988V8.49988C7.38169 8.49988 8.50098 7.38059 8.50098 5.99988H7.50098ZM6.00098 4.49988C6.8294 4.49988 7.50098 5.17145 7.50098 5.99988H8.50098C8.50098 4.61917 7.38169 3.49988 6.00098 3.49988V4.49988ZM4.50098 5.99988C4.50098 5.17145 5.17255 4.49988 6.00098 4.49988V3.49988C4.62026 3.49988 3.50098 4.61917 3.50098 5.99988H4.50098ZM6.00098 7.49988C5.17255 7.49988 4.50098 6.8283 4.50098 5.99988H3.50098C3.50098 7.38059 4.62026 8.49988 6.00098 8.49988V7.49988Z" fill="#3B4255"/>
</svg>
