<svg width="14" height="16" viewBox="0 0 14 16" fill="none" xmlns="http://www.w3.org/2000/svg">
<path d="M11.8125 16H2.1875C1.84568 16 1.52217 16 1.23398 16C0.598288 16 0.143379 15.4184 0.387094 14.8312C1.08786 13.1431 2.89365 10.2223 7 10.2223C11.1063 10.2223 12.9121 13.1431 13.6129 14.8312C13.8566 15.4184 13.4017 16 12.766 16C12.4778 16 12.1543 16 11.8125 16Z" fill="#3B4255"/>
<path d="M7 7.11106C8.933 7.11106 10.5 5.5192 10.5 3.55553C10.5 1.59187 8.933 0 7 0C5.067 0 3.5 1.59187 3.5 3.55553C3.5 5.5192 5.067 7.11106 7 7.11106Z" fill="#3B4255"/>
</svg>
