<svg width="36" height="36" viewBox="0 0 36 36" fill="none" xmlns="http://www.w3.org/2000/svg">
<path fill-rule="evenodd" clip-rule="evenodd" d="M30.6642 22.2108C31.0393 22.5859 31.25 23.0946 31.25 23.625L31.25 30.375C31.25 30.9054 31.0393 31.4141 30.6642 31.7892C30.2891 32.1643 29.7804 32.375 29.25 32.375L22.5 32.375C21.9696 32.375 21.4609 32.1643 21.0858 31.7892C20.7107 31.4141 20.5 30.9054 20.5 30.375L20.5 23.625C20.5 23.0946 20.7107 22.5859 21.0858 22.2108C21.4609 21.8357 21.9696 21.625 22.5 21.625L25 21.625L25 20.25C25 19.587 24.7366 18.9511 24.2678 18.4822C23.7989 18.0134 23.163 17.75 22.5 17.75L13.5 17.75C12.837 17.75 12.2011 18.0134 11.7322 18.4822C11.2634 18.9511 11 19.587 11 20.25L11 21.625L13.5 21.625C14.0304 21.625 14.5391 21.8357 14.9142 22.2108C15.2893 22.5859 15.5 23.0946 15.5 23.625L15.5 30.375C15.5 30.9054 15.2893 31.4141 14.9142 31.7892C14.5391 32.1643 14.0304 32.375 13.5 32.375L6.75 32.375C6.21957 32.375 5.71086 32.1643 5.33579 31.7892C4.96071 31.4141 4.75 30.9054 4.75 30.375L4.75 23.625C4.75 23.0946 4.96071 22.5859 5.33579 22.2108C5.71086 21.8357 6.21957 21.625 6.75 21.625L9.25 21.625L9.25 20.2502C9.25366 19.1241 9.70262 18.0452 10.4989 17.2489C11.2952 16.4525 12.3746 16.0036 13.5008 16L17.125 16L17.125 12.125L15.1875 12.125C14.6571 12.125 14.1484 11.9143 13.7733 11.5392C13.3982 11.1641 13.1875 10.6554 13.1875 10.125L13.1875 4.5C13.1875 3.96957 13.3982 3.46086 13.7733 3.08579C14.1484 2.71071 14.6571 2.5 15.1875 2.5L20.8125 2.5C21.3429 2.5 21.8516 2.71071 22.2267 3.08579C22.6018 3.46086 22.8125 3.96957 22.8125 4.5L22.8125 10.125C22.8125 10.6554 22.6018 11.1641 22.2267 11.5392C21.8516 11.9143 21.3429 12.125 20.8125 12.125L18.875 12.125L18.875 16L22.4995 16C23.6257 16.0036 24.7048 16.4525 25.5011 17.2489C26.2974 18.0452 26.7464 19.1242 26.75 20.2503L26.75 21.625L29.25 21.625C29.7804 21.625 30.2891 21.8357 30.6642 22.2108ZM29.5 30.625L29.5 23.375L22.25 23.375L22.25 30.625L29.5 30.625ZM21.0625 10.375L21.0625 4.25L14.9375 4.25L14.9375 10.375L21.0625 10.375ZM13.75 30.625L13.75 23.375L6.5 23.375L6.5 30.625L13.75 30.625Z" fill="#0066B3"/>
</svg>
