<svg width="35" height="38" viewBox="0 0 35 38" fill="none" xmlns="http://www.w3.org/2000/svg">
<path d="M27.4433 12.2041L28.2385 11.409C29.5559 10.0915 31.6919 10.0915 33.0094 11.409C34.3268 12.7264 34.3268 14.8624 33.0094 16.1799L32.2142 16.9751M27.4433 12.2041C27.4433 12.2041 27.5427 13.8938 29.0336 15.3847C30.5245 16.8757 32.2142 16.9751 32.2142 16.9751M27.4433 12.2041L20.1331 19.5143C19.638 20.0095 19.3904 20.2571 19.1775 20.53C18.9263 20.852 18.711 21.2004 18.5353 21.5691C18.3864 21.8816 18.2757 22.2137 18.0542 22.878L17.3453 25.0049L17.1159 25.693M32.2142 16.9751L24.904 24.2853C24.4089 24.7804 24.1613 25.028 23.8883 25.2409C23.5663 25.492 23.2179 25.7074 22.8493 25.883C22.5368 26.032 22.2046 26.1427 21.5403 26.3641L19.4135 27.0731L18.7254 27.3024M18.7254 27.3024L18.0373 27.5318C17.7104 27.6408 17.35 27.5557 17.1063 27.312C16.8627 27.0684 16.7776 26.708 16.8866 26.381L17.1159 25.693M18.7254 27.3024L17.1159 25.693" stroke="#0066B3" stroke-width="1.7"/>
<path d="M9.97656 20.7158H14.266" stroke="#0066B3" stroke-width="1.7" stroke-linecap="round"/>
<path d="M9.97656 13.853H21.129" stroke="#0066B3" stroke-width="1.7" stroke-linecap="round"/>
<path d="M9.97656 27.5786H12.5502" stroke="#0066B3" stroke-width="1.7" stroke-linecap="round"/>
<path d="M30.272 3.85242C28.2619 1.84229 25.0266 1.84229 18.5561 1.84229H15.1245C8.65399 1.84229 5.41872 1.84229 3.40858 3.85242C1.39844 5.86256 1.39844 9.09784 1.39844 15.5684V22.4314C1.39844 28.902 1.39844 32.1372 3.40858 34.1474C5.41872 36.1575 8.65399 36.1575 15.1245 36.1575H18.5561C25.0266 36.1575 28.2619 36.1575 30.272 34.1474C31.8901 32.5293 32.2057 30.1173 32.2672 25.8629" stroke="#0066B3" stroke-width="1.7" stroke-linecap="round"/>
</svg>
