<svg width="20" height="20" viewBox="0 0 20 20" fill="none" xmlns="http://www.w3.org/2000/svg">
<path d="M18 18L2 18" stroke="#8A8C8E" stroke-width="1.2" stroke-linecap="round"/>
<path d="M14 18V5.2C14 3.69151 14 2.93726 13.5314 2.46863C13.0627 2 12.3085 2 10.8 2H9.2C7.69151 2 6.93726 2 6.46863 2.46863C6 2.93726 6 3.69151 6 5.2V18" stroke="#8A8C8E" stroke-width="1.2"/>
<path d="M17 18V9.75C17 8.64649 17 8.09474 16.7111 7.69839C16.586 7.52681 16.4253 7.37948 16.2381 7.26483C15.8057 7 15.2038 7 14 7" stroke="#8A8C8E" stroke-width="1.2"/>
<path d="M3 18V9.75C3 8.64649 3 8.09474 3.28891 7.69839C3.41398 7.52681 3.5747 7.37948 3.76188 7.26483C4.19426 7 4.79618 7 6 7" stroke="#8A8C8E" stroke-width="1.2"/>
<path d="M10 18V16" stroke="#8A8C8E" stroke-width="1.2" stroke-linecap="round"/>
<path d="M8 5H12" stroke="#8A8C8E" stroke-width="1.2" stroke-linecap="round"/>
<path d="M8 7H12" stroke="#8A8C8E" stroke-width="1.2" stroke-linecap="round"/>
<path d="M8 9H12" stroke="#8A8C8E" stroke-width="1.2" stroke-linecap="round"/>
<path d="M8 11H12" stroke="#8A8C8E" stroke-width="1.2" stroke-linecap="round"/>
</svg>
