<svg width="100" height="100" viewBox="0 0 100 100" fill="none" xmlns="http://www.w3.org/2000/svg">
<circle cx="50" cy="50" r="50" fill="#E6E7E8"/>
<path d="M26 39H74" stroke="#3B4255" stroke-width="2" stroke-linecap="round" stroke-linejoin="round"/>
<path d="M60.6641 26V31.3333" stroke="#3B4255" stroke-width="2" stroke-linecap="round" stroke-linejoin="round"/>
<path d="M39.3359 26V31.3333" stroke="#3B4255" stroke-width="2" stroke-linecap="round" stroke-linejoin="round"/>
<path d="M26.0003 31.667C26.0002 30.01 27.3434 28.6666 29.0003 28.6666C43.0004 28.6666 57.0004 28.6666 71.0005 28.6666C72.6573 28.6666 74.0005 30.0098 74.0005 31.6666C74.0005 44.7777 74.0005 57.8888 74.0005 71C74.0005 72.6568 72.6573 74 71.0005 74C57.0004 74 43.0004 74 29.0003 74C27.3434 74 26.0002 72.6566 26.0003 70.9996C26.0016 57.8887 26.0016 44.7778 26.0003 31.667Z" stroke="#3B4255" stroke-width="2" stroke-linecap="round" stroke-linejoin="round"/>
<circle cx="37" cy="52" r="2" fill="#3B4255"/>
<circle cx="63" cy="52" r="2" fill="#3B4255"/>
<circle cx="50" cy="52" r="2" fill="#3B4255"/>
<circle cx="37" cy="61" r="2" fill="#3B4255"/>
<circle cx="63" cy="61" r="2" fill="#3B4255"/>
<circle cx="50" cy="61" r="2" fill="#3B4255"/>
<circle cx="74" cy="26" r="10" fill="#2DBDB6"/>
</svg>
