<svg width="20" height="20" viewBox="0 0 20 20" fill="none" xmlns="http://www.w3.org/2000/svg">
<path d="M4 15V5" stroke="#8A8C8E" stroke-width="1.2" stroke-linecap="round"/>
<path d="M16 5V15" stroke="#8A8C8E" stroke-width="1.2" stroke-linecap="round"/>
<path d="M10 8C13.3137 8 16 6.65685 16 5C16 3.34315 13.3137 2 10 2C6.68629 2 4 3.34315 4 5C4 6.65685 6.68629 8 10 8Z" stroke="#8A8C8E" stroke-width="1.2"/>
<path d="M16 10C16 11.6569 13.3137 13 10 13C6.68629 13 4 11.6569 4 10" stroke="#8A8C8E" stroke-width="1.2"/>
<path d="M16 15C16 16.6569 13.3137 18 10 18C6.68629 18 4 16.6569 4 15" stroke="#8A8C8E" stroke-width="1.2"/>
</svg>
