<svg width="100" height="100" viewBox="0 0 100 100" fill="none" xmlns="http://www.w3.org/2000/svg">
<circle cx="50" cy="50" r="50" fill="#E6E7E8"/>
<path d="M71.7298 26.2871C70.9488 26.2871 70.1679 26.2871 69.3989 26.2871C68.8342 26.2871 68.666 26.0707 68.666 25.5418C68.666 24.1473 68.666 22.7529 68.666 21.3704C68.708 20.8951 68.6076 20.4181 68.3777 20H67.9692C66.4794 21.8513 64.9655 23.6785 63.4878 25.5418C63.321 25.7786 63.0968 25.9691 62.8361 26.0953C62.5755 26.2215 62.287 26.2792 61.9979 26.2631C57.4324 26.2631 52.8669 26.2631 48.3013 26.2631C47.857 26.248 47.4144 26.3244 47.0009 26.4877C46.5874 26.6509 46.2118 26.8974 45.8975 27.2119C45.5832 27.5264 45.3368 27.9022 45.1737 28.3159C45.0106 28.7296 44.9342 29.1725 44.9492 29.617C44.9492 32.2978 44.9492 34.9905 44.9492 37.6713C44.9492 38.7171 44.9492 38.7171 43.916 38.7171C38.4854 38.7171 33.1029 38.7171 27.6122 38.7171C26.6869 38.8074 25.8216 39.2164 25.1642 39.8742C24.5068 40.5319 24.0981 41.3977 24.0078 42.3235C24.0078 51.087 24.0078 59.8505 24.0078 68.602C23.9758 68.9345 24.0427 69.2691 24.2001 69.5637C24.485 70.1169 24.884 70.6033 25.3707 70.9908C25.8574 71.3783 26.4207 71.6581 27.0235 71.8117C28.4027 71.9778 29.7941 72.018 31.1805 71.9319C31.8173 71.9319 31.9735 72.1483 31.9735 72.7494C31.9735 74.7088 31.9735 76.6563 31.9735 78.6158C31.9735 79.8179 32.1657 80.0222 33.4032 79.9982C34.028 79.9982 34.3043 79.5414 34.6047 79.1567C34.905 78.772 35.0132 78.5196 35.2535 78.2311C36.7833 76.4279 38.2451 74.5766 39.6388 72.6772C39.8028 72.436 40.0258 72.2408 40.2866 72.1103C40.5474 71.9798 40.8373 71.9184 41.1286 71.9319C47.2641 71.9319 53.4075 71.9319 59.559 71.9319C60.1046 71.9518 60.6485 71.8597 61.1571 71.6613C61.6658 71.463 62.1286 71.1626 62.5169 70.7786C62.9052 70.3945 63.2108 69.9351 63.415 69.4285C63.6191 68.9218 63.7175 68.3788 63.704 67.8327C63.704 62.5072 63.704 57.1818 63.704 51.8564C63.704 51.1712 63.9083 50.9788 64.5811 50.9909C66.984 50.9909 69.3869 50.9909 71.7177 50.9909C72.1482 50.9973 72.5756 50.9176 72.9749 50.7564C73.3742 50.5953 73.7372 50.3559 74.0428 50.0525C74.3483 49.749 74.5902 49.3875 74.7542 48.9892C74.9182 48.5909 75.001 48.1638 74.9977 47.7331V29.617C75.0142 29.1804 74.9413 28.745 74.7837 28.3376C74.6261 27.9301 74.3869 27.5591 74.081 27.2474C73.775 26.9356 73.4087 26.6897 73.0044 26.5245C72.6001 26.3594 72.1664 26.2786 71.7298 26.2871ZM61.6255 67.3037C61.6319 67.5988 61.5795 67.8922 61.4714 68.1668C61.3633 68.4414 61.2017 68.6917 60.9959 68.9032C60.7902 69.1147 60.5444 69.283 60.2729 69.3985C60.0015 69.514 59.7098 69.5742 59.4148 69.5758H41.2007H39.7229C39.5075 69.566 39.2934 69.6144 39.1032 69.716C38.9129 69.8175 38.7535 69.9684 38.6416 70.1528C37.4401 71.8598 36.0705 73.3625 34.857 75.0214C34.7609 75.1536 34.6648 75.3339 34.4605 75.2498C34.2563 75.1656 34.3283 74.9372 34.3283 74.781C34.3283 73.4586 34.3283 72.1363 34.3283 70.826C34.3283 69.9124 33.9679 69.5397 33.0548 69.5397H28.3211C28.0331 69.5636 27.7435 69.5242 27.4723 69.4244C27.2012 69.3245 26.9552 69.1666 26.7514 68.9616C26.5477 68.7566 26.3912 68.5096 26.2929 68.2377C26.1947 67.9659 26.157 67.6758 26.1825 67.3879C26.1825 59.3737 26.1825 51.3916 26.1825 43.4415C26.1825 41.3378 26.8072 40.7247 28.9338 40.7247H44.0482H58.9342C60.7845 40.7247 61.6255 41.5662 61.6255 43.3934V67.3037ZM71.6697 49.8368C69.2668 49.8368 66.8639 49.8368 64.4609 49.8368C63.8722 49.8368 63.668 49.6565 63.692 49.0675C63.692 47.8894 63.692 46.7113 63.692 45.5332C63.692 44.9562 63.8482 44.7518 64.4489 44.7638C66.3112 44.7638 68.1614 44.7638 70.0237 44.7638C70.2356 44.7818 70.4486 44.7818 70.6605 44.7638C70.7923 44.7549 70.916 44.6968 71.0071 44.6011C71.0983 44.5055 71.1504 44.3791 71.1531 44.2469C71.158 44.1758 71.1488 44.1045 71.126 44.037C71.1033 43.9695 71.0675 43.9071 71.0206 43.8535C70.9737 43.7999 70.9167 43.7561 70.8528 43.7246C70.789 43.6931 70.7195 43.6745 70.6484 43.6699C70.4125 43.6517 70.1755 43.6517 69.9396 43.6699C68.1614 43.6699 66.3352 43.6699 64.5811 43.6699C63.9203 43.6699 63.6199 43.5256 63.68 42.8164C63.7393 42.373 63.7024 41.9219 63.5719 41.494C63.4036 41.0252 63.8482 41.1094 64.0885 41.1094H70.3721C70.8046 41.1094 71.1651 40.9531 71.1531 40.4843C71.141 40.0154 70.7446 39.9553 70.3601 39.9553C68.0293 39.9553 65.6984 39.9553 63.3796 39.9553C63.194 39.9664 63.008 39.9403 62.8326 39.8783C62.6572 39.8164 62.4959 39.7199 62.3584 39.5947C61.7156 39.0321 60.8807 38.7392 60.0275 38.7772H47.184C46.1747 38.7772 46.1747 38.7772 46.1747 37.7795V29.7613C46.1747 28.0903 46.8355 27.4292 48.5777 27.4171H62.4425C62.7317 27.4404 63.0219 27.3884 63.2851 27.2662C63.5482 27.144 63.7753 26.9558 63.9443 26.7199C64.9655 25.3976 66.0348 24.1113 67.0921 22.813C67.131 22.7326 67.1966 22.6682 67.2777 22.6309C67.3588 22.5936 67.4504 22.5858 67.5367 22.6086V26.1549C67.5367 27.357 67.6328 27.357 68.8342 27.357C69.7954 27.357 70.7686 27.357 71.7298 27.357C72.0073 27.3324 72.2868 27.3695 72.5483 27.4659C72.8098 27.5622 73.0467 27.7153 73.242 27.9141C73.4373 28.113 73.5861 28.3527 73.6778 28.6159C73.7695 28.8792 73.8017 29.1595 73.7722 29.4367V47.7331C73.8049 48.0173 73.7729 48.3051 73.6788 48.5752C73.5847 48.8453 73.4308 49.0907 73.2286 49.2929C73.0265 49.4952 72.7813 49.6491 72.5114 49.7433C72.2414 49.8375 71.9537 49.8695 71.6697 49.8368Z" fill="#3B4255"/>
<path d="M47.6824 57.0099H36.3267C33.5751 57.0099 30.81 57.0099 28.0583 57.0099C27.9009 56.9862 27.7403 57.0052 27.592 57.0652C27.4436 57.1251 27.3126 57.2239 27.2115 57.352C27.1103 57.4801 27.0425 57.6333 27.0145 57.7968C26.9865 57.9602 26.9992 58.1284 27.0516 58.2852C27.1992 58.9439 27.6959 59 28.2194 59H47.7764C47.9848 58.9996 48.1923 58.9713 48.3938 58.9159C48.5749 58.8758 48.7359 58.7684 48.847 58.6138C48.958 58.4592 49.0117 58.2678 48.9979 58.075C48.9576 57.3042 48.6891 57.0099 47.6824 57.0099Z" fill="#3B4255"/>
<path d="M43.5256 48.958C44.4825 48.958 44.9868 48.583 44.9998 47.9304C45.0127 47.2777 44.5213 47 43.5644 47C40.9783 47 38.3921 47 35.8059 47C33.2197 47 30.5431 47 27.9052 47C27.2586 47 27 47.2083 27 47.9304C27 48.6525 27.194 49.0135 27.944 48.9996C33.1422 48.958 38.3274 48.9718 43.5256 48.958Z" fill="#3B4255"/>
<path d="M42.005 53.1579C42.1107 53.9098 42.6392 54 43.1808 54H51.0152H58.942C59.7215 54 60.0782 53.579 59.9857 52.782C59.8932 51.985 59.378 52 58.8759 52H46.9857C45.6646 52 44.4491 52 43.1808 52C42.5335 52.0602 41.939 52.6617 42.005 53.1579Z" fill="#3B4255"/>
<path d="M40.6109 63H28.2C27.5381 63 26.9865 63.0979 27.0003 63.951C27.014 64.8042 27.2485 65 28.1724 65H40.8315C41.6727 65 42.2105 64.3846 41.9209 63.6993C41.6313 63.014 41.1625 63 40.6109 63Z" fill="#3B4255"/>
<path d="M47.7609 48.8897C48.0741 48.9676 48.3964 49.0045 48.7194 48.9996H58.9994C59.6939 48.9996 60.0135 48.5053 59.9996 47.6267C59.9857 46.7481 59.4856 47.0501 59.0688 47.0501H47.9553C47.84 47.0388 47.7235 47.0507 47.6128 47.0849C47.5022 47.1192 47.3997 47.1752 47.3115 47.2496C47.2233 47.3239 47.1512 47.4151 47.0995 47.5176C47.0478 47.6202 47.0176 47.732 47.0107 47.8464C46.9742 48.0825 47.032 48.3234 47.172 48.5181C47.312 48.7129 47.5232 48.8461 47.7609 48.8897V48.8897Z" fill="#3B4255"/>
<path d="M33.525 52C31.6627 52 29.7867 52 27.9244 52C27.1903 52 27 52.4421 27 53.0904C27 53.7388 27.503 53.9893 28.1011 53.9893H38.5683C38.7266 54.0036 38.8858 54.0036 39.0441 53.9893C39.5878 53.9009 40.05 53.6504 39.9956 52.9578C39.9895 52.8198 39.9567 52.6847 39.8993 52.5613C39.8419 52.4379 39.7613 52.3289 39.6627 52.2414C39.564 52.1539 39.4495 52.0898 39.3265 52.0533C39.2036 52.0168 39.0749 52.0087 38.9489 52.0295C37.1409 52.0295 35.333 52 33.525 52Z" fill="#3B4255"/>
<path d="M58.8793 57.014C57.7753 57.014 56.6712 57.014 55.5671 57.014C54.463 57.014 53.3075 57.014 52.1777 57.014C51.9131 56.9731 51.644 57.0441 51.4265 57.2122C51.2089 57.3803 51.0596 57.6326 51.0095 57.9167C50.9196 58.4167 51.4845 58.9861 52.1135 59H58.9692C59.5598 59 60.0476 58.6111 59.9963 57.9584C59.9856 57.8147 59.9475 57.675 59.8844 57.548C59.8212 57.4211 59.7344 57.3097 59.6294 57.2209C59.5245 57.1322 59.4036 57.0679 59.2745 57.0323C59.1454 56.9967 59.0108 56.9904 58.8793 57.014V57.014Z" fill="#3B4255"/>
<path d="M44.0667 63.0068C43.9328 62.9904 43.797 63.0037 43.6684 63.0461C43.5398 63.0885 43.4212 63.1589 43.3204 63.2527C43.2197 63.3465 43.139 63.4616 43.0838 63.5904C43.0286 63.7192 43 63.8588 43 64C43 64.1412 43.0286 64.2808 43.0838 64.4096C43.139 64.5384 43.2197 64.6535 43.3204 64.7473C43.4212 64.8411 43.5398 64.9115 43.6684 64.9539C43.797 64.9963 43.9328 65.0096 44.0667 64.9932C44.6293 64.9932 45.0479 64.7055 44.9956 64.0205C44.9432 63.3356 44.6031 63.0479 44.0667 63.0068Z" fill="#3B4255"/>
<path d="M73.1892 35.0035H58.372C57.782 35.0035 57 34.9246 57 35.5167C57 36.1088 57.782 35.9903 58.372 35.9903H73.1892C73.6282 35.9903 74.0261 35.8423 73.9987 35.487C73.9712 35.1318 73.6008 35.0134 73.1892 35.0035Z" fill="#3B4255"/>
<path d="M64.0075 31.9986H73.0059C73.476 31.9986 73.9863 31.9986 73.9997 31.5148C74.0132 31.0309 73.5028 31 73.0327 31H64.0344C63.5375 31 62.9868 31 63.0002 31.525C63.0137 32.0501 63.5509 31.9986 64.0075 31.9986Z" fill="#3B4255"/>
<path d="M55.1041 35H49.9232C49.4409 35 49 35.1313 49 35.5152C49 35.899 49.4134 36 49.8543 36H55.1178C55.5588 36 55.9859 35.8788 55.9997 35.5253C56.0135 35.1717 55.5725 35.0101 55.1041 35Z" fill="#3B4255"/>
<path d="M60.5543 31.9946C60.8082 31.9946 60.9449 31.7989 60.9937 31.5054C61.0426 31.212 60.7984 30.9946 60.5152 31.0054C60.4514 30.9949 60.3862 30.9997 60.3242 31.0198C60.2622 31.0398 60.2047 31.0744 60.1558 31.1213C60.1069 31.1683 60.0677 31.2264 60.0408 31.2917C60.0139 31.3571 60 31.4281 60 31.5C60 31.5719 60.0139 31.6429 60.0408 31.7083C60.0677 31.7736 60.1069 31.8317 60.1558 31.8787C60.2047 31.9256 60.2622 31.9602 60.3242 31.9802C60.3862 32.0003 60.4514 32.0051 60.5152 31.9946H60.5543Z" fill="#3B4255"/>
</svg>
