<svg width="100" height="100" viewBox="0 0 100 100" fill="none" xmlns="http://www.w3.org/2000/svg">
<circle cx="50" cy="50" r="50" fill="#E6E7E8"/>
<path d="M73 27L27 73" stroke="#3B4255" stroke-width="2" stroke-linecap="round" stroke-linejoin="round"/>
<path d="M35 46C41.0751 46 46 41.0751 46 35C46 28.9249 41.0751 24 35 24C28.9249 24 24 28.9249 24 35C24 41.0751 28.9249 46 35 46Z" stroke="#3B4255" stroke-width="2" stroke-linecap="round" stroke-linejoin="round"/>
<path d="M66 76C71.5228 76 76 71.5228 76 66C76 60.4772 71.5228 56 66 56C60.4772 56 56 60.4772 56 66C56 71.5228 60.4772 76 66 76Z" stroke="#3B4255" stroke-width="2" stroke-linecap="round" stroke-linejoin="round"/>
</svg>
