<svg width="75" height="75" viewBox="0 0 75 75" fill="none" xmlns="http://www.w3.org/2000/svg">
<path d="M37.0256 22.4822C37.4558 21.3547 37.8245 20.2741 38.2546 19.2249C39.7542 15.224 42.2348 11.6817 45.4597 8.93623C47.0626 7.59626 48.9269 6.61936 50.9287 6.07044C51.8812 5.81988 52.465 6.2427 52.465 7.2606C52.465 20.1958 52.465 33.131 52.465 46.0663C52.465 46.7083 52.296 47.2251 51.6354 47.3974C48.56 48.3105 45.8623 50.2244 43.9541 52.8471C42.5995 54.5422 41.5064 56.4379 40.7126 58.469C44.9917 54.8124 50.1822 52.438 55.7065 51.6099V13.3993C55.7065 13.1488 55.7065 12.9139 55.7065 12.679C55.715 12.4233 55.8162 12.1799 55.9905 11.9959C56.1649 11.8119 56.4 11.7003 56.6503 11.6828C56.9007 11.6652 57.1486 11.743 57.346 11.901C57.5434 12.0589 57.6763 12.2859 57.719 12.538C57.742 12.7776 57.742 13.0189 57.719 13.2584V52.0641C57.719 53.2386 57.5039 53.4891 56.3824 53.6301C51.6777 54.2171 47.2066 56.0531 43.4164 58.9545L42.8788 59.4399H60.9451V21.5739C60.9315 21.2846 60.9574 20.9947 61.0219 20.7126C61.0669 20.4739 61.2008 20.2622 61.3956 20.1221C61.5904 19.9819 61.8309 19.9242 62.0666 19.9609C62.3047 19.9646 62.5325 20.0605 62.7037 20.2292C62.8749 20.398 62.9767 20.6268 62.9883 20.8692C63.0039 21.062 63.0039 21.2558 62.9883 21.4486V59.8941C62.9883 61.1626 62.7272 61.4601 61.4521 61.4601C56.0445 61.4601 50.6983 61.4601 45.2446 61.5541C44.1021 61.4789 42.9565 61.643 41.8786 62.0362C40.8006 62.4295 39.813 63.0435 38.9767 63.8404C38.7462 64.0753 38.5619 64.3572 38.3314 64.5921C38.2322 64.7193 38.106 64.8221 37.9624 64.8927C37.8187 64.9633 37.6613 65 37.5019 65C37.3424 65 37.185 64.9633 37.0413 64.8927C36.8977 64.8221 36.7715 64.7193 36.6723 64.5921C34.8749 62.1022 32.2786 61.4601 29.498 61.4601C24.3208 61.4601 19.1282 61.4601 13.9357 61.4601H13.3058C12.3226 61.4601 12 61.1156 12 60.1133V21.5739C12 20.1802 12.2458 19.9296 13.5363 19.9296C18.5598 19.9296 23.5834 19.9296 28.6069 19.9296C31.628 19.673 34.6332 20.5842 37.0256 22.4822ZM14.0893 59.4399H28.5916C31.2781 59.2767 33.9517 59.9307 36.2729 61.3192C36.2729 61.3192 36.365 61.3192 36.4418 61.3192C36.5187 61.3192 36.4418 60.9746 36.4418 60.7867C36.4418 49.0625 36.4418 37.3279 36.4418 25.5829C36.4186 25.1907 36.2609 24.8193 35.9963 24.5337C35.2487 23.7677 34.3536 23.1677 33.3675 22.7715C32.3813 22.3754 31.3254 22.1915 30.2661 22.2316C25.0428 22.1377 19.8349 22.1377 14.627 22.1063C14.4378 22.0918 14.2478 22.0918 14.0586 22.1063L14.0893 59.4399ZM50.3603 8.49775C48.2918 9.28234 46.4376 10.5603 44.9527 12.2248C42.084 15.4811 40.0101 19.3819 38.8998 23.6097C38.6784 24.2659 38.5542 24.952 38.5311 25.6455C38.5311 36.0281 38.5311 46.4264 38.5311 56.8247C38.5311 57.044 38.5311 57.2632 38.5311 57.639C39.2378 56.3393 39.8062 55.1648 40.4976 54.0686C42.5378 50.3899 45.7214 47.5084 49.5461 45.8783C49.7984 45.8184 50.0199 45.665 50.1675 45.448C50.3152 45.2309 50.3784 44.9657 50.345 44.7038C50.345 32.9431 50.345 21.2137 50.345 9.42169L50.3603 8.49775Z" fill="#0066B6"/>
<path d="M65.8444 64.0523C65.8444 63.6806 65.8444 63.3863 65.8444 63.0766V27.812C65.8854 27.4985 65.9472 27.188 66.0295 26.8828C66.041 26.7631 66.0762 26.647 66.1332 26.5412C66.1901 26.4355 66.2677 26.3423 66.3611 26.2672C66.4546 26.1921 66.5622 26.1366 66.6774 26.104C66.7926 26.0714 66.9132 26.0624 67.032 26.0774C67.1515 26.0712 67.2711 26.0887 67.3839 26.1289C67.4967 26.1691 67.6005 26.2313 67.6893 26.3119C67.7781 26.3924 67.8503 26.4898 67.9016 26.5984C67.9529 26.707 67.9823 26.8247 67.9882 26.9447C68.0039 27.2026 68.0039 27.4612 67.9882 27.7191V64.6098C67.9882 65.8023 67.6798 66.1585 66.4459 66.1585H44.4373C44.1862 66.1275 43.9316 66.1748 43.7082 66.2939C43.4847 66.413 43.3031 66.5983 43.188 66.8245C42.8571 67.5384 42.3116 68.1301 41.6282 68.5163C40.9448 68.9025 40.1579 69.0637 39.3785 68.9772C38.0592 68.8768 36.7341 68.8768 35.4148 68.9772C34.6703 69.0553 33.92 68.8991 33.2679 68.53C32.6157 68.161 32.094 67.5974 31.775 66.9174C31.647 66.6615 31.4436 66.4513 31.1925 66.3155C30.9414 66.1797 30.6547 66.1249 30.3715 66.1585C23.1381 66.1585 15.8892 66.1585 8.65583 66.1585C7.25233 66.1585 7.00556 65.9107 7.00556 64.5014V27.4868C6.99815 27.3423 6.99815 27.1976 7.00556 27.0531C7.00145 26.9176 7.02424 26.7826 7.07259 26.656C7.12094 26.5294 7.19389 26.4138 7.28718 26.3158C7.38048 26.2177 7.49226 26.1394 7.61603 26.0851C7.73979 26.0309 7.87305 26.002 8.00806 26C8.14441 26.0019 8.27899 26.0314 8.40381 26.0865C8.52862 26.1417 8.64112 26.2215 8.73463 26.3212C8.82813 26.4208 8.90074 26.5384 8.94814 26.6668C8.99554 26.7952 9.01677 26.9318 9.01055 27.0686C9.02598 27.3265 9.02598 27.5851 9.01055 27.843V63.0301C9.01055 64.0213 9.01056 64.0368 9.99763 64.0368H31.4356C31.7608 64.0126 32.0852 64.0925 32.3623 64.265C32.6394 64.4375 32.8549 64.6938 32.9779 64.997C33.08 65.2352 33.2039 65.4633 33.3481 65.6784C33.5373 66.0888 33.8513 66.4283 34.2448 66.6482C34.6383 66.868 35.0912 66.9569 35.5382 66.9019C36.8534 66.8322 38.1713 66.8322 39.4865 66.9019C39.794 66.9218 40.101 66.8555 40.3733 66.7106C40.6456 66.5657 40.8725 66.3478 41.0288 66.0811C41.2926 65.7144 41.5247 65.3258 41.7228 64.9196C41.8338 64.6335 42.0367 64.3929 42.2993 64.2358C42.5619 64.0787 42.8693 64.0141 43.1726 64.0523H65.8444Z" fill="#0066B6"/>
<path fill-rule="evenodd" clip-rule="evenodd" d="M18.1109 36.69C17.6446 35.3083 18.7135 34 20.0986 34H22.0838C22.3308 34 22.5732 34.0661 22.786 34.1914C22.9987 34.3167 23.1741 34.4967 23.2938 34.7125L24.251 36.4366C24.3601 36.6333 24.4197 36.8536 24.4245 37.0784C24.4293 37.301 24.3802 37.5214 24.2817 37.7209L23.4895 39.4779C23.5262 39.5921 23.577 39.7338 23.6453 39.8934C23.8311 40.3281 24.1395 40.88 24.6298 41.3705C25.1203 41.8608 25.6709 42.1681 26.1041 42.3527C26.3169 42.4434 26.4977 42.503 26.6235 42.5396L28.2682 41.7171C28.4694 41.6164 28.6922 41.5663 28.9171 41.5711C29.1421 41.5759 29.3625 41.6355 29.5592 41.7448L31.2892 42.7068C31.5046 42.8268 31.6844 43.0023 31.8093 43.215C31.9342 43.4275 32 43.6696 32 43.9162V45.9014C32 47.2867 30.6916 48.3554 29.3096 47.889C27.3295 47.2207 24.1597 45.9213 22.119 43.8806C20.0788 41.84 18.7789 38.6707 18.1109 36.69Z" fill="#0066B6"/>
</svg>
