<svg width="75" height="75" viewBox="0 0 75 75" fill="none" xmlns="http://www.w3.org/2000/svg">
<path d="M48.6153 54.5424C48.4786 55.0566 48.4946 55.5995 48.6614 56.1047C48.8282 56.6099 49.1385 57.0555 49.5545 57.387C52.4053 60.1982 55.2726 63.0844 58.0486 65.8707L59.1124 66.9437C59.4162 67.2743 59.7848 67.5387 60.1952 67.7205C60.6056 67.9022 61.049 67.9974 61.4978 68C61.7773 67.9999 62.056 67.9692 62.3289 67.9085C63.6215 67.6685 64.8197 67.0669 65.7847 66.1734C66.7497 65.2798 67.4419 64.1309 67.7811 62.8598C68.0311 62.1852 68.0679 61.45 67.8866 60.7538C67.7052 60.0575 67.3144 59.4339 66.7671 58.9673C63.775 55.998 60.5669 52.8041 57.3754 49.5519C57.1163 49.2494 56.7969 49.0043 56.4376 48.8324C56.0784 48.6606 55.6873 48.5657 55.2893 48.5539C55.0258 48.556 54.7635 48.5895 54.508 48.6537L54.0176 48.7867L53.76 48.3376C53.5989 48.0904 53.3898 47.8783 53.145 47.7138C52.9987 47.5964 52.8171 47.5319 52.6297 47.5308C52.5027 47.5329 52.3777 47.5623 52.263 47.6168C52.1483 47.6713 52.0466 47.7497 51.9648 47.8469C51.8907 47.9298 51.8341 48.0266 51.7981 48.1318C51.7622 48.2369 51.7476 48.3483 51.7554 48.4591C51.7631 48.57 51.793 48.6782 51.8432 48.7773C51.8935 48.8765 51.9631 48.9645 52.0479 49.0363L52.3305 49.3357L52.4551 49.4688L52.879 49.9262L52.4551 50.3837C51.8816 50.9909 51.25 51.623 50.5352 52.2967L50.0698 52.7458L49.5545 52.2801L49.38 52.1054L47.3021 49.9928L46.8866 49.5519L47.3271 49.0862C47.3271 49.0862 47.4102 48.9947 47.4601 48.9531C48.3215 48.1696 49.1192 47.3185 49.8454 46.408C52.1774 43.565 53.8201 40.2203 54.6449 36.636C55.4696 33.0516 55.4541 29.3248 54.5994 25.7475C53.4918 20.5598 50.6477 15.906 46.5375 12.556C42.3638 9.05924 37.1193 7.09843 31.677 7H31.037C28.9762 7.01217 26.9256 7.29174 24.9366 7.83174C21.6299 8.71093 18.5458 10.2782 15.8856 12.4313C15.7597 12.5258 15.6631 12.6541 15.6072 12.8013C15.5513 12.9486 15.5383 13.1087 15.5698 13.263C15.5967 13.4252 15.6711 13.5758 15.7836 13.6957C15.896 13.8156 16.0414 13.8995 16.2014 13.9367H16.4175C16.6993 13.9119 16.9651 13.795 17.1739 13.604C21.0784 10.4533 25.9222 8.69703 30.9373 8.61358C33.929 8.66835 36.8827 9.29509 39.6392 10.46C44.4011 12.3377 48.3591 15.8193 50.8306 20.3046C53.3022 24.7898 54.1324 29.9975 53.1782 35.0297C51.8733 42.2659 47.8174 47.7138 41.1103 51.2154C40.9927 51.303 40.8565 51.3621 40.7123 51.3881C40.5681 51.4141 40.4198 51.4062 40.2791 51.3651L39.7888 51.2154V44.6863C39.7888 37.6996 39.7888 30.7158 39.7888 23.7347C39.7808 23.5972 39.8002 23.4594 39.8459 23.3295C39.8915 23.1996 39.9625 23.08 40.0547 22.9778C40.1554 22.8857 40.2734 22.8148 40.4019 22.7691C40.5303 22.7234 40.6666 22.7038 40.8027 22.7116H46.2965C46.4354 22.701 46.5749 22.7192 46.7065 22.765C46.8381 22.8108 46.9588 22.8832 47.0611 22.9778C47.1543 23.0791 47.2254 23.1987 47.2697 23.329C47.3141 23.4593 47.3308 23.5975 47.3188 23.7347C47.3188 25.8972 47.3188 28.0514 47.3188 30.2139V33.5409C47.3188 34.9216 47.3188 36.3078 47.3188 37.6996C47.3108 37.8136 47.3263 37.9281 47.3645 38.0358C47.4027 38.1435 47.4626 38.2422 47.5406 38.3258C47.6186 38.4093 47.713 38.4758 47.8178 38.5212C47.9226 38.5666 48.0357 38.5899 48.1499 38.5896C48.2161 38.5976 48.2831 38.5976 48.3494 38.5896C48.5665 38.5454 48.7596 38.4224 48.8916 38.2443C49.0235 38.0662 49.085 37.8455 49.0641 37.6248V30.53C49.0641 28.1845 49.0641 25.8362 49.0641 23.4851C49.08 23.1551 49.0284 22.8254 48.9125 22.516C48.7966 22.2066 48.6188 21.9242 48.3901 21.686C48.1613 21.4477 47.8864 21.2587 47.5822 21.1304C47.278 21.0022 46.9508 20.9374 46.6206 20.94H40.4786C40.1487 20.9308 39.8203 20.9891 39.5137 21.1112C39.207 21.2334 38.9285 21.4169 38.6951 21.6504C38.4617 21.884 38.2784 22.1627 38.1563 22.4696C38.0343 22.7765 37.9761 23.1051 37.9852 23.4352V37.0758C37.9852 41.9498 37.9852 46.8183 37.9852 51.6812C38.0002 51.9314 37.9244 52.1786 37.7716 52.3773C37.6189 52.576 37.3996 52.7128 37.1541 52.7625C36.323 52.9704 35.4919 53.1534 34.6607 53.2948H34.3948C34.2798 53.2999 34.1651 53.2812 34.0578 53.2397C33.9505 53.1981 33.853 53.1348 33.7714 53.0536C33.6792 52.9513 33.6082 52.8318 33.5625 52.7019C33.5169 52.5719 33.4975 52.4342 33.5055 52.2967C33.5055 50.6998 33.5055 49.1028 33.5055 47.5059V26.6458C33.533 26.298 33.4848 25.9483 33.3642 25.621C33.2437 25.2936 33.0536 24.9964 32.807 24.7497C32.5605 24.503 32.2635 24.3127 31.9364 24.1921C31.6093 24.0714 31.2599 24.0232 30.9124 24.0507H27.3385C26.5074 24.0507 25.776 24.0507 25.1194 24.0507H25.028C24.342 24.0446 23.6815 24.3108 23.1912 24.791C22.9425 25.049 22.7475 25.3539 22.6177 25.6881C22.4878 26.0222 22.4257 26.3789 22.4349 26.7372C22.4349 32.7341 22.4349 38.8225 22.4349 44.7195V50.4419C22.4577 50.5917 22.4456 50.7447 22.3994 50.889C22.3533 51.0333 22.2744 51.165 22.1689 51.2737L21.8448 51.598L21.4209 51.3984C20.4482 50.9278 19.507 50.3943 18.6034 49.8015C18.4071 49.6833 18.2463 49.5143 18.138 49.3123C18.0298 49.1102 17.9781 48.8827 17.9884 48.6537C17.9884 43.9044 17.9884 39.1552 17.9884 34.4059C18.0106 34.0664 17.9615 33.7261 17.8444 33.4067C17.7272 33.0874 17.5446 32.7961 17.3081 32.5516C17.0717 32.3072 16.7867 32.115 16.4716 31.9874C16.1565 31.8598 15.8181 31.7997 15.4784 31.8109H12.8188C12.6865 31.7918 12.5521 31.7918 12.4198 31.8109C12.2227 31.8712 12.0523 31.9975 11.9373 32.1686C11.8223 32.3398 11.7696 32.5453 11.7882 32.7507C11.8131 32.9579 11.9101 33.1497 12.062 33.2926C12.2139 33.4355 12.4111 33.5204 12.6193 33.5326H15.254C15.3902 33.5238 15.5267 33.5429 15.6553 33.5887C15.7839 33.6344 15.9019 33.7059 16.002 33.7987C16.1032 33.9017 16.1825 34.0239 16.2354 34.1583C16.2882 34.2926 16.3134 34.4363 16.3095 34.5806C16.3095 37.159 16.3095 39.7374 16.3095 42.3158V45.9921C16.3332 46.1538 16.3089 46.3189 16.2394 46.4669C16.1699 46.6148 16.0584 46.7389 15.9189 46.8238L15.5615 47.0567L15.229 46.8488C15.172 46.8196 15.119 46.7832 15.0711 46.7407L14.9215 46.5909C12.3944 43.9538 10.5577 40.7326 9.5746 37.2138C8.59151 33.6949 8.49254 29.9875 9.28648 26.4212C9.88978 23.4494 11.1226 20.6416 12.9019 18.1869C13.0503 17.9769 13.1128 17.718 13.0764 17.4633C13.03 17.2355 12.8956 17.0352 12.7024 16.9061C12.5572 16.8091 12.3866 16.757 12.212 16.7563C12.0601 16.7605 11.9116 16.8022 11.7797 16.8776C11.6477 16.9531 11.5364 17.06 11.4557 17.1888C9.45632 19.9774 8.08381 23.1661 7.43247 26.5357C6.78112 29.9054 6.86639 33.3763 7.68241 36.7098C8.39594 39.8201 9.7303 42.7539 11.6053 45.335L11.7632 45.5596V45.8341V45.9255C11.7632 45.9255 11.7632 45.9838 11.7632 46.0087C11.7239 46.415 11.71 46.8234 11.7217 47.2314V47.4393C11.7217 51.4982 11.7217 55.5571 11.7217 59.616V62.7933H9.594C8.97065 62.7933 8.57171 63.1509 8.57171 63.6833C8.56663 63.7963 8.58464 63.9092 8.62466 64.015C8.66467 64.1208 8.72584 64.2174 8.80443 64.2987C8.9093 64.3955 9.03242 64.4704 9.16657 64.519C9.30072 64.5675 9.44321 64.5888 9.58568 64.5815H46.5458C46.7817 64.5815 47.0079 64.4878 47.1747 64.3209C47.3414 64.154 47.4351 63.9276 47.4351 63.6916C47.4351 63.4555 47.3414 63.2292 47.1747 63.0623C47.0079 62.8954 46.7817 62.8016 46.5458 62.8016H44.4514V57.7113C44.4596 57.5247 44.4313 57.3382 44.3683 57.1624C44.2951 57.0021 44.1784 56.8657 44.0314 56.7686C43.8844 56.6715 43.7132 56.6178 43.5371 56.6134H43.3959C43.1853 56.6493 42.9947 56.7598 42.8589 56.9248C42.7231 57.0897 42.6511 57.2981 42.6562 57.5117V62.785H38.2263V62.1196V58.9839C38.2263 58.7545 38.1352 58.5345 37.9731 58.3723C37.811 58.21 37.5911 58.1189 37.3619 58.1189C37.1326 58.1189 36.9128 58.21 36.7507 58.3723C36.5886 58.5345 36.4975 58.7545 36.4975 58.9839V62.7767H35.8575H34.295H32.6993H32.051V61.1963C32.051 60.481 32.051 59.7657 32.051 59.0504C32.0566 58.9378 32.0393 58.8251 32.0001 58.7194C31.9608 58.6136 31.9005 58.5169 31.8228 58.4352C31.745 58.3535 31.6515 58.2885 31.5478 58.2442C31.4442 58.1998 31.3326 58.177 31.2199 58.1771C31.1481 58.1689 31.0756 58.1689 31.0038 58.1771C30.7931 58.231 30.608 58.357 30.4805 58.5333C30.3529 58.7095 30.2911 58.9248 30.3056 59.1419C30.3056 59.8323 30.3056 60.5226 30.3056 61.213V62.7767H25.8508V62.1113C25.8508 61.8035 25.8508 61.4958 25.8508 61.188C25.8508 60.506 25.8508 59.799 25.8508 59.1087C25.8612 58.9857 25.8459 58.8618 25.8058 58.7451C25.7658 58.6283 25.702 58.5211 25.6183 58.4304C25.5347 58.3397 25.4331 58.2673 25.32 58.218C25.207 58.1687 25.0849 58.1434 24.9615 58.1438C24.8452 58.1375 24.7289 58.1557 24.6201 58.1973C24.5112 58.2388 24.4124 58.3028 24.3298 58.3851C24.1485 58.5879 24.0531 58.8534 24.0639 59.1253C24.0639 59.8156 24.0639 60.5143 24.0639 61.2047V62.7767H19.634V60.7389C19.634 59.641 19.634 58.5431 19.634 57.4119C19.634 57.1825 19.5429 56.9625 19.3808 56.8003C19.2187 56.638 18.9989 56.5469 18.7696 56.5469C18.5404 56.5469 18.3205 56.638 18.1584 56.8003C17.9963 56.9625 17.9052 57.1825 17.9052 57.4119V62.76H13.4338V47.6057L14.5475 48.6453C15.3918 49.4396 16.2887 50.176 17.232 50.8495C21.2476 53.7422 26.0727 55.2936 31.0204 55.2827C31.998 55.2843 32.9749 55.2288 33.946 55.1163C37.4429 54.7275 40.8083 53.5594 43.7948 51.6978L44.1189 51.4899C44.3775 51.3015 44.6563 51.1425 44.9501 51.0158L45.457 50.6083L45.8892 51.2071H45.9308L48.3743 53.7023L48.8896 53.9685L48.6569 54.5341L48.6153 54.5424ZM50.7181 54.6006C52.1559 53.1783 53.4275 51.8975 54.6077 50.6998C54.694 50.5891 54.8043 50.4997 54.9304 50.4381C55.0564 50.3766 55.1948 50.3446 55.335 50.3446C55.4752 50.3446 55.6136 50.3766 55.7396 50.4381C55.8656 50.4997 55.9759 50.5891 56.0622 50.6998L65.6617 60.3646C65.8954 60.5829 66.0648 60.8612 66.1513 61.1692C66.2377 61.4772 66.238 61.8031 66.1521 62.1113C65.9232 63.0818 65.4337 63.9713 64.7365 64.6837C64.0392 65.3961 63.1608 65.9044 62.1959 66.1535C62.0638 66.1954 61.927 66.2205 61.7887 66.2284H61.6806H61.5809C61.3528 66.2309 61.1266 66.1865 60.9164 66.0977C60.7062 66.009 60.5165 65.878 60.3591 65.7127C57.1399 62.4911 53.9207 59.2722 50.7014 56.0562C50.5121 55.8782 50.3989 55.6338 50.3856 55.3741C50.3856 55.2343 50.4152 55.0959 50.4725 54.9683C50.5298 54.8408 50.6135 54.7268 50.7181 54.6339V54.6006ZM31.544 53.2948C31.4425 53.3886 31.3233 53.4611 31.1935 53.5083C31.0636 53.5554 30.9257 53.5761 30.7877 53.5693H30.7129C28.8001 53.5154 26.9004 53.2362 25.0529 52.7375C24.8123 52.6855 24.5994 52.5463 24.4552 52.3467C24.311 52.1471 24.2456 51.9012 24.2717 51.6563V27.5357C24.2717 27.3028 24.2717 27.0699 24.2717 26.8371C24.257 26.703 24.2701 26.5673 24.3101 26.4385C24.3501 26.3097 24.4163 26.1906 24.5044 26.0885C24.6028 25.9923 24.7201 25.9175 24.8488 25.8688C24.9776 25.8201 25.115 25.7986 25.2524 25.8057H30.8126C30.9489 25.7965 31.0856 25.8153 31.2142 25.8611C31.3429 25.9069 31.4608 25.9786 31.5606 26.0719C31.6536 26.1716 31.7246 26.2898 31.769 26.4187C31.8134 26.5477 31.8302 26.6845 31.8183 26.8204C31.8183 28.2677 31.8183 29.7232 31.8183 31.1704V42.2992C31.8183 45.6982 31.8183 49.0945 31.8183 52.488C31.8286 52.634 31.8097 52.7806 31.7626 52.9191C31.7155 53.0577 31.6412 53.1854 31.544 53.2948Z" fill="#0066B6"/>
</svg>
