<svg width="74" height="74" viewBox="0 0 74 74" fill="none" xmlns="http://www.w3.org/2000/svg">
<g clip-path="url(#clip0_6978_150814)">
<path d="M55.241 33.0422C55.8434 32.5259 56.4887 32.0527 57.1341 31.5794C57.7794 31.1062 58.4248 30.6329 59.0271 30.1166C59.3713 29.9445 59.5434 29.6003 59.1992 29.0841C59.1992 28.912 59.0271 28.912 59.0271 28.912C58.941 28.912 58.898 28.869 58.855 28.8259C58.812 28.7829 58.769 28.7399 58.6829 28.7399H58.3387C58.1666 28.7399 58.1666 28.7399 57.9945 28.912C57.8882 28.912 57.8476 28.9777 57.7914 29.0686C57.7567 29.1246 57.7159 29.1906 57.6504 29.2562C56.5317 30.0306 55.4562 30.848 54.3806 31.6655C53.305 32.4829 52.2294 33.3004 51.1108 34.0748L32.5248 47.498C31.4923 48.1864 30.4596 48.8748 29.255 49.7352C28.9108 49.9073 28.5666 50.2515 28.7387 50.5957C28.7387 50.7678 28.9108 50.9399 29.0829 51.112C29.255 51.2841 29.4271 51.2841 29.5992 51.2841L29.9434 50.9399L32.869 48.8748C40.6131 43.712 48.0131 38.3771 55.241 33.0422Z" fill="#0066B6"/>
<path d="M33.7295 28.912C33.7295 29.4283 33.3853 29.6004 33.0411 29.7725C29.083 32.3539 25.469 35.2794 21.683 38.3771L20.3062 39.4097C20.2202 39.4097 20.1771 39.4527 20.1341 39.4957C20.0911 39.5388 20.0481 39.5818 19.962 39.5818H19.6178C19.5318 39.5818 19.4888 39.5387 19.4457 39.4957C19.4027 39.4527 19.3597 39.4097 19.2737 39.4097C19.2079 39.3439 19.1422 39.3033 19.086 39.2686C18.9952 39.2125 18.9295 39.1719 18.9295 39.0655C18.5095 38.5056 18.7728 38.2872 19.0709 38.04C19.1392 37.9833 19.2095 37.925 19.2737 37.8608C21.683 35.9678 23.9202 34.2469 26.3295 32.526C27.362 31.8376 28.3515 31.1062 29.341 30.3748L29.3425 30.3738C30.3315 29.6428 31.3206 28.9117 32.3527 28.2236C32.4137 28.1932 32.4692 28.1627 32.5213 28.1341C32.7633 28.0014 32.93 27.9099 33.2132 28.0515C33.3853 28.0515 33.5574 28.2236 33.5574 28.3957C33.7295 28.5678 33.7295 28.7399 33.7295 28.912Z" fill="#0066B6"/>
<path d="M35.6227 33.0419C36.3111 32.5257 36.4832 31.8373 35.9669 31.6652C35.5743 31.4035 35.3808 31.5398 35.1592 31.6958C35.0894 31.7449 35.0168 31.796 34.9343 31.8373C31.8367 33.7303 28.9111 35.7954 26.1576 38.0326C24.781 39.065 23.4045 40.2695 22.0279 41.474C21.9622 41.5397 21.8959 41.5808 21.8398 41.6155C21.7489 41.6717 21.6832 41.7123 21.6832 41.8187V42.3349C21.6832 42.507 21.8553 42.6791 21.8553 42.6791C21.8553 42.6791 22.1995 42.8512 22.3716 42.8512C22.5436 42.8512 22.7157 42.8512 22.8878 42.6791C23.0599 42.6791 23.232 42.507 23.232 42.3349C26.3297 39.7536 29.5995 37.1722 32.8692 34.9349C33.3445 34.4597 33.9838 34.0665 34.6739 33.642C34.9832 33.4518 35.3033 33.2549 35.6227 33.0419Z" fill="#0066B6"/>
<path d="M39.0641 35.4515C39.0641 35.9678 38.7199 36.1399 38.3757 36.312C35.1059 38.205 32.1804 40.2701 29.0827 42.8515C28.6524 43.2818 28.1792 43.669 27.7059 44.0562C27.2327 44.4434 26.7594 44.8306 26.3292 45.2608L25.8129 45.7771C25.8129 45.7771 25.8129 45.9492 25.6408 45.9492H24.9524L24.7804 45.7771C24.7804 45.6911 24.7373 45.6481 24.6943 45.605C24.6513 45.562 24.6083 45.519 24.6083 45.4329V45.0888C24.6083 45.0027 24.6513 44.9597 24.6943 44.9167C24.7373 44.8736 24.7804 44.8306 24.7804 44.7446C24.7804 44.7446 24.7804 44.5725 24.9524 44.5725C25.5548 44.0561 26.1142 43.5829 26.6735 43.1096C27.2325 42.6365 27.7923 42.1629 28.3943 41.6469C31.3199 39.2376 34.4176 37.1725 37.5152 35.1074C37.8594 34.9353 38.2036 34.7632 38.5478 34.9353C38.7199 34.9353 38.892 34.9353 38.892 35.1074C39.0641 35.2794 39.0641 35.2794 39.0641 35.4515Z" fill="#0066B6"/>
<path d="M29.7712 25.1256C29.3195 24.5233 28.8677 24.8433 28.416 25.1632C28.3514 25.209 28.2869 25.2547 28.2224 25.2977L28.0503 25.4698C26.6736 26.5023 25.3398 27.5349 24.0061 28.5674C22.6724 29.6 21.3387 30.6326 19.9619 31.6651C19.3596 32.1814 18.8003 32.6547 18.241 33.1279C17.6817 33.6012 17.1224 34.0744 16.5201 34.5907L16.1759 34.9349V35.4512C16.1759 35.5372 16.2189 35.5802 16.2619 35.6233C16.3049 35.6663 16.348 35.7093 16.348 35.7954C16.434 35.7954 16.477 35.8384 16.5201 35.8814C16.5631 35.9244 16.6061 35.9675 16.6922 35.9675C17.0363 35.9675 17.3805 35.7954 17.7247 35.4512C21.3387 32.3535 25.1247 29.2558 29.0828 26.5023C29.1294 26.4713 29.1774 26.4403 29.2257 26.409C29.7135 26.0933 30.2409 25.7519 29.7712 25.1256Z" fill="#0066B6"/>
<path d="M27.8785 22.7165C27.7064 22.8886 27.5343 23.0606 27.3623 23.0606C27.0626 23.2479 26.7711 23.4271 26.4841 23.6034C25.4529 24.2371 24.4812 24.8342 23.4041 25.642C20.6506 27.5351 18.0693 29.7722 15.4879 32.0094C15.1437 32.3536 14.9716 32.5258 14.6274 32.5258C14.6274 32.6321 14.5616 32.607 14.4708 32.5723C14.4147 32.5509 14.3489 32.5258 14.2832 32.5258C14.2175 32.46 14.1517 32.4194 14.0956 32.3847C14.0047 32.3286 13.939 32.2879 13.939 32.1816V31.4932C13.939 31.3211 14.1111 31.149 14.2832 30.9769L17.3809 28.3955C20.1343 25.9862 23.232 23.9211 26.3297 22.0281C26.4219 21.982 26.5018 21.9359 26.5759 21.8931C26.7785 21.7761 26.9382 21.6839 27.1902 21.6839C27.1902 21.6839 27.3623 21.6839 27.5343 21.856C27.7064 21.856 27.8785 22.0281 27.8785 22.2002C28.0506 22.3723 28.0506 22.5444 27.8785 22.7165Z" fill="#0066B6"/>
<path d="M44.9151 53.6932V53.1769C44.9151 53.0048 44.743 52.8327 44.5709 52.8327C44.4849 52.8327 44.3988 52.7897 44.3128 52.7467C44.2267 52.7037 44.1407 52.6606 44.0547 52.6606C43.8826 52.6606 43.7105 52.6606 43.5384 52.8327C40.4407 54.5537 37.343 56.4467 34.5895 58.6839C34.5382 58.7353 34.4868 58.7828 34.4378 58.8282C34.158 59.0871 33.9525 59.2772 34.2454 59.7165C34.2454 59.8025 34.2884 59.8455 34.3314 59.8886C34.3744 59.9316 34.4174 59.9746 34.4174 60.0607C34.5035 60.0607 34.5465 60.1037 34.5895 60.1467C34.6326 60.1897 34.6756 60.2327 34.7616 60.2327H35.1058C35.1919 60.2327 35.2349 60.1897 35.2779 60.1467C35.3209 60.1037 35.364 60.0607 35.45 60.0607C38.2035 57.8234 41.1291 55.9304 44.2267 54.2095C44.743 54.0374 44.9151 53.8653 44.9151 53.6932Z" fill="#0066B6"/>
<path d="M45.7604 56.5719C45.8165 56.5934 45.8822 56.6185 45.948 56.6185C46.1201 56.7906 46.1201 56.7906 46.2922 57.1348C46.4642 57.1348 46.4642 57.3068 46.4642 57.4789C46.4642 57.4789 46.2922 57.651 46.2922 57.8231C46.2922 57.9378 46.1392 58.0526 45.9862 58.1673C45.9097 58.2247 45.8332 58.282 45.7759 58.3394C42.8503 59.8882 40.0968 61.7813 37.5154 63.8464C37.5154 63.9527 37.4497 63.9934 37.3588 64.0495C37.3027 64.0842 37.237 64.1248 37.1712 64.1906C36.9991 64.3627 36.827 64.5347 36.6549 64.3627C36.5689 64.2766 36.4828 64.2336 36.3968 64.1906C36.3108 64.1475 36.2247 64.1045 36.1387 64.0185C36.1387 64.0185 35.9666 64.0185 35.9666 63.8464V63.158L36.1387 62.9859C36.3968 62.8138 36.6119 62.6417 36.827 62.4696C37.0422 62.2975 37.2573 62.1255 37.5154 61.9534C39.7526 60.0603 42.334 58.3394 44.9154 56.9627C45.0875 56.7906 45.4317 56.6185 45.6038 56.6185C45.6038 56.5121 45.6695 56.5372 45.7604 56.5719Z" fill="#0066B6"/>
<path d="M35.6221 55.2422L41.9896 50.9399C42.0756 50.8539 42.1617 50.8108 42.2477 50.7678C42.3337 50.7248 42.4198 50.6818 42.5058 50.5957C42.5919 50.5097 42.6349 50.4236 42.6779 50.3376C42.7209 50.2515 42.764 50.1655 42.85 50.0794C42.85 49.9073 42.85 49.7353 42.6779 49.7353C42.6779 49.6289 42.6122 49.5883 42.5213 49.5321C42.4652 49.4974 42.3995 49.4568 42.3337 49.3911C42.268 49.3911 42.2274 49.366 42.1927 49.3445C42.1365 49.3098 42.0959 49.2847 41.9896 49.3911C41.8175 49.3911 41.6454 49.3911 41.6454 49.5632C40.957 49.9073 40.2686 50.4236 39.5802 50.9399L33.557 55.0701C33.4867 55.1404 33.4093 55.2035 33.3335 55.2653C33.0379 55.5061 32.7668 55.727 33.0407 56.2748C33.3849 56.9632 34.0733 56.619 34.4175 56.2748C34.9337 55.7585 35.2779 55.4143 35.6221 55.2422Z" fill="#0066B6"/>
<path d="M56.6179 48.0998C56.6609 48.1429 56.7039 48.1859 56.79 48.1859C56.79 48.2719 56.833 48.315 56.8545 48.3365C56.8623 48.3443 56.8664 48.3524 56.8664 48.3524C56.8647 48.358 56.8448 48.358 56.79 48.358C57.1342 48.8743 56.79 49.2185 56.4458 49.5626C54.897 50.5952 53.3481 51.7998 51.9714 53.0045C51.7465 53.3418 51.4482 53.6056 51.1244 53.892C50.9526 54.044 50.7736 54.2023 50.5946 54.3812C50.2505 54.7254 50.0784 54.8975 49.7342 54.8975C49.6481 54.8975 49.6051 54.8545 49.5621 54.8115C49.5191 54.7685 49.476 54.7254 49.39 54.7254C49.3243 54.6597 49.2585 54.6191 49.2024 54.5844C49.1115 54.5282 49.0458 54.4876 49.0458 54.3812V53.865L49.39 53.5208C50.0784 52.8324 50.7668 52.144 51.4551 51.6278C52.8318 50.4231 54.2085 49.3906 55.5852 48.3581L55.7574 48.1859C55.8435 48.1859 55.8865 48.1429 55.9295 48.0998C55.9726 48.0568 56.0156 48.0138 56.1016 48.0138H56.4458C56.5319 48.0138 56.5749 48.0568 56.6179 48.0998Z" fill="#0066B6"/>
<path d="M54.7245 46.1209C54.8966 46.1209 55.0687 45.9489 55.0687 45.7768C55.0687 45.7194 55.0878 45.662 55.1069 45.6047C55.1452 45.4899 55.1834 45.3752 55.0687 45.2605C55.0687 45.0884 54.8966 44.9163 54.7245 44.9163C54.5524 44.7442 54.3803 44.7442 54.2082 44.7442H53.864C51.4547 45.9489 49.2175 47.4977 47.3245 49.3907C47.2867 49.4285 47.2469 49.4662 47.2066 49.5044C46.8795 49.8145 46.5207 50.1547 46.9803 50.7675C47.4406 51.2278 47.7642 51.004 48.1948 50.7061C48.2472 50.6699 48.3011 50.6327 48.357 50.5954C49.3896 49.5628 50.4222 48.7023 51.6268 48.014C52.6594 47.1535 53.6919 46.6372 54.7245 46.1209Z" fill="#0066B6"/>
<path d="M52.1436 40.9587H52.4878C52.4878 41.0447 52.5309 41.1308 52.5739 41.2168C52.6169 41.3028 52.6599 41.3889 52.6599 41.4749C52.6599 41.561 52.7029 41.604 52.746 41.647C52.789 41.6901 52.832 41.7331 52.832 41.8191C53.1762 42.3354 52.6599 42.6796 52.3157 42.8517C50.0785 44.0563 48.0134 45.4331 46.1204 46.9819C46.0343 46.9819 45.9913 47.0249 45.9483 47.068C45.9053 47.111 45.8623 47.154 45.7762 47.154H45.432C45.346 47.154 45.303 47.111 45.2599 47.068C45.2169 47.0249 45.1739 46.9819 45.0878 46.9819C45.0878 46.8959 45.0448 46.8528 45.0018 46.8098C44.9588 46.7668 44.9157 46.7238 44.9157 46.6377V46.1215C44.9157 45.9494 45.0878 45.7773 45.2599 45.6052C45.485 45.4176 45.6937 45.2383 45.8949 45.0653C46.617 44.4448 47.2436 43.9062 48.1855 43.368C49.3902 42.5075 50.5948 41.8191 51.7995 41.1308C51.8855 41.1308 51.9285 41.0877 51.9716 41.0447C52.0146 41.0017 52.0576 40.9587 52.1436 40.9587Z" fill="#0066B6"/>
<path d="M64.7058 38.3771C64.7058 38.2911 64.7488 38.248 64.7919 38.205C64.8349 38.162 64.8779 38.119 64.8779 38.0329C64.8779 37.8608 64.8779 37.6887 64.7058 37.6887C64.7058 37.5824 64.6401 37.5418 64.5492 37.4856C64.4931 37.4509 64.4274 37.4103 64.3616 37.3446C64.3043 37.3446 64.2469 37.3254 64.1895 37.3063C64.0748 37.2681 63.9601 37.2298 63.8454 37.3446C63.7593 37.3446 63.6733 37.3876 63.5872 37.4306C63.5012 37.4736 63.4151 37.5166 63.3291 37.5166C61.436 38.7213 59.543 40.098 57.8221 41.819C57.4779 42.1632 57.1337 42.6794 57.4779 43.0236C57.8221 43.5399 58.3384 43.3678 58.6826 43.0236C60.4035 41.4748 62.2965 40.098 64.1895 38.7213C64.3616 38.6353 64.4477 38.5492 64.5122 38.4847C64.5767 38.4201 64.6198 38.3771 64.7058 38.3771Z" fill="#0066B6"/>
<path d="M65.7387 40.6141H66.0828C66.1689 40.6141 66.2119 40.7432 66.2549 40.8723C66.298 41.0013 66.341 41.1304 66.427 41.1304C66.5991 41.1304 66.5991 41.3025 66.5991 41.4746C66.5991 41.6467 66.5991 41.8188 66.427 41.9909C66.427 42.0972 66.3613 42.1379 66.2705 42.194C66.2143 42.2287 66.1486 42.2693 66.0828 42.3351L61.6084 45.7769C61.2642 46.1211 60.9201 46.4653 60.5759 46.6374C60.4038 46.8095 60.4038 46.8095 60.2317 46.8095H59.8875C59.7154 46.6374 59.7154 46.6374 59.5433 46.6374L59.3712 46.4653C59.2723 46.3663 59.2302 46.3243 59.2123 46.2737C59.1991 46.2363 59.1991 46.1942 59.1991 46.1211V45.7769C59.1991 45.6909 59.2422 45.6479 59.2852 45.6048C59.3282 45.5618 59.3712 45.5188 59.3712 45.4327L59.5433 45.2606C60.0734 44.7306 60.6035 44.3311 61.1738 43.9013C61.5291 43.6335 61.9005 43.3537 62.2968 43.0234C63.3293 42.163 64.3619 41.4746 65.3944 40.7863C65.3944 40.7863 65.5666 40.6141 65.7387 40.6141Z" fill="#0066B6"/>
<path d="M55.6711 38.3773C55.628 38.4203 55.585 38.4633 55.585 38.5494V38.8936C55.585 38.9796 55.628 39.0226 55.6711 39.0657C55.7141 39.1087 55.7571 39.1517 55.7571 39.2377C56.1013 39.754 56.4455 39.5819 56.9618 39.2377L62.1245 35.4517C62.2309 35.4517 62.2715 35.386 62.3277 35.2951C62.3624 35.239 62.403 35.1732 62.4687 35.1075C62.4687 35.0215 62.5117 34.9784 62.5548 34.9354C62.5978 34.8924 62.6408 34.8494 62.6408 34.7633C62.6408 34.075 61.9524 33.7308 61.2641 34.2471C59.4685 35.504 57.0985 36.9499 55.6711 38.3773Z" fill="#0066B6"/>
<path fill-rule="evenodd" clip-rule="evenodd" d="M41.2338 34.3748C40.9128 34.2865 40.6977 33.8133 40.2688 32.8698C37.8595 28.2233 35.106 24.093 31.6642 20.307C30.9758 19.4465 30.9758 18.9303 32.0084 18.0698C36.4828 14.8 40.9572 11.7023 45.6037 8.77676C45.6898 8.77676 45.7758 8.73374 45.8619 8.69071C45.9479 8.64769 46.034 8.60467 46.12 8.60467C46.4856 8.60467 46.6786 8.86361 46.8824 9.13698C46.9663 9.24962 47.0521 9.3647 47.1526 9.46513C48.1851 11.7023 49.2177 13.7675 50.5944 15.8326C52.1433 18.2419 54.0363 20.4791 55.9293 22.7163C56.6177 23.4047 56.6177 23.9209 55.7572 24.6093C51.627 27.707 47.3247 30.6326 43.0223 33.3861L42.8502 33.5582C41.987 34.1624 41.5568 34.4636 41.2338 34.3748ZM44.3991 11.5302C40.7851 13.7675 37.1712 16.1768 33.7293 18.7582C33.213 19.1023 33.0409 19.6186 33.5572 20.1349C34.2456 20.8233 34.9339 21.6837 35.6223 22.5442C36.9991 24.3798 38.2228 26.3685 39.4466 28.3571C40.0585 29.3514 40.6704 30.3458 41.3014 31.3209C41.4735 31.6651 41.6456 32.0093 42.334 31.8372C42.42 31.7512 42.5491 31.7082 42.6781 31.6651C42.8072 31.6221 42.9363 31.5791 43.0223 31.493C46.6363 29.2558 50.4223 26.6744 53.8642 24.093C54.3805 23.7489 54.3805 23.4047 54.0363 23.0605C51.1107 19.6186 48.5293 16.0047 46.2921 12.0465C45.6037 11.014 45.4316 10.8419 44.3991 11.5302Z" fill="#0066B6"/>
<path fill-rule="evenodd" clip-rule="evenodd" d="M68.2476 27.3356L67.9759 26.8467C62.8131 18.4141 56.7898 10.3258 49.9061 3.09786C49.0456 1.89321 47.6689 1.03274 46.1201 0.86065C44.5712 0.688557 43.0224 1.03274 41.8177 1.89321C36.827 4.99088 31.8363 8.26065 27.1898 11.7025C19.7898 16.8653 13.4224 21.5118 7.57122 26.1583C6.36657 27.0188 5.6782 28.2234 5.33401 29.6002C4.98983 30.9769 5.33401 32.3537 6.02238 33.5583C6.12298 33.7595 6.16478 33.8431 6.14776 33.9122C6.13567 33.9613 6.09387 34.0031 6.02238 34.0746C4.98983 34.9351 3.95727 35.7955 2.92471 36.8281C2.23634 37.1723 1.72006 37.8606 1.37587 38.3769C1.03169 39.0653 0.6875 39.7537 0.6875 40.442C0.6875 41.1304 0.6875 41.9909 1.03169 42.6793C1.20378 43.3676 1.72006 44.056 2.23634 44.5723C2.98973 45.4446 3.74312 46.3261 4.50072 47.2125C7.03113 50.1732 9.60859 53.1888 12.3898 56.1025C17.3805 61.4374 22.7154 66.4281 28.2224 71.0746C29.427 72.1072 30.8038 72.9676 32.1805 73.1397C32.5247 73.3118 33.041 73.3118 33.3852 73.3118C33.9015 73.3118 34.4177 73.1397 34.934 72.9676C47.841 65.5676 59.7154 56.6188 70.2131 46.1211C71.2456 45.2606 71.934 44.056 72.4503 42.8513C72.9666 41.6467 73.1387 40.27 73.1387 39.0653C73.3108 37.8606 72.9666 36.656 72.4503 35.4513C71.3094 32.8437 69.8596 30.2355 68.2476 27.3356ZM26.6735 65.7397C18.7573 58.6839 11.3573 50.9397 4.64564 42.8513C4.12936 42.163 3.44099 41.1304 3.78517 40.27C4.06308 39.5752 4.78975 38.8804 5.42167 38.2763C5.57239 38.1322 5.71772 37.9932 5.85029 37.8606C6.71076 37.0002 7.74331 36.3118 8.77587 35.6234L14.7991 42.8513C21.1666 51.2839 27.0177 60.0607 31.4921 69.5258C29.7712 68.4932 28.2224 67.1164 26.6735 65.7397ZM68.6642 43.8839C63.1573 49.3909 57.134 54.7258 50.7666 59.3723C45.7759 62.9862 40.6131 66.4281 35.2782 69.5258C35.1061 69.6979 34.7619 69.6979 34.7619 69.6979C34.6402 69.6979 34.6046 69.6118 34.5333 69.4397C34.5038 69.3684 34.4681 69.2823 34.4177 69.1816C27.8782 55.7583 19.4456 43.5397 9.29215 32.6979C8.60378 32.0095 8.25959 31.149 8.25959 30.4607C8.25959 29.6002 8.77587 28.9118 9.63634 28.2234C18.5852 21.1676 28.5666 14.1118 39.9247 6.53972L44.0549 3.95832C44.5712 3.61414 45.0875 3.44205 45.6038 3.44205H45.948C46.6363 3.44205 47.1526 3.78623 47.6689 4.30251C56.6177 13.7676 64.1898 24.6095 69.8689 36.3118C70.3852 37.3444 70.7294 38.549 70.5573 39.7537C70.2131 41.4746 69.6968 42.8513 68.6642 43.8839Z" fill="#0066B6"/>
</g>
<defs>
<clipPath id="clip0_6978_150814">
<rect width="74" height="74" fill="white"/>
</clipPath>
</defs>
</svg>
