<svg width="74" height="74" viewBox="0 0 74 74" fill="none" xmlns="http://www.w3.org/2000/svg">
<path fill-rule="evenodd" clip-rule="evenodd" d="M10.5067 21.5042H63.5C65.4184 21.5042 67.2582 22.2662 68.6147 23.6227C69.9712 24.9792 70.7333 26.8191 70.7333 28.7374V59.0312C70.7333 60.9495 69.9712 62.7894 68.6147 64.1459C67.2582 65.5024 65.4184 66.2645 63.5 66.2645H10.5067C8.58834 66.2645 6.74857 65.5024 5.39206 64.1459C4.03555 62.7894 3.27344 60.9495 3.27344 59.0312V28.7374C3.27344 26.8191 4.03555 24.9792 5.39206 23.6227C6.74857 22.2662 8.58834 21.5042 10.5067 21.5042ZM46.5032 39.166L67.8292 34.5945V28.7374C67.8292 27.5892 67.373 26.4881 66.5612 25.6762C65.7493 24.8643 64.6482 24.4082 63.5 24.4082H10.5067C9.35853 24.4082 8.25743 24.8643 7.44556 25.6762C6.63369 26.4881 6.17751 27.5892 6.17751 28.7374V34.5945L27.5035 39.166L27.6032 38.2135C27.6398 37.8644 27.8037 37.541 28.0637 37.3052C28.3231 37.07 28.6598 36.9384 29.0099 36.9355H44.9968C45.3469 36.9384 45.6836 37.07 45.943 37.3052C46.203 37.541 46.367 37.8644 46.4035 38.2135L46.5032 39.166ZM43.548 45.5356V39.8395H30.4588V45.5356H43.548ZM7.63233 62.2577C8.4212 62.9657 9.44241 63.3598 10.5024 63.365H63.5C64.6472 63.365 65.7474 62.9097 66.5591 62.0991C67.3708 61.2884 67.8277 60.1877 67.8292 59.0404V37.5705L46.452 42.1527V46.9923C46.452 47.3774 46.299 47.7467 46.0267 48.019C45.7544 48.2914 45.3851 48.4443 45 48.4443H29.0067C28.6216 48.4443 28.2523 48.2914 27.98 48.019C27.7077 47.7467 27.5547 47.3774 27.5547 46.9923V42.1527L6.17751 37.5705V56.4324L6.28528 56.6269C6.64373 57.274 7.1683 57.8137 7.8049 58.1904C8.4415 58.5672 9.1671 58.7673 9.90685 58.7701H58.7617C58.8401 58.7701 58.9153 58.8013 58.9708 58.8567C59.0263 58.9122 59.0575 58.9875 59.0575 59.0659C59.0575 59.1443 59.0263 59.2195 58.9708 59.275C58.9153 59.3305 58.8401 59.3617 58.7617 59.3617H9.91253C9.06952 59.3566 8.24341 59.1244 7.52119 58.6895L6.02562 57.7888L6.22229 59.5235C6.34171 60.5768 6.84345 61.5497 7.63233 62.2577Z" fill="#0066B6"/>
<path d="M25.5928 9.42633C24.8832 10.1354 24.4838 11.0969 24.4822 12.1V15.8013C24.4822 16.1864 24.3292 16.5558 24.0569 16.8281C23.7846 17.1004 23.4153 17.2534 23.0302 17.2534C22.645 17.2534 22.2757 17.1004 22.0034 16.8281C21.7311 16.5558 21.5781 16.1865 21.5781 15.8013V12.1019C21.5804 10.3285 22.2861 8.62834 23.5403 7.37453C24.7945 6.12067 26.4949 5.41555 28.2683 5.41382H45.7362C47.5097 5.41555 49.21 6.12067 50.4643 7.37453C51.7186 8.62847 52.4242 10.3288 52.4264 12.1024V15.8013C52.4264 16.1865 52.2734 16.5558 52.0012 16.8281C51.7289 17.1004 51.3595 17.2534 50.9744 17.2534C50.5893 17.2534 50.22 17.1004 49.9477 16.8281C49.6753 16.5558 49.5223 16.1864 49.5223 15.8013V12.1C49.5208 11.0969 49.1214 10.1354 48.4118 9.42633C47.7022 8.71731 46.7397 8.31868 45.7366 8.31789L28.2673 8.31789C27.2641 8.31868 26.3023 8.71731 25.5928 9.42633Z" fill="#0066B6"/>
</svg>
