<svg width="75" height="75" viewBox="0 0 75 75" fill="none" xmlns="http://www.w3.org/2000/svg">
<path d="M36.3727 48.2787C36.0029 48.2787 35.6194 48.2787 35.2497 48.2787C35.1377 48.2631 35.0239 48.2708 34.915 48.3014C34.8061 48.332 34.7044 48.3849 34.6161 48.4567C34.5277 48.5286 34.4546 48.6179 34.4011 48.7194C34.3476 48.8209 34.3148 48.9325 34.3047 49.0473C34.1404 49.8438 33.7569 50.5565 33.6336 51.3671C33.6128 51.5019 33.5455 51.6247 33.4438 51.7134C33.3421 51.8021 33.2128 51.8508 33.079 51.8508C32.9452 51.8508 32.8158 51.8021 32.7142 51.7134C32.6125 51.6247 32.5452 51.5019 32.5243 51.3671C32.3217 50.6907 32.2021 49.9913 32.1683 49.2848C32.1683 44.7431 32.1683 40.2013 32.1683 35.6596C32.1683 34.877 31.8807 34.5556 31.1274 34.5975C29.662 34.6813 28.183 34.5975 26.7039 34.5975C23.6636 34.5975 20.6095 34.5975 17.5555 34.5975C16.6653 34.5975 16.4051 34.863 16.3914 35.8133V43.3177C16.3093 45.5536 16.5421 48.3206 16.2819 51.0736C16.2819 51.4789 16.0901 51.7863 15.693 51.8282C15.2958 51.8702 15.1999 51.5487 15.0356 51.2273C13.9126 49.0053 14.7069 49.2289 12.1459 49.215C11.6118 49.215 11.1051 49.3407 11.1188 49.9277C11.1105 50.0655 11.1342 50.2035 11.1878 50.3303C11.2415 50.4571 11.3236 50.5693 11.4276 50.6577C11.5316 50.7461 11.6546 50.8083 11.7865 50.8393C11.9184 50.8703 12.0556 50.8692 12.187 50.836C12.5842 50.836 13.0361 50.7382 13.2689 51.1854C13.9363 52.1498 14.4024 53.2438 14.6384 54.3996C14.7206 55.797 14.748 57.0687 14.7206 58.4103C14.7523 59.1799 14.5515 59.941 14.1454 60.5903C13.6661 61.317 13.2826 62.1136 12.7759 62.8542C12.5157 63.2735 12.2418 63.8325 12.7759 64.2517C13.31 64.6709 13.8578 64.2517 14.1454 63.5809C14.3372 63.1896 14.57 62.8263 14.7343 62.435C15.2547 61.2471 16.4599 60.3807 16.2408 58.8715C16.2408 58.5361 16.5147 58.592 16.7064 58.592H32.3463C32.7982 58.592 32.8941 58.7876 32.853 59.1789C32.7797 59.584 32.8424 60.0025 33.0311 60.3667C33.7386 61.4521 34.379 62.5816 34.9484 63.7486C34.9857 63.8761 35.0512 63.993 35.14 64.0905C35.2287 64.1879 35.3382 64.2632 35.46 64.3105C35.5819 64.3578 35.7127 64.3758 35.8425 64.3632C35.9723 64.3506 36.0974 64.3076 36.2083 64.2377C36.7561 63.8884 36.537 63.3713 36.2905 62.9381C35.8112 62.0856 35.3044 61.2332 34.784 60.3947C34.537 60.0092 34.4126 59.5553 34.428 59.0951C34.428 57.6976 34.428 56.4119 34.428 55.0703C34.428 54.6651 34.2088 54.2878 34.3321 53.8685C34.7019 52.7226 35.0442 51.5767 35.4277 50.4308C35.4647 50.2133 35.5817 50.0184 35.7548 49.8859C35.9279 49.7535 36.144 49.6934 36.359 49.7181C36.8246 49.7181 37.1533 49.5643 37.1533 49.0333C37.1533 48.5023 36.8109 48.3206 36.3727 48.2787ZM27.8406 36.1766C28.5938 36.1766 29.3334 36.1766 30.0866 36.1766C30.8398 36.1766 30.8261 36.4002 30.8261 36.9592C30.8261 39.9078 30.8261 42.8705 30.8261 45.8191C30.8261 46.2663 30.7166 46.448 30.2509 46.42C29.4429 46.42 28.6349 46.42 27.8406 46.42C27.3749 46.42 27.2517 46.2803 27.2517 45.8191C27.2517 44.3099 27.2517 42.8146 27.2517 41.3053C27.2517 39.7961 27.2517 38.3008 27.2517 36.8055C27.1832 36.3862 27.3202 36.1766 27.8406 36.1766ZM22.9103 36.7915C22.9103 36.3164 23.0473 36.1766 23.4992 36.1626C25.8274 36.0928 25.8274 36.0788 25.8274 38.4405C25.8274 40.8022 25.8274 43.2478 25.8274 45.6514C25.8274 46.2803 25.6494 46.462 25.0605 46.4061C24.5543 46.3714 24.0465 46.3714 23.5403 46.4061C23.0884 46.4061 22.8829 46.2663 22.8829 45.7493C22.8829 44.212 22.8829 42.6888 22.8829 41.1516C22.8829 39.6144 22.8555 38.3147 22.8419 36.8474L22.9103 36.7915ZM18.0622 36.7915C18.0622 36.3303 18.1992 36.1487 18.6511 36.1766C19.3998 36.1766 20.153 36.1766 20.9108 36.1766C21.3628 36.1766 21.4997 36.3303 21.486 36.7915C21.486 38.3008 21.486 39.7961 21.486 41.3053C21.486 42.8146 21.486 44.3099 21.486 45.8052C21.486 46.2663 21.3491 46.448 20.8971 46.434C20.1028 46.434 19.2948 46.434 18.5005 46.434C17.9527 46.434 18.0759 46.0427 18.0759 45.7493C18.0759 43.667 18.0759 41.5569 18.0759 39.5166C18.0075 38.6501 18.0212 37.7418 17.9938 36.8474L18.0622 36.7915ZM17.487 52.4152C17.9759 51.2729 18.1738 50.023 18.0622 48.7818C18.0622 48.1669 18.2129 48.0131 18.8292 48.0131C22.5816 48.0131 26.3341 48.0131 30.0866 48.0131C30.7029 48.0131 30.8535 48.1808 30.8261 48.7957C30.7621 49.9341 30.9204 51.0742 31.2918 52.1496C31.552 52.8344 31.2918 53.1418 30.5659 53.1418H24.3072C22.1845 53.1418 20.0754 53.1418 17.9527 53.1418C17.3364 53.2117 17.2268 52.9462 17.4186 52.4711L17.487 52.4152ZM31.4013 56.9709H24.5537C21.9928 56.9709 19.4455 56.9709 16.8982 56.9709C16.4051 56.9709 16.2134 56.8591 16.2134 56.3001C16.2134 54.7769 16.2134 54.8188 17.6925 54.8048C20.185 54.8048 22.6775 54.8048 25.17 54.8048C27.6625 54.8048 29.9222 54.8048 32.2915 54.8048C32.7298 54.8048 32.8256 54.9446 32.8393 55.3638C32.8941 56.9849 32.9215 56.9709 31.4013 56.9709Z" fill="#0066B6"/>
<path d="M17.2085 25.4301C18.0592 25.4588 18.9068 25.3113 19.7001 24.9965C20.4935 24.6818 21.2161 24.2062 21.8243 23.5985C22.4325 22.9909 22.9137 22.2638 23.2389 21.4611C23.5641 20.6584 23.7265 19.7968 23.7163 18.9283C23.7061 18.0598 23.5235 17.2024 23.1796 16.4079C22.8357 15.6134 22.3375 14.8982 21.7153 14.3056C21.093 13.713 20.3594 13.2552 19.559 12.9599C18.7585 12.6646 17.9076 12.5378 17.0578 12.5874C15.4388 12.6817 13.9178 13.4095 12.8113 14.6192C11.7049 15.829 11.0982 17.4275 11.1176 19.0822C11.137 20.7368 11.781 22.3201 12.9155 23.5025C14.05 24.6849 15.5877 25.3753 17.2085 25.4301ZM17.2085 14.7115C18.3236 14.7245 19.3879 15.1889 20.1674 16.0027C20.9469 16.8164 21.3777 17.9128 21.365 19.0506C21.3522 20.1885 20.8971 21.2746 20.0996 22.07C19.3022 22.8654 18.2277 23.3049 17.1126 23.2919C16.5637 23.2921 16.0204 23.1801 15.5146 22.9625C15.0089 22.7448 14.551 22.426 14.168 22.0248C13.785 21.6235 13.4847 21.1481 13.2848 20.6265C13.0849 20.1048 12.9894 19.5476 13.0041 18.9878C12.9927 18.4206 13.0943 17.8571 13.3027 17.3312C13.511 16.8053 13.8217 16.3281 14.2161 15.9283C14.6104 15.5285 15.0801 15.2145 15.5969 15.0054C16.1136 14.7962 16.6665 14.6963 17.2222 14.7115H17.2085Z" fill="#0066B6"/>
<path d="M71.6714 23.0131C71.64 22.7821 71.5943 22.5534 71.5344 22.3283C71.3309 20.8552 70.8008 19.4488 69.9845 18.2162C69.1681 16.9836 68.0869 15.9573 66.8233 15.2152C65.0121 14.0299 62.849 13.535 60.7153 13.8178C58.1082 14.243 55.706 15.5176 53.8677 17.4512C53.3747 17.9403 53.1281 17.9543 52.8542 17.2695C52.2446 15.8214 51.3057 14.5424 50.1152 13.5383C48.969 12.5246 47.6221 11.7751 46.1662 11.341C44.7103 10.9069 43.1797 10.7984 41.679 11.0228C39.8394 11.2232 38.0607 11.8111 36.4553 12.7493C34.8499 13.6874 33.4529 14.9554 32.3526 16.4729C31.8322 17.1717 32.0239 18.0102 32.8319 18.1499C34.4342 18.4294 36.0777 19.0024 37.6663 18.0661C37.9676 17.8984 38.2826 17.7866 38.5565 18.0661C38.769 18.3492 39.0753 18.5436 39.4181 18.613C39.7608 18.6825 40.1167 18.6222 40.419 18.4434C40.5697 18.4434 40.8162 18.2897 40.9258 18.4434C40.9621 18.5351 40.971 18.6358 40.9515 18.7327C40.932 18.8297 40.885 18.9186 40.8162 18.9884C40.6925 19.1285 40.5548 19.2549 40.4053 19.3657C38.5816 20.8528 37.1674 22.7974 36.3008 25.0093C35.4342 27.2212 35.145 29.6247 35.4614 31.9848C35.4559 32.1911 35.5102 32.3945 35.6176 32.5695C35.7249 32.7444 35.8805 32.8831 36.0648 32.9682C36.2491 33.0533 36.4539 33.0809 36.6535 33.0477C36.8532 33.0144 37.0387 32.9218 37.187 32.7814C38.9957 31.5504 40.5728 29.9979 41.8433 28.1977C42.1309 27.7924 42.3911 27.2474 42.7061 28.1977C42.7481 28.3809 42.8396 28.5485 42.9702 28.6813C43.1009 28.8142 43.2654 28.907 43.4451 28.9492C43.6249 28.9914 43.8126 28.9813 43.987 28.9201C44.1614 28.8589 44.3155 28.749 44.4317 28.6029C44.9658 28.0999 45.4862 27.5968 45.993 27.0518C46.4997 26.5068 46.7873 26.2552 47.2255 27.0518C47.2695 27.121 47.3278 27.1794 47.3965 27.2229C47.4652 27.2664 47.5424 27.2939 47.6227 27.3033C48.3622 27.3033 48.1705 27.7365 48.0609 28.1837C47.4857 30.4197 46.9653 32.6556 46.5134 34.9195C45.4876 39.9364 44.8693 45.0312 44.6645 50.1519C44.6645 50.7528 44.4317 50.8785 43.8976 50.8646C42.6103 50.8646 41.3229 50.8646 40.0356 50.8646C39.7069 50.8646 39.3508 50.8646 39.3371 51.3257C39.3234 51.7869 39.3371 52.0804 39.8301 52.1922C40.0588 52.2556 40.2925 52.2976 40.5286 52.3179H43.7196C44.5002 52.3179 44.6645 52.5555 44.6508 53.2822C44.6355 56.6026 44.9707 59.9151 45.6506 63.1623C45.7328 63.6234 45.6506 63.7632 45.1986 63.875C44.4326 63.9707 43.6848 64.1827 42.98 64.5038C42.7638 64.5889 42.5871 64.7544 42.4854 64.967C42.3838 65.1795 42.3648 65.4235 42.4322 65.6498C42.4519 65.7787 42.497 65.9022 42.5647 66.0128C42.6325 66.1234 42.7216 66.2189 42.8266 66.2934C42.9316 66.3678 43.0503 66.4198 43.1755 66.4461C43.3008 66.4724 43.43 66.4724 43.5552 66.4463C43.9206 66.3793 44.2818 66.2906 44.6371 66.1808C48.4992 65.2864 52.3475 64.9091 56.0589 66.8236C56.177 66.9063 56.3114 66.9617 56.4527 66.986C56.5939 67.0103 56.7386 67.0029 56.8768 66.9644C57.015 66.9258 57.1433 66.857 57.2527 66.7627C57.3622 66.6684 57.4502 66.5509 57.5106 66.4184C57.5762 66.2943 57.6152 66.1574 57.6249 66.0167C57.6346 65.8761 57.6148 65.7349 57.5669 65.6027C57.519 65.4705 57.4439 65.3502 57.3469 65.2499C57.2498 65.1495 57.1329 65.0715 57.0039 65.0209C56.4715 64.6688 55.9074 64.3694 55.3194 64.1265C55.0805 64.0649 54.8669 63.9275 54.7094 63.7342C54.5519 63.5408 54.4586 63.3014 54.4429 63.0505C53.7033 59.9341 53.2788 56.7479 52.7858 53.5757C52.7036 53.0726 52.7858 52.8909 53.2651 52.9328C54.2648 52.9328 55.2783 53.0865 56.278 53.1983C57.716 53.366 59.154 53.5617 60.592 53.7434C61.9726 53.8403 63.3452 54.0317 64.7006 54.3163C65.9605 54.6517 67.2479 54.6657 68.4941 55.0011C68.8776 55.1129 69.2474 54.8334 69.3706 54.3443C69.4939 53.8551 69.22 53.7154 68.8776 53.5896C68.6152 53.461 68.3396 53.3625 68.0559 53.2962C65.6592 52.8909 63.2626 52.4717 60.8659 52.1502C58.4693 51.8288 55.8261 51.5633 53.2925 51.3257C52.7584 51.3257 52.594 51.0602 52.5666 50.5991C52.4708 48.992 52.3338 47.3849 52.2927 45.7778C52.1318 40.1421 52.6656 34.5081 53.8814 29.0082C53.9635 28.6169 54.032 28.1697 54.6483 28.4772C54.7748 28.5295 54.9136 28.5428 55.0475 28.5155C55.1814 28.4881 55.3045 28.4214 55.4015 28.3235C55.7302 28.002 55.9357 28.1278 56.1137 28.5191C56.4424 29.2877 56.7848 30.0563 57.1682 30.8109C57.7297 31.887 58.3734 31.9569 59.1403 31.0485C59.2499 30.9227 59.3184 30.769 59.5101 30.8249C59.7018 30.8808 59.6197 31.0345 59.647 31.1603C60.2031 33.3914 61.1295 35.5089 62.3861 37.421C63.0434 38.4411 63.7556 38.4411 64.3856 37.3511C65.8984 34.6519 66.4454 31.5004 65.9331 28.4353C65.5848 26.3623 64.7325 24.4115 63.4543 22.7615C63.2215 22.4541 63.153 22.1047 63.4543 21.8811C63.7556 21.6575 63.9336 22.0349 64.098 22.2165C64.5088 22.6637 64.8375 23.2367 65.5497 23.069C66.2618 22.9013 66.2618 23.2507 66.3714 23.6699C66.5913 24.4206 67.0802 25.0593 67.7409 25.4587C68.3859 25.8914 69.0746 26.2521 69.7952 26.5347C70.7812 26.94 71.3838 26.5347 71.5481 25.4726C71.5481 25.249 71.5481 25.0254 71.6303 24.718C71.6938 24.1521 71.7075 23.5815 71.6714 23.0131ZM39.1043 15.7463C38.7482 15.2991 38.2278 15.5087 37.7348 15.7463C37.1629 16.092 36.5447 16.3509 35.8996 16.5149C35.749 16.5149 35.5573 16.5149 35.4751 16.3891C35.3929 16.2633 35.4751 16.1376 35.6257 16.0537C39.433 12.4762 46.4997 11.7635 49.9235 16.3751C50.3285 16.8835 50.6605 17.4482 50.9095 18.0521C48.7313 17.1634 46.3311 17.0115 44.0619 17.6189C43.7059 17.7307 43.61 17.6189 43.6785 17.2695C43.7471 17.0544 43.802 16.835 43.8428 16.6127C43.8919 16.4099 43.8789 16.1967 43.8054 16.0018C43.7319 15.8068 43.6016 15.6396 43.432 15.5227C43.2742 15.4208 43.0914 15.3667 42.9047 15.3667C42.718 15.3667 42.5352 15.4208 42.3774 15.5227C41.9803 15.7043 41.5968 15.886 41.2134 16.0956C40.4464 16.4171 39.7617 16.6127 39.1043 15.7463ZM47.4583 22.8873C46.5956 23.7118 45.7328 24.5224 44.8974 25.3888C44.5002 25.808 44.3222 25.7521 44.2126 25.1931C44.1441 24.8857 44.0619 24.5643 43.9798 24.2429C43.9288 24.0281 43.815 23.8343 43.6536 23.6871C43.4922 23.5398 43.2907 23.4461 43.0759 23.4184C42.8732 23.3981 42.6692 23.4389 42.4891 23.5358C42.3089 23.6327 42.1606 23.7813 42.0625 23.9634C41.6653 24.6202 41.2818 25.277 40.8984 25.9338C40.1681 27.236 39.2441 28.4146 38.1593 29.4275C38.0087 29.5672 37.9128 29.8048 37.5704 29.7349C37.5516 27.9067 38.0253 26.1084 38.94 24.5363C39.6122 23.1698 40.5986 21.9896 41.8149 21.0965C43.0311 20.2034 44.4411 19.624 45.9245 19.4076C47.7499 19.223 49.5866 19.6184 51.1834 20.5396C51.7039 20.8051 51.6491 21.6436 51.1013 22.2026C50.8821 22.4401 50.6082 22.6218 50.3754 22.8454C49.8961 23.2926 49.4989 23.8655 49.0059 22.8454C48.6772 22.2026 48.0472 22.3144 47.4583 22.8873ZM52.4982 25.8499C51.5352 29.1171 50.8614 32.4658 50.485 35.8558C50.0744 39.6369 49.9508 43.4446 50.1152 47.2451C50.2521 50.2766 50.54 53.2991 50.978 56.3007C51.2793 58.355 51.6628 60.3813 52.0873 62.4076C52.2927 63.3998 52.3064 63.3719 51.3478 63.3439C50.4132 63.2739 49.4748 63.2739 48.5403 63.3439C47.9377 63.4138 47.787 63.1762 47.6775 62.7011C47.2563 60.6131 46.9772 58.4979 46.8421 56.3706C46.7462 54.9731 46.7188 53.6875 46.6777 52.9747C46.8598 43.7273 48.2836 34.5489 50.9095 25.6962C50.9588 25.5686 51 25.4379 51.0328 25.3049C51.0711 25.0619 51.1785 24.8357 51.3416 24.6544C51.5047 24.4731 51.7164 24.3446 51.9504 24.2848C52.1558 24.2429 52.6625 25.5146 52.4982 25.8499ZM63.8925 30.769C63.9091 31.8478 63.7613 32.9228 63.4543 33.9552C63.4543 34.1229 63.4543 34.3885 63.1804 34.4024C62.9065 34.4164 62.9339 34.1928 62.838 34.0251C61.9448 32.123 61.4149 30.0646 61.2768 27.9601C61.1946 27.3313 61.085 26.7303 60.4003 26.5627C59.7155 26.395 59.3458 26.926 59.0308 27.4151C58.8527 27.6666 58.7842 28.1697 58.4556 28.1278C58.1269 28.0859 58.0721 27.5968 57.9352 27.2893C57.4969 26.353 57.086 25.4028 56.6478 24.4944C56.2096 23.586 55.6207 23.4044 54.8263 24.0472C54.6757 24.173 54.5114 24.3826 54.4018 24.0472C54.0731 23.2507 53.3336 22.6497 53.676 21.5597C53.854 21.0427 54.1279 20.9728 54.5524 20.9169C56.4218 20.6412 58.3263 21.0518 59.9265 22.0756C61.5268 23.0994 62.7187 24.6697 63.29 26.5068C63.7782 27.8705 64.0015 29.3182 63.9473 30.769H63.8925ZM69.3706 23.7817C69.2337 23.9214 69.0693 23.7817 68.9324 23.7118C68.6001 23.527 68.3464 23.2234 68.2202 22.8594C68.0422 22.3004 67.8231 21.7414 67.6039 21.1824C67.5623 21.0386 67.4908 20.9055 67.3945 20.7923C67.2981 20.6791 67.179 20.5882 67.0453 20.526C66.9116 20.4637 66.7663 20.4315 66.6194 20.4314C66.4724 20.4313 66.3271 20.4635 66.1933 20.5256C66.0943 20.5799 65.9853 20.6129 65.8733 20.6225C65.7612 20.6321 65.6484 20.6181 65.5418 20.5814C65.4353 20.5447 65.3372 20.4861 65.2538 20.4092C65.1703 20.3323 65.1032 20.2388 65.0566 20.1343C64.769 19.7011 64.4814 19.2679 64.1664 18.8626C64.0671 18.6801 63.9166 18.5321 63.7343 18.4375C63.5519 18.3428 63.346 18.3059 63.143 18.3314C62.94 18.357 62.749 18.4438 62.5947 18.5807C62.4403 18.7177 62.3295 18.8986 62.2765 19.1002C62.03 19.6033 62.0163 20.3998 61.5233 20.5675C61.0303 20.7352 60.5783 20.0644 60.0716 19.8408C58.8675 19.2381 57.5609 18.8775 56.2233 18.7788C56.0726 18.7788 55.8946 18.7788 55.785 18.6809C55.6754 18.5831 55.785 18.4434 55.922 18.3316C57.5089 16.8673 59.5381 15.9997 61.6739 15.872C63.6777 15.8928 65.5994 16.6869 67.0527 18.0947C68.506 19.5025 69.3831 21.4195 69.5076 23.4603C69.5076 23.6 69.5213 23.7537 69.4528 23.8376L69.3706 23.7817Z" fill="#0066B6"/>
<path d="M8.0488 20.0641C9.1718 20.0641 9.88395 19.6169 9.87025 18.9321C9.85656 18.2474 9.19919 17.8421 8.08988 17.8281C6.98057 17.8142 6.25473 18.1915 6.22734 18.9182C6.19995 19.6448 6.8984 20.0641 8.0488 20.0641Z" fill="#0066B6"/>
<path d="M24.2266 18.9741C24.2266 19.6868 24.8839 20.12 26.048 20.12C27.2121 20.12 27.8421 19.6728 27.8421 18.988C27.8421 18.3033 27.171 17.884 26.0617 17.884C24.9524 17.884 24.254 18.2474 24.2266 18.9741Z" fill="#0066B6"/>
<path d="M17.2265 11.8332C17.9113 11.8332 18.2947 11.1485 18.2947 10.0025C18.2947 8.85662 17.9523 8.12994 17.2265 8.10199C16.5007 8.07404 16.1172 8.78675 16.1172 9.96062C16.1172 11.1345 16.5554 11.8472 17.2265 11.8332Z" fill="#0066B6"/>
<path d="M16.1172 27.8903C16.1172 29.0362 16.5554 29.7629 17.2265 29.7489C17.8976 29.735 18.2947 29.0642 18.2947 27.9322C18.2947 26.8003 17.9523 26.0596 17.2265 26.0317C16.5007 26.0037 16.1172 26.7025 16.1172 27.8903Z" fill="#0066B6"/>
<path d="M22.561 24.103C22.0543 24.5921 22.246 25.3886 23.054 26.2271C23.8621 27.0656 24.6701 27.2473 25.1357 26.7442C25.6013 26.2411 25.4233 25.4865 24.629 24.6759C23.8347 23.8654 23.0951 23.5999 22.561 24.103Z" fill="#0066B6"/>
<path d="M9.68683 24.9973C8.89251 25.8078 8.68708 26.6463 9.1801 27.1214C9.67313 27.5965 10.4127 27.4149 11.207 26.6043C12.0013 25.7938 12.2615 25.0392 11.7685 24.4942C11.2755 23.9492 10.5085 24.1588 9.68683 24.9973Z" fill="#0066B6"/>
<path d="M24.564 13.1751C25.4404 12.2947 25.6185 11.596 25.1255 11.0649C24.6324 10.5339 23.8655 10.7295 23.0575 11.568C22.2495 12.4065 22.0577 13.203 22.5508 13.6922C23.0438 14.1813 23.7286 13.9717 24.564 13.1751Z" fill="#0066B6"/>
<path d="M11.7937 13.4407C12.2594 12.9376 12.0676 12.183 11.287 11.3725C10.5064 10.5619 9.73947 10.2964 9.21906 10.7995C8.69864 11.3026 8.89037 12.0852 9.71208 12.9236C10.5338 13.7621 11.3144 13.9298 11.7937 13.4407Z" fill="#0066B6"/>
<path d="M5.06648 52.9468C4.62823 53.0167 3.94348 53.1565 3.875 53.8133C3.875 54.2605 4.58715 54.6098 5.31299 54.512C6.23374 54.4623 7.14942 54.3408 8.05202 54.1487C8.66831 53.981 9.42154 54.1487 9.87348 53.408L10.4898 52.2761C10.353 52.2656 10.2157 52.2656 10.0789 52.2761C8.3944 52.4158 6.7099 52.5975 5.06648 52.9468Z" fill="#0066B6"/>
</svg>
