<svg width="75" height="75" viewBox="0 0 75 75" fill="none" xmlns="http://www.w3.org/2000/svg">
<path d="M20.4162 11.9323C25.473 8.55346 31.4182 6.75 37.5 6.75C41.5381 6.75 45.5367 7.54537 49.2675 9.0907C52.9982 10.636 56.3881 12.9011 59.2435 15.7565C62.0989 18.6119 64.3639 22.0017 65.9093 25.7325C67.4546 29.4632 68.25 33.4619 68.25 37.5C68.25 43.5818 66.4465 49.527 63.0677 54.5838C59.6888 59.6406 54.8863 63.5819 49.2675 65.9093C43.6487 68.2367 37.4659 68.8456 31.5009 67.6592C25.536 66.4727 20.0569 63.544 15.7564 59.2435C11.456 54.9431 8.52737 49.4639 7.34087 43.499C6.15437 37.5341 6.76333 31.3513 9.09072 25.7325C11.4181 20.1137 15.3594 15.3112 20.4162 11.9323ZM23.3329 58.7025C27.5264 61.5045 32.4565 63 37.5 63C44.263 63 50.749 60.3134 55.5312 55.5312C60.3134 50.749 63 44.263 63 37.5C63 32.4566 61.5044 27.5264 58.7024 23.333C55.9005 19.1395 51.9179 15.8711 47.2584 13.9411C42.5989 12.011 37.4717 11.5061 32.5252 12.49C27.5786 13.4739 23.035 15.9025 19.4687 19.4688C15.9025 23.035 13.4739 27.5787 12.4899 32.5252C11.506 37.4717 12.011 42.5989 13.941 47.2584C15.8711 51.9179 19.1395 55.9005 23.3329 58.7025Z" fill="#0066B6" fill-opacity="0.1" stroke="#0066B6"/>
<path d="M37.4984 18.2501C34.4655 18.2505 31.557 19.4555 29.4124 21.6001C27.2675 23.745 26.0625 26.6542 26.0625 29.6876C26.0625 30.649 26.4444 31.571 27.1242 32.2508C27.804 32.9307 28.726 33.3126 29.6875 33.3126C30.6489 33.3126 31.5709 32.9307 32.2507 32.2508C32.9305 31.571 33.3125 30.649 33.3125 29.6876C33.3125 28.8594 33.558 28.0498 34.0182 27.3611C34.4783 26.6725 35.1323 26.1358 35.8975 25.8188C36.6626 25.5019 37.5046 25.419 38.3169 25.5805C39.1292 25.7421 39.8753 26.1409 40.461 26.7266C41.0466 27.3122 41.4454 28.0584 41.607 28.8706C41.7686 29.6829 41.6856 30.5249 41.3687 31.2901C41.0518 32.0552 40.515 32.7092 39.8264 33.1694C39.1378 33.6295 38.3282 33.8751 37.5 33.8751C36.5385 33.8751 35.6165 34.257 34.9367 34.9368C34.2569 35.6166 33.875 36.5387 33.875 37.5001V43.7501C33.875 44.7115 34.2569 45.6335 34.9367 46.3134C35.6165 46.9932 36.5385 47.3751 37.5 47.3751C38.4614 47.3751 39.3834 46.9932 40.0632 46.3134C40.743 45.6335 41.125 44.7115 41.125 43.7501V40.4935C43.6124 39.677 45.7475 38.0279 47.166 35.8185C48.6525 33.5032 49.2519 30.7286 48.8539 28.0061C48.4559 25.2836 47.0872 22.7968 45.0001 21.0039C42.9134 19.2114 40.2492 18.2334 37.4984 18.2501Z" fill="#0066B6" fill-opacity="0.1" stroke="#0066B6"/>
<path d="M40.125 53.125C40.125 54.5747 38.9497 55.75 37.5 55.75C36.0502 55.75 34.875 54.5747 34.875 53.125C34.875 51.6753 36.0502 50.5 37.5 50.5C38.9497 50.5 40.125 51.6753 40.125 53.125Z" fill="#0066B6" fill-opacity="0.1" stroke="#0066B6"/>
</svg>
