<svg width="100" height="100" viewBox="0 0 100 100" fill="none" xmlns="http://www.w3.org/2000/svg">
<circle cx="50" cy="50" r="50" fill="#E6E7E8"/>
<path d="M49.1055 60.2175C48.763 60.2175 48.4078 60.2175 48.0652 60.2175C47.9616 60.203 47.8561 60.2102 47.7552 60.2386C47.6543 60.2669 47.5601 60.3158 47.4783 60.3824C47.3965 60.4489 47.3288 60.5317 47.2792 60.6258C47.2296 60.7198 47.1992 60.8231 47.1899 60.9294C47.0377 61.6673 46.6825 62.3275 46.5683 63.0783C46.549 63.2032 46.4866 63.317 46.3925 63.3991C46.2983 63.4813 46.1784 63.5264 46.0545 63.5264C45.9306 63.5264 45.8108 63.4813 45.7166 63.3991C45.6224 63.317 45.56 63.2032 45.5407 63.0783C45.353 62.4518 45.2422 61.8039 45.2109 61.1495C45.2109 56.9424 45.2109 52.7353 45.2109 48.5282C45.2109 47.8033 44.9445 47.5055 44.2467 47.5444C42.8893 47.622 41.5192 47.5444 40.1492 47.5444C37.3328 47.5444 34.5039 47.5444 31.6749 47.5444C30.8503 47.5444 30.6092 47.7903 30.5966 48.6706V55.622C30.5204 57.6932 30.7361 60.2563 30.4951 62.8065C30.4951 63.1819 30.3175 63.4666 29.9496 63.5055C29.5817 63.5443 29.4929 63.2466 29.3406 62.9488C28.3004 60.8906 29.0362 61.0977 26.6639 61.0848C26.1691 61.0848 25.6997 61.2013 25.7124 61.745C25.7048 61.8727 25.7267 62.0004 25.7764 62.1179C25.8261 62.2354 25.9022 62.3393 25.9985 62.4212C26.0948 62.5031 26.2087 62.5607 26.3309 62.5894C26.4531 62.6181 26.5802 62.6171 26.7019 62.5864C27.0698 62.5864 27.4885 62.4958 27.7041 62.91C28.3223 63.8034 28.7541 64.8167 28.9727 65.8874C29.0489 67.1818 29.0742 68.3598 29.0489 69.6026C29.0782 70.3155 28.8922 71.0204 28.516 71.622C28.072 72.2951 27.7168 73.033 27.2474 73.719C27.0064 74.1074 26.7527 74.6252 27.2474 75.0135C27.7422 75.4019 28.2496 75.0135 28.516 74.3922C28.6936 74.0297 28.9093 73.6932 29.0615 73.3307C29.5436 72.2304 30.66 71.4278 30.457 70.0297C30.457 69.7191 30.7107 69.7708 30.8883 69.7708H45.3758C45.7944 69.7708 45.8832 69.9521 45.8452 70.3145C45.7773 70.6898 45.8354 71.0775 46.0101 71.4148C46.6656 72.4203 47.2587 73.4665 47.7862 74.5475C47.8207 74.6656 47.8814 74.7739 47.9636 74.8642C48.0458 74.9544 48.1473 75.0242 48.2601 75.068C48.373 75.1118 48.4942 75.1285 48.6144 75.1168C48.7346 75.1051 48.8506 75.0654 48.9533 75.0006C49.4607 74.677 49.2577 74.198 49.0294 73.7967C48.5854 73.0071 48.116 72.2174 47.6339 71.4407C47.4051 71.0837 47.2899 70.6632 47.3041 70.2369C47.3041 68.9424 47.3041 67.7514 47.3041 66.5087C47.3041 66.1333 47.1011 65.7838 47.2153 65.3954C47.5578 64.334 47.875 63.2725 48.2302 62.211C48.2645 62.0095 48.3728 61.829 48.5332 61.7063C48.6935 61.5836 48.8937 61.528 49.0928 61.5508C49.5241 61.5508 49.8286 61.4084 49.8286 60.9165C49.8286 60.4246 49.5115 60.2563 49.1055 60.2175ZM41.2021 49.0071C41.8998 49.0071 42.5849 49.0071 43.2826 49.0071C43.9803 49.0071 43.9677 49.2143 43.9677 49.7321C43.9677 52.4634 43.9677 55.2078 43.9677 57.9392C43.9677 58.3534 43.8662 58.5217 43.4348 58.4958C42.6864 58.4958 41.9379 58.4958 41.2021 58.4958C40.7708 58.4958 40.6566 58.3663 40.6566 57.9392C40.6566 56.5411 40.6566 55.156 40.6566 53.7579C40.6566 52.3599 40.6566 50.9748 40.6566 49.5897C40.5932 49.2013 40.72 49.0071 41.2021 49.0071ZM36.6351 49.5767C36.6351 49.1366 36.762 49.0071 37.1806 48.9942C39.3372 48.9295 39.3372 48.9165 39.3372 51.1042C39.3372 53.2919 39.3372 55.5573 39.3372 57.7838C39.3372 58.3663 39.1723 58.5346 38.6268 58.4828C38.158 58.4508 37.6875 58.4508 37.2187 58.4828C36.8 58.4828 36.6097 58.3534 36.6097 57.8744C36.6097 56.4505 36.6097 55.0395 36.6097 53.6155C36.6097 52.1916 36.5844 50.9877 36.5717 49.6285L36.6351 49.5767ZM32.1443 49.5767C32.1443 49.1495 32.2711 48.9812 32.6898 49.0071C33.3833 49.0071 34.081 49.0071 34.783 49.0071C35.2016 49.0071 35.3285 49.1495 35.3158 49.5767C35.3158 50.9748 35.3158 52.3599 35.3158 53.7579C35.3158 55.156 35.3158 56.5411 35.3158 57.9262C35.3158 58.3534 35.1889 58.5217 34.7703 58.5087C34.0345 58.5087 33.286 58.5087 32.5502 58.5087C32.0428 58.5087 32.1569 58.1463 32.1569 57.8744C32.1569 55.9456 32.1569 53.9909 32.1569 52.101C32.0935 51.2984 32.1062 50.457 32.0808 49.6285L32.1443 49.5767ZM31.6114 64.0492C32.0643 62.991 32.2476 61.8333 32.1443 60.6835C32.1443 60.1139 32.2838 59.9715 32.8547 59.9715C36.3306 59.9715 39.8066 59.9715 43.2826 59.9715C43.8535 59.9715 43.993 60.1268 43.9677 60.6964C43.9084 61.751 44.055 62.807 44.399 63.8032C44.64 64.4375 44.399 64.7223 43.7266 64.7223H37.9291C35.9628 64.7223 34.0091 64.7223 32.0428 64.7223C31.4719 64.787 31.3704 64.5411 31.548 64.1009L31.6114 64.0492ZM44.5005 68.2692H38.1574C35.7851 68.2692 33.4255 68.2692 31.0659 68.2692C30.6092 68.2692 30.4316 68.1657 30.4316 67.6479C30.4316 66.2369 30.4316 66.2757 31.8017 66.2628C34.1106 66.2628 36.4195 66.2628 38.7283 66.2628C41.0372 66.2628 43.1304 66.2628 45.3251 66.2628C45.731 66.2628 45.8198 66.3922 45.8325 66.7806C45.8832 68.2822 45.9086 68.2692 44.5005 68.2692Z" fill="#3B4255"/>
<path d="M31.3534 39.0523C32.1414 39.079 32.9266 38.9424 33.6615 38.6508C34.3963 38.3592 35.0657 37.9186 35.6291 37.3558C36.1925 36.7929 36.6382 36.1194 36.9395 35.3758C37.2407 34.6323 37.3911 33.8342 37.3817 33.0296C37.3722 32.2251 37.2031 31.4309 36.8846 30.695C36.566 29.959 36.1045 29.2965 35.5281 28.7476C34.9517 28.1986 34.2722 27.7746 33.5307 27.501C32.7892 27.2275 32.001 27.1101 31.2139 27.1559C29.7141 27.2433 28.3052 27.9175 27.2803 29.0381C26.2553 30.1587 25.6934 31.6395 25.7114 33.1722C25.7293 34.7049 26.3259 36.1715 27.3768 37.2668C28.4277 38.3621 29.852 39.0016 31.3534 39.0523V39.0523ZM31.3534 29.1236C32.3863 29.1356 33.3723 29.5658 34.0943 30.3196C34.8164 31.0734 35.2154 32.089 35.2036 33.143C35.1918 34.197 34.7702 35.203 34.0315 35.9398C33.2928 36.6766 32.2975 37.0838 31.2646 37.0718C30.7562 37.0719 30.2528 36.9682 29.7843 36.7666C29.3159 36.5649 28.8917 36.2696 28.537 35.8979C28.1822 35.5263 27.904 35.0859 27.7188 34.6027C27.5336 34.1195 27.4452 33.6033 27.4588 33.0847C27.4483 32.5594 27.5424 32.0374 27.7354 31.5502C27.9283 31.0631 28.2162 30.621 28.5815 30.2507C28.9468 29.8803 29.3819 29.5895 29.8605 29.3958C30.3392 29.202 30.8514 29.1094 31.3661 29.1236H31.3534Z" fill="#3B4255"/>
<path d="M81.7997 36.8129C81.7707 36.5989 81.7283 36.387 81.6729 36.1786C81.4844 34.814 80.9933 33.5112 80.2371 32.3695C79.4809 31.2277 78.4794 30.2769 77.3089 29.5896C75.6312 28.4916 73.6274 28.0332 71.6509 28.2951C69.236 28.689 67.0108 29.8697 65.3079 31.6608C64.8512 32.1139 64.6228 32.1268 64.3691 31.4925C63.8044 30.1511 62.9346 28.9663 61.8319 28.0362C60.7702 27.0972 59.5224 26.4029 58.1738 26.0008C56.8252 25.5987 55.4074 25.4982 54.0173 25.7061C52.3133 25.8917 50.6656 26.4363 49.1785 27.3053C47.6914 28.1743 46.3973 29.3489 45.3781 30.7546C44.896 31.4019 45.0736 32.1786 45.8221 32.308C47.3064 32.5669 48.8287 33.0977 50.3003 32.2304C50.5794 32.075 50.8711 31.9715 51.1249 32.2304C51.3217 32.4926 51.6054 32.6727 51.9229 32.737C52.2405 32.8014 52.5701 32.7455 52.8502 32.5799C52.9897 32.5799 53.2181 32.4375 53.3196 32.5799C53.3532 32.6649 53.3615 32.7581 53.3434 32.8479C53.3254 32.9377 53.2818 33.0201 53.2181 33.0847C53.1035 33.2145 52.976 33.3316 52.8375 33.4342C51.1482 34.8118 49.8381 36.613 49.0353 38.662C48.2326 40.7109 47.9647 42.9373 48.2578 45.1235C48.2527 45.3146 48.3031 45.503 48.4025 45.6651C48.5019 45.8271 48.6461 45.9556 48.8168 46.0344C48.9875 46.1132 49.1772 46.1389 49.3621 46.1081C49.547 46.0773 49.7189 45.9915 49.8563 45.8614C51.5317 44.7212 52.9926 43.283 54.1695 41.6154C54.4359 41.24 54.677 40.7352 54.9687 41.6154C55.0076 41.7852 55.0924 41.9404 55.2134 42.0635C55.3344 42.1865 55.4868 42.2725 55.6533 42.3116C55.8198 42.3507 55.9937 42.3413 56.1552 42.2846C56.3168 42.228 56.4595 42.1262 56.5672 41.9908C57.0619 41.5248 57.544 41.0588 58.0134 40.554C58.4828 40.0491 58.7492 39.8161 59.1551 40.554C59.1958 40.6181 59.2499 40.6722 59.3135 40.7125C59.3771 40.7528 59.4487 40.7782 59.523 40.787C60.2081 40.787 60.0305 41.1883 59.929 41.6025C59.3962 43.6737 58.9141 45.7449 58.4955 47.842C57.5453 52.4892 56.9725 57.2086 56.7828 61.952C56.7828 62.5086 56.5672 62.6251 56.0724 62.6121C54.8799 62.6121 53.6874 62.6121 52.495 62.6121C52.1905 62.6121 51.8607 62.6122 51.848 63.0393C51.8353 63.4665 51.848 63.7384 52.3047 63.8419C52.5164 63.9006 52.733 63.9396 52.9517 63.9584H55.9075C56.6306 63.9584 56.7828 64.1785 56.7702 64.8516C56.7559 67.9274 57.0664 70.9958 57.6962 74.0037C57.7724 74.4309 57.6962 74.5603 57.2776 74.6639C56.568 74.7526 55.8753 74.9489 55.2225 75.2464C55.0221 75.3252 54.8585 75.4785 54.7643 75.6754C54.6702 75.8723 54.6526 76.0983 54.715 76.3079C54.7332 76.4273 54.775 76.5417 54.8378 76.6442C54.9006 76.7467 54.9831 76.8351 55.0803 76.9041C55.1776 76.9731 55.2876 77.0212 55.4036 77.0455C55.5196 77.0699 55.6392 77.07 55.7553 77.0458C56.0937 76.9837 56.4284 76.9015 56.7575 76.7998C60.3349 75.9713 63.8997 75.6218 67.3376 77.3953C67.4471 77.4719 67.5715 77.5232 67.7024 77.5457C67.8332 77.5682 67.9673 77.5614 68.0953 77.5256C68.2233 77.4899 68.3421 77.4262 68.4435 77.3388C68.5449 77.2515 68.6264 77.1426 68.6824 77.0199C68.7432 76.905 68.7793 76.7781 68.7883 76.6478C68.7972 76.5176 68.7789 76.3868 68.7345 76.2643C68.6901 76.1418 68.6206 76.0304 68.5307 75.9375C68.4407 75.8446 68.3324 75.7722 68.213 75.7254C67.7198 75.3993 67.1973 75.1219 66.6526 74.8969C66.4313 74.8398 66.2334 74.7126 66.0875 74.5335C65.9416 74.3543 65.8552 74.1326 65.8407 73.9001C65.1556 71.0134 64.7624 68.062 64.3057 65.1235C64.2296 64.6575 64.3057 64.4892 64.7497 64.528C65.6758 64.528 66.6145 64.6704 67.5406 64.774C68.8726 64.9293 70.2047 65.1105 71.5367 65.2788C72.8155 65.3686 74.087 65.5459 75.3425 65.8096C76.5097 66.1202 77.7021 66.1332 78.8566 66.4439C79.2118 66.5474 79.5543 66.2885 79.6685 65.8354C79.7827 65.3824 79.5289 65.2529 79.2118 65.1364C78.9687 65.0172 78.7135 64.926 78.4506 64.8646C76.2306 64.4892 74.0105 64.1008 71.7904 63.8031C69.5704 63.5054 67.122 63.2594 64.7751 63.0393C64.2803 63.0393 64.1281 62.7934 64.1027 62.3662C64.0139 60.8775 63.887 59.3889 63.849 57.9002C63.6999 52.6798 64.1943 47.4609 65.3206 42.3663C65.3967 42.0038 65.4601 41.5896 66.031 41.8743C66.1482 41.9228 66.2767 41.9351 66.4007 41.9098C66.5248 41.8845 66.6388 41.8227 66.7287 41.7319C67.0332 41.4342 67.2235 41.5507 67.3884 41.9132C67.6928 42.6252 68.01 43.3371 68.3652 44.0361C68.8853 45.0329 69.4816 45.0976 70.192 44.2562C70.2935 44.1397 70.3569 43.9973 70.5345 44.0491C70.7121 44.1009 70.636 44.2433 70.6614 44.3598C71.1765 46.4265 72.0346 48.388 73.1986 50.1591C73.8075 51.1041 74.4672 51.1041 75.0508 50.0944C76.4521 47.5941 76.9588 44.6748 76.4843 41.8355C76.1616 39.9153 75.3721 38.1083 74.1881 36.5799C73.9724 36.2951 73.909 35.9714 74.1881 35.7643C74.4672 35.5572 74.6321 35.9067 74.7844 36.075C75.1649 36.4892 75.4694 37.02 76.1291 36.8646C76.7887 36.7093 76.7887 37.0329 76.8902 37.4213C77.0939 38.1167 77.5469 38.7083 78.1588 39.0782C78.7563 39.4791 79.3943 39.8132 80.0617 40.075C80.9751 40.4504 81.5333 40.075 81.6856 39.0912C81.6856 38.8841 81.6856 38.6769 81.7617 38.3922C81.8205 37.8679 81.8332 37.3394 81.7997 36.8129ZM51.6323 30.0815C51.3025 29.6673 50.8204 29.8614 50.3637 30.0815C49.8339 30.4018 49.2613 30.6416 48.6638 30.7935C48.5242 30.7935 48.3466 30.7935 48.2705 30.677C48.1944 30.5605 48.2705 30.444 48.4101 30.3663C51.9368 27.0524 58.4828 26.3922 61.6543 30.664C62.0294 31.135 62.337 31.658 62.5677 32.2174C60.55 31.3942 58.3266 31.2535 56.2247 31.8161C55.8948 31.9197 55.806 31.8161 55.8694 31.4925C55.933 31.2933 55.9839 31.09 56.0217 30.8841C56.0672 30.6963 56.0551 30.4987 55.987 30.3182C55.9189 30.1376 55.7982 29.9827 55.6411 29.8744C55.495 29.78 55.3256 29.7299 55.1527 29.7299C54.9798 29.7299 54.8104 29.78 54.6643 29.8744C54.2964 30.0427 53.9412 30.2109 53.586 30.4051C52.8755 30.7029 52.2412 30.8841 51.6323 30.0815ZM59.3708 36.6964C58.5716 37.4601 57.7724 38.2109 56.9985 39.0135C56.6306 39.4019 56.4657 39.3501 56.3642 38.8323C56.3008 38.5475 56.2247 38.2498 56.1485 37.952C56.1013 37.7531 55.9959 37.5736 55.8464 37.4372C55.6968 37.3008 55.5102 37.214 55.3113 37.1883C55.1235 37.1695 54.9346 37.2073 54.7677 37.2971C54.6008 37.3868 54.4634 37.5245 54.3725 37.6931C54.0046 38.3015 53.6494 38.9099 53.2942 39.5184C52.6177 40.7246 51.7618 41.8164 50.757 42.7546C50.6174 42.884 50.5286 43.1041 50.2115 43.0394C50.194 41.3459 50.6328 39.6801 51.4801 38.2239C52.1028 36.9581 53.0165 35.8648 54.1431 35.0375C55.2698 34.2103 56.5759 33.6735 57.95 33.4731C59.6409 33.3021 61.3422 33.6683 62.8214 34.5216C63.3035 34.7676 63.2527 35.5443 62.7453 36.0621C62.5423 36.2821 62.2886 36.4504 62.0729 36.6575C61.6289 37.0718 61.261 37.6025 60.8043 36.6575C60.4999 36.0621 59.9163 36.1656 59.3708 36.6964V36.6964ZM64.0393 39.4407C63.1472 42.4671 62.5231 45.569 62.1744 48.7093C61.7941 52.2117 61.6796 55.7389 61.8319 59.2594C61.9587 62.0675 62.2254 64.8673 62.6311 67.6477C62.9102 69.5506 63.2654 71.4277 63.6587 73.3047C63.849 74.2238 63.8617 74.1979 62.9736 74.172C62.1079 74.1071 61.2387 74.1071 60.373 74.172C59.8148 74.2367 59.6753 74.0166 59.5738 73.5765C59.1836 71.6424 58.9251 69.683 58.7999 67.7125C58.7111 66.418 58.6858 65.227 58.6477 64.5668C58.8163 56.0008 60.1353 47.4987 62.5677 39.2983C62.6133 39.1801 62.6515 39.059 62.6819 38.9358C62.7174 38.7107 62.8168 38.5012 62.9679 38.3332C63.119 38.1653 63.3151 38.0462 63.5318 37.9909C63.7221 37.952 64.1915 39.13 64.0393 39.4407ZM74.5941 43.9973C74.6094 44.9967 74.4725 45.9924 74.1881 46.9488C74.1881 47.1041 74.1881 47.3501 73.9344 47.363C73.6807 47.3759 73.706 47.1688 73.6172 47.0135C72.7898 45.2515 72.299 43.3448 72.171 41.3954C72.0949 40.8129 71.9934 40.2562 71.3591 40.1009C70.7248 39.9455 70.3823 40.4375 70.0905 40.8905C69.9256 41.1235 69.8622 41.5896 69.5577 41.5507C69.2532 41.5119 69.2025 41.0588 69.0756 40.774C68.6697 39.9067 68.2891 39.0265 67.8831 38.185C67.4772 37.3436 66.9317 37.1753 66.1959 37.7708C66.0563 37.8873 65.9041 38.0815 65.8026 37.7708C65.4982 37.0329 64.8131 36.4763 65.1303 35.4666C65.2952 34.9876 65.5489 34.9229 65.9422 34.8711C67.6738 34.6157 69.4379 34.9961 70.9203 35.9444C72.4026 36.8928 73.5067 38.3474 74.0359 40.0491C74.4882 41.3123 74.695 42.6534 74.6448 43.9973H74.5941ZM79.6685 37.5248C79.5416 37.6543 79.3894 37.5248 79.2625 37.4601C78.9547 37.289 78.7197 37.0077 78.6028 36.6705C78.4379 36.1527 78.235 35.6349 78.032 35.1171C77.9934 34.9838 77.9272 34.8606 77.838 34.7557C77.7487 34.6508 77.6384 34.5667 77.5145 34.509C77.3907 34.4513 77.2561 34.4215 77.12 34.4214C76.9838 34.4213 76.8492 34.4511 76.7253 34.5087C76.6335 34.559 76.5326 34.5895 76.4288 34.5984C76.325 34.6073 76.2205 34.5944 76.1218 34.5604C76.0231 34.5264 75.9323 34.4721 75.855 34.4009C75.7777 34.3296 75.7155 34.243 75.6724 34.1462C75.406 33.7449 75.1396 33.3436 74.8478 32.9682C74.7557 32.7992 74.6163 32.6621 74.4474 32.5744C74.2785 32.4867 74.0878 32.4525 73.8998 32.4762C73.7117 32.4998 73.5348 32.5802 73.3918 32.7071C73.2488 32.834 73.1462 33.0015 73.0971 33.1883C72.8688 33.6543 72.8561 34.3922 72.3994 34.5475C71.9427 34.7028 71.524 34.0815 71.0546 33.8744C69.9393 33.316 68.729 32.982 67.4899 32.8905C67.3503 32.8905 67.1854 32.8905 67.0839 32.7999C66.9824 32.7093 67.0839 32.5799 67.2108 32.4763C68.6808 31.12 70.5605 30.3162 72.5389 30.198C74.395 30.2172 76.1752 30.9528 77.5214 32.2569C78.8676 33.5609 79.68 35.3367 79.7953 37.2271C79.7953 37.3566 79.808 37.499 79.7446 37.5766L79.6685 37.5248Z" fill="#3B4255"/>
<path d="M22.8598 34.0815C23.9001 34.0815 24.5598 33.6673 24.5471 33.033C24.5344 32.3987 23.9255 32.0233 22.8979 32.0104C21.8703 31.9974 21.198 32.3469 21.1726 33.0201C21.1472 33.6932 21.7942 34.0815 22.8598 34.0815Z" fill="#3B4255"/>
<path d="M37.8516 33.0718C37.8516 33.732 38.4605 34.1333 39.5388 34.1333C40.6171 34.1333 41.2007 33.7191 41.2007 33.0848C41.2007 32.4505 40.5791 32.0621 39.5515 32.0621C38.5239 32.0621 37.8769 32.3987 37.8516 33.0718Z" fill="#3B4255"/>
<path d="M31.3635 26.457C31.9978 26.457 32.353 25.8227 32.353 24.7612C32.353 23.6998 32.0359 23.0266 31.3635 23.0007C30.6911 22.9748 30.3359 23.635 30.3359 24.7224C30.3359 25.8098 30.7419 26.47 31.3635 26.457Z" fill="#3B4255"/>
<path d="M30.3359 41.3307C30.3359 42.3922 30.7419 43.0653 31.3635 43.0524C31.9851 43.0394 32.353 42.4181 32.353 41.3695C32.353 40.321 32.0359 39.6349 31.3635 39.609C30.6911 39.5831 30.3359 40.2304 30.3359 41.3307Z" fill="#3B4255"/>
<path d="M36.3138 37.8227C35.8445 38.2757 36.0221 39.0136 36.7705 39.7903C37.519 40.567 38.2675 40.7353 38.6988 40.2693C39.1301 39.8032 38.9652 39.1042 38.2294 38.3534C37.4936 37.6026 36.8086 37.3566 36.3138 37.8227Z" fill="#3B4255"/>
<path d="M24.3799 38.6511C23.6441 39.4019 23.4538 40.1786 23.9105 40.6187C24.3672 41.0589 25.0522 40.8906 25.788 40.1398C26.5238 39.389 26.7649 38.6899 26.3082 38.1851C25.8515 37.6802 25.141 37.8744 24.3799 38.6511Z" fill="#3B4255"/>
<path d="M38.1692 27.6998C38.9811 26.8842 39.146 26.237 38.6893 25.7451C38.2326 25.2532 37.5222 25.4344 36.7737 26.2111C36.0253 26.9878 35.8476 27.7257 36.3043 28.1787C36.761 28.6318 37.3953 28.4376 38.1692 27.6998Z" fill="#3B4255"/>
<path d="M26.3249 27.9457C26.7562 27.4796 26.5786 26.7806 25.8555 26.0298C25.1324 25.279 24.422 25.033 23.9399 25.4991C23.4579 25.9651 23.6355 26.69 24.3966 27.4667C25.1578 28.2434 25.8809 28.3987 26.3249 27.9457Z" fill="#3B4255"/>
<path d="M20.1037 64.5411C19.6977 64.6058 19.0634 64.7353 19 65.3437C19 65.7579 19.6597 66.0816 20.332 65.991C21.1849 65.9449 22.0331 65.8324 22.8692 65.6544C23.4401 65.4991 24.1379 65.6544 24.5565 64.9683L25.1274 63.9198C25.0007 63.91 24.8735 63.91 24.7468 63.9198C23.1864 64.0492 21.626 64.2175 20.1037 64.5411Z" fill="#3B4255"/>
</svg>
