<svg width="66" height="50" viewBox="0 0 66 50" fill="none" xmlns="http://www.w3.org/2000/svg">
<path d="M11.5917 34.2579C11.3835 34.329 2.70496 36.9848 2.70496 36.9848C2.70496 36.9848 2.12098 34.2884 2.65418 31.5462C3.21785 28.6415 3.95418 26.9149 3.95418 26.9149C3.95418 26.9149 4.75653 24.9598 7.23973 23.3552C9.32684 22.0044 14.1104 20.5723 15.2124 19.8716C15.9436 19.4094 17.1776 18.5766 19.0514 16.5149C20.9253 14.4532 22.4081 12.295 25.719 10.7614C29.03 9.22781 30.7565 9.46648 34.3518 9.22781C37.9472 8.98914 41.8319 9.08562 44.762 9.22781C47.6921 9.37 49.9874 10.7157 50.7593 11.193C51.5261 11.6704 53.4456 13.3055 54.4511 14.3567C55.4565 15.413 56.655 16.9923 57.569 17.7641C58.478 18.5309 59.9202 19.445 61.1643 20.161C62.4136 20.8821 63.1804 21.5016 63.419 22.1262C63.6577 22.7509 63.6526 22.7813 63.6526 22.7813L62.7944 31.668L11.5917 34.2579Z" fill="#128AF9"/>
<path d="M2.70312 36.9848C2.70312 36.9848 4.01836 34.6082 7.13125 32.1199C9.78203 30.0023 12.1687 28.8242 15.8758 28.2809C19.141 27.8035 25.6867 27.9559 36.5996 28.0066C47.5125 28.0523 55.277 28.0676 56.2723 28.0219C57.2676 27.9762 58.5879 27.123 60.157 26.1277C61.7211 25.1324 62.3457 26.5949 62.3457 26.5949L64.1027 31.7644C64.1027 31.7644 64.1688 37.7262 64.057 39.1684C63.9809 40.123 62.6809 41.7785 62.0156 42.0629C61.3504 42.3473 49.3457 42.5352 45.791 42.5352C42.2313 42.5352 11.8895 42.4437 8.83242 42.2051C7.41055 42.0934 5.51133 41.3519 4.60742 40.448C2.9418 38.7875 2.70312 36.9848 2.70312 36.9848Z" fill="#1279D9"/>
<path d="M4.7168 26.9046C4.7168 26.9046 8.77422 26.3968 9.06367 26.6C9.42422 26.8539 7.82969 29.6011 7.4082 30.1546C7.2 30.4289 3.625 32.1554 3.625 32.1554L3.63516 29.6722L4.7168 26.9046Z" fill="#FFFEFF"/>
<path d="M2.47656 32.7649L4.05078 31.9423C4.05078 31.9423 4.33008 30.3731 4.50274 29.6267C4.78203 28.3927 5.46758 26.8032 5.46758 26.8032L3.92891 26.9454C3.92891 26.9454 3.42617 27.8036 2.96406 29.7282C2.47149 31.8052 2.47656 32.7649 2.47656 32.7649Z" fill="#D5CCC2"/>
<path d="M17.2531 23.8933C17.3648 24.9901 18.5785 24.9647 22.0468 24.9647C24.8144 24.9647 52.7187 25.2237 53.3839 24.9292C53.7089 24.787 54.1558 24.1827 54.7093 23.3804C55.5421 22.1819 55.9281 21.6132 55.8519 21.1663C55.7046 20.2929 51.1699 14.5698 48.3312 12.8737C46.3659 11.7007 42.1359 11.6956 38.637 11.655C35.4683 11.6194 29.4558 11.5433 26.5816 13.3866C22.3007 16.1339 17.1058 22.4562 17.2531 23.8933Z" fill="#546D81"/>
<path d="M21.0138 22.7913C21.2373 23.0706 25.6502 22.9893 29.7533 22.9741C33.9529 22.9589 37.9037 23.162 38.0357 22.9741C38.0966 22.8878 38.3049 13.9909 38.1322 13.8335C38.0052 13.7167 36.9185 13.7979 35.5373 13.8132C33.2318 13.8386 29.8752 14.1991 27.7627 15.3823C24.1318 17.4085 20.572 22.2378 21.0138 22.7913ZM40.6611 13.996C40.6256 14.062 40.5595 23.0452 40.6154 23.0807C40.9099 23.2636 52.158 23.1214 52.2697 22.9741C52.3814 22.8268 53.5951 21.6487 53.5595 21.3542C53.524 21.0597 49.7306 16.3725 47.1256 14.7831C45.983 14.0772 40.722 13.8944 40.6611 13.996Z" fill="#AFE3FB"/>
<path d="M19.9194 26.1379C20.2494 27.0114 22.0014 27.3922 23.1287 27.2907C24.7944 27.1383 25.7948 26.1684 25.9725 24.1727C26.1807 21.8824 25.1346 20.8313 24.4084 20.6942C23.6366 20.5469 19.8889 24.5332 19.8889 24.5332C19.8889 24.5332 19.6452 25.4117 19.9194 26.1379Z" fill="#076CCB"/>
<path d="M22.3099 25.6504C23.5439 25.5183 24.4274 24.3808 24.854 23.4718C25.2755 22.5629 25.5903 21.1918 24.6407 20.7754C23.4626 20.2625 22.4013 20.8668 21.6751 21.6843C21.0353 22.4054 19.7962 24.0457 19.8876 24.5281C19.979 25.0156 20.6138 25.8332 22.3099 25.6504Z" fill="#128AF9"/>
<path d="M10.0478 41.0472C10.0935 43.8503 12.3279 47.8824 17.1928 47.9128C22.0576 47.9433 24.5814 44.216 24.4291 40.3972C24.2717 36.5175 21.2553 33.7753 16.9135 33.8972C12.851 34.0191 9.98689 37.1675 10.0478 41.0472Z" fill="#4E433D"/>
<path d="M13.4303 40.8136C13.4557 42.2913 14.6541 44.4191 17.2694 44.4343C19.8846 44.4495 21.149 42.596 21.0678 40.5851C20.9815 38.5386 19.3108 37.0151 17.117 37.0456C14.9334 37.0812 13.3947 38.7671 13.4303 40.8136Z" fill="#C8C8C8"/>
<path d="M45.9541 41.2807C45.9998 44.0636 48.1834 48.0651 52.9467 48.0956C57.71 48.1261 60.1779 44.4292 60.0307 40.6409C59.8783 36.7866 56.9279 34.0698 52.6775 34.1917C48.7014 34.3085 45.8932 37.4315 45.9541 41.2807Z" fill="#4E433D"/>
<path d="M49.1333 41.0626C49.1586 42.5403 50.3571 44.6681 52.9723 44.6833C55.5876 44.6985 56.852 42.845 56.7708 40.8341C56.6844 38.7876 55.0137 37.2642 52.82 37.2946C50.6415 37.3302 49.1028 39.0161 49.1333 41.0626Z" fill="#C8C8C8"/>
<path d="M62.5793 23.6802C62.432 23.8884 59.8828 25.9907 59.8828 26.3157C59.8828 26.6407 62.7875 30.8403 62.7875 30.8403L63.468 31.2517C63.468 31.2517 63.793 25.9298 63.793 25.813C63.793 25.7064 62.5793 23.6802 62.5793 23.6802Z" fill="#FFFEFF"/>
<path d="M64.109 32.5465C64.109 32.5465 64.3477 28.7227 64.3172 26.6559C64.2867 24.4063 63.6469 22.7559 63.6469 22.7559L62.5703 23.6953C62.5703 23.6953 62.9359 25.6859 62.9359 26.991C62.9359 28.2961 62.7887 30.8402 62.7887 30.8402L64.109 32.5465Z" fill="#D5CCC2"/>
</svg>
