<svg width="66" height="65" viewBox="0 0 66 65" fill="none" xmlns="http://www.w3.org/2000/svg">
<path d="M33 64.9C44.8741 64.9 54.5 55.2741 54.5 43.4C54.5 31.5259 44.8741 21.9 33 21.9C21.1259 21.9 11.5 31.5259 11.5 43.4C11.5 55.2741 21.1259 64.9 33 64.9Z" fill="#FCDA29"/>
<path d="M33 21.9V64.9C44.9 64.9 54.5 55.3 54.5 43.4C54.5 31.5 44.9 21.9 33 21.9Z" fill="#E8BE10"/>
<path d="M50.4016 15.1H15.6016V19.1H50.4016V15.1Z" fill="#FCDA29"/>
<path d="M50.4 15.1H33V19.1H50.4V15.1Z" fill="#E8BE10"/>
<path d="M33.0016 25.9C34.8793 25.9 36.4016 24.3777 36.4016 22.5C36.4016 20.6222 34.8793 19.1 33.0016 19.1C31.1238 19.1 29.6016 20.6222 29.6016 22.5C29.6016 24.3777 31.1238 25.9 33.0016 25.9Z" fill="#EDB415"/>
<path d="M33 32.8L36.4 39.7001L44 40.8L38.5 46.2001L39.8 53.7001L33 50.2001L26.2 53.7001L27.5 46.2001L22 40.8L29.6 39.7001L33 32.8Z" fill="#FF9210"/>
<path d="M33 19.1V25.9C34.9 25.9 36.4 24.4 36.4 22.5C36.4 20.6 34.9 19.1 33 19.1Z" fill="#E0A000"/>
<path d="M28.6 0H19.5V15.1H28.6V0Z" fill="#69CDF9"/>
<path d="M46.4984 0H37.3984V15.1H46.4984V0Z" fill="#2EACD8"/>
<path d="M33.0016 0H28.6016V15.1H33.0016V0Z" fill="#ECF1FA"/>
<path d="M37.4 0H33V15.1H37.4V0Z" fill="#DEDFE2"/>
<path d="M44 40.8L36.4 39.7001L33 32.8V50.2001L39.8 53.7001L38.5 46.2001L44 40.8Z" fill="#D36E00"/>
</svg>
