<svg width="66" height="50" viewBox="0 0 66 50" fill="none" xmlns="http://www.w3.org/2000/svg">
<path d="M61.5961 39.4782L58.6762 38.1985C58.6559 38.0411 58.6305 37.8836 58.5898 37.7313C58.3715 36.8833 57.5691 35.8524 56.2437 35.5528L55.9746 31.7493L53.1309 31.9118L53.4863 35.959C52.4301 36.5379 51.9426 37.5586 51.9781 38.7317L48.9922 41.154L50.7695 43.3833L53.1715 41.3622C53.7707 41.8243 54.5578 42.2102 55.5328 42.1543C56.7059 42.0883 57.5082 41.479 58.0059 40.8594L60.5906 42.2458L61.5961 39.4782Z" fill="#878787"/>
<path d="M54.5154 28.3622C49.5135 28.6974 45.1463 33.0036 45.2072 38.4118C45.2733 44.0993 49.6354 48.1364 55.1604 48.1364C60.5584 48.1364 65.0424 44.1603 64.951 38.1173C64.8545 31.5614 59.7815 28.0067 54.5154 28.3622ZM55.2924 44.2263C52.2252 44.1958 49.8944 41.7685 49.6049 39.1228C49.219 35.5833 51.4381 33.0087 54.5815 32.7548C57.8467 32.4958 60.5584 34.4357 60.9139 37.9243C61.2694 41.413 58.5221 44.2618 55.2924 44.2263ZM21.3654 38.3763C20.8322 31.5767 15.226 29.3321 11.1533 29.586C6.50178 29.8806 2.19045 33.2829 2.26662 39.0872C2.33264 44.1907 5.53185 48.1974 12.0776 48.1974C17.3182 48.2024 21.7514 43.3224 21.3654 38.3763ZM11.849 44.8357C7.90334 44.9067 5.62834 42.6064 5.59279 39.1532C5.56232 35.9185 8.20803 33.1103 11.5393 33.2067C14.7385 33.2982 17.0947 35.111 17.4858 38.4728C17.8768 41.8345 15.3377 44.7747 11.849 44.8357Z" fill="#4D453C"/>
<path d="M11.5131 34.4051C8.92835 34.268 6.6635 36.0504 6.63303 39.3156C6.60256 42.7738 9.73577 43.9672 11.5436 44.0027C13.3514 44.0383 16.2002 42.7129 16.2916 39.5137C16.3932 36.1164 14.5498 34.5625 11.5131 34.4051Z" fill="#858585"/>
<path d="M4.63341 30.7184C4.8213 31.0485 6.92873 30.8809 8.54357 31.5919C9.59474 32.054 10.7424 33.2727 10.5799 34.9536C10.4174 36.6345 10.0975 38.1833 10.0975 38.1833L13.0682 39.1532C13.0682 39.1532 14.2311 36.538 14.876 35.8575C15.5209 35.177 16.9783 33.8212 19.1111 34.1106C20.7514 34.3341 22.5998 35.822 22.5998 35.822C22.5998 35.822 21.4369 28.7786 21.3049 28.7126C21.1779 28.6466 14.7795 28.9716 14.7795 28.9716C14.7795 28.9716 11.8697 27.7782 8.89904 28.5196C5.92326 29.2661 4.50138 30.495 4.63341 30.7184Z" fill="#DB0D2A"/>
<path d="M14.162 27.6511L11.0948 36.9593C11.0948 36.9593 9.9218 36.9644 9.48 38.5742C9.12453 39.8691 9.99797 40.707 10.8054 40.9304C11.7601 41.1996 12.9941 40.773 13.2937 39.671C13.6796 38.2492 12.9077 37.6043 12.9077 37.4722C12.9077 37.3402 16.3304 27.9101 16.3304 27.9101L14.162 27.6511Z" fill="#E1D9DC"/>
<path d="M58.1328 21.3695L61.7941 24.6042C61.7941 24.6042 62.6117 23.2941 62.6117 23.1671C62.6117 23.0351 60.159 19.9324 60.159 19.9324L58.1328 21.3695Z" fill="#484D51"/>
<path d="M24.7656 35.0348L30.2855 41.2605L41.0258 41.2098L47.602 39.2496L46.7031 35.7356L41.3812 33.227C41.3812 33.227 44.0422 25.6961 43.4887 25.4473C42.9352 25.1984 36.7145 21.0293 36.7145 21.0293L24.918 24.9953L24.7656 35.0348Z" fill="#2F2F2F"/>
<path d="M47.2592 26.5595C47.2592 26.5595 45.4413 28.2149 44.385 29.6825C43.6436 30.7185 43.4354 31.9169 43.4354 31.9169L44.9893 32.6177C44.9893 32.6177 45.9288 30.4646 48.1276 29.1849C50.6514 27.7122 52.571 27.9001 52.8706 28.5501C53.1702 29.2001 51.9311 29.4185 50.1589 31.2618C48.8538 32.6177 48.153 33.9228 48.153 33.9228C48.153 33.9228 54.0284 36.3298 54.0284 36.6345C54.0284 36.9341 52.9721 39.9454 52.9721 39.9454L46.2944 38.3407C46.2944 38.3407 41.978 37.0356 41.526 38.3407C41.0741 39.6458 43.08 40.3974 43.08 40.3974L41.2214 41.6009L35.4475 39.0923C35.4475 39.0923 35.1073 37.4978 36.905 33.9735C39.6217 28.6364 43.6792 25.9399 43.6792 25.9399L47.2592 26.5595Z" fill="#5E6268"/>
<path d="M47.9921 26.8285C47.9921 26.8285 52.9738 24.6906 55.066 23.7562C58.3414 22.2988 61.6929 20.4199 62.2921 20.0644C63.3738 19.4195 63.3636 18.8152 63.064 18.5664C62.7644 18.3176 61.9621 18.668 61.5558 18.7187C61.1496 18.7695 59.9511 18.8203 59.9511 18.8203L50.9679 21.2781C50.9679 21.2781 44.996 25.041 45.1433 25.041C45.2906 25.041 47.9921 26.8285 47.9921 26.8285Z" fill="#DC0D2A"/>
<path d="M17.2941 25.696L10.9922 24.4316L14.1102 18.4242L17.4566 15.0777L19.4371 14.3617C19.4371 14.3617 17.7664 16.5808 16.8676 17.9773C16.309 18.8456 15.7199 20.2726 15.7199 20.2726C15.7199 20.2726 16.4156 20.1202 16.9691 20.0542C17.5227 19.9882 18.1371 19.9425 18.1371 19.9425C18.1371 19.9425 17.9543 18.7542 18.2133 18.1398C18.4723 17.5202 19.0105 17.1191 19.4016 17.0835C19.7926 17.0531 20.0516 17.246 20.0516 17.246C20.0516 17.246 19.9957 16.3066 20.082 16.0425C20.2445 15.555 21.6105 14.9812 23.3016 14.3617C25.0027 13.737 26.9121 12.8687 27.425 12.9906C27.7449 13.0667 28.4965 14.5191 28.1055 14.9406C27.7145 15.362 21.6766 18.1906 21.6766 18.1906L22.682 20.9531L17.2941 25.696Z" fill="#464C4F"/>
<path d="M11.6562 17.6828C11.6562 17.6828 15.4598 13.5746 17.4758 11.7719C18.9687 10.4363 20.1164 9.57303 20.543 9.41053C20.7715 9.3242 22.9805 9.24803 23.2039 9.31405C23.4324 9.38006 23.6609 9.73553 23.3004 10.0961C22.9449 10.4515 21.8176 11.7414 20.802 12.8078C20.3348 13.2953 19.4359 14.3465 19.4359 14.3465L17.7805 14.9609L13.6215 17.0379L11.6562 17.6828Z" fill="#AEE3FD"/>
<path d="M41.3686 40.9864C41.3838 41.1996 41.5463 41.4535 42.2268 41.418C42.9073 41.3825 49.7221 41.4891 50.5448 41.3114C51.3674 41.1336 62.3819 36.3551 62.6002 35.9235C62.7576 35.6086 62.783 34.5473 62.2701 33.4555C61.6963 32.2368 61.1225 31.6274 60.3709 31.7696C59.6194 31.9118 44.2733 39.2293 43.1256 39.6914C41.978 40.1586 41.333 40.4836 41.3686 40.9864Z" fill="#E0E0E0"/>
<path d="M49.4359 38.9398C49.5577 39.2292 50.7511 39.1886 52.1374 38.5539C53.5237 37.9191 62.3444 33.6027 62.3444 33.6027C62.3444 33.6027 62.1972 33.1609 61.9382 32.7496C61.7351 32.4296 61.3948 32.0945 61.3948 32.0945C61.3948 32.0945 51.3655 37.2031 50.8019 37.4824C50.0706 37.848 49.2073 38.3964 49.4359 38.9398Z" fill="#FEFEFE"/>
<path d="M36.6328 22.2633C36.6328 22.2633 40.5582 26.082 41.1219 26.3664C41.6906 26.6508 42.7723 26.7777 43.6762 26.6C44.5801 26.4223 49.5617 22.6492 51.7047 21.9789C53.8477 21.3086 57.5395 21.207 58.7531 20.5316C59.9668 19.8563 59.9516 18.8203 59.9516 18.8203L49.4094 19.5516C49.4094 19.5516 47.175 23.1418 42.9805 22.9082C39.7559 22.7254 37.3285 20.0188 37.3285 20.0188L36.6328 22.2633Z" fill="#464C4F"/>
<path d="M48.8692 29.6672C49.7985 30.1597 50.2403 29.0883 50.0067 28.6109C49.5141 27.6054 47.686 24.7465 47.2188 24.5586C46.8329 24.4062 44.7407 25.9246 44.5325 26.082C44.3243 26.2344 44.4005 26.5644 44.8423 26.8844C45.411 27.2957 48.1481 29.2863 48.8692 29.6672Z" fill="#C8C8C8"/>
<path d="M28.2574 24.7923L36.4687 24.4927L38.0684 26.1634L32.6957 29.4997L27.4906 28.2302L27.0234 24.9954L28.2574 24.7923Z" fill="#464C4F"/>
<path d="M24.7578 29.9312L20.4363 34.6487C20.4363 34.6487 22.0207 37.462 22.4574 38.6706C22.9145 39.93 23.5594 42.205 23.5594 42.205C23.5594 42.205 39.9414 42.6722 40.7082 42.5706C41.475 42.469 42.3434 41.5702 41.9422 41.2046C41.541 40.839 35.3 38.2694 35.3 38.2694C35.3 38.2694 30.3945 38.6046 29.5922 38.305C28.7898 38.0054 26.1746 34.3999 26.3168 34.1257C26.6621 33.4452 33.0301 29.2964 33.0301 29.2964L32.4969 28.7276L27.5914 27.6257L27.891 25.6249C27.891 25.6249 30.0949 23.8577 30.359 23.8577C30.623 23.8577 33.2637 23.4261 34.7312 23.0909C36.1988 22.7558 38.0016 22.3546 38.4332 22.121C38.8648 21.8874 39.1848 21.4862 39.068 20.8515C38.9766 20.3741 37.7324 19.9526 37.7324 19.9526L24.8543 19.2163L22.2086 19.4956C22.2086 19.4956 21.8531 20.6839 19.9488 21.8519C18.0445 23.0198 14.8047 23.7765 14.8047 23.7765L24.7578 29.9312Z" fill="#DC0D2A"/>
<path d="M19.3842 14.3567C19.3842 14.3567 15.0627 15.0829 12.1276 17.2868C9.19241 19.4907 8.05491 23.929 7.9889 24.3606C7.92288 24.7922 7.36429 26.2293 8.46624 26.92C8.99944 27.2551 10.0608 27.0977 11.1932 27.3668C12.1326 27.5852 14.2604 28.3012 15.8955 29.7688C17.5307 31.2364 20.4354 34.6743 20.4354 34.6743L32.4909 28.7329C32.4909 28.7329 29.0123 24.6653 20.9686 24.1321C12.9248 23.5989 12.092 23.7969 12.092 23.7969C12.092 23.7969 13.1026 20.8922 14.5295 18.993C16.4338 16.454 19.3842 14.3567 19.3842 14.3567Z" fill="#FE2A22"/>
<path d="M22.2031 19.5059C22.2031 19.5059 24.5898 21.527 28.8961 21.8926C33.2023 22.2582 37.7371 19.9578 37.7371 19.9578C37.7371 19.9578 30.4754 16.5961 29.5969 16.6571C28.6523 16.718 22.2387 19.3028 22.2031 19.5059Z" fill="#FE2A22"/>
<path d="M9.31995 20.8007C9.31995 20.8007 12.0571 20.7855 12.0774 20.8972C12.0977 21.009 11.0719 23.6039 11.0719 23.6039C11.0719 23.6039 7.9387 25.2289 7.84222 25.2086C7.74573 25.1882 7.82191 23.8121 8.22816 22.6949C8.63441 21.5777 9.31995 20.8007 9.31995 20.8007Z" fill="#D9E3DF"/>
<path d="M10.4266 16.0477C10.5535 16.5048 12.4528 17.9368 13.6867 17.8251C14.8192 17.7235 14.6262 15.6161 14.616 15.0981C14.6008 14.052 14.5094 13.1684 14.4485 12.62C14.3825 12.0208 13.8848 11.9548 13.5344 12.2392C13.184 12.5184 10.2895 15.5653 10.4266 16.0477ZM30.9676 34.6134C30.9676 34.6134 30.1907 32.4399 32.0188 31.1856C33.4 30.236 35.152 30.363 36.3403 31.9423C37.5285 33.5216 36.4672 35.3751 35.8375 35.8981C33.7809 37.6145 31.9071 35.9895 31.9071 35.9895C31.9071 35.9895 32.0289 36.8833 31.2215 37.4977C30.6477 37.9345 29.2106 38.0614 28.6164 36.9696C27.9766 35.7915 28.6317 34.9181 29.302 34.5474C30.1653 34.0649 30.9676 34.6134 30.9676 34.6134Z" fill="#464C4F"/>
</svg>
