<svg width="40" height="40" viewBox="0 0 40 40" fill="none" xmlns="http://www.w3.org/2000/svg">
<g clip-path="url(#clip0_418_81554)">
<path fill-rule="evenodd" clip-rule="evenodd" d="M24.7153 2.89999C24.9424 2.89988 25.1601 2.99062 25.3198 3.15199L33.4103 11.3244C33.6637 11.4715 33.8341 11.7459 33.8341 12.06V34.5883C33.8341 35.2545 33.5695 35.8933 33.0985 36.3643C32.6274 36.8354 31.9886 37.1 31.3224 37.1H8.63577L8.61446 37.0997C7.9593 37.0833 7.33651 36.8114 6.87902 36.3422C6.42158 35.873 6.16562 35.2436 6.16577 34.5883V5.42025C6.16564 4.76476 6.42177 4.13494 6.87947 3.6657C7.33723 3.19641 7.96034 2.92469 8.61572 2.90858L8.63616 2.90833L24.7153 2.89999ZM26.5 13.25H32.1341V34.5883C32.1341 34.8036 32.0486 35.01 31.8964 35.1623C31.7442 35.3145 31.5377 35.4 31.3224 35.4H8.64832C8.43982 35.3925 8.24207 35.305 8.09626 35.1554C7.94842 35.0038 7.86571 34.8001 7.86577 34.5883V5.41974C7.86571 5.20788 7.94848 5.0044 8.09641 4.85274C8.24238 4.70309 8.44038 4.61561 8.64908 4.60832L23.75 4.60049V10.5C23.75 12.0188 24.9812 13.25 26.5 13.25ZM25.25 5.49782L31.4395 11.75H26.5C25.8096 11.75 25.25 11.1904 25.25 10.5V5.49782ZM13.1984 18.2566C12.7289 18.2566 12.3484 18.6371 12.3484 19.1066C12.3484 19.576 12.7289 19.9567 13.1984 19.9567H26.7601C27.2295 19.9567 27.6101 19.576 27.6101 19.1066C27.6101 18.6371 27.2295 18.2566 26.7601 18.2566H13.1984ZM13.1984 23.2842C12.7289 23.2842 12.3484 23.6647 12.3484 24.1342C12.3484 24.6036 12.7289 24.9841 13.1984 24.9841H26.7601C27.2295 24.9841 27.6101 24.6036 27.6101 24.1342C27.6101 23.6647 27.2295 23.2842 26.7601 23.2842H13.1984ZM13.1984 28.3116C12.7289 28.3116 12.3484 28.6922 12.3484 29.1616C12.3484 29.6311 12.7289 30.0116 13.1984 30.0116H26.7601C27.2295 30.0116 27.6101 29.6311 27.6101 29.1616C27.6101 28.6922 27.2295 28.3116 26.7601 28.3116H13.1984Z" fill="#0066B3"/>
</g>
<defs>
<clipPath id="clip0_418_81554">
<rect width="40" height="40" fill="white"/>
</clipPath>
</defs>
</svg>
