<svg width="50" height="50" viewBox="0 0 50 50" fill="none" xmlns="http://www.w3.org/2000/svg">
<path d="M50 2.85971C49.9696 2.37256 49.7596 1.91521 49.4122 1.57965C49.0648 1.2441 48.6057 1.05524 48.1274 1.05105C47.887 1.05105 47.6567 1.05105 47.4164 1.05105H2.69377C2.11973 0.977108 1.53826 1.10751 1.04751 1.42026C0.556758 1.73301 0.186773 2.20894 0 2.76774L0 40.1568C0.130182 40.1568 0.180252 40.2897 0.25035 40.3918C0.446911 40.7488 0.720255 41.0557 1.04981 41.2893C1.37937 41.5229 1.75657 41.6773 2.15301 41.7407C3.12933 41.814 4.10892 41.831 5.08712 41.7918H13.6892C13.888 41.8324 14.0944 41.8043 14.2758 41.7117C14.4572 41.6192 14.6032 41.4676 14.6906 41.2808C14.7736 41.1322 14.8138 40.9626 14.8066 40.7917C14.7994 40.6208 14.7451 40.4553 14.6499 40.3145C14.5548 40.1736 14.4226 40.063 14.2686 39.9953C14.1146 39.9277 13.945 39.9057 13.7793 39.932H3.20449C2.20308 39.932 1.79251 39.5233 1.76247 38.4912C1.76247 37.2344 1.88264 35.9775 1.88264 34.7206C1.88264 26.8729 1.88264 19.0184 1.88264 11.157C1.88264 10.1352 1.88264 10.1352 2.88404 10.268H3.29461H14.4703H27.178H39.3251C39.6455 10.268 39.986 10.1556 40.3265 10.1863C42.1891 10.3702 44.0517 10.1863 45.9143 10.268C46.1546 10.268 46.3849 10.1659 46.3849 9.84908C46.389 9.78331 46.3803 9.71735 46.3593 9.65501C46.3384 9.59267 46.3055 9.53517 46.2627 9.4858C46.22 9.43643 46.168 9.39617 46.1099 9.36733C46.0519 9.33849 45.9888 9.32163 45.9243 9.31773C45.6909 9.30243 45.4567 9.30243 45.2233 9.31773H2.37332C2.03285 9.31773 1.88264 9.15423 1.88264 8.80681C1.88264 7.26383 1.88264 5.74129 1.88264 4.17788C1.87175 4.00744 1.91851 3.83835 2.01511 3.69886C2.11171 3.55937 2.2523 3.45794 2.41338 3.4115C2.89232 3.27588 3.39386 3.24455 3.88544 3.31954H47.1861C47.9271 3.31954 48.3477 3.69762 48.3477 4.34137V38.6343C48.3756 38.8121 48.3616 38.9941 48.3068 39.1652C48.2521 39.3364 48.1582 39.4918 48.033 39.6186C47.9077 39.7454 47.7547 39.84 47.5865 39.8945C47.4184 39.949 47.2399 39.9618 47.0659 39.932H35.0491C34.3581 39.932 34.1378 40.167 34.1478 40.8721C34.1578 41.5772 34.4282 41.7918 35.2293 41.7918C39.3251 41.7918 43.4308 41.7918 47.5365 41.7918C47.9892 41.8008 48.4361 41.6874 48.8319 41.4631C49.2276 41.2387 49.5581 40.9114 49.7897 40.5145C49.8897 40.0034 49.93 39.482 49.9099 38.9613V3.93264C49.9099 3.575 49.9099 3.21735 49.9099 2.84949L50 2.85971Z" />
<path d="M38.9945 32.6463C39.9482 30.5988 40.2962 28.3119 39.9959 26.0657C39.6981 23.6674 38.7042 21.4148 37.142 19.5974C33.7672 15.8268 29.6915 14.0795 24.6945 15.3057C21.9166 15.9453 19.4403 17.5444 17.6847 19.8324C16.6419 21.166 15.8692 22.6978 15.4115 24.3388C15.0136 25.8393 14.9048 27.4044 15.0911 28.9473C15.389 31.6795 16.5651 34.2342 18.4358 36.2125C19.287 37.1526 19.3571 37.3979 18.7662 38.573C17.895 40.2999 16.9537 41.9757 15.9523 43.6822C15.5986 44.2579 15.4111 44.9237 15.4111 45.6032C15.4111 46.2827 15.5986 46.9485 15.9523 47.5243C16.1593 47.9995 16.5051 48.3979 16.9425 48.665C17.3799 48.932 17.8874 49.0547 18.3957 49.0162C19.062 49.029 19.7189 48.8547 20.2946 48.5123C20.8704 48.1699 21.3428 47.6725 21.6603 47.0747L25.2153 40.7904C25.2941 40.6167 25.4246 40.4728 25.5882 40.3793C25.7518 40.2857 25.9402 40.2472 26.1265 40.2692C26.6263 40.3524 27.1323 40.39 27.6387 40.3816C28.8493 40.3239 30.0492 40.1215 31.2137 39.7787C32.9478 39.2531 34.5456 38.3404 35.8914 37.1068C37.2371 35.8732 38.2971 34.3496 38.9945 32.6463ZM20.6188 46.6966C20.3484 47.1235 19.9486 47.4484 19.4803 47.6219C19.012 47.7953 18.501 47.8077 18.0252 47.6571C17.5491 47.5396 17.1274 47.2576 16.8317 46.8591C16.5361 46.4605 16.3846 45.9699 16.4029 45.4704C16.3971 45.221 16.445 44.9734 16.5431 44.7449C16.7734 44.05 17.3242 43.9683 17.7748 44.5201C18.0519 44.8794 18.3966 45.1784 18.7888 45.3996C19.1809 45.6207 19.6125 45.7594 20.058 45.8076C20.5688 45.8689 20.8992 46.2163 20.6188 46.6966ZM23.8433 40.9743C23.2125 42.0983 22.5916 43.2326 21.9707 44.3566C21.79 44.721 21.4936 45.0123 21.13 45.183C20.7663 45.3537 20.3567 45.3938 19.9679 45.2967C19.3807 45.2227 18.8323 44.9585 18.4033 44.5428C17.9743 44.1271 17.6873 43.5819 17.5846 42.9873C17.5705 42.908 17.5741 42.8264 17.5948 42.7486C17.6156 42.6709 17.6532 42.5988 17.7047 42.5377C18.3456 41.3524 19.0066 40.1773 19.6575 38.9919C19.8477 38.6343 20.1482 38.154 20.5688 38.2358C21.0043 38.3026 21.4248 38.4479 21.8105 38.6649C22.3863 38.8893 22.9315 39.1881 23.4328 39.5539C23.9735 40.0035 24.2139 40.2999 23.8433 40.9743ZM27.6186 39.0635C26.1013 39.1092 24.591 38.8367 23.181 38.263C21.7711 37.6892 20.4915 36.8263 19.4214 35.7277C18.3514 34.6291 17.5136 33.3182 16.9599 31.8759C16.4063 30.4337 16.1486 28.8909 16.2026 27.343C16.2324 25.828 16.556 24.334 17.1546 22.9473C17.7533 21.5606 18.6151 20.3086 19.6904 19.2636C20.7658 18.2186 22.0333 17.4012 23.4198 16.8587C24.8064 16.3162 26.2845 16.0593 27.7688 16.1027C30.7748 16.1644 33.6364 17.4305 35.735 19.6275C37.8337 21.8244 39.0009 24.7757 38.9845 27.8437C38.9345 30.8692 37.7091 33.7506 35.5778 35.8545C33.4465 37.9584 30.5836 39.1126 27.6186 39.0635Z" />
<path d="M27.0378 17.4107C24.5763 17.561 22.2616 18.6561 20.5588 20.4762C20.4186 20.6193 20.1983 20.793 20.3685 20.9769C20.5387 21.1608 20.699 20.9054 20.8291 20.7828C20.9593 20.6601 21.1095 20.4966 21.2497 20.3536C22.0526 19.5804 22.9992 18.9794 24.0336 18.5858C25.0849 18.2116 26.1855 18.0015 27.2982 17.9625C28.6436 17.8654 29.9917 18.1075 31.2237 18.6676C31.9258 18.9866 32.5964 19.3732 33.2265 19.8222C33.3266 19.8938 33.4268 19.9755 33.5469 19.904C33.6671 19.8324 33.607 19.812 33.6871 19.6587L33.3166 19.4033C31.5378 17.9684 29.3004 17.2583 27.0378 17.4107Z" />
<path d="M4.4161 6.39528C4.39695 6.52369 4.40697 6.65487 4.44537 6.7787C4.48377 6.90254 4.54953 7.01572 4.63758 7.10952C4.72564 7.20332 4.83362 7.27523 4.95322 7.3197C5.07281 7.36417 5.20082 7.38002 5.32737 7.36602C5.58287 7.36649 5.82888 7.26729 6.01505 7.08873C6.20121 6.91016 6.31344 6.66574 6.32877 6.4055C6.33763 6.26897 6.31779 6.13209 6.2706 6.00402C6.2234 5.87595 6.14994 5.75964 6.05512 5.66289C5.96031 5.56614 5.84633 5.49118 5.72082 5.44302C5.59531 5.39486 5.46117 5.37462 5.32737 5.38366C4.66645 5.44497 4.33598 5.77196 4.4161 6.39528Z" />
<path d="M7.55062 6.39528C7.53147 6.52369 7.54149 6.65487 7.57989 6.77871C7.61829 6.90254 7.68405 7.01572 7.7721 7.10952C7.86016 7.20332 7.96814 7.27523 8.08774 7.3197C8.20734 7.36417 8.33534 7.38002 8.46189 7.36603C8.71739 7.36649 8.9634 7.26729 9.14957 7.08873C9.33573 6.91016 9.44797 6.66574 9.4633 6.4055C9.47384 6.26857 9.45517 6.13093 9.40858 6.00208C9.36198 5.87322 9.28856 5.7562 9.19339 5.65908C9.09821 5.56196 8.98353 5.48704 8.85724 5.43949C8.73096 5.39195 8.59608 5.3729 8.46189 5.38366C7.80097 5.44497 7.47051 5.77196 7.55062 6.39528Z" />
<path d="M10.645 6.39528C10.6258 6.52369 10.6358 6.65487 10.6742 6.7787C10.7126 6.90254 10.7784 7.01572 10.8664 7.10952C10.9545 7.20332 11.0625 7.27523 11.1821 7.3197C11.3017 7.36417 11.4297 7.38002 11.5562 7.36602C11.8203 7.37998 12.079 7.28682 12.276 7.10688C12.4729 6.92694 12.5922 6.67481 12.6077 6.4055C12.6166 6.26897 12.5967 6.13209 12.5495 6.00402C12.5023 5.87595 12.4289 5.75964 12.334 5.66289C12.2392 5.56614 12.1253 5.49118 11.9997 5.44302C11.8742 5.39486 11.7401 5.37462 11.6063 5.38366C10.9053 5.44497 10.5749 5.77196 10.645 6.39528Z" />
</svg>
