<svg width="50" height="50" viewBox="0 0 50 50" fill="none" xmlns="http://www.w3.org/2000/svg">
<g clip-path="url(#clip0_371_1945)">
<path d="M42.8296 13.2759C37.0893 13.2759 31.3421 13.2759 25.5882 13.2759C25.3424 13.2873 25.0977 13.2354 24.8775 13.1254C24.6573 13.0153 24.4691 12.8506 24.3306 12.6471C23.7306 11.8313 23.0512 11.0771 22.3022 10.3955C21.9257 10.0141 21.4773 9.71098 20.9829 9.50382C20.4885 9.29667 19.9579 9.18955 19.4219 9.18864C16.2914 9.18864 13.1508 9.18864 10 9.18864C9.16999 9.18342 8.3505 9.37457 7.60844 9.74648C6.86638 10.1184 6.2228 10.6605 5.73023 11.3286C5.43611 11.6937 5.29413 12.0893 5.73023 12.4848C5.81425 12.5703 5.91448 12.6383 6.02505 12.6847C6.13563 12.7311 6.25434 12.755 6.37425 12.755C6.49416 12.755 6.61287 12.7311 6.72345 12.6847C6.83402 12.6383 6.93425 12.5703 7.01826 12.4848C7.33267 12.211 7.61664 11.8966 7.9209 11.6126C8.10619 11.4044 8.33239 11.2365 8.58541 11.1196C8.83843 11.0027 9.11283 10.9392 9.39149 10.9331C12.8702 10.9331 16.3489 10.9331 19.8276 10.9331C20.285 10.9247 20.7317 11.0713 21.0953 11.3489C21.7394 11.9354 22.3237 12.5843 22.8398 13.286C23.2592 13.8488 23.8015 14.3085 24.4254 14.6302C25.0494 14.9518 25.7384 15.1268 26.4402 15.142C32.0081 15.0609 37.5964 15.142 43.144 15.142C44.4625 15.142 44.9189 15.5882 44.9087 16.9371C44.8377 23.712 45.0406 30.4868 44.7769 37.2211C44.7769 37.5051 44.6856 37.8499 45.0913 37.9615C45.2503 38.0093 45.4207 38.0022 45.5752 37.9415C45.7297 37.8808 45.8593 37.77 45.9432 37.6268C46.3051 37.15 46.4881 36.5614 46.4605 35.9635V26.1156C46.4605 22.8499 46.4605 19.5943 46.4605 16.3387C46.4526 15.8936 46.3425 15.4562 46.1384 15.0605C45.9344 14.6648 45.6421 14.3214 45.284 14.0568C44.5959 13.4921 43.7175 13.2126 42.8296 13.2759Z" fill="#0066B3"/>
<path d="M49.9897 21.572C49.9897 18.3266 49.9897 15.0879 49.9897 11.856C50.0134 11.1604 49.7704 10.4821 49.3103 9.95987C48.8503 9.43762 48.2081 9.11093 47.5151 9.04665C46.3891 8.94349 45.2574 8.91639 44.1277 8.96552H29.6956C29.4177 9.00005 29.1356 8.96946 28.8716 8.87617C28.6076 8.78288 28.3688 8.62944 28.1743 8.42799C27.4413 7.53947 26.6375 6.71187 25.7707 5.95335C25.4721 5.6495 25.1151 5.40927 24.7212 5.24717C24.3272 5.08506 23.9045 5.00443 23.4786 5.01014C20.2433 5.01014 17.008 5.08113 13.7626 5.01014C12.962 5.00894 12.1734 5.20438 11.466 5.57928C10.7587 5.95418 10.1542 6.49707 9.70577 7.16024C9.41165 7.51521 9.55364 7.87018 9.99989 7.99188C10.4461 8.11359 10.5678 7.80933 10.7605 7.55578C11.0366 7.14383 11.4091 6.80558 11.8457 6.57049C12.2823 6.33539 12.7697 6.21057 13.2656 6.20689C16.5618 6.20689 19.8579 6.20689 23.1642 6.20689C23.6576 6.17568 24.1514 6.26243 24.6047 6.45995C25.0579 6.65748 25.4576 6.96011 25.7707 7.3428C26.0952 7.70791 26.4299 8.08316 26.724 8.4787C27.0942 9.01994 27.595 9.45896 28.1801 9.75504C28.7652 10.0511 29.4155 10.1947 30.0709 10.1724C35.7301 10.1116 41.3893 10.1724 47.0587 10.1724C47.3201 10.1457 47.5843 10.1773 47.832 10.265C48.0797 10.3528 48.3048 10.4944 48.4912 10.6798C48.6775 10.8651 48.8203 11.0895 48.9093 11.3368C48.9984 11.584 49.0314 11.848 49.006 12.1095C48.9451 18.8235 49.1581 25.5375 48.9046 32.2515C48.9046 32.4848 48.7321 32.86 49.148 32.931C49.5638 33.002 49.7159 32.6673 49.7869 32.3529C49.8993 31.974 49.9606 31.5818 49.9695 31.1866C49.9796 27.9716 49.9897 24.7667 49.9897 21.572Z" fill="#0066B3"/>
<path d="M38.1846 18.4888C32.4848 18.4888 26.785 18.4888 21.0751 18.4888C20.8041 18.4979 20.5342 18.4502 20.2827 18.3489C20.0312 18.2476 19.8037 18.0949 19.6146 17.9006C19.1889 17.4577 18.7893 16.9904 18.4179 16.501C17.899 15.7959 17.218 15.226 16.4325 14.8394C15.647 14.4528 14.78 14.2609 13.9047 14.2799C11.288 14.3408 8.66127 14.2799 6.03449 14.2799C4.5889 14.1816 3.15427 14.5905 1.9777 15.4361C1.37047 15.8093 0.866585 16.3289 0.512206 16.9473C0.157827 17.5657 -0.0357176 18.2631 -0.0506985 18.9757C-0.0506985 26.5112 -0.0506985 34.0365 -0.0506985 41.572C-0.0893723 41.8484 -0.0615572 42.13 0.0304374 42.3935C0.301332 43.021 0.742 43.5604 1.30283 43.951C1.86367 44.3416 2.5224 44.5679 3.20488 44.6045C9.07709 44.6045 14.9594 44.6045 20.8418 44.6045H38.3266C38.838 44.6485 39.3528 44.5795 39.8346 44.4023C40.3163 44.2252 40.7532 43.9442 41.1142 43.5793C41.4752 43.2144 41.7515 42.7746 41.9235 42.291C42.0955 41.8074 42.159 41.2918 42.1095 40.7809C42.1095 34.6957 42.1095 28.5396 42.1095 22.4138C42.0766 21.3833 41.6525 20.404 40.9234 19.675C40.1944 18.9459 39.2151 18.5218 38.1846 18.4888ZM40 40.6795V41.2272C40 42.1298 39.5943 42.4848 38.6917 42.4848H3.428C2.4138 42.4848 1.92699 42.0487 1.92699 41.0041C1.92699 33.8134 1.92699 26.6126 1.92699 19.4219C1.99624 18.7106 2.31368 18.0464 2.82365 17.5457C3.33362 17.045 4.00357 16.7398 4.71604 16.6836C7.71806 16.7647 10.7167 16.7647 13.712 16.6836C14.4581 16.6553 15.1993 16.8151 15.8674 17.1483C16.5355 17.4815 17.1092 17.9774 17.5355 18.5903C18.0103 19.1512 18.5255 19.6766 19.0771 20.1623C19.2936 20.3663 19.5487 20.5252 19.8273 20.6297C20.1059 20.7342 20.4025 20.7821 20.6998 20.7708C26.5822 20.7708 32.4645 20.7708 38.3469 20.7708C39.5335 20.7708 39.9696 21.1968 39.9696 22.3834L40 40.6795Z" fill="#0066B3"/>
</g>
<defs>
<clipPath id="clip0_371_1945">
<rect width="50" height="50" fill="white"/>
</clipPath>
</defs>
</svg>
