<svg width="40" height="40" viewBox="0 0 40 40" fill="none" xmlns="http://www.w3.org/2000/svg">
<path fill-rule="evenodd" clip-rule="evenodd" d="M5.13776 9.70958H13.4796V8.22606C13.4796 7.36799 13.812 6.54658 14.4013 5.94213C14.9904 5.33795 15.7877 5 16.6173 5H23.5051C24.3347 5 25.132 5.33795 25.7211 5.94213C26.3104 6.54658 26.6429 7.36799 26.6429 8.22606V9.70958H34.9847C35.8143 9.70958 36.6116 10.0475 37.2007 10.6517C37.79 11.2562 38.1224 12.0776 38.1224 12.9356V31.7739C38.1224 32.632 37.79 33.4534 37.2007 34.0579C36.6116 34.662 35.8143 35 34.9847 35H5.13776C4.30811 35 3.51082 34.662 2.92175 34.0579C2.33242 33.4534 2 32.632 2 31.7739V12.9356C2 12.0776 2.33242 11.2562 2.92175 10.6517C3.51082 10.0475 4.30811 9.70958 5.13776 9.70958ZM15.1633 9.70958H24.9592V8.22606C24.9592 7.83507 24.8078 7.45859 24.536 7.17981C24.264 6.90077 23.8933 6.74254 23.5051 6.74254H16.6173C16.2292 6.74254 15.8585 6.90077 15.5864 7.17981C15.3146 7.45859 15.1633 7.83507 15.1633 8.22606V9.70958ZM36.4388 18.7771L20.8668 23.0344C20.339 23.1785 19.7835 23.1785 19.2557 23.0344L3.68367 18.7747V31.7739C3.68367 32.1649 3.83504 32.5414 4.10684 32.8202C4.3789 33.0992 4.74957 33.2575 5.13776 33.2575H34.9847C35.3729 33.2575 35.7435 33.0992 36.0156 32.8202C36.2874 32.5414 36.4388 32.1649 36.4388 31.7739V18.7771ZM20.4383 21.3502L36.4388 16.9746V12.9356C36.4388 12.5446 36.2874 12.1682 36.0156 11.8894C35.7435 11.6104 35.3729 11.4521 34.9847 11.4521H5.13776C4.74957 11.4521 4.3789 11.6104 4.10684 11.8894C3.83504 12.1682 3.68367 12.5446 3.68367 12.9356V16.9746L19.6843 21.3502C19.9312 21.4178 20.1914 21.4178 20.4383 21.3502Z" fill="#0066B3"/>
</svg>
