<svg width="40" height="40" viewBox="0 0 40 40" fill="none" xmlns="http://www.w3.org/2000/svg">
<g clip-path="url(#clip0_418_81574)">
<path d="M17.2319 11.8449C16.8719 11.7388 17.0559 11.5755 17.1119 11.4122C17.1679 11.249 17.2479 11.1347 17.0079 11.1102C17.0079 11.1102 16.9279 11.1102 16.9199 11.1102C16.6876 11.4395 16.5341 11.8197 16.4719 12.2204C16.4319 12.5224 16.7599 12.3347 16.8879 12.4326C17.0159 12.5306 17.1519 12.7918 17.3359 12.4735C17.5199 12.1551 17.3999 11.902 17.2319 11.8449Z" />
<path d="M20.0961 14.0653C20.0355 13.9717 19.9421 13.9052 19.8351 13.8795C19.7281 13.8537 19.6154 13.8705 19.5201 13.9265C19.4286 13.974 19.3584 14.0555 19.3242 14.1543C19.2899 14.2531 19.2942 14.3615 19.3361 14.4571C19.3642 14.5586 19.3642 14.6659 19.3361 14.7673C19.2721 15.0449 19.2801 15.3224 19.6321 15.3959C19.9841 15.4694 20.1361 15.249 20.1761 14.9224C19.9521 14.6531 20.2241 14.3429 20.0961 14.0653Z" />
<path d="M16.864 9.6245C16.864 9.73062 16.864 9.84491 17.024 9.84491C17.184 9.84491 17.2 9.73878 17.2 9.6245C17.2 9.51021 17.2 9.24899 17.2 9.06123V8.59593C17.2 8.44083 17.2 8.30205 16.976 8.3347C16.752 8.36736 16.584 8.53062 16.704 8.67756C16.952 8.9796 16.8 9.33878 16.864 9.6245Z" />
<path d="M16.7519 13.8857C16.6399 13.8857 16.5199 13.8857 16.5279 14.049C16.5359 14.2122 16.4719 14.3429 16.6479 14.351C16.9919 14.351 16.8799 14.5469 16.8159 14.7265C16.7519 14.9061 16.6799 15.1347 16.6079 15.3551C16.7999 15.4286 16.9359 15.4204 16.9999 15.1918C17.0639 14.9633 17.1599 14.751 17.2399 14.5306C17.4639 13.8939 17.3919 13.7959 16.7519 13.8857Z" />
<path d="M22.544 11.3633C22.584 11.2816 22.648 11.1837 22.544 11.1184C22.5226 11.1011 22.4975 11.0892 22.4708 11.0836C22.4441 11.0779 22.4164 11.0787 22.3901 11.0858C22.3637 11.0929 22.3393 11.1062 22.3188 11.1246C22.2983 11.143 22.2823 11.166 22.272 11.1918C22.1029 11.5182 21.9893 11.8715 21.936 12.2367C21.936 12.5633 21.936 12.3428 22 12.5551C22 12.6449 22.08 12.6449 22.144 12.6612C22.2287 12.6761 22.3153 12.6761 22.4 12.6612C22.872 12.3265 22.92 12.0571 22.616 11.7714C22.5552 11.7256 22.5139 11.6578 22.5005 11.5819C22.4871 11.5061 22.5027 11.4278 22.544 11.3633Z" />
<path d="M19.6239 11.5429L19.7199 11.4531C19.8479 11.3796 20.1359 11.5429 20.1039 11.2571C20.0719 10.9714 19.8319 11.1429 19.6799 11.1102C19.6196 11.0939 19.5562 11.0939 19.4959 11.1102C19.1599 11.2571 19.3919 11.551 19.3439 11.7714C19.2959 11.9918 19.4079 12.0408 19.5839 11.9673C19.7599 11.8939 19.8159 11.9673 19.8079 12.1224C19.7999 12.2776 19.6559 12.2204 19.5519 12.1959C19.4479 12.1714 19.3839 12.1959 19.3519 12.2449C19.3344 12.2885 19.3297 12.3364 19.3382 12.3827C19.3467 12.4291 19.3681 12.4719 19.3999 12.5061C19.4448 12.5592 19.5019 12.6001 19.566 12.6251C19.6302 12.6502 19.6994 12.6586 19.7676 12.6497C19.8357 12.6408 19.9006 12.6149 19.9565 12.5741C20.0124 12.5334 20.0576 12.4792 20.0879 12.4163C20.2879 12.0245 20.1279 11.698 19.6239 11.5429Z" />
<path d="M22.2 8.36734C22.072 8.41632 21.936 8.53061 22 8.68571C22.064 8.84081 22.28 8.68571 22.488 8.74286C22.368 8.93061 22.032 9.08571 22.416 9.28163C22.416 9.28163 22.416 9.40408 22.416 9.45306C22.416 9.50204 22.312 9.52653 22.232 9.45306C22.152 9.37959 21.984 9.36326 21.944 9.51837C21.9368 9.58185 21.9535 9.64575 21.9906 9.69723C22.0277 9.74871 22.0825 9.78397 22.144 9.79592C22.376 9.86122 22.64 9.88571 22.728 9.60816C22.82 9.2551 22.82 8.88367 22.728 8.53061C22.688 8.30204 22.4 8.26939 22.2 8.36734Z" />
<path d="M20.1439 8.52245C20.0921 8.43254 20.0079 8.36685 19.9092 8.3394C19.8106 8.31195 19.7053 8.32491 19.6159 8.37551C19.4719 8.43266 19.3199 8.57959 19.3919 8.7347C19.4639 8.8898 19.6479 8.7347 19.7839 8.7347C19.7839 8.7347 19.8319 8.7347 19.8639 8.78368C19.7919 9.06123 19.5599 9.24898 19.4399 9.49388C19.3199 9.73878 19.2639 9.82857 19.5039 9.86123C19.7439 9.89388 20.0479 10.0163 20.1679 9.76327C20.2879 9.51021 19.9279 9.64898 19.8399 9.50204C19.9279 9.37143 20.0239 9.22449 20.1119 9.07755C20.1671 8.9971 20.1992 8.90262 20.2049 8.80462C20.2105 8.70662 20.1894 8.60894 20.1439 8.52245Z" />
<path d="M37.512 32.2612C37.2226 32.0791 36.9975 31.8076 36.8695 31.4862C36.7415 31.1647 36.7171 30.81 36.8 30.4735C37.0328 29.3997 37.172 28.307 37.216 27.2082C37.3618 26.2766 37.4393 25.3352 37.448 24.3918C37.4416 23.9804 37.3158 23.5801 37.0866 23.2416C36.8573 22.903 36.5349 22.6414 36.16 22.4898C35.4955 22.1885 34.8111 21.9348 34.112 21.7306C32.7302 21.4301 31.3718 21.0263 30.048 20.5224C29.8623 20.4366 29.6599 20.3947 29.456 20.4C29.2957 20.4011 29.1371 20.3658 28.9918 20.2966C28.8465 20.2274 28.7182 20.1261 28.616 20C28.3711 19.6627 28.0473 19.3934 27.6742 19.2166C27.3011 19.0398 26.8906 18.9611 26.48 18.9877C26.2753 19.0367 26.0603 19.0113 25.8719 18.916C25.6835 18.8206 25.5337 18.6613 25.448 18.4653C25.408 18.4 25.36 18.3428 25.312 18.2775V18.2286C25.5924 17.9188 25.7816 17.5348 25.858 17.1205C25.9344 16.7061 25.8949 16.2782 25.744 15.8857C25.672 15.7306 25.784 15.7061 25.856 15.649C26.0805 15.4683 26.2593 15.2355 26.3776 14.9699C26.4959 14.7044 26.5502 14.4138 26.536 14.1224C26.536 13.7224 26.216 13.3877 26.24 13.0694C26.264 12.751 26.536 12.4 26.56 12.0082C26.5759 11.6776 26.5002 11.3493 26.3418 11.0605C26.1833 10.7718 25.9485 10.5344 25.664 10.3755L25.616 10.2367C25.8 10.0898 25.968 9.95917 26.128 9.8204C26.3753 9.64123 26.5604 9.3866 26.6567 9.09318C26.753 8.79977 26.7556 8.48273 26.664 8.18774C26.5986 7.87523 26.4351 7.59299 26.1984 7.38382C25.9616 7.17464 25.6645 7.04992 25.352 7.02856C25.056 7.02856 25.048 6.85713 25.056 6.62856C25.056 5.44489 25.056 4.26121 25.056 3.07754C25.0477 2.68627 24.89 2.31377 24.6166 2.03933C24.3432 1.76489 23.9756 1.61019 23.592 1.60815C20.888 1.60815 18.176 1.60815 15.472 1.60815C15.2888 1.59934 15.1057 1.62845 14.9338 1.69372C14.7618 1.75899 14.6046 1.85908 14.4716 1.98796C14.3386 2.11685 14.2325 2.27186 14.1597 2.44368C14.0869 2.61549 14.0489 2.80056 14.048 2.98774C14.0474 3.10305 14.0177 3.21624 13.9616 3.31636C13.9055 3.41647 13.8251 3.50011 13.728 3.55917C13.0748 4.06802 12.3908 4.53426 11.68 4.95509C11.3153 5.11251 10.9976 5.36512 10.7589 5.68753C10.5201 6.00995 10.3688 6.3908 10.32 6.79183C10.1987 8.12697 9.8151 9.42351 9.19203 10.6041C9.06217 10.8552 8.99875 11.1366 9.00803 11.4204C9.00803 12.7102 8.93603 14 8.88003 15.2898C8.85182 16.0951 8.61438 16.8783 8.19203 17.5592C7.49077 18.6638 6.68707 19.6972 5.79203 20.6449C3.88803 22.6857 1.99203 24.7265 0.0640272 26.7428C0.0245773 26.7801 -0.00553203 26.8265 -0.0237721 26.8781C-0.0420122 26.9297 -0.0478504 26.985 -0.0407963 27.0394C-0.0337423 27.0938 -0.014002 27.1457 0.0167666 27.1907C0.0475353 27.2356 0.0884337 27.2724 0.136027 27.2979C0.256027 27.4122 0.0640272 27.6898 0.240027 27.7633C0.416027 27.8367 0.488027 27.6245 0.592027 27.5184C2.06403 25.9265 3.54403 24.3347 5.01603 22.7347C6.36007 21.3779 7.58105 19.8997 8.66403 18.3184C9.20036 17.5799 9.52447 16.7036 9.60003 15.7877C9.64803 14.4163 9.72803 13.0367 9.76003 11.7061C9.76607 11.3492 9.85664 10.9991 10.024 10.6857C10.5409 9.77329 10.855 8.7561 10.944 7.70611C10.9454 7.20085 11.0999 6.7084 11.3864 6.29626C11.6728 5.88413 12.0772 5.57249 12.544 5.40407C12.9594 5.19394 13.3533 4.94238 13.72 4.65305C13.832 4.57958 13.912 4.4408 14.104 4.48978C14.104 5.14285 14.064 5.81223 14.104 6.46529C14.1367 6.71709 14.0879 6.97289 13.9652 7.19387C13.8425 7.41485 13.6525 7.58896 13.424 7.68978C13.2914 7.74852 13.1826 7.85187 13.1156 7.9826C13.0486 8.11332 13.0276 8.26352 13.056 8.40815C13.1241 8.96862 13.1401 9.53439 13.104 10.0979C13.008 11.1673 12.896 11.1755 13.664 11.3796C13.7901 11.4152 13.9014 11.4919 13.9808 11.598C14.0603 11.7041 14.1035 11.8338 14.104 11.9673C14.104 14.9714 14.104 17.9755 14.104 20.9469C14.0472 21.3369 14.1154 21.7352 14.2985 22.0823C14.4816 22.4295 14.7698 22.707 15.12 22.8735C15.12 22.8735 15.12 22.9306 15.12 22.9551C14.5679 23.0954 14.001 23.1667 13.432 23.1673C13.3182 23.1683 13.2056 23.1926 13.1012 23.2389C12.9967 23.2852 12.9025 23.3525 12.824 23.4367C12.184 24.0177 11.6122 24.6724 11.12 25.3877C8.85603 29.151 6.81603 33.0367 4.72003 36.8979C4.66706 37.0099 4.6268 37.1277 4.60003 37.249C4.60003 37.4122 4.48803 37.6163 4.69603 37.7061C4.78581 37.7548 4.88842 37.7731 4.98906 37.7584C5.08971 37.7437 5.18319 37.6968 5.25603 37.6245C5.39349 37.4641 5.5092 37.2857 5.60003 37.0939C7.39736 33.7578 9.20003 30.4218 11.008 27.0857C11.5104 26.089 12.1607 25.1776 12.936 24.3837C13.0604 24.2474 13.21 24.1376 13.3761 24.0605C13.5422 23.9835 13.7216 23.9407 13.904 23.9347C14.8973 23.9618 15.8747 23.6768 16.704 23.1184C16.8777 22.9679 17.1003 22.8893 17.328 22.8979H23.128C23.216 22.8979 23.328 22.8979 23.36 22.9959C23.392 23.0939 23.248 23.1592 23.16 23.1918L22.144 23.5102C21.7348 23.6289 21.378 23.8876 21.1333 24.2427C20.8886 24.5979 20.771 25.0281 20.8 25.4612C20.88 26.7837 21.008 28.0979 21.112 29.4204C21.1154 29.7254 21.1779 30.0267 21.296 30.3069C21.4141 30.5872 21.5854 30.8407 21.8 31.0531C22.4991 31.7644 23.2625 32.4067 24.08 32.9714C25.128 33.6163 26.12 34.3347 27.192 34.9388C28.2085 35.5071 29.0884 36.299 29.768 37.2571C30.024 37.6163 30.296 37.9592 30.568 38.3102L31.288 38.1796C31.36 37.8367 31.088 37.6326 30.96 37.3633C30.4144 36.1092 29.4701 35.0795 28.28 34.4408C26.231 33.4453 24.312 32.192 22.568 30.7102C22.3691 30.5398 22.2051 30.3309 22.0857 30.0955C21.9662 29.8601 21.8936 29.6029 21.872 29.3388C21.768 28.0653 21.648 26.7918 21.568 25.5265C21.5281 25.2479 21.5912 24.964 21.7449 24.7302C21.8987 24.4963 22.1322 24.3292 22.4 24.2612L23.592 23.8857C23.784 23.8286 23.936 23.7877 24.024 24.1714C24.1098 24.526 24.2649 24.8592 24.48 25.151C24.712 25.4939 24.696 25.5755 24.48 25.6735C24.3206 25.7342 24.1473 25.7465 23.9812 25.7088C23.8151 25.6712 23.6632 25.5852 23.544 25.4612C23.5119 25.4319 23.4738 25.4102 23.4326 25.3975C23.3913 25.3848 23.3478 25.3814 23.3052 25.3876C23.2625 25.3938 23.2217 25.4095 23.1855 25.4335C23.1494 25.4575 23.1189 25.4892 23.096 25.5265C22.976 25.6816 23.04 25.8204 23.168 25.9347C23.2565 26.0251 23.3593 26.0996 23.472 26.1551C23.6326 26.2063 23.7746 26.305 23.88 26.4387C23.9854 26.5724 24.0495 26.7351 24.064 26.9061C24.064 27.0939 24.16 27.2735 24.208 27.453C24.304 27.8449 24.496 27.9347 24.848 27.7551C25.688 27.3143 25.776 27.0612 25.6 26.1224C25.3062 24.9498 24.8396 23.8296 24.216 22.8C23.119 20.7939 22.1594 18.7127 21.344 16.5714C21.1627 16.125 21.1099 15.6351 21.192 15.1592C21.2121 15.0276 21.2634 14.903 21.3415 14.7963C21.4196 14.6895 21.5221 14.6039 21.64 14.5469C21.7178 14.508 21.8067 14.4989 21.8904 14.5214C21.9742 14.5439 22.0472 14.5964 22.096 14.6694C22.448 15.1347 22.824 15.5918 23.128 16.0898C23.6151 17.0754 24.174 18.0223 24.8 18.9224C25.2554 19.4753 25.6498 20.0775 25.976 20.7184C26.6008 21.9441 27.3232 23.1154 28.136 24.2204C28.28 24.4 28.448 24.5469 28.68 24.3428C28.7303 24.3143 28.7732 24.2739 28.805 24.225C28.8369 24.1761 28.8567 24.1201 28.863 24.0618C28.8693 24.0034 28.8617 23.9444 28.841 23.8896C28.8203 23.8348 28.7871 23.7859 28.744 23.7469C27.8978 22.5829 27.1485 21.3487 26.504 20.0571C26.504 19.9837 26.376 19.9102 26.448 19.8041C26.8198 19.8061 27.1855 19.9009 27.5132 20.0802C27.8409 20.2594 28.1206 20.5178 28.328 20.8326C29.2511 21.9416 30.3723 22.8613 31.632 23.5428C32.1441 23.7537 32.5848 24.1124 32.9003 24.5749C33.2157 25.0374 33.3922 25.5837 33.408 26.1469C33.408 26.449 33.496 26.6204 33.832 26.5959C34.168 26.5714 34.136 26.302 34.136 26.0735C34.15 25.4544 33.9913 24.8441 33.6782 24.3136C33.3652 23.7832 32.9108 23.3545 32.368 23.0775C31.7133 22.7074 31.0922 22.2785 30.512 21.7959C30.744 21.7224 30.88 21.8531 31.024 21.9347C31.9813 22.5056 32.9916 22.9786 34.04 23.3469C34.3904 23.4255 34.7047 23.622 34.9324 23.9048C35.1602 24.1875 35.2883 24.5402 35.296 24.9061C35.296 25.1592 35.384 25.4041 35.384 25.6571C35.384 25.9102 35.512 26.0408 35.784 26.0326C36.056 26.0245 36.176 25.8694 36.144 25.6082C36.1258 24.7281 35.8469 23.8744 35.344 23.1592C35.936 23.3877 36.408 23.5755 36.56 24.1877C36.6934 24.6679 36.7261 25.1714 36.656 25.6653C36.5354 26.1359 36.4577 26.6168 36.424 27.102C36.4554 27.9497 36.361 28.7974 36.144 29.6163C35.8854 30.2788 35.871 31.0145 36.1035 31.6869C36.3359 32.3594 36.7994 32.9231 37.408 33.2735C38.1829 33.7405 38.8317 34.397 39.296 35.1837C39.3243 35.248 39.3704 35.3024 39.4287 35.3401C39.4871 35.3779 39.555 35.3973 39.624 35.3959C39.832 34.9714 39.8 35.0367 40 34.5796C39.301 33.6727 38.4604 32.8895 37.512 32.2612ZM25.696 14.7592C25.6381 14.8618 25.5538 14.9464 25.4524 15.0039C25.3509 15.0614 25.236 15.0897 25.12 15.0857C24.904 15.0857 24.888 14.8326 24.832 14.653C24.776 14.4735 24.76 14.449 24.736 14.3428C24.7035 14.2338 24.6924 14.1192 24.7034 14.0057C24.7143 13.8922 24.7472 13.7821 24.8 13.6816C24.848 13.8449 24.888 14.0245 25.072 14.0326C25.1883 14.0385 25.3039 14.011 25.4057 13.9533C25.5075 13.8956 25.5914 13.81 25.648 13.7061C25.648 13.7061 25.648 13.7061 25.648 13.6571C25.832 13.7796 25.768 14.0326 25.792 14.3102C25.8097 14.4666 25.7759 14.6245 25.696 14.7592ZM25.6 12.5143C25.6 12.5143 25.56 12.4735 25.528 12.4653C25.3185 12.3727 25.0844 12.3554 24.864 12.4163C24.877 12.3682 24.877 12.3175 24.864 12.2694C24.904 12.0245 24.936 11.8122 24.96 11.6082C24.9843 11.6363 25.0143 11.6586 25.048 11.6735C25.1442 11.7062 25.2479 11.7082 25.3451 11.679C25.4424 11.6498 25.5286 11.5909 25.592 11.5102C25.6181 11.4721 25.6396 11.431 25.656 11.3877C25.7514 11.5619 25.7968 11.76 25.7868 11.9592C25.7769 12.1585 25.7122 12.3509 25.6 12.5143ZM25.36 7.75509C25.4814 7.78788 25.5935 7.84934 25.6872 7.93453C25.781 8.01971 25.8538 8.12621 25.8998 8.24543C25.9457 8.36464 25.9635 8.49321 25.9518 8.62075C25.94 8.74829 25.899 8.87121 25.832 8.97958C25.6363 9.22071 25.3787 9.40158 25.088 9.50203V7.94285C25.112 7.70611 25.24 7.70611 25.392 7.75509H25.36ZM23.92 15.7714C23.5512 15.2396 23.156 14.7274 22.736 14.2367C22.6057 14.0842 22.4516 13.9546 22.28 13.8531L22.096 13.7877C21.952 13.7388 22.096 13.6898 21.392 13.7877C21.1311 13.8711 20.8944 14.0191 20.7032 14.2185C20.5119 14.4179 20.372 14.6626 20.296 14.9306V16.0735C20.4455 16.7799 20.657 17.4711 20.928 18.1388C20.6455 17.888 20.2937 17.7328 19.9211 17.6948C19.5485 17.6568 19.1736 17.7378 18.848 17.9265C18.6562 18.047 18.4916 18.2075 18.3647 18.3974C18.2379 18.5873 18.1518 18.8024 18.112 19.0286C18.0685 19.2505 18.0707 19.4792 18.1185 19.7002C18.1662 19.9212 18.2584 20.1297 18.3893 20.3123C18.5202 20.495 18.6869 20.648 18.8788 20.7614C19.0707 20.8749 19.2836 20.9464 19.504 20.9714C20.496 21.102 21.248 20.3755 21.344 19.2C21.504 19.2 21.496 19.3714 21.544 19.4694C21.832 20.0571 22.08 20.6775 22.392 21.249C22.616 21.6735 22.392 21.7306 22.088 21.7306H16C15.8203 21.7328 15.6468 21.6632 15.5167 21.5366C15.3866 21.4099 15.3103 21.2364 15.304 21.053C15.304 20.9224 15.304 20.7918 15.304 20.6694V3.96734C15.304 3.02856 15.416 2.92244 16.352 2.92244H22.92C23.0506 2.92027 23.1803 2.94464 23.3015 2.99413C23.4227 3.04362 23.5331 3.11724 23.6262 3.21069C23.7193 3.30414 23.7932 3.41557 23.8436 3.53846C23.8941 3.66136 23.92 3.79328 23.92 3.92652V15.1755C23.944 15.3469 23.928 15.5102 23.92 15.7714ZM20.104 19.5755C20.2087 19.5468 20.3198 19.5545 20.4198 19.5973C20.5197 19.6402 20.6029 19.7158 20.656 19.8122C20.6469 19.8762 20.6246 19.9374 20.5906 19.9919C20.5566 20.0464 20.5116 20.0929 20.4587 20.1284C20.4058 20.1639 20.3461 20.1875 20.2836 20.1978C20.2211 20.208 20.1572 20.2046 20.096 20.1877C19.5733 19.9097 19.1421 19.4811 18.856 18.9551C18.8026 18.8652 18.7844 18.7581 18.8052 18.6551C18.8259 18.5521 18.8841 18.461 18.968 18.4C19.048 18.3347 19.112 18.2612 19.2 18.3592C19.288 18.4571 19.472 18.6286 19.408 18.8898C19.3872 18.9865 19.391 19.087 19.4191 19.1817C19.4471 19.2765 19.4985 19.3623 19.5683 19.4311C19.6381 19.4998 19.7239 19.5492 19.8177 19.5745C19.9115 19.5998 20.0101 19.6001 20.104 19.5755ZM25.216 17.0367C25.216 17.2653 25.072 17.5184 24.856 17.4612C24.7513 17.4098 24.6703 17.319 24.63 17.2078C24.5897 17.0966 24.5933 16.9738 24.64 16.8653C24.64 16.7918 24.696 16.7184 24.712 16.6449C24.728 16.5714 24.88 16.2857 25.048 16.3265C25.216 16.3673 25.264 16.6204 25.304 16.7918C25.2645 16.8692 25.2349 16.9516 25.216 17.0367Z" />
</g>
<defs>
<clipPath id="clip0_418_81574">
<rect width="40" height="40" fill="white"/>
</clipPath>
</defs>
</svg>
