<svg width="50" height="50" viewBox="0 0 50 50" fill="none" xmlns="http://www.w3.org/2000/svg">
<g clip-path="url(#clip0_370_1857)">
<path d="M23.9697 32.6943C23.697 32.6943 23.4142 32.6943 23.1414 32.6943C23.0589 32.6828 22.9749 32.6885 22.8946 32.7111C22.8143 32.7337 22.7393 32.7726 22.6741 32.8256C22.609 32.8786 22.555 32.9445 22.5156 33.0194C22.4761 33.0943 22.4519 33.1765 22.4445 33.2612C22.3233 33.8487 22.0404 34.3744 21.9495 34.9722C21.9342 35.0716 21.8845 35.1622 21.8095 35.2276C21.7345 35.293 21.6391 35.329 21.5404 35.329C21.4418 35.329 21.3464 35.293 21.2714 35.2276C21.1964 35.1622 21.1467 35.0716 21.1313 34.9722C20.9819 34.4733 20.8937 33.9574 20.8687 33.4364C20.8687 30.0866 20.8687 26.7368 20.8687 23.3869C20.8687 22.8097 20.6566 22.5727 20.101 22.6036C19.0202 22.6654 17.9293 22.6036 16.8384 22.6036C14.596 22.6036 12.3435 22.6036 10.0909 22.6036C9.43438 22.6036 9.24246 22.7994 9.23236 23.5003V29.0353C9.17175 30.6844 9.34347 32.7252 9.15155 34.7557C9.15155 35.0546 9.01014 35.2814 8.71721 35.3123C8.42428 35.3432 8.35357 35.1062 8.23236 34.8691C7.40407 33.2303 7.98993 33.3952 6.10104 33.3849C5.70711 33.3849 5.33337 33.4776 5.34347 33.9105C5.33738 34.0122 5.35483 34.114 5.3944 34.2075C5.43397 34.301 5.49456 34.3837 5.57126 34.449C5.64796 34.5142 5.73862 34.5601 5.83592 34.5829C5.93322 34.6058 6.03442 34.605 6.13135 34.5805C6.42428 34.5805 6.75761 34.5084 6.92933 34.8382C7.42153 35.5495 7.76533 36.3564 7.93943 37.2088C8.00003 38.2395 8.02024 39.1775 8.00003 40.167C8.02341 40.7346 7.87532 41.2959 7.57579 41.7749C7.22226 42.3109 6.93943 42.8984 6.56569 43.4447C6.37377 43.7539 6.17175 44.1662 6.56569 44.4754C6.95963 44.7846 7.36367 44.4754 7.57579 43.9806C7.71721 43.692 7.88892 43.424 8.01014 43.1354C8.39397 42.2593 9.28286 41.6203 9.12125 40.5071C9.12125 40.2597 9.32327 40.301 9.46468 40.301H21C21.3334 40.301 21.4041 40.4453 21.3738 40.7339C21.3197 41.0327 21.366 41.3413 21.5051 41.61C22.027 42.4105 22.4993 43.2436 22.9192 44.1043C22.9467 44.1983 22.9951 44.2846 23.0605 44.3565C23.126 44.4283 23.2068 44.4838 23.2966 44.5187C23.3865 44.5536 23.483 44.5669 23.5787 44.5576C23.6744 44.5483 23.7667 44.5166 23.8485 44.4651C24.2526 44.2074 24.0909 43.826 23.9091 43.5065C23.5556 42.8778 23.1819 42.249 22.798 41.6306C22.6158 41.3463 22.5241 41.0115 22.5354 40.672C22.5354 39.6413 22.5354 38.6931 22.5354 37.7036C22.5354 37.4047 22.3738 37.1264 22.4647 36.8172C22.7374 35.972 22.9899 35.1268 23.2728 34.2816C23.3001 34.1212 23.3864 33.9774 23.514 33.8798C23.6417 33.7821 23.8011 33.7378 23.9596 33.7559C24.3031 33.7559 24.5455 33.6426 24.5455 33.2509C24.5455 32.8592 24.293 32.7252 23.9697 32.6943ZM17.6768 23.7683C18.2324 23.7683 18.7778 23.7683 19.3334 23.7683C19.8889 23.7683 19.8788 23.9332 19.8788 24.3455C19.8788 26.5203 19.8788 28.7054 19.8788 30.8802C19.8788 31.2101 19.798 31.3441 19.4546 31.3234C18.8586 31.3234 18.2627 31.3234 17.6768 31.3234C17.3334 31.3234 17.2425 31.2204 17.2425 30.8802C17.2425 29.7671 17.2425 28.6642 17.2425 27.551C17.2425 26.4379 17.2425 25.335 17.2425 24.2321C17.192 23.9229 17.293 23.7683 17.6768 23.7683ZM14.0404 24.2218C14.0404 23.8714 14.1414 23.7683 14.4748 23.758C16.192 23.7065 16.192 23.6961 16.192 25.4381C16.192 27.18 16.192 28.9837 16.192 30.7565C16.192 31.2204 16.0606 31.3544 15.6263 31.3131C15.253 31.2876 14.8784 31.2876 14.5051 31.3131C14.1718 31.3131 14.0202 31.2101 14.0202 30.8287C14.0202 29.6949 14.0202 28.5714 14.0202 27.4376C14.0202 26.3039 14 25.3453 13.9899 24.263L14.0404 24.2218ZM10.4647 24.2218C10.4647 23.8817 10.5657 23.7477 10.899 23.7683C11.4512 23.7683 12.0068 23.7683 12.5657 23.7683C12.899 23.7683 13 23.8817 12.9899 24.2218C12.9899 25.335 12.9899 26.4379 12.9899 27.551C12.9899 28.6642 12.9899 29.7671 12.9899 30.8699C12.9899 31.2101 12.8889 31.3441 12.5556 31.3337C11.9697 31.3337 11.3738 31.3337 10.7879 31.3337C10.3839 31.3337 10.4748 31.0451 10.4748 30.8287C10.4748 29.2929 10.4748 27.7366 10.4748 26.2317C10.4243 25.5927 10.4344 24.9227 10.4142 24.263L10.4647 24.2218ZM10.0404 35.7452C10.401 34.9027 10.5469 33.9808 10.4647 33.0654C10.4647 32.6118 10.5758 32.4985 11.0303 32.4985C13.798 32.4985 16.5657 32.4985 19.3334 32.4985C19.7879 32.4985 19.899 32.6221 19.8788 33.0757C19.8316 33.9153 19.9483 34.7562 20.2223 35.5494C20.4142 36.0544 20.2223 36.2812 19.6869 36.2812H15.0707C13.5051 36.2812 11.9495 36.2812 10.3839 36.2812C9.92933 36.3327 9.84852 36.1369 9.98993 35.7864L10.0404 35.7452ZM20.3031 39.1053H15.2526C13.3637 39.1053 11.4849 39.1053 9.6061 39.1053C9.24246 39.1053 9.10104 39.0229 9.10104 38.6106C9.10104 37.4871 9.10104 37.518 10.192 37.5077C12.0303 37.5077 13.8687 37.5077 15.7071 37.5077C17.5455 37.5077 19.2122 37.5077 20.9596 37.5077C21.2829 37.5077 21.3536 37.6108 21.3637 37.92C21.4041 39.1157 21.4243 39.1053 20.3031 39.1053Z" />
<path d="M9.8384 15.8421C10.4659 15.8633 11.091 15.7545 11.6762 15.5224C12.2613 15.2902 12.7942 14.9394 13.2428 14.4912C13.6914 14.0431 14.0463 13.5068 14.2862 12.9147C14.526 12.3227 14.6458 11.6872 14.6383 11.0467C14.6308 10.4061 14.4961 9.77371 14.2425 9.18771C13.9888 8.60171 13.6214 8.07424 13.1624 7.63715C12.7034 7.20006 12.1624 6.86241 11.572 6.64459C10.9816 6.42678 10.3541 6.33331 9.72729 6.36982C8.53316 6.4394 7.41131 6.97618 6.59524 7.86845C5.77916 8.76073 5.33172 9.93975 5.34604 11.1602C5.36035 12.3806 5.83532 13.5483 6.67209 14.4204C7.50886 15.2925 8.64298 15.8017 9.8384 15.8421ZM9.8384 7.93651C10.6608 7.94608 11.4459 8.28864 12.0208 8.88882C12.5957 9.48901 12.9134 10.2977 12.9041 11.1369C12.8947 11.9761 12.559 12.7772 11.9708 13.3638C11.3826 13.9505 10.5901 14.2747 9.76769 14.2651C9.36286 14.2653 8.9621 14.1826 8.58907 14.0221C8.21605 13.8616 7.87833 13.6264 7.59586 13.3305C7.31339 13.0346 7.09189 12.6839 6.94445 12.2992C6.797 11.9144 6.7266 11.5035 6.73739 11.0905C6.72904 10.6722 6.80396 10.2566 6.95762 9.8687C7.11127 9.48083 7.34046 9.12881 7.63131 8.83395C7.92216 8.53909 8.26863 8.30752 8.64973 8.15327C9.03084 7.99901 9.43866 7.92527 9.8485 7.93651H9.8384Z" />
<path d="M50.0001 14.059C49.977 13.8886 49.9432 13.7199 49.8991 13.5539C49.749 12.4674 49.358 11.4301 48.7559 10.521C48.1537 9.61187 47.3563 8.85486 46.4243 8.30756C45.0885 7.4333 43.4931 7.06828 41.9193 7.27685C39.9964 7.59045 38.2247 8.53057 36.8688 9.95671C36.5051 10.3175 36.3233 10.3278 36.1213 9.82272C35.6717 8.75468 34.9791 7.8113 34.1011 7.07071C33.2557 6.32303 32.2622 5.77025 31.1884 5.45007C30.1146 5.12989 28.9858 5.04985 27.8789 5.21542C26.5221 5.36323 25.2102 5.79682 24.0261 6.48876C22.842 7.18069 21.8116 8.11591 21.0001 9.23521C20.6163 9.75057 20.7577 10.369 21.3536 10.4721C22.5354 10.6782 23.7476 11.1008 24.9193 10.4102C25.1415 10.2865 25.3738 10.2041 25.5758 10.4102C25.7326 10.619 25.9585 10.7624 26.2113 10.8137C26.4641 10.8649 26.7266 10.8204 26.9496 10.6885C27.0607 10.6885 27.2425 10.5751 27.3233 10.6885C27.3501 10.7562 27.3567 10.8304 27.3423 10.9019C27.328 10.9734 27.2932 11.039 27.2425 11.0905C27.1513 11.1938 27.0497 11.2871 26.9395 11.3688C25.5944 12.4656 24.5513 13.8998 23.9121 15.5313C23.273 17.1627 23.0596 18.9354 23.293 20.6761C23.289 20.8283 23.329 20.9783 23.4082 21.1074C23.4874 21.2364 23.6021 21.3387 23.7381 21.4014C23.874 21.4642 24.0251 21.4846 24.1723 21.4601C24.3195 21.4356 24.4564 21.3672 24.5657 21.2637C25.8998 20.3558 27.063 19.2107 28.0001 17.8829C28.2122 17.584 28.4041 17.182 28.6365 17.8829C28.6674 18.0181 28.7349 18.1417 28.8313 18.2396C28.9276 18.3376 29.0489 18.406 29.1815 18.4372C29.3141 18.4683 29.4525 18.4609 29.5812 18.4157C29.7098 18.3706 29.8234 18.2896 29.9092 18.1818C30.3031 17.8108 30.687 17.4397 31.0607 17.0377C31.4344 16.6357 31.6466 16.4502 31.9698 17.0377C32.0022 17.0888 32.0452 17.1319 32.0959 17.164C32.1465 17.196 32.2035 17.2163 32.2627 17.2233C32.8082 17.2233 32.6668 17.5428 32.5859 17.8726C32.1617 19.5217 31.7779 21.1709 31.4445 22.8406C30.688 26.5409 30.2319 30.2986 30.0809 34.0754C30.0809 34.5187 29.9092 34.6114 29.5152 34.6011C28.5657 34.6011 27.6162 34.6011 26.6668 34.6011C26.4243 34.6011 26.1617 34.6011 26.1516 34.9412C26.1415 35.2814 26.1516 35.4978 26.5152 35.5803C26.6839 35.627 26.8563 35.6581 27.0304 35.6731H29.3839C29.9597 35.6731 30.0809 35.8483 30.0708 36.3842C30.0595 38.8333 30.3067 41.2764 30.8082 43.6714C30.8688 44.0115 30.8082 44.1146 30.4748 44.1971C29.9098 44.2677 29.3583 44.424 28.8385 44.6609C28.679 44.7236 28.5486 44.8457 28.4737 45.0025C28.3987 45.1593 28.3847 45.3392 28.4344 45.5061C28.4489 45.6012 28.4822 45.6923 28.5322 45.7739C28.5822 45.8554 28.6479 45.9258 28.7253 45.9808C28.8028 46.0357 28.8903 46.074 28.9827 46.0934C29.0751 46.1128 29.1703 46.1129 29.2627 46.0936C29.5322 46.0441 29.7986 45.9787 30.0607 45.8978C32.9092 45.2381 35.7476 44.9598 38.4849 46.3719C38.5721 46.4328 38.6712 46.4737 38.7753 46.4916C38.8795 46.5096 38.9863 46.5041 39.0882 46.4757C39.1901 46.4472 39.2847 46.3965 39.3654 46.3269C39.4462 46.2574 39.5111 46.1707 39.5556 46.073C39.6041 45.9815 39.6328 45.8805 39.64 45.7767C39.6471 45.673 39.6325 45.5689 39.5972 45.4714C39.5618 45.3739 39.5065 45.2851 39.4349 45.2111C39.3633 45.1371 39.277 45.0796 39.1819 45.0423C38.7892 44.7826 38.3732 44.5617 37.9395 44.3826C37.7633 44.3372 37.6057 44.2358 37.4896 44.0932C37.3734 43.9506 37.3046 43.774 37.293 43.5889C36.7476 41.2905 36.4344 38.9404 36.0708 36.6007C36.0102 36.2296 36.0708 36.0956 36.4243 36.1266C37.1617 36.1266 37.9092 36.2399 38.6466 36.3224C39.7072 36.4461 40.7678 36.5904 41.8284 36.7244C42.8466 36.7959 43.859 36.9371 44.8587 37.147C45.788 37.3943 46.7375 37.4047 47.6567 37.652C47.9395 37.7345 48.2122 37.5283 48.3031 37.1676C48.394 36.8068 48.192 36.7038 47.9395 36.611C47.746 36.5161 47.5427 36.4435 47.3334 36.3946C45.5657 36.0956 43.7981 35.7864 42.0304 35.5494C40.2627 35.3123 38.3132 35.1165 36.4445 34.9412C36.0506 34.9412 35.9294 34.7454 35.9092 34.4053C35.8385 33.2199 35.7375 32.0346 35.7072 30.8493C35.5885 26.6926 35.9821 22.5372 36.8789 18.4807C36.9395 18.1921 36.99 17.8623 37.4445 18.0891C37.5379 18.1276 37.6402 18.1374 37.739 18.1173C37.8377 18.0971 37.9285 18.0479 38.0001 17.9757C38.2425 17.7386 38.394 17.8314 38.5253 18.12C38.7678 18.6869 39.0203 19.2538 39.3031 19.8103C39.7173 20.604 40.192 20.6555 40.7577 19.9856C40.8385 19.8928 40.889 19.7794 41.0304 19.8207C41.1718 19.8619 41.1112 19.9753 41.1314 20.068C41.5416 21.7136 42.2248 23.2754 43.1516 24.6856C43.6365 25.438 44.1617 25.4381 44.6264 24.6341C45.7422 22.6433 46.1456 20.3189 45.7678 18.0581C45.5108 16.5292 44.8822 15.0904 43.9395 13.8734C43.7678 13.6467 43.7173 13.389 43.9395 13.2241C44.1617 13.0592 44.293 13.3375 44.4142 13.4714C44.7173 13.8013 44.9597 14.2239 45.4849 14.1002C46.0102 13.9765 46.0102 14.2342 46.091 14.5434C46.2532 15.0971 46.6138 15.5681 47.1011 15.8627C47.5768 16.1819 48.0848 16.4479 48.6162 16.6564C49.3435 16.9553 49.788 16.6564 49.9092 15.873C49.9092 15.7081 49.9092 15.5432 49.9698 15.3164C50.0166 14.899 50.0267 14.4782 50.0001 14.059ZM25.9799 8.69924C25.7173 8.36941 25.3334 8.52401 24.9698 8.69924C24.548 8.95424 24.092 9.14521 23.6162 9.26613C23.5051 9.26613 23.3637 9.26613 23.3031 9.17337C23.2425 9.0806 23.3031 8.98784 23.4142 8.92599C26.2223 6.28736 31.4344 5.7617 33.9597 9.16306C34.2584 9.53804 34.5033 9.9545 34.687 10.3999C33.0804 9.74442 31.3101 9.63242 29.6365 10.0804C29.3738 10.1629 29.3031 10.0804 29.3536 9.82272C29.4043 9.66408 29.4447 9.50226 29.4748 9.33828C29.5111 9.18873 29.5014 9.03145 29.4472 8.88767C29.393 8.7439 29.2969 8.62056 29.1718 8.53432C29.0555 8.4592 28.9206 8.41931 28.7829 8.41931C28.6452 8.41931 28.5104 8.4592 28.394 8.53432C28.1011 8.66831 27.8183 8.80231 27.5354 8.95691C26.9698 9.19398 26.4647 9.33828 25.9799 8.69924ZM32.1415 13.9662C31.5051 14.5743 30.8688 15.1721 30.2526 15.8112C29.9597 16.1204 29.8284 16.0792 29.7476 15.6669C29.6971 15.4401 29.6365 15.203 29.5758 14.966C29.5382 14.8076 29.4543 14.6647 29.3353 14.5561C29.2162 14.4475 29.0676 14.3783 28.9092 14.3579C28.7597 14.3429 28.6092 14.373 28.4764 14.4445C28.3435 14.5159 28.2341 14.6256 28.1617 14.7598C27.8688 15.2443 27.5859 15.7287 27.3031 16.2132C26.7645 17.1736 26.083 18.0429 25.2829 18.7899C25.1718 18.893 25.1011 19.0682 24.8486 19.0167C24.8347 17.6683 25.1841 16.342 25.8587 15.1824C26.3545 14.1746 27.082 13.3041 27.9791 12.6454C28.8761 11.9867 29.9161 11.5593 31.0102 11.3997C32.3565 11.2636 33.7112 11.5551 34.889 12.2346C35.2728 12.4304 35.2324 13.0489 34.8284 13.4611C34.6668 13.6364 34.4647 13.7704 34.293 13.9353C33.9395 14.2651 33.6466 14.6877 33.2829 13.9353C33.0405 13.4611 32.5758 13.5436 32.1415 13.9662ZM35.8587 16.1513C35.1484 18.561 34.6514 21.0309 34.3738 23.5312C34.071 26.32 33.9798 29.1285 34.1011 31.9316C34.202 34.1675 34.4144 36.3967 34.7375 38.6106C34.9597 40.1257 35.2425 41.6203 35.5556 43.1148C35.7072 43.8466 35.7173 43.826 35.0102 43.8054C34.3209 43.7538 33.6288 43.7538 32.9395 43.8054C32.495 43.8569 32.3839 43.6817 32.3031 43.3313C31.9925 41.7912 31.7866 40.2311 31.687 38.6621C31.6163 37.6314 31.596 36.6832 31.5657 36.1575C31.7 29.3369 32.7502 22.5673 34.687 16.0379C34.7233 15.9438 34.7537 15.8474 34.7779 15.7493C34.8061 15.5701 34.8853 15.4033 35.0056 15.2695C35.1259 15.1358 35.282 15.041 35.4546 14.9969C35.6061 14.966 35.9799 15.9039 35.8587 16.1513ZM44.2627 19.7794C44.275 20.5751 44.1659 21.3679 43.9395 22.1295C43.9395 22.2531 43.9395 22.449 43.7375 22.4593C43.5354 22.4696 43.5556 22.3047 43.4849 22.181C42.8261 20.7781 42.4353 19.2599 42.3334 17.7077C42.2728 17.2439 42.192 16.8007 41.687 16.677C41.1819 16.5533 40.9092 16.945 40.6769 17.3057C40.5455 17.4912 40.495 17.8623 40.2526 17.8314C40.0102 17.8005 39.9698 17.4397 39.8688 17.2129C39.5455 16.5224 39.2425 15.8215 38.9193 15.1515C38.596 14.4815 38.1617 14.3476 37.5758 14.8217C37.4647 14.9144 37.3435 15.0691 37.2627 14.8217C37.0203 14.2342 36.4748 13.791 36.7274 12.987C36.8587 12.6056 37.0607 12.5541 37.3738 12.5129C38.7526 12.3095 40.1573 12.6124 41.3375 13.3675C42.5178 14.1226 43.397 15.2808 43.8183 16.6357C44.1784 17.6416 44.3431 18.7093 44.3031 19.7794H44.2627ZM48.3031 14.6258C48.2021 14.7289 48.0809 14.6258 47.9799 14.5743C47.7348 14.438 47.5477 14.2141 47.4546 13.9456C47.3233 13.5333 47.1617 13.121 47.0001 12.7087C46.9694 12.6026 46.9167 12.5045 46.8456 12.421C46.7745 12.3375 46.6867 12.2705 46.5881 12.2246C46.4895 12.1786 46.3823 12.1548 46.2739 12.1548C46.1655 12.1548 46.0583 12.1784 45.9597 12.2243C45.8866 12.2643 45.8063 12.2886 45.7236 12.2957C45.641 12.3028 45.5578 12.2925 45.4792 12.2655C45.4006 12.2384 45.3283 12.1952 45.2667 12.1384C45.2052 12.0817 45.1557 12.0127 45.1213 11.9357C44.9092 11.6162 44.6971 11.2966 44.4647 10.9977C44.3915 10.8631 44.2805 10.754 44.146 10.6842C44.0115 10.6144 43.8596 10.5871 43.7099 10.606C43.5601 10.6248 43.4193 10.6888 43.3054 10.7898C43.1916 10.8908 43.1099 11.0242 43.0708 11.173C42.889 11.544 42.8789 12.1315 42.5152 12.2552C42.1516 12.3789 41.8183 11.8841 41.4445 11.7192C40.5564 11.2747 39.5928 11.0087 38.6061 10.9359C38.495 10.9359 38.3637 10.9359 38.2829 10.8637C38.2021 10.7916 38.2829 10.6885 38.3839 10.6061C39.5544 9.52609 41.051 8.88612 42.6264 8.792C44.1042 8.80732 45.5216 9.39303 46.5935 10.4313C47.6654 11.4697 48.3123 12.8836 48.4041 14.3888C48.4041 14.4919 48.4142 14.6052 48.3637 14.6671L48.3031 14.6258Z" />
<path d="M3.07081 11.8841C3.8991 11.8841 4.42435 11.5543 4.41425 11.0493C4.40415 10.5442 3.9193 10.2453 3.10112 10.235C2.28294 10.2247 1.74758 10.503 1.72738 11.039C1.70718 11.5749 2.22233 11.8841 3.07081 11.8841Z" />
<path d="M15.01 11.0802C15.01 11.6059 15.4949 11.9254 16.3534 11.9254C17.212 11.9254 17.6767 11.5955 17.6767 11.0905C17.6767 10.5854 17.1817 10.2762 16.3635 10.2762C15.5454 10.2762 15.0302 10.5442 15.01 11.0802Z" />
<path d="M9.83844 5.81324C10.3435 5.81324 10.6263 5.30819 10.6263 4.463C10.6263 3.61781 10.3738 3.08184 9.83844 3.06123C9.30309 3.04061 9.02026 3.56628 9.02026 4.43208C9.02026 5.29788 9.3435 5.82354 9.83844 5.81324Z" />
<path d="M9.02026 17.6562C9.02026 18.5013 9.3435 19.0373 9.83844 19.027C10.3334 19.0167 10.6263 18.522 10.6263 17.6871C10.6263 16.8522 10.3738 16.3059 9.83844 16.2853C9.30309 16.2647 9.02026 16.78 9.02026 17.6562Z" />
<path d="M13.7879 14.8629C13.4142 15.2237 13.5556 15.8112 14.1515 16.4296C14.7475 17.048 15.3434 17.182 15.6869 16.811C16.0303 16.4399 15.899 15.8833 15.3131 15.2855C14.7273 14.6877 14.1818 14.4919 13.7879 14.8629Z" />
<path d="M4.28285 15.5226C3.69699 16.1204 3.54548 16.7388 3.90911 17.0893C4.27275 17.4397 4.8182 17.3057 5.40406 16.7079C5.98992 16.1101 6.18184 15.5535 5.8182 15.1515C5.45457 14.7495 4.88891 14.9041 4.28285 15.5226Z" />
<path d="M15.2627 6.80272C15.9092 6.15337 16.0405 5.63801 15.6769 5.24634C15.3132 4.85467 14.7476 4.99897 14.1516 5.6174C13.5557 6.23583 13.4143 6.82333 13.7779 7.18408C14.1415 7.54483 14.6466 7.39023 15.2627 6.80272Z" />
<path d="M5.82824 6.99856C6.17167 6.6275 6.03026 6.07092 5.4545 5.4731C4.87874 4.87529 4.31309 4.67945 3.92925 5.05051C3.54541 5.42156 3.68682 5.99877 4.29288 6.61719C4.89894 7.23562 5.4747 7.35931 5.82824 6.99856Z" />
<path d="M0.878788 36.1369C0.555556 36.1884 0.0505051 36.2915 0 36.7759C0 37.1057 0.525253 37.3634 1.06061 37.2913C1.73972 37.2546 2.41508 37.165 3.08081 37.0233C3.53535 36.8996 4.09091 37.0233 4.42424 36.477L4.87879 35.6421C4.77792 35.6344 4.67663 35.6344 4.57576 35.6421C3.33333 35.7452 2.09091 35.8792 0.878788 36.1369Z" />
</g>
<defs>
<clipPath id="clip0_370_1857">
<rect width="50" height="50" fill="white"/>
</clipPath>
</defs>
</svg>
