<svg width="50" height="50" viewBox="0 0 50 50" fill="none" xmlns="http://www.w3.org/2000/svg">
<path fill-rule="evenodd" clip-rule="evenodd" d="M12.4197 6.65625C8.88756 6.65625 6.18403 9.98575 7.36558 13.4868C9.14194 18.754 12.5873 27.1423 17.9745 32.5306C23.363 37.9191 31.7527 41.3634 37.0183 43.1406C40.5202 44.3222 43.8499 41.6191 43.8499 38.0865V32.8021C43.85 32.1903 43.6867 31.5897 43.3768 31.0622C43.0668 30.5345 42.6208 30.0991 42.0863 29.8014L37.4813 27.2406C36.9932 26.9695 36.4464 26.8216 35.8882 26.8097C35.33 26.7977 34.7773 26.922 34.278 27.1719L29.8133 29.4048C29.7871 29.3974 29.7598 29.3897 29.7315 29.3815C29.3878 29.2823 28.8917 29.1194 28.3076 28.8704C27.1341 28.3701 25.6389 27.5364 24.3045 26.2027C22.9706 24.8682 22.134 23.3696 21.6306 22.1921C21.4269 21.7157 21.2802 21.2975 21.1786 20.9723L23.3286 16.204C23.5744 15.708 23.6967 15.1596 23.6848 14.606C23.6728 14.0481 23.525 13.5015 23.2543 13.0136L20.7065 8.42436C20.4094 7.88875 19.9742 7.44203 19.4463 7.13114C18.9184 6.82023 18.3168 6.65626 17.7041 6.65625H12.4197ZM8.69207 13.0392C7.84457 10.5282 9.75637 8.05625 12.4197 8.05625H17.7041C18.0669 8.05625 18.4232 8.15336 18.7359 8.3375C19.0484 8.52154 19.3063 8.78638 19.4824 9.10371L22.0301 13.693C22.1905 13.982 22.278 14.3056 22.2851 14.636C22.2922 14.9663 22.2186 15.2936 22.0708 15.5891C22.066 15.5987 22.0614 15.6083 22.057 15.6181L19.8099 20.6016C19.7317 20.7752 19.7179 20.971 19.771 21.1538C19.8847 21.5449 20.0673 22.097 20.3432 22.7424C20.895 24.0331 21.8205 25.6981 23.3147 27.1928C24.8095 28.687 26.4711 29.6094 27.7585 30.1582C28.4024 30.4327 28.953 30.6139 29.3429 30.7265C29.4757 30.7649 29.5899 30.7953 29.6827 30.8187C29.8685 30.8656 30.0649 30.8442 30.2363 30.7585L34.9046 28.4239C35.2003 28.2759 35.5276 28.2023 35.8582 28.2093C36.1887 28.2164 36.5126 28.304 36.8017 28.4645L41.4054 31.0247C41.7221 31.2011 41.9862 31.4591 42.1697 31.7714C42.3532 32.0838 42.45 32.4397 42.4499 32.802V38.0865C42.4499 40.7498 39.978 42.6617 37.4659 41.8141C32.2295 40.0468 24.1089 36.6851 18.9644 31.5407C13.8211 26.3963 10.4584 18.2767 8.69207 13.0392Z"/>
</svg>
