<svg width="50" height="50" viewBox="0 0 50 50" fill="none" xmlns="http://www.w3.org/2000/svg">
<g clip-path="url(#clip0_370_1877)">
<path d="M49.5155 37.2636C46.8913 34.483 44.2974 31.6817 41.6632 28.9113C40.119 27.2944 38.5243 25.7187 37.0306 24.0502C36.9515 23.9895 36.8861 23.9121 36.8391 23.8232C36.7921 23.7343 36.7644 23.6361 36.7581 23.5353C36.7371 22.9282 36.819 22.3219 37.0003 21.7433C37.6867 19.7598 37.8229 17.6215 37.3939 15.564C37.0223 13.7691 36.3533 12.052 35.4157 10.4867C34.2195 8.44995 32.5746 6.72565 30.6115 5.45055C28.1012 3.74366 25.115 2.91591 22.1033 3.09212C20.1133 3.25285 18.1781 3.83511 16.421 4.80173C14.4184 5.88958 12.6908 7.43733 11.3746 9.32291C9.23488 12.4126 7.9228 15.6773 8.3467 19.5599C8.53561 21.4614 9.09129 23.306 9.98175 24.9874C10.3886 25.6591 10.5759 26.4453 10.5167 27.2326C10.4914 27.6338 10.4914 28.0363 10.5167 28.4375C10.5251 28.5706 10.5717 28.6981 10.6507 28.8043C10.7297 28.9105 10.8375 28.9907 10.9608 29.0349C11.1525 29.107 11.2938 28.9525 11.425 28.8186C11.8994 28.314 12.2022 28.2934 12.6866 28.8186C13.1079 29.2824 13.5784 29.6969 14.0895 30.0545C16.0302 31.4809 18.2347 32.49 20.5691 33.0205C21.4788 33.2848 22.4191 33.4233 23.3649 33.4325C24.5641 33.2719 25.7487 33.0136 26.9075 32.6601C27.1617 32.5428 27.4405 32.4918 27.7188 32.5115C27.9971 32.5313 28.2663 32.6213 28.5021 32.7733C29.0875 33.2677 29.6426 33.8032 30.1977 34.3697C30.4269 34.6204 30.7054 34.8189 31.015 34.952C31.3246 35.0851 31.6584 35.1499 31.9943 35.1421C32.5494 35.1421 33.1045 35.1421 33.6596 35.1421C34.0229 35.1421 34.1541 35.2863 34.144 35.6364C34.1339 35.9866 34.144 36.5324 34.144 36.9753C34.1827 37.7231 34.4999 38.4276 35.0309 38.9445C35.5619 39.4614 36.2664 39.7517 37.0003 39.756H38.7262C39.0593 39.756 39.2308 39.756 39.3217 40.2194C39.3884 40.9267 39.555 41.6205 39.8162 42.2792C40.2224 41.4628 40.4724 40.5751 40.553 39.6633C40.7145 38.8497 40.1392 38.2832 39.3318 38.1184C38.4695 37.9934 37.5973 37.9555 36.7278 38.0052C36.314 38.0052 36.1727 37.8507 36.1828 37.4284C36.1828 36.6045 36.1828 35.7703 36.1828 34.9464C36.2047 34.6888 36.1708 34.4294 36.0834 34.1866C35.9961 33.9439 35.8574 33.7238 35.6772 33.5419C35.497 33.36 35.2798 33.2209 35.041 33.1343C34.8022 33.0478 34.5477 33.016 34.2954 33.0411H31.7722C31.6254 33.048 31.4789 33.0221 31.3429 32.9651C31.2069 32.9082 31.0848 32.8217 30.985 32.7116C30.3592 32.0318 29.7234 31.3727 29.0774 30.7136C28.4315 30.0545 28.2498 29.9618 27.2708 30.3222C26.2572 30.7032 25.1911 30.9187 24.1117 30.9608C23.228 31.0484 22.3361 30.9751 21.4775 30.7445C20.7912 30.5076 20.0544 30.4355 19.3681 30.178C18.3321 29.7857 17.3208 29.3282 16.3402 28.8083C14.8787 28.0903 13.5821 27.0655 12.5352 25.801C11.1697 23.9866 10.3745 21.7929 10.2543 19.5085C10.1088 17.9243 10.2007 16.3269 10.5268 14.771C11.0168 12.3917 12.1904 10.2154 13.8978 8.51961C15.6698 6.64658 18.0394 5.48141 20.5792 5.23428C23.9099 4.92531 27.0891 5.23428 29.905 7.29404C31.9886 8.69153 33.5772 10.7349 34.4367 13.1232C35.5373 16.263 35.5373 19.6951 34.4367 22.835C34.3119 23.1039 34.2798 23.4079 34.3458 23.6978C34.4117 23.9876 34.5718 24.2461 34.8001 24.4313C35.7387 25.3582 36.6471 26.316 37.5756 27.2532L47.6685 37.552C47.7932 37.65 47.8957 37.7743 47.9689 37.9166C48.0421 38.0588 48.0842 38.2155 48.0924 38.3759C48.0924 39.9928 48.0924 41.6097 48.0924 43.237C48.0924 43.6489 47.9712 43.8034 47.5473 43.7931C46.3362 43.7931 45.1251 43.7931 43.924 43.7931H42.5514C42.6119 44.2257 42.8239 44.4831 43.1166 44.4934C43.6432 44.5577 44.1656 44.654 44.681 44.7818C45.8992 44.8501 47.1124 44.9911 48.3144 45.204C48.4728 45.2365 48.6361 45.2351 48.7939 45.2C48.9518 45.1649 49.1008 45.0968 49.2317 45.0001C49.3625 44.9034 49.4723 44.78 49.5541 44.6379C49.636 44.4957 49.6881 44.3379 49.7072 44.1742C49.7072 43.4738 49.8687 42.7838 49.8586 42.1144C49.8485 41.445 49.8586 40.4254 49.9293 39.5706C50.0348 39.1791 50.0525 38.7683 49.9808 38.3688C49.9092 37.9694 49.7501 37.5916 49.5155 37.2636Z" />
<path d="M21.5482 14.0295C21.9495 14.5101 22.1554 15.1291 22.1235 15.7597C22.116 16.0016 22.1589 16.2423 22.2494 16.466C22.3399 16.6897 22.4759 16.8913 22.6484 17.0573C22.6929 17.1115 22.7485 17.155 22.8113 17.1849C22.874 17.2147 22.9425 17.2302 23.0117 17.2302C23.081 17.2302 23.1494 17.2147 23.2122 17.1849C23.2749 17.155 23.3305 17.1115 23.3751 17.0573C23.6806 16.7352 23.9138 16.3492 24.0584 15.9259C24.2031 15.5026 24.2557 15.0523 24.2128 14.6062C24.0807 14.0097 23.8202 13.4507 23.4501 12.9697C23.08 12.4888 22.6096 12.0979 22.0731 11.8255C21.5548 11.4128 20.9001 11.2209 20.2463 11.29C18.8471 11.6775 17.6059 12.5111 16.7037 13.669C16.3743 14.0118 16.1372 14.4355 16.0152 14.8992C15.8932 15.3629 15.8905 15.8508 16.0073 16.3158C16.5725 18.664 19.4893 20.8988 22.1437 19.3128C22.3254 19.1995 22.6786 19.1377 22.6181 18.942C22.5756 18.8111 22.4966 18.6956 22.3909 18.6096C22.2852 18.5237 22.1572 18.471 22.0226 18.458C21.5583 18.3859 21.1042 18.2417 20.65 18.1387C18.9443 17.7268 18.4396 17.1603 18.4396 15.564C18.4275 15.2187 18.4546 14.8731 18.5204 14.5341C18.6583 14.2649 18.8557 14.0322 19.097 13.8544C19.3383 13.6765 19.6169 13.5585 19.9107 13.5095C20.2045 13.4605 20.5054 13.482 20.7896 13.5723C21.0738 13.6625 21.3336 13.8191 21.5482 14.0295Z" />
<path d="M21.8612 42.722C21.8612 42.1865 21.3162 42.0732 20.8519 42.0732C17.7232 42.0732 14.5944 42.0732 11.4656 42.0732C11.0316 42.0732 10.4563 42.2071 10.4563 42.7426C10.4563 43.2781 11.0013 43.2781 11.4656 43.2781H20.8519C21.2758 43.2781 21.8612 43.2781 21.8612 42.722Z" />
<path d="M6.17678 36.2338C6.54979 36.2595 6.92408 36.2595 7.29709 36.2338C7.64025 36.2338 8.03387 35.9866 8.03387 35.6467C8.03387 35.3069 7.64025 35.0906 7.27691 35.0288C7.17959 35.0187 7.08153 35.0187 6.98421 35.0288H4.49128C4.06738 35.0288 3.63339 35.1421 3.60311 35.6261C3.57283 36.1102 4.07747 36.2235 4.461 36.2544C5.0262 36.2853 5.60149 36.2338 6.17678 36.2338Z" />
<path d="M21.1244 45.6778H18.2177C17.8341 45.6778 17.5112 45.8632 17.491 46.2236C17.4988 46.4003 17.5738 46.5669 17.7001 46.688C17.8264 46.8091 17.9939 46.8753 18.1672 46.8724C19.1765 46.8724 20.1858 46.8724 21.195 46.8724C21.3673 46.8752 21.5338 46.8087 21.6584 46.6873C21.7831 46.5659 21.8559 46.3994 21.8612 46.2236C21.8612 45.8529 21.518 45.6778 21.1244 45.6778Z" />
<path d="M14.7961 35.7188C14.7153 35.4099 14.5336 35.1009 14.1905 35.1627C14.0343 35.1974 13.8968 35.2909 13.8051 35.4245C13.7135 35.5581 13.6745 35.722 13.6959 35.8836V37.3975C13.6959 37.9228 13.6959 38.4274 13.6959 38.9732C13.6908 39.1277 13.7398 39.2789 13.8341 39.3997C13.9285 39.5205 14.062 39.603 14.2107 39.6324C14.5336 39.7045 14.6447 39.4161 14.7557 39.1792C14.8572 39.0049 14.9096 38.8053 14.9071 38.6025C14.9611 37.6399 14.9239 36.6742 14.7961 35.7188Z" />
<path d="M17.1175 38.9218C17.103 39.0875 17.1515 39.2527 17.2529 39.383C17.3543 39.5134 17.501 39.599 17.6625 39.6221C17.7431 39.6293 17.8242 39.6192 17.9006 39.5923C17.9771 39.5654 18.0471 39.5224 18.1061 39.466C18.1652 39.4096 18.2119 39.3412 18.2433 39.2652C18.2747 39.1892 18.29 39.1072 18.2883 39.0247C18.2883 37.9949 18.2883 36.8826 18.2883 35.8115C18.2883 35.5025 18.0663 35.0906 17.6424 35.1627C17.2185 35.2348 17.1377 35.5952 17.1276 35.9557C17.1175 36.3161 17.1276 36.9238 17.1276 37.4078C17.1175 37.9125 17.0973 38.4171 17.1175 38.9218Z" />
<path d="M11.0213 31.1461C10.7911 31.1461 10.5703 31.2394 10.4075 31.4055C10.2448 31.5716 10.1533 31.7969 10.1533 32.0318C10.1533 32.2667 10.2448 32.492 10.4075 32.6581C10.5703 32.8242 10.7911 32.9175 11.0213 32.9175C11.2515 32.9175 11.4723 32.8242 11.6351 32.6581C11.7978 32.492 11.8893 32.2667 11.8893 32.0318C11.8893 31.7969 11.7978 31.5716 11.6351 31.4055C11.4723 31.2394 11.2515 31.1461 11.0213 31.1461Z" />
<path d="M10.1433 35.554C10.1374 35.7316 10.1833 35.9069 10.2752 36.0577C10.3671 36.2086 10.5008 36.3281 10.6594 36.4013C10.8181 36.4744 10.9944 36.4977 11.1661 36.4683C11.3378 36.439 11.497 36.3582 11.6236 36.2363C11.7502 36.1144 11.8384 35.9568 11.8771 35.7836C11.9157 35.6105 11.903 35.4295 11.8407 35.2636C11.7783 35.0978 11.669 34.9546 11.5268 34.8523C11.3845 34.75 11.2156 34.6931 11.0416 34.6889C10.8111 34.686 10.5886 34.7746 10.421 34.9361C10.2533 35.0975 10.1538 35.3191 10.1433 35.554Z" />
<path d="M1.75614 35.5952C1.75637 35.3618 1.66836 35.1373 1.51043 34.9685C1.3525 34.7997 1.13683 34.6995 0.908338 34.6889C0.677872 34.686 0.455321 34.7746 0.287704 34.9361C0.120087 35.0975 0.0205328 35.3191 0.010074 35.554C0.00730032 35.7882 0.0944711 36.0141 0.252925 36.1835C0.41138 36.3529 0.628524 36.4523 0.857874 36.4603C1.08834 36.4633 1.31089 36.3746 1.47851 36.2132C1.64612 36.0518 1.74568 35.8302 1.75614 35.5952Z" />
<path d="M21.0941 36.4706C21.3235 36.468 21.5427 36.3738 21.7049 36.2083C21.8671 36.0427 21.9594 35.819 21.962 35.5849C21.952 35.3516 21.856 35.1307 21.6931 34.9665C21.5303 34.8022 21.3128 34.7068 21.084 34.6992C20.8546 34.7046 20.6364 34.8014 20.4761 34.9688C20.3158 35.1363 20.226 35.3611 20.2261 35.5952C20.2261 35.7111 20.2486 35.8257 20.2923 35.9326C20.3361 36.0395 20.4002 36.1365 20.4809 36.2179C20.5616 36.2993 20.6574 36.3636 20.7627 36.407C20.8679 36.4504 20.9806 36.472 21.0941 36.4706Z" />
<path d="M14.4529 45.4306C14.3403 45.4333 14.2292 45.4586 14.1261 45.5051C14.0231 45.5516 13.93 45.6183 13.8522 45.7015C13.7744 45.7847 13.7134 45.8827 13.6727 45.99C13.6321 46.0973 13.6126 46.2116 13.6152 46.3266C13.6257 46.5597 13.726 46.7792 13.8942 46.9374C14.0624 47.0955 14.2849 47.1795 14.5135 47.1711C14.6333 47.1793 14.7535 47.1618 14.8662 47.1196C14.9789 47.0775 15.0817 47.0116 15.168 46.9264C15.2542 46.8411 15.3219 46.7384 15.3668 46.6247C15.4116 46.5111 15.4326 46.3891 15.4284 46.2666C15.4241 46.1442 15.3947 46.024 15.3421 45.9139C15.2894 45.8038 15.2147 45.7062 15.1228 45.6274C15.0308 45.5486 14.9237 45.4903 14.8083 45.4564C14.6929 45.4226 14.5719 45.4138 14.4529 45.4306Z" />
<path d="M21.084 38.2935C20.9628 38.2801 20.8403 38.2929 20.7243 38.3311C20.6083 38.3692 20.5015 38.4319 20.4108 38.5149C20.3201 38.598 20.2475 38.6996 20.1979 38.8132C20.1482 38.9268 20.1226 39.0497 20.1226 39.1741C20.1226 39.2984 20.1482 39.4214 20.1979 39.535C20.2475 39.6485 20.3201 39.7501 20.4108 39.8332C20.5015 39.9163 20.6083 39.9789 20.7243 40.0171C20.8403 40.0552 20.9628 40.068 21.084 40.0546C21.3126 40.0417 21.528 39.9411 21.6871 39.7731C21.8462 39.6051 21.9372 39.3819 21.9419 39.1483C21.9317 38.9214 21.8375 38.7069 21.6782 38.5482C21.5189 38.3896 21.3065 38.2985 21.084 38.2935Z" />
<path d="M10.9911 45.3276C10.8188 45.3195 10.648 45.3639 10.5006 45.4552C10.3532 45.5466 10.2357 45.6807 10.1633 45.8404C10.0908 46.0001 10.0667 46.1782 10.0939 46.352C10.1211 46.5258 10.1984 46.6874 10.316 46.8162C10.4336 46.9449 10.5861 47.035 10.7541 47.075C10.922 47.1149 11.0979 47.1029 11.2591 47.0404C11.4204 46.9779 11.5597 46.8678 11.6594 46.7242C11.7591 46.5806 11.8145 46.4099 11.8187 46.2339C11.8242 46.0025 11.7407 45.778 11.586 45.6086C11.4313 45.4392 11.2178 45.3383 10.9911 45.3276Z" />
<path d="M11.0315 40.0134C11.2006 40.0073 11.3641 39.9503 11.5015 39.8495C11.639 39.7488 11.7441 39.6088 11.8038 39.4472C11.8634 39.2856 11.8749 39.1097 11.8368 38.9414C11.7987 38.7732 11.7127 38.6202 11.5896 38.5018C11.4665 38.3833 11.3118 38.3046 11.145 38.2756C10.9782 38.2466 10.8067 38.2686 10.6521 38.3388C10.4975 38.409 10.3667 38.5243 10.2762 38.6702C10.1857 38.8161 10.1394 38.986 10.1433 39.1586C10.1512 39.3917 10.2489 39.6123 10.4152 39.7723C10.5815 39.9323 10.8029 40.019 11.0315 40.0134Z" />
<path d="M4.10777 41.7951C3.89446 41.8042 3.69211 41.894 3.54026 42.0471C3.38841 42.2003 3.29797 42.4057 3.28662 42.6232C3.27526 42.8408 3.34381 43.0548 3.47886 43.2235C3.61391 43.3923 3.80577 43.5036 4.01693 43.5356C4.13512 43.5536 4.25569 43.5462 4.3709 43.5138C4.48611 43.4815 4.59343 43.4249 4.68598 43.3478C4.77853 43.2706 4.85426 43.1746 4.90833 43.0659C4.96241 42.9572 4.99362 42.8381 4.99997 42.7163C5.00633 42.5946 4.98768 42.4728 4.94524 42.3588C4.90279 42.2448 4.83748 42.1412 4.75348 42.0544C4.66948 41.9677 4.56866 41.8999 4.45746 41.8552C4.34627 41.8105 4.22716 41.7901 4.10777 41.7951Z" />
<path d="M8.10453 42.7323C8.06412 41.9261 8.06412 41.1183 8.10453 40.3121C8.10997 39.8485 7.93605 39.4015 7.6205 39.0679C7.30495 38.7343 6.87324 38.5412 6.41903 38.5304C4.83445 38.5304 3.25996 38.5304 1.67538 38.5304C1.44699 38.5343 1.22168 38.5849 1.01284 38.6793C0.803989 38.7738 0.615854 38.91 0.459593 39.08C0.303331 39.25 0.182128 39.4504 0.103175 39.6691C0.0242213 39.8878 -0.0108743 40.1205 -2.97062e-05 40.3533C0.0605274 41.9908 -2.97062e-05 43.618 -2.97062e-05 45.2555C0.00246208 45.6837 0.168208 46.0941 0.4621 46.3998C0.755992 46.7054 1.15495 46.8824 1.57446 46.8931C3.21959 46.8931 4.86473 46.8931 6.49977 46.8931C6.93374 46.8574 7.33926 46.6585 7.63764 46.335C7.93603 46.0115 8.10602 45.5864 8.11462 45.1423C8.07119 44.3396 8.06782 43.5353 8.10453 42.7323ZM6.36856 45.5748C5.58132 45.5748 4.78398 45.5748 3.99674 45.5748H1.74603C1.38269 45.5748 1.20102 45.4821 1.20102 45.0702C1.20102 43.4944 1.20102 41.9187 1.20102 40.343C1.20102 39.9516 1.34232 39.8178 1.72585 39.8178C3.27342 39.8178 4.81763 39.8178 6.35847 39.8178C6.742 39.8178 6.90348 39.9619 6.8732 40.3533C6.74198 41.9193 6.74198 43.4939 6.8732 45.0599C6.93376 45.5027 6.72181 45.5851 6.36856 45.5748Z" />
<path d="M8.09439 25.9349C8.09711 25.734 8.06033 25.5345 7.98622 25.3484C7.91211 25.1622 7.80219 24.993 7.66294 24.851C7.52368 24.7089 7.35793 24.5967 7.17548 24.5211C6.99302 24.4455 6.79756 24.4079 6.60065 24.4107H1.67533C1.44365 24.382 1.2086 24.4087 0.988778 24.4887C0.76896 24.5687 0.570411 24.6999 0.408844 24.8717C0.247277 25.0436 0.127128 25.2515 0.057905 25.4789C-0.0113178 25.7063 -0.0277142 25.9471 0.0100135 26.1821V30.8475C-0.017988 31.0904 0.00606853 31.3367 0.0805191 31.5692C0.15497 31.8018 0.278037 32.015 0.441209 32.1943C0.60438 32.3735 0.803761 32.5144 1.02556 32.6073C1.24736 32.7002 1.48628 32.7428 1.7258 32.7321C3.2801 32.7321 4.85458 32.7321 6.40888 32.7321C6.64127 32.7268 6.87032 32.6745 7.08273 32.5782C7.29515 32.4819 7.48672 32.3435 7.64632 32.171C7.80592 31.9986 7.93039 31.7955 8.0125 31.5736C8.09462 31.3517 8.13274 31.1154 8.12467 30.8784C8.04393 29.2511 8.10448 27.6136 8.09439 25.9349ZM6.8126 29.8176C6.8126 30.1986 6.8126 30.5797 6.89334 30.9607C6.97408 31.3418 6.79241 31.486 6.41898 31.4757C4.85458 31.4757 3.29019 31.4757 1.73589 31.4757C1.33218 31.4757 1.21106 31.3109 1.22116 30.9299C1.22116 30.1265 1.22116 29.3129 1.22116 28.5096C1.22116 27.7578 1.22116 27.0163 1.22116 26.2645C1.22116 25.7804 1.37255 25.6466 1.83682 25.6569C3.34066 25.6569 4.86468 25.6569 6.34833 25.6569C6.86306 25.6569 6.97408 25.8834 6.91353 26.316C6.80929 27.4799 6.77558 28.6494 6.8126 29.8176Z" />
<path d="M4.04727 27.6136C3.81784 27.6136 3.59751 27.7051 3.4334 27.8687C3.2693 28.0323 3.17446 28.255 3.16919 28.489C3.17408 28.7216 3.26544 28.9435 3.42474 29.1099C3.58403 29.2763 3.79936 29.3746 4.02708 29.385C4.25729 29.385 4.47806 29.2917 4.64084 29.1256C4.80362 28.9595 4.89507 28.7342 4.89507 28.4993C4.89507 28.2644 4.80362 28.0391 4.64084 27.873C4.47806 27.7069 4.25729 27.6136 4.02708 27.6136H4.04727Z" />
</g>
<defs>
<clipPath id="clip0_370_1877">
<rect width="50" height="50" fill="white"/>
</clipPath>
</defs>
</svg>
