<svg width="50" height="50" viewBox="0 0 50 50" fill="none" xmlns="http://www.w3.org/2000/svg">
    <g clip-path="url(#clip0_370_1904)">
    <path d="M49.39 23.7C48.4498 21.7 47.3896 19.76 46.2594 17.85C42.7112 11.9738 38.5505 6.48991 33.8469 1.49C33.2483 0.697243 32.3609 0.172717 31.3777 0.0304077C30.3944 -0.111901 29.3947 0.139508 28.5958 0.729999C25.1351 2.87667 21.7311 5.11 18.3838 7.43C13.7529 10.62 9.21195 13.9 4.79107 17.37C4.03698 17.8792 3.51082 18.6619 3.32412 19.5523C3.13741 20.4428 3.30482 21.3709 3.79087 22.14C3.9409 22.43 3.9209 22.59 3.68085 22.79C2.9307 23.41 2.20055 24.04 1.47041 24.67C1.07037 24.9312 0.734339 25.2792 0.487274 25.6881C0.240209 26.097 0.0884584 26.5563 0.0432943 27.0318C-0.00186975 27.5074 0.060713 27.987 0.226394 28.4351C0.392075 28.8832 0.656597 29.2882 1.00031 29.62C3.22742 32.2867 5.56122 34.8967 8.00171 37.45C11.4755 41.075 15.1486 44.5036 19.0039 47.72C19.7589 48.4287 20.6983 48.9105 21.7145 49.11C22.2958 49.3046 22.9279 49.2833 23.4948 49.05C32.4438 44.0466 40.6876 37.8759 48.0097 30.7C48.6484 30.1004 49.1559 29.375 49.5002 28.5695C49.8445 27.764 50.0181 26.8959 50.0101 26.02C50.0083 25.206 49.7946 24.4064 49.39 23.7ZM21.3244 47.19C21.2044 47.33 21.0643 47.19 20.9543 47.19C20.3245 46.8181 19.7346 46.3825 19.194 45.89C13.0464 40.6161 7.34895 34.8395 2.16054 28.62C1.9696 28.4252 1.82053 28.1934 1.72249 27.9389C1.62444 27.6844 1.5795 27.4125 1.59043 27.14C1.60711 26.9371 1.6644 26.7395 1.75889 26.5592C1.85339 26.3788 1.98318 26.2193 2.14054 26.09L4.79107 23.89C5.02112 23.69 5.17115 23.7 5.38119 23.89C5.80127 24.36 6.24136 24.81 6.68145 25.27C7.12154 25.73 6.98151 25.86 6.57143 26.13C5.92114 26.5424 5.33195 27.0439 4.82108 27.62C4.57103 27.92 4.47101 28.21 4.82108 28.49C5.17115 28.77 5.39119 28.6 5.63124 28.34C6.16596 27.7287 6.79381 27.2056 7.49161 26.79C7.72166 26.67 7.89169 26.66 8.06172 26.86L8.13174 26.95C9.13194 28.14 9.19195 27.95 7.9617 28.74C7.46879 29.0672 7.00678 29.4388 6.58143 29.85C6.30137 30.11 5.9613 30.39 6.32138 30.79C6.68145 31.19 6.99151 30.9 7.32158 30.62C7.92368 30.0448 8.59575 29.5475 9.32198 29.14C9.9321 28.77 10.1021 29.32 10.3822 29.63C10.6622 29.94 10.4822 30.16 10.2022 30.4C9.64204 30.86 9.11193 31.4 8.57183 31.87C8.51313 31.9075 8.46373 31.9579 8.42735 32.0173C8.39097 32.0768 8.36856 32.1437 8.36182 32.213C8.35507 32.2823 8.36417 32.3523 8.38842 32.4176C8.41267 32.4829 8.45145 32.5419 8.50181 32.59C8.54782 32.643 8.60467 32.6855 8.66851 32.7146C8.73236 32.7437 8.80171 32.7588 8.87189 32.7588C8.94206 32.7588 9.01141 32.7437 9.07526 32.7146C9.1391 32.6855 9.19595 32.643 9.24196 32.59C9.78207 32.13 10.3422 31.69 10.8623 31.21C11.1923 30.9 11.4224 30.87 11.7325 31.21C12.4926 32.15 12.5026 32.14 11.5824 32.94C11.2524 33.22 10.9323 33.51 10.5822 33.8C10.2322 34.09 10.1321 34.38 10.4722 34.71C10.8123 35.04 11.0423 34.78 11.2624 34.54C11.6648 34.1291 12.0996 33.7513 12.5626 33.41C12.9227 33.12 13.2028 33.22 13.4528 33.56C13.7029 33.9 14.0329 34.15 13.5228 34.56C13.0736 34.9174 12.6492 35.305 12.2526 35.72C12.0125 35.97 11.7625 36.31 12.1425 36.64C12.5226 36.97 12.7627 36.71 13.0227 36.48C13.3829 36.0847 13.7816 35.7263 14.213 35.41C14.2502 35.3722 14.2946 35.3422 14.3435 35.3217C14.3924 35.3012 14.445 35.2907 14.498 35.2907C14.5511 35.2907 14.6036 35.3012 14.6525 35.3217C14.7015 35.3422 14.7458 35.3722 14.7831 35.41C15.4632 36.02 15.4632 36.28 14.7831 36.84L13.8729 37.6C13.6428 37.8 13.4528 38.02 13.7129 38.35C13.7528 38.4126 13.8061 38.4655 13.869 38.505C13.9319 38.5444 14.0028 38.5693 14.0765 38.5779C14.1503 38.5865 14.225 38.5786 14.2953 38.5548C14.3656 38.5309 14.4297 38.4917 14.483 38.44C14.8842 38.1887 15.2537 37.8899 15.5832 37.55C15.8433 37.28 16.0533 37.31 16.2534 37.61C16.3195 37.7311 16.393 37.8479 16.4734 37.96C16.8635 38.4 16.9035 38.78 16.3634 39.17C16.1268 39.3797 15.9213 39.6222 15.7533 39.89C15.5532 40.14 15.6532 40.36 15.8633 40.56C15.9011 40.6136 15.9513 40.6574 16.0097 40.6876C16.068 40.7178 16.1327 40.7336 16.1984 40.7336C16.264 40.7336 16.3287 40.7178 16.387 40.6876C16.4454 40.6574 16.4956 40.6136 16.5334 40.56C16.7335 40.35 16.9035 40.11 17.1135 39.89C17.3236 39.67 17.5136 39.71 17.6836 39.98C19.0193 42.1758 20.2411 44.4388 21.3444 46.76C21.3244 46.96 21.4144 47.08 21.3244 47.19ZM47.1295 29.46C43.2396 33.2903 39.0706 36.8267 34.657 40.04C31.1668 42.5648 27.5443 44.9014 23.8049 47.04C23.3248 47.31 23.1047 47.3 22.8047 46.76C18.4199 37.5855 12.58 29.1804 5.51121 21.87C4.37099 20.69 4.51101 19.48 5.81127 18.44C12.5826 13.15 19.634 8.27 26.8655 3.62C27.7957 3.02 28.7259 2.42 29.676 1.85C30.0848 1.55438 30.5903 1.42413 31.0911 1.48532C31.5919 1.54652 32.051 1.79465 32.3766 2.18C38.6644 8.65885 43.8989 16.0821 47.8897 24.18C48.289 24.9582 48.4819 25.8259 48.4498 26.7C48.3834 27.7561 47.9102 28.7454 47.1295 29.46Z"/>
    <path d="M37.6975 21.89C38.5876 21.24 39.4678 20.57 40.338 19.89C40.528 19.73 40.7381 19.53 40.488 19.24C40.4473 19.1777 40.3939 19.1246 40.3313 19.0842C40.2687 19.0439 40.1983 19.0172 40.1247 19.0059C40.0511 18.9946 39.976 18.9989 39.9041 19.0185C39.8323 19.0382 39.7654 19.0728 39.7079 19.12C39.6278 19.17 39.5478 19.24 39.4678 19.3C37.9675 20.41 36.4672 21.53 34.9469 22.62C30.6594 25.7 26.3619 28.7733 22.0543 31.84C21.3142 32.36 20.564 32.84 19.8339 33.39C19.6138 33.54 19.4138 33.74 19.5238 34.03C19.5651 34.1484 19.6383 34.2531 19.7354 34.3326C19.8325 34.412 19.9496 34.463 20.0739 34.48L20.344 34.3L22.4244 32.85C27.5654 29.27 32.6464 25.62 37.6975 21.89Z"/>
    <path d="M22.2345 19.62C22.4546 19.47 22.7146 19.33 22.7046 19.03C22.7124 18.9151 22.6885 18.8004 22.6356 18.6981C22.5827 18.5958 22.5028 18.51 22.4046 18.45C22.2045 18.31 22.0345 18.45 21.8644 18.54C20.4042 19.46 19.0639 20.54 17.6836 21.54C16.0333 22.74 14.403 23.94 12.7626 25.16C12.5226 25.34 12.2225 25.55 12.4926 25.93C12.5386 26.007 12.6019 26.0722 12.6774 26.1206C12.7529 26.169 12.8386 26.1992 12.9278 26.2089C13.0169 26.2186 13.1072 26.2075 13.1913 26.1765C13.2755 26.1454 13.3513 26.0953 13.4128 26.03L14.3629 25.32C17.0035 23.39 19.544 21.41 22.2345 19.62Z"/>
    <path d="M24.0048 21.9C24.5049 21.58 24.585 21.12 24.1949 20.9C23.8048 20.68 23.6648 20.9 23.4347 21.02C21.3121 22.3136 19.262 23.7223 17.2935 25.24C16.2933 26 15.3531 26.8 14.3829 27.58C14.2708 27.6433 14.1849 27.7446 14.1409 27.8657C14.0969 27.9867 14.0976 28.1194 14.1429 28.24C14.1684 28.3465 14.2303 28.4408 14.318 28.5066C14.4056 28.5723 14.5135 28.6053 14.623 28.6C14.7318 28.5936 14.8383 28.5655 14.9362 28.5174C15.0341 28.4693 15.1214 28.4022 15.1931 28.32C17.3296 26.5071 19.5706 24.8208 21.9044 23.27C22.6346 22.77 23.3447 22.35 24.0048 21.9Z"/>
    <path d="M25.9053 24.12C26.1253 23.98 26.3554 23.85 26.3654 23.48C26.3512 23.3929 26.3167 23.3103 26.2645 23.239C26.2124 23.1678 26.1441 23.1099 26.0653 23.07C25.7853 22.9 25.5752 23.07 25.3552 23.21C23.1454 24.5675 21.0241 26.0638 19.0039 27.69C18.1937 28.35 17.4036 29.04 16.6134 29.69C16.5508 29.7299 16.4979 29.7832 16.4584 29.8461C16.419 29.909 16.3941 29.9799 16.3855 30.0536C16.3768 30.1273 16.3847 30.2021 16.4086 30.2724C16.4325 30.3427 16.4717 30.4067 16.5234 30.46C16.5713 30.5168 16.631 30.5625 16.6984 30.5938C16.7658 30.6251 16.8392 30.6414 16.9135 30.6414C16.9878 30.6414 17.0612 30.6251 17.1286 30.5938C17.196 30.5625 17.2557 30.5168 17.3036 30.46L17.7136 30.11C18.3638 29.56 18.9939 29.01 19.654 28.48C21.6468 26.9005 23.7345 25.4444 25.9053 24.12Z"/>
    <path d="M19.9141 16.5C19.554 16 19.1839 16.38 18.8439 16.58L18.7038 16.69C16.7935 18.06 14.9531 19.51 13.1227 20.99C12.3126 21.65 11.5224 22.33 10.7223 22.99C10.6228 23.0575 10.5477 23.1552 10.5081 23.2687C10.4685 23.3821 10.4664 23.5053 10.5022 23.62C10.5359 23.7135 10.5968 23.7948 10.6769 23.8536C10.7571 23.9124 10.853 23.946 10.9523 23.95C11.212 23.9358 11.456 23.821 11.6324 23.63C14.1529 21.45 16.7935 19.41 19.494 17.46C19.8241 17.24 20.2842 17 19.9141 16.5Z"/>
    <path d="M18.2836 15.04C18.4126 14.9852 18.5188 14.8877 18.5844 14.7639C18.6499 14.6401 18.6709 14.4974 18.6436 14.36C18.6091 14.2569 18.5454 14.1661 18.4601 14.0986C18.3749 14.0311 18.2718 13.9899 18.1636 13.98C17.9435 13.98 17.7835 14.07 17.6134 14.17C15.4159 15.448 13.3194 16.8922 11.3422 18.49C10.622 19.08 9.9219 19.69 9.21176 20.29C9.08866 20.373 8.99771 20.4957 8.95404 20.6376C8.91037 20.7795 8.91661 20.9321 8.97171 21.07C9.01114 21.163 9.08138 21.2396 9.17062 21.2869C9.25986 21.3343 9.36268 21.3495 9.46181 21.33C9.71186 21.33 9.85189 21.18 10.0119 21.03C11.7493 19.4493 13.6088 18.0082 15.573 16.72C16.4632 16.14 17.3734 15.62 18.2836 15.04Z"/>
    <path d="M30.5161 36.06C30.5433 35.9479 30.5352 35.8302 30.4929 35.723C30.4506 35.6157 30.3763 35.5241 30.28 35.4606C30.1837 35.3972 30.0702 35.365 29.9549 35.3685C29.8396 35.3719 29.7282 35.4109 29.6359 35.48C27.4447 36.6495 25.3597 38.008 23.4047 39.54C23.1747 39.72 22.9046 39.92 23.1847 40.28C23.2288 40.3522 23.289 40.4133 23.3606 40.4584C23.4322 40.5036 23.5133 40.5316 23.5975 40.5403C23.6817 40.549 23.7667 40.5382 23.8461 40.5086C23.9254 40.4791 23.9968 40.4317 24.0548 40.37C25.9844 38.8892 28.0203 37.5522 30.1461 36.37C30.3461 36.3 30.5161 36.17 30.5161 36.06Z"/>
    <path d="M30.9362 38.04C30.7628 38.0492 30.5973 38.1161 30.4661 38.23C28.6535 39.2235 26.9213 40.3569 25.2851 41.62C24.9751 41.86 24.655 42.1 24.3649 42.37C24.3087 42.4123 24.2622 42.4662 24.2287 42.5281C24.1951 42.59 24.1753 42.6583 24.1705 42.7286C24.1658 42.7988 24.1762 42.8692 24.2012 42.935C24.2261 43.0008 24.2649 43.0605 24.3149 43.11C24.3957 43.2117 24.513 43.2779 24.6418 43.2947C24.7706 43.3115 24.9009 43.2776 25.0051 43.2C25.1025 43.1357 25.196 43.0655 25.2851 42.99C27.0867 41.5685 29 40.2944 31.0063 39.18C31.1719 39.1118 31.3143 38.9972 31.4163 38.85C31.4698 38.7664 31.4982 38.6692 31.4982 38.57C31.4982 38.4708 31.4698 38.3736 31.4163 38.29C31.3756 38.2008 31.3063 38.1278 31.2193 38.0825C31.1323 38.0372 31.0327 38.0222 30.9362 38.04Z"/>
    <path d="M24.0047 37.11L28.4456 34.11C28.5668 34.0497 28.6745 33.9654 28.7622 33.8623C28.8499 33.7592 28.9157 33.6393 28.9557 33.51C28.9478 33.416 28.9158 33.3257 28.8629 33.2476C28.81 33.1695 28.7379 33.1064 28.6535 33.0642C28.5692 33.022 28.4754 33.0022 28.3811 33.0068C28.2869 33.0113 28.1954 33.0399 28.1155 33.09C27.6454 33.38 27.1853 33.69 26.7352 34L22.6044 36.86C22.3243 37.06 21.9543 37.26 22.2243 37.69C22.4944 38.12 22.9045 37.94 23.2245 37.69C23.5446 37.44 23.7546 37.28 24.0047 37.11Z"/>
    <path d="M38.0076 32.34L37.8476 32.43C36.8604 33.1062 35.9121 33.8373 35.007 34.62C34.5269 35.03 34.0669 35.46 33.6068 35.9C33.5111 35.9701 33.4434 36.072 33.4159 36.1874C33.3885 36.3028 33.4029 36.4243 33.4567 36.53C33.5049 36.6191 33.5736 36.6954 33.6571 36.7528C33.7405 36.8101 33.8364 36.8469 33.9368 36.86C34.1489 36.8188 34.3419 36.71 34.4869 36.55C34.827 36.25 35.1471 35.93 35.4871 35.63C36.4683 34.7743 37.5114 33.9921 38.6078 33.29C38.8978 33.1 39.0879 32.85 38.8578 32.5C38.8225 32.423 38.7692 32.3556 38.7024 32.3035C38.6357 32.2513 38.5574 32.2159 38.4741 32.2002C38.3908 32.1846 38.305 32.1891 38.2239 32.2134C38.1427 32.2377 38.0686 32.2811 38.0076 32.34Z"/>
    <path d="M37.2775 30.83C37.3997 30.7867 37.5008 30.6984 37.5602 30.5833C37.6197 30.4681 37.633 30.3347 37.5976 30.21C37.5566 30.1007 37.4864 30.0048 37.3947 29.9325C37.303 29.8603 37.1934 29.8144 37.0775 29.8L36.7374 29.94C35.0697 30.7536 33.5352 31.8157 32.1865 33.09C31.9265 33.34 31.6264 33.61 31.9965 33.98C32.3666 34.35 32.6366 34.12 32.9267 33.85C33.622 33.1815 34.3751 32.5758 35.1771 32.04C35.8573 31.62 36.5574 31.2 37.2775 30.83Z"/>
    <path d="M36.1371 27.71C36.0985 27.6288 36.0418 27.5576 35.9714 27.5017C35.901 27.4457 35.8188 27.4067 35.731 27.3874C35.6432 27.3681 35.5521 27.3691 35.4648 27.3903C35.3774 27.4116 35.2961 27.4525 35.227 27.51C34.3968 28.01 33.5566 28.51 32.7565 29.02C31.9563 29.53 31.4262 30.02 30.7561 30.51C30.6461 30.5801 30.5647 30.6869 30.5262 30.8115C30.4877 30.936 30.4948 31.0702 30.546 31.19C30.5759 31.2783 30.6303 31.3563 30.703 31.4147C30.7756 31.4732 30.8634 31.5097 30.9561 31.52C31.0525 31.5221 31.1483 31.5046 31.2378 31.4685C31.3272 31.4324 31.4083 31.3785 31.4762 31.31C32.7956 30.2095 34.2271 29.2509 35.7471 28.45C36.0071 28.3 36.3572 28.11 36.1371 27.71Z"/>
    <path d="M44.2888 25.26C44.2809 25.163 44.2505 25.0692 44.2002 24.986C44.1499 24.9027 44.0809 24.8322 43.9988 24.78C43.8803 24.727 43.7487 24.7101 43.6206 24.7314C43.4925 24.7528 43.3736 24.8114 43.2786 24.9C41.9288 25.7521 40.6599 26.7262 39.4879 27.81C39.2178 28.06 39.0178 28.35 39.2878 28.68C39.5579 29.01 39.888 28.88 40.158 28.68C41.3687 27.605 42.6557 26.6191 44.0088 25.73C44.0905 25.6807 44.1589 25.6121 44.2077 25.5301C44.2566 25.4481 44.2844 25.3553 44.2888 25.26Z"/>
    <path d="M44.6789 27.18C43.9387 27.68 43.2186 28.18 42.5085 28.73C41.7983 29.28 41.2482 29.73 40.6281 30.26C40.5692 30.2981 40.5195 30.3487 40.4823 30.4081C40.4451 30.4676 40.4214 30.5344 40.4128 30.604C40.4042 30.6736 40.411 30.7442 40.4326 30.8109C40.4543 30.8776 40.4902 30.9387 40.5381 30.99C40.5808 31.0466 40.6348 31.0936 40.6968 31.1281C40.7587 31.1626 40.8271 31.1838 40.8977 31.1904C40.9683 31.197 41.0395 31.1888 41.1067 31.1663C41.1739 31.1439 41.2358 31.1077 41.2882 31.06C41.5283 30.89 41.7483 30.7 41.9883 30.52L45.139 28.12C45.2475 28.0567 45.3418 27.9716 45.4158 27.87C45.4898 27.7685 45.542 27.6527 45.5691 27.53C45.5584 27.4321 45.5211 27.339 45.4613 27.2607C45.4015 27.1824 45.3215 27.122 45.2298 27.086C45.1381 27.0499 45.0383 27.0396 44.9412 27.0562C44.8441 27.0728 44.7534 27.1156 44.6789 27.18Z"/>
    <path d="M38.1276 26.1C38.3476 26.4 38.6476 26.34 38.9176 26.15L42.4676 23.5C42.5525 23.4571 42.6237 23.3913 42.6732 23.31C42.7227 23.2287 42.7485 23.1352 42.7476 23.04C42.7476 22.54 42.2876 22.34 41.8476 22.66C40.6276 23.53 39.4376 24.44 38.2376 25.33C38.1735 25.3682 38.1188 25.4202 38.0775 25.4823C38.0362 25.5444 38.0092 25.6149 37.9987 25.6887C37.9881 25.7626 37.9942 25.8378 38.0165 25.909C38.0388 25.9801 38.0768 26.0454 38.1276 26.1Z"/>
    <path d="M27.2254 21.75C27.8455 22.99 27.8555 22.99 29.0557 22.25L29.1557 22.19C32.1563 20.3 35.1569 18.32 37.9975 16.19C38.6076 15.74 38.6176 15.41 38.0975 14.85C36.734 13.3651 35.4962 11.7696 34.3968 10.08C33.4912 8.69213 32.6728 7.24935 31.9463 5.76C31.8263 5.5 31.7063 5.2 31.3062 5.2C31.1562 5.21686 31.014 5.27579 30.8961 5.37C27.6554 7.37 24.5148 9.51 21.4342 11.75C20.7941 12.22 20.7641 12.55 21.3042 13.16C23.6642 15.737 25.6568 18.6277 27.2254 21.75ZM22.6744 12.17C25.1049 10.4 27.5954 8.74 30.1459 7.17C30.8761 6.71 30.9561 6.77 31.4362 7.5C33.027 10.1594 34.837 12.6815 36.8473 15.04C37.1073 15.31 37.0773 15.55 36.7673 15.77C34.3168 17.57 31.7663 19.26 29.2258 20.88C29.0776 20.9678 28.9151 21.0288 28.7457 21.06C28.2856 21.13 28.1855 20.89 28.0355 20.68C26.6852 18.68 25.545 16.55 24.0347 14.68C23.5646 14.12 23.1045 13.55 22.6244 13C22.3044 12.68 22.3244 12.42 22.6744 12.17Z"/>
    </g>
    <defs>
    <clipPath id="clip0_370_1904">
    <rect width="50" height="49.25" fill="white"/>
    </clipPath>
    </defs>
</svg>
