<svg width="50" height="50" viewBox="0 0 50 50" fill="none" xmlns="http://www.w3.org/2000/svg">
<g clip-path="url(#clip0_371_1922)">
<path d="M43.7055 5.21469C43.0404 5.21469 42.3753 5.21469 41.7204 5.21469C41.2394 5.21469 41.0962 5.03418 41.0962 4.59295C41.0962 3.42969 41.0962 2.26643 41.0962 1.1132C41.1319 0.716695 41.0464 0.318742 40.8506 -0.0299988L40.5027 -0.0299988C39.2338 1.51433 37.9445 3.03859 36.6859 4.59295C36.5438 4.79051 36.3529 4.94941 36.1309 5.05467C35.9089 5.15993 35.6632 5.2081 35.417 5.19463C31.5286 5.19463 27.6401 5.19463 23.7517 5.19463C23.3733 5.18205 22.9963 5.24581 22.6441 5.38197C22.292 5.51812 21.9721 5.72375 21.7044 5.98611C21.4367 6.24846 21.2268 6.56193 21.0879 6.90707C20.949 7.25221 20.8839 7.62165 20.8968 7.99246C20.8968 10.2287 20.8968 12.475 20.8968 14.7113C20.8968 15.5837 20.8968 15.5837 20.0167 15.5837C15.3915 15.5837 10.8073 15.5837 6.13092 15.5837C5.34284 15.659 4.6059 16.0002 4.04599 16.5489C3.48609 17.0976 3.13797 17.8198 3.0611 18.5921C3.0611 25.9026 3.0611 33.2131 3.0611 40.5135C3.03382 40.7909 3.09078 41.07 3.22483 41.3158C3.46752 41.7772 3.80735 42.183 4.22187 42.5062C4.63639 42.8295 5.11616 43.0629 5.62952 43.191C6.80415 43.3296 7.98921 43.3631 9.17004 43.2913C9.71238 43.2913 9.8454 43.4718 9.8454 43.9732C9.8454 45.6078 9.8454 47.2323 9.8454 48.8669C9.8454 49.8697 10.0091 50.0402 11.0631 50.0201C11.5952 50.0201 11.8306 49.6391 12.0864 49.3182C12.3422 48.9973 12.4343 48.7867 12.6389 48.546C13.9419 47.0418 15.1869 45.4975 16.3739 43.913C16.5135 43.7118 16.7035 43.549 16.9256 43.4401C17.1478 43.3313 17.3947 43.28 17.6427 43.2913C22.8683 43.2913 28.1006 43.2913 33.3398 43.2913C33.8044 43.3079 34.2677 43.231 34.7009 43.0656C35.1342 42.9001 35.5283 42.6495 35.859 42.3292C36.1897 42.0088 36.45 41.6255 36.6239 41.2029C36.7978 40.7803 36.8815 40.3273 36.8701 39.8717C36.8701 35.4293 36.8701 30.9868 36.8701 26.5444C36.8701 25.9728 37.044 25.8124 37.617 25.8224C39.6636 25.8224 41.7101 25.8224 43.6953 25.8224C44.0619 25.8277 44.426 25.7613 44.766 25.6268C45.1061 25.4924 45.4153 25.2927 45.6755 25.0396C45.9357 24.7864 46.1417 24.4849 46.2814 24.1526C46.4211 23.8204 46.4916 23.4641 46.4888 23.1048V7.99246C46.5028 7.62824 46.4408 7.26506 46.3065 6.92515C46.1723 6.58525 45.9686 6.27578 45.708 6.01572C45.4475 5.75566 45.1355 5.55047 44.7911 5.41273C44.4468 5.27499 44.0774 5.2076 43.7055 5.21469ZM35.0998 39.4305C35.1052 39.6766 35.0606 39.9214 34.9686 40.1504C34.8765 40.3795 34.7388 40.5883 34.5636 40.7647C34.3883 40.9412 34.179 41.0816 33.9478 41.1779C33.7166 41.2743 33.4682 41.3245 33.217 41.3258H17.7041H16.4455C16.2621 41.3177 16.0798 41.3581 15.9177 41.4427C15.7557 41.5274 15.6199 41.6533 15.5246 41.8071C14.5013 43.2311 13.3348 44.4846 12.3013 45.8685C12.2194 45.9788 12.1375 46.1292 11.9636 46.059C11.7896 45.9889 11.851 45.7983 11.851 45.668C11.851 44.5649 11.851 43.4618 11.851 42.3687C11.851 41.6066 11.544 41.2957 10.7664 41.2957H6.73465C6.48943 41.3157 6.24272 41.2828 6.0118 41.1995C5.78088 41.1162 5.57133 40.9845 5.39782 40.8135C5.22431 40.6425 5.09104 40.4364 5.00733 40.2096C4.92362 39.9828 4.89151 39.7409 4.91323 39.5007C4.91323 32.8153 4.91323 26.1567 4.91323 19.5248C4.91323 17.7698 5.44533 17.2584 7.25652 17.2584H20.1293H32.8077C34.3835 17.2584 35.0998 17.9604 35.0998 19.4846V39.4305ZM43.6544 24.8597C41.6078 24.8597 39.5613 24.8597 37.5147 24.8597C37.0133 24.8597 36.8394 24.7093 36.8598 24.2179C36.8598 23.2351 36.8598 22.2524 36.8598 21.2696C36.8598 20.7883 36.9928 20.6178 37.5045 20.6278C39.0906 20.6278 40.6664 20.6278 42.2525 20.6278C42.4329 20.6428 42.6144 20.6428 42.7948 20.6278C42.9071 20.6203 43.0124 20.5719 43.0901 20.4921C43.1677 20.4123 43.2121 20.3069 43.2144 20.1966C43.2185 20.1373 43.2107 20.0778 43.1913 20.0215C43.172 19.9652 43.1414 19.9132 43.1015 19.8685C43.0616 19.8237 43.013 19.7872 42.9586 19.7609C42.9042 19.7346 42.8451 19.7191 42.7846 19.7153C42.5836 19.7001 42.3818 19.7001 42.1808 19.7153C40.6664 19.7153 39.111 19.7153 37.617 19.7153C37.0542 19.7153 36.7984 19.5949 36.8496 19.0033C36.9001 18.6334 36.8687 18.2571 36.7575 17.9002C36.6142 17.5091 36.9928 17.5793 37.1975 17.5793H42.5492C42.9176 17.5793 43.2246 17.4489 43.2144 17.0578C43.2041 16.6668 42.8664 16.6166 42.539 16.6166C40.5538 16.6166 38.5687 16.6166 36.5938 16.6166C36.4356 16.6259 36.2772 16.604 36.1278 16.5524C35.9785 16.5007 35.8411 16.4203 35.724 16.3158C35.1766 15.8464 34.4655 15.6022 33.7388 15.6339H22.8C21.9405 15.6339 21.9405 15.6339 21.9405 14.8015V8.1128C21.9405 6.7189 22.5033 6.16735 23.987 6.15733H35.7956C36.0419 6.1767 36.2891 6.13333 36.5132 6.03141C36.7374 5.9295 36.9308 5.77251 37.0747 5.5757C37.9445 4.47261 38.8552 3.3996 39.7557 2.31657C39.7888 2.2495 39.8447 2.19581 39.9138 2.1647C39.9828 2.1336 40.0608 2.12702 40.1343 2.14609V5.10438C40.1343 6.10719 40.2162 6.10719 41.2394 6.10719C42.0581 6.10719 42.8869 6.10719 43.7055 6.10719C43.9419 6.08662 44.18 6.11763 44.4027 6.19799C44.6254 6.27835 44.8271 6.40605 44.9935 6.57193C45.1598 6.73781 45.2865 6.93774 45.3646 7.15734C45.4427 7.37695 45.4702 7.61079 45.4451 7.84204V23.1048C45.4729 23.3418 45.4457 23.582 45.3655 23.8073C45.2853 24.0326 45.1543 24.2372 44.9821 24.406C44.8099 24.5747 44.6011 24.7031 44.3712 24.7817C44.1413 24.8603 43.8963 24.8869 43.6544 24.8597Z" />
<path d="M23.1581 30.6859H14.5013C12.4035 30.6859 10.2956 30.6859 8.19789 30.6859C8.07789 30.669 7.95546 30.6826 7.84239 30.7255C7.72932 30.7683 7.62942 30.839 7.55232 30.9307C7.47521 31.0224 7.42349 31.132 7.40214 31.249C7.3808 31.3659 7.39054 31.4863 7.43044 31.5985C7.543 32.0698 7.92161 32.1099 8.32068 32.1099H23.2298C23.3887 32.1096 23.5468 32.0894 23.7005 32.0497C23.8385 32.021 23.9613 31.9442 24.0459 31.8336C24.1306 31.7229 24.1715 31.586 24.161 31.4481C24.1303 30.8965 23.9256 30.6859 23.1581 30.6859Z" />
<path d="M20.191 23.9069C20.9482 23.9069 21.3473 23.6362 21.3575 23.1649C21.3677 22.6935 20.9789 22.493 20.2217 22.493C18.1751 22.493 16.1286 22.493 14.082 22.493C12.0355 22.493 9.91729 22.493 7.82982 22.493C7.31818 22.493 7.11353 22.6434 7.11353 23.1649C7.11353 23.6863 7.26702 23.9471 7.86052 23.937C11.9741 23.9069 16.0774 23.917 20.191 23.9069Z" />
<path d="M18.4819 27.3767C18.5638 27.8781 18.9731 27.9382 19.3926 27.9382H25.4606H31.6003C32.204 27.9382 32.4803 27.6574 32.4087 27.126C32.337 26.5945 31.938 26.6045 31.5491 26.6045H22.3397C21.3164 26.6045 20.375 26.6045 19.3926 26.6045C18.8912 26.6446 18.4308 27.0457 18.4819 27.3767Z" />
<path d="M17.6429 34.7673H8.4334C7.94223 34.7673 7.53292 34.8375 7.54316 35.4493C7.55339 36.061 7.72735 36.2014 8.41294 36.2014H17.8066C18.4308 36.2014 18.8299 35.7601 18.615 35.2688C18.4001 34.7774 18.0522 34.7673 17.6429 34.7673Z" />
<path d="M23.3935 23.8267C23.6242 23.8836 23.8616 23.9106 24.0995 23.9069H31.6717C32.1834 23.9069 32.4187 23.5459 32.4085 22.9041C32.3983 22.2623 32.0299 22.483 31.7229 22.483H23.5367C23.4517 22.4747 23.3659 22.4834 23.2844 22.5084C23.2029 22.5334 23.1274 22.5743 23.0625 22.6286C22.9975 22.6829 22.9444 22.7495 22.9063 22.8245C22.8682 22.8994 22.846 22.981 22.8409 23.0646C22.814 23.2371 22.8566 23.413 22.9597 23.5553C23.0628 23.6975 23.2184 23.7949 23.3935 23.8267Z" />
<path d="M12.3424 26.6245C10.9405 26.6245 9.52837 26.6245 8.12649 26.6245C7.57392 26.6245 7.43066 26.9254 7.43066 27.3666C7.43066 27.8079 7.80927 27.9783 8.25951 27.9783H16.1387C16.2579 27.9881 16.3777 27.9881 16.4969 27.9783C16.9062 27.9182 17.2541 27.7477 17.2132 27.2764C17.2085 27.1824 17.1838 27.0905 17.1406 27.0065C17.0975 26.9225 17.0368 26.8484 16.9625 26.7888C16.8882 26.7293 16.802 26.6857 16.7095 26.6608C16.6169 26.636 16.5201 26.6305 16.4252 26.6446C15.0643 26.6446 13.7033 26.6245 12.3424 26.6245Z" />
<path d="M31.7028 30.6759C30.8228 30.6759 29.9428 30.6759 29.0628 30.6759C28.1827 30.6759 27.2618 30.6759 26.3613 30.6759C26.1504 30.6464 25.9359 30.6977 25.7625 30.819C25.5891 30.9404 25.4701 31.1226 25.4301 31.3277C25.3585 31.6887 25.8088 32.0999 26.3102 32.1099H31.7744C32.2451 32.1099 32.634 31.8291 32.5931 31.3578C32.5846 31.254 32.5542 31.1532 32.5039 31.0615C32.4535 30.9698 32.3843 30.8894 32.3007 30.8253C32.217 30.7612 32.1206 30.7149 32.0177 30.6891C31.9148 30.6634 31.8076 30.6589 31.7028 30.6759Z" />
<path d="M20.6412 34.7573C20.5364 34.7452 20.4303 34.755 20.3297 34.7861C20.2291 34.8171 20.1363 34.8686 20.0575 34.9373C19.9787 35.006 19.9156 35.0902 19.8724 35.1845C19.8292 35.2788 19.8069 35.381 19.8069 35.4844C19.8069 35.5877 19.8292 35.6899 19.8724 35.7842C19.9156 35.8785 19.9787 35.9627 20.0575 36.0314C20.1363 36.1001 20.2291 36.1516 20.3297 36.1826C20.4303 36.2137 20.5364 36.2235 20.6412 36.2114C21.0812 36.2114 21.4086 36.0008 21.3677 35.4994C21.3267 34.998 21.0607 34.7874 20.6412 34.7573Z" />
<path d="M42.662 13.4476H31.6107C31.1707 13.4476 30.5874 13.3674 30.5874 13.9691C30.5874 14.5708 31.1707 14.4505 31.6107 14.4505H42.662C42.9895 14.4505 43.2862 14.3 43.2658 13.939C43.2453 13.578 42.969 13.4577 42.662 13.4476Z" />
<path d="M35.6319 11.3117H42.4878C42.846 11.3117 43.2348 11.3117 43.245 10.8403C43.2553 10.369 42.8664 10.3389 42.5083 10.3389H35.6524C35.2737 10.3389 34.8542 10.3389 34.8644 10.8504C34.8747 11.3618 35.284 11.3117 35.6319 11.3117Z" />
<path d="M28.7147 13.4376H24.8672C24.5091 13.4376 24.1816 13.568 24.1816 13.9491C24.1816 14.3301 24.4886 14.4304 24.8161 14.4304H28.725C29.0524 14.4304 29.3696 14.3101 29.3799 13.9591C29.3901 13.6081 29.0627 13.4477 28.7147 13.4376Z" />
<path d="M33.1966 11.2816C33.4626 11.2816 33.6059 11.1011 33.657 10.8303C33.7082 10.5596 33.4524 10.359 33.1556 10.369C33.0887 10.3593 33.0204 10.3638 32.9554 10.3822C32.8904 10.4007 32.8303 10.4327 32.779 10.476C32.7278 10.5193 32.6867 10.5729 32.6585 10.6332C32.6303 10.6935 32.6157 10.759 32.6157 10.8253C32.6157 10.8916 32.6303 10.9571 32.6585 11.0174C32.6867 11.0777 32.7278 11.1313 32.779 11.1746C32.8303 11.218 32.8904 11.2499 32.9554 11.2684C33.0204 11.2868 33.0887 11.2913 33.1556 11.2816H33.1966Z" />
</g>
<defs>
<clipPath id="clip0_371_1922">
<rect width="50" height="50" fill="white"/>
</clipPath>
</defs>
</svg>
