<svg width="50" height="50" viewBox="0 0 50 50" fill="none" xmlns="http://www.w3.org/2000/svg">
<path fill-rule="evenodd" clip-rule="evenodd" d="M41.7476 25.6199C40.8774 25.1192 39.9217 24.7847 38.9292 24.6334C38.5824 24.5576 38.4089 24.4166 38.3656 24.0589C38.2787 23.4567 38.1593 22.8596 38.0078 22.2704C37.3243 19.0044 35.5225 16.0793 32.9131 13.9996C30.8951 12.3116 28.3945 11.3061 25.7697 11.127C22.7319 10.8526 19.7012 11.7224 17.2713 13.566C15.005 15.2306 13.321 17.567 12.4584 20.2433C11.9964 21.4808 11.7046 22.7754 11.5912 24.0914C11.595 24.166 11.5824 24.2404 11.5542 24.3096C11.5261 24.3787 11.4831 24.4408 11.4283 24.4915C11.3735 24.5421 11.3082 24.5801 11.2371 24.6028C11.166 24.6255 11.0907 24.6322 11.0167 24.6226C10.7389 24.6008 10.4599 24.6008 10.1821 24.6226C9.61743 24.6615 9.06749 24.8198 8.56857 25.087C8.06966 25.3542 7.63313 25.7243 7.28783 26.1727C6.95029 26.6382 6.72812 27.1772 6.6396 27.7453C6.55108 28.3135 6.59875 28.8945 6.77867 29.4407C6.9586 29.9868 7.26564 30.4824 7.67453 30.8866C8.08342 31.2909 8.58247 31.5923 9.1306 31.766C10.4145 31.9988 11.7255 32.0426 13.0221 31.8961C13.5749 31.8961 13.7809 31.6901 13.77 31.159V25.3489C13.77 24.9369 13.6616 24.7418 13.1955 24.731C12.7294 24.7201 12.4042 24.46 12.5126 23.8746C12.6815 22.652 12.9869 21.4521 13.4232 20.2975C14.1068 18.5273 15.1723 16.9296 16.5438 15.6181C17.9152 14.3066 19.5589 13.3135 21.3579 12.7096C22.9485 12.1964 24.6343 12.0481 26.29 12.276C27.9776 12.4918 29.5998 13.0646 31.0487 13.9562C32.1917 14.6921 33.2153 15.5987 34.0838 16.6445C34.8031 17.466 35.4017 18.3858 35.8616 19.3761C36.5611 20.7925 37.0156 22.3172 37.2057 23.8855C37.2599 24.2974 37.2057 24.6117 36.6962 24.6659C36.5798 24.6682 36.4654 24.6962 36.361 24.7478C36.2567 24.7994 36.165 24.8734 36.0926 24.9645C36.0201 25.0556 35.9686 25.1616 35.9418 25.2748C35.915 25.3881 35.9135 25.5059 35.9374 25.6199V31.2891C35.9374 31.7769 36.1326 32.1237 36.7179 31.9937C37.2821 31.8683 37.3025 32.1054 37.3324 32.4528L37.3358 32.4923C37.3683 32.8275 37.3683 33.1651 37.3358 33.5004C37.1732 34.8012 36.9347 34.9963 35.6339 34.9963H32.5121C32.3243 35.0207 32.1335 34.9955 31.9585 34.9232C31.7836 34.851 31.6306 34.7341 31.5148 34.5844C31.2054 34.2061 30.8027 33.9152 30.3465 33.7403C29.8902 33.5654 29.3962 33.5126 28.9132 33.5871C28.455 33.6582 28.0263 33.8579 27.6771 34.163C27.3279 34.4681 27.0724 34.8661 26.9404 35.3106C26.97 35.668 27.0836 36.0134 27.272 36.3186C27.4603 36.6237 27.7181 36.8801 28.0244 37.0667C28.5949 37.3724 29.2545 37.4682 29.8884 37.3375C30.5223 37.2068 31.0902 36.8577 31.4931 36.3513C31.6136 36.1946 31.7701 36.0694 31.9494 35.9863C32.1288 35.9033 32.3255 35.8648 32.5229 35.8743H36.1C36.5568 35.9159 37.0135 35.7952 37.3901 35.5336C37.7668 35.2719 38.0392 34.886 38.1596 34.4435C38.3168 33.8503 38.3168 33.2264 38.1596 32.6332C38.0729 32.1888 38.1596 31.9286 38.6799 31.9178C39.4557 31.9465 40.2262 31.7788 40.9198 31.4301C41.6134 31.0814 42.2076 30.5631 42.6473 29.9233C43.0952 29.2323 43.2519 28.3923 43.0834 27.5863C42.9149 26.7803 42.4348 26.0735 41.7476 25.6199ZM10.3121 30.4002C10.3121 30.888 9.98694 31.0831 9.48831 30.9639C8.92845 30.7659 8.44403 30.3987 8.10219 29.9132C7.76036 29.4276 7.57804 28.8477 7.58051 28.2539C7.56198 27.6532 7.74206 27.0632 8.09284 26.5753C8.44363 26.0873 8.94555 25.7286 9.52083 25.5548C10.1929 25.4031 10.6048 25.6199 10.4964 26.2811C10.3582 27.3138 10.348 28.3404 10.3379 29.3701C10.3345 29.713 10.3311 30.0563 10.323 30.4002H10.3121ZM12.8595 26.0643V28.2322C12.8311 28.9567 12.8673 29.6822 12.9679 30.4002C12.9961 30.4772 12.9961 30.5617 12.9679 30.6387C12.6949 31.079 12.286 31.0114 11.8982 30.9473C11.8085 30.9324 11.72 30.9178 11.6346 30.9097C11.2442 30.8725 11.2683 30.6759 11.3036 30.3881C11.3094 30.3404 11.3156 30.2901 11.3202 30.2376C11.4395 28.8889 11.4395 27.5323 11.3202 26.1835C11.3202 25.7282 11.3853 25.544 11.7755 25.4789C12.4801 25.4031 12.8487 25.5765 12.8703 26.0751L12.8595 26.0643ZM30.0623 36.0803H29.3685C29.0942 36.0965 28.8191 36.0965 28.5447 36.0803C28.3857 36.0657 28.2369 35.996 28.124 35.8831C28.0111 35.7702 27.9414 35.6214 27.9268 35.4624C27.911 35.3841 27.9109 35.3034 27.9263 35.2251C27.9417 35.1467 27.9725 35.0721 28.0168 35.0057C28.0611 34.9392 28.1181 34.8822 28.1845 34.8378C28.2509 34.7934 28.3254 34.7625 28.4038 34.747C28.997 34.606 29.6122 34.5839 30.214 34.6819C30.6151 34.8228 30.9078 35.0396 30.8319 35.4949C30.8102 35.6745 30.7181 35.8382 30.5758 35.95C30.4336 36.0618 30.2528 36.1125 30.0731 36.0911L30.0623 36.0803ZM38.4631 30.5411C38.4877 30.6459 38.4725 30.756 38.4204 30.8502C38.3683 30.9444 38.2831 31.0158 38.1813 31.0506C37.8311 31.1773 37.4475 31.1773 37.0973 31.0506C37.0017 31.0251 36.9198 30.9632 36.8692 30.8781C36.8185 30.793 36.8032 30.6916 36.8263 30.5953C36.931 29.8195 36.9709 29.0363 36.9455 28.2539C36.9682 27.5292 36.9283 26.8038 36.8263 26.086C36.7994 25.9925 36.8105 25.8923 36.8572 25.807C36.9039 25.7217 36.9824 25.6584 37.0756 25.6307C37.4238 25.493 37.8114 25.493 38.1596 25.6307C38.2494 25.669 38.3228 25.738 38.3664 25.8254C38.4101 25.9127 38.4213 26.0128 38.3981 26.1076C38.2524 27.5871 38.2778 29.0784 38.474 30.552L38.4631 30.5411ZM39.8831 31.094C39.5037 31.1698 39.2111 30.9422 39.2761 30.5628C39.4007 29.2188 39.4333 27.868 39.3737 26.5196C39.3737 25.6632 39.7964 25.4356 40.6094 25.7391C41.0997 25.9574 41.519 26.3088 41.8198 26.7533C42.1206 27.1977 42.2908 27.7176 42.3112 28.2539C42.2769 28.9285 42.0216 29.573 41.5848 30.0882C41.148 30.6034 40.5538 30.9606 39.894 31.1048L39.8831 31.094Z" fill="#0066B3"/>
<path fill-rule="evenodd" clip-rule="evenodd" d="M23.4356 18.9868C23.8779 18.8123 24.3514 18.7309 24.8266 18.7476H24.8483C25.3376 18.7161 25.8283 18.7846 26.2903 18.949C26.7523 19.1134 27.1759 19.3701 27.5354 19.7037C27.8949 20.0372 28.1826 20.4405 28.3811 20.8889C28.5795 21.3373 28.6845 21.8215 28.6897 22.3118C28.6949 22.8021 28.6001 23.2884 28.4111 23.7409C28.2221 24.1934 27.9429 24.6026 27.5905 24.9436C27.2382 25.2847 26.82 25.5503 26.3616 25.7244C25.9031 25.8984 25.414 25.9773 24.9241 25.9561C24.4385 25.9855 23.9522 25.9124 23.4967 25.7416C23.0411 25.5707 22.6266 25.306 22.2801 24.9646C21.9336 24.6232 21.6627 24.2126 21.4851 23.7597C21.3076 23.3068 21.2273 22.8216 21.2494 22.3356C21.2313 21.8604 21.3113 21.3867 21.4845 20.9438C21.6577 20.501 21.9203 20.0987 22.256 19.762C22.5917 19.4252 22.9933 19.1614 23.4356 18.9868ZM23.0933 24.1664C23.5806 24.6538 24.2353 24.9371 24.9241 24.9588C25.5787 24.8992 26.1874 24.5971 26.6306 24.1117C27.0738 23.6264 27.3195 22.9928 27.3195 22.3356C27.3195 21.6783 27.0738 21.0448 26.6306 20.5594C26.1874 20.074 25.5787 19.7719 24.9241 19.7123C24.5788 19.7095 24.2364 19.7753 23.9169 19.9061C23.5973 20.0369 23.307 20.2301 23.0628 20.4742C22.8186 20.7184 22.6255 21.0087 22.4947 21.3283C22.3639 21.6479 22.298 21.9903 22.3009 22.3356C22.3226 23.0244 22.606 23.6791 23.0933 24.1664Z" fill="#0066B3"/>
<path fill-rule="evenodd" clip-rule="evenodd" d="M27.2248 30.0684C27.1964 30.4551 27.1678 30.8433 27.1678 31.2351C27.157 31.6795 26.951 31.8421 26.55 31.8746H23.1788C22.7777 31.8746 22.5718 31.712 22.5718 31.2567C22.588 30.939 22.588 30.6206 22.5718 30.3028V29.3489C22.5892 29.2221 22.5661 29.093 22.5058 28.9801C22.4454 28.8671 22.3509 28.7762 22.2357 28.7202C22.0237 28.6373 21.8901 28.7817 21.7682 28.9134C21.7467 28.9365 21.7257 28.9593 21.7046 28.9804L21.6936 28.9911C21.2206 29.4534 20.758 29.9055 20.3062 30.3787C20.0678 30.6172 19.8618 30.6389 19.6125 30.3787C18.7164 29.4537 17.8275 28.5576 16.9459 27.6904C16.8877 27.6532 16.8398 27.6019 16.8067 27.5413C16.7735 27.4807 16.7561 27.4127 16.7561 27.3436C16.7561 27.2745 16.7735 27.2065 16.8067 27.1459C16.8398 27.0853 16.8877 27.034 16.9459 26.9967C17.2639 26.6932 17.5722 26.38 17.8806 26.0668C18.0347 25.9103 18.1889 25.7537 18.3442 25.5984C18.3649 25.5777 18.3871 25.5571 18.4098 25.5361C18.5417 25.4139 18.6861 25.28 18.5936 25.0672C18.5389 24.9509 18.4482 24.8554 18.335 24.7949C18.2217 24.7343 18.0919 24.712 17.9648 24.7312H16.057C15.6343 24.742 15.4392 24.6011 15.4392 24.1458V20.7096C15.4283 20.3627 15.5259 20.2001 15.9161 20.1134C16.5435 20.0164 17.1791 19.9837 17.8131 20.0159C18.0949 20.0159 18.3117 20.005 18.4418 19.6907C18.5432 19.4457 18.3944 19.3324 18.2365 19.2122C18.1918 19.1782 18.1464 19.1436 18.1058 19.1053C17.719 18.7375 17.3651 18.345 17.0083 17.9493L16.8483 17.772C16.6099 17.5119 16.7074 17.2842 16.9242 17.0458C17.7589 16.1894 18.5936 15.3222 19.3957 14.4442C19.4397 14.373 19.4999 14.3132 19.5715 14.2696C19.643 14.2261 19.7238 14.2001 19.8073 14.1938C19.8908 14.1874 19.9746 14.2009 20.0519 14.2331C20.1292 14.2654 20.1978 14.3154 20.252 14.3792C20.5843 14.6383 20.8758 14.9341 21.1665 15.2291C21.35 15.4154 21.5333 15.6013 21.7263 15.7775C21.7515 15.8009 21.7764 15.8265 21.8016 15.8522C21.9276 15.9812 22.0586 16.1154 22.2574 16.016C22.3641 15.9653 22.4526 15.8829 22.5108 15.7801C22.569 15.6773 22.594 15.559 22.5826 15.4415C22.5826 15.25 22.585 15.044 22.5874 14.838C22.5922 14.4261 22.5971 14.0142 22.5826 13.7179C22.5609 13.2735 22.6585 12.9483 23.1679 12.9483C24.3637 12.8128 25.571 12.8128 26.7668 12.9483C27.1787 13.0025 27.2979 13.2301 27.2979 13.5879V15.3764C27.2829 15.5016 27.3071 15.6283 27.3673 15.739C27.4275 15.8497 27.5207 15.9389 27.6339 15.9943C27.8418 16.0847 27.9743 15.949 28.1006 15.8197C28.1258 15.7939 28.1507 15.7684 28.1759 15.745C28.6137 15.2953 29.0808 14.8753 29.5743 14.4876C29.8561 14.2599 30.0295 14.2491 30.2789 14.4876C30.6908 14.8995 31.1081 15.3032 31.5254 15.707C31.9428 16.1108 32.3601 16.5146 32.772 16.9265C32.85 16.9937 32.9125 17.0769 32.9554 17.1704C32.9983 17.2639 33.0205 17.3656 33.0205 17.4685C33.0205 17.5714 32.9983 17.6731 32.9554 17.7666C32.9125 17.8602 32.85 17.9433 32.772 18.0105C32.4266 18.4097 32.0416 18.7729 31.623 19.0945L31.6179 19.0977C31.4133 19.2269 31.1903 19.3677 31.2978 19.6365C31.3487 19.7539 31.4367 19.8514 31.5483 19.914C31.6599 19.9767 31.7889 20.001 31.9157 19.9833H33.8885C34.3004 19.9725 34.4522 20.1351 34.4522 20.547V24.1133C34.4522 24.5686 34.2788 24.7095 33.8452 24.7095H31.8723C31.7547 24.6981 31.6365 24.7232 31.5337 24.7813C31.4309 24.8395 31.3485 24.928 31.2978 25.0347C31.1957 25.2482 31.3401 25.3822 31.4721 25.5048C31.4943 25.5254 31.5161 25.5456 31.5363 25.5658L32.707 26.7365C32.7897 26.7945 32.8573 26.8716 32.9039 26.9612C32.9506 27.0508 32.9749 27.1504 32.9749 27.2514C32.9749 27.3525 32.9506 27.452 32.9039 27.5417C32.8573 27.6313 32.7897 27.7083 32.707 27.7663C31.9048 28.601 31.1027 29.4465 30.3114 30.292C30.0187 30.6064 29.7802 30.6172 29.4767 30.292C29.1658 29.9508 28.839 29.6307 28.5111 29.3097C28.3703 29.1718 28.2293 29.0337 28.0892 28.8937L28.0636 28.8679C27.931 28.7341 27.7949 28.5967 27.6014 28.6986C27.506 28.7459 27.4253 28.8183 27.368 28.9081C27.3107 28.9978 27.279 29.1016 27.2762 29.208C27.267 29.4945 27.2459 29.7811 27.2248 30.0684ZM26.3874 29.8584C26.3982 29.7503 26.3982 29.6413 26.3874 29.5332C26.2356 28.6227 26.4632 27.9723 27.5256 27.8097C27.6049 27.7933 27.6648 27.7693 27.7168 27.7485C27.8709 27.6869 27.9547 27.6533 28.2627 27.9289C28.4978 28.1393 28.8036 28.3745 29.0813 28.5879C29.29 28.7484 29.4827 28.8966 29.6176 29.0129C29.932 29.2839 30.0512 29.3598 30.4415 28.9262C30.5666 28.7872 30.6916 28.6471 30.8171 28.5066C31.083 28.2088 31.3505 27.9092 31.623 27.6146C31.8832 27.3869 31.8181 27.2027 31.623 27.0184C31.5409 26.9387 31.4583 26.8596 31.3757 26.7805C31.0876 26.5045 30.8002 26.2293 30.539 25.9344C30.489 25.875 30.4119 25.8291 30.3348 25.7832C30.1447 25.6701 29.9545 25.5569 30.1705 25.2407C30.2683 25.0974 30.3166 24.9214 30.3651 24.7447C30.4669 24.3734 30.5697 23.999 31.1352 23.9182C31.6385 23.8554 32.1457 23.83 32.6528 23.8423C33.2598 23.864 33.4766 23.6147 33.4766 23.0077C33.4766 21.1649 33.3574 21.0456 31.5146 21.0456C31.2884 21.0814 31.057 21.0296 30.8677 20.9007C30.6783 20.7718 30.5453 20.5755 30.4957 20.3519L30.4582 20.2465C30.1366 19.3436 30.1313 19.3288 30.8209 18.6392C30.8889 18.5712 30.956 18.5023 31.0233 18.4333C31.1918 18.2603 31.3612 18.0865 31.5471 17.9238C31.6232 17.8746 31.6857 17.8072 31.729 17.7277C31.7723 17.6482 31.795 17.5591 31.795 17.4685C31.795 17.378 31.7723 17.2888 31.729 17.2093C31.6857 17.1298 31.6232 17.0624 31.5471 17.0132C31.1424 16.6495 30.7789 16.2424 30.4631 15.7992C30.2572 15.474 30.1054 15.3114 29.661 15.7341C29.4705 15.9153 29.2741 16.0905 29.0776 16.2657C28.8157 16.4993 28.5538 16.733 28.306 16.9807C28.2244 17.0746 28.1125 17.1369 27.9896 17.1567C27.8668 17.1765 27.7409 17.1526 27.6339 17.0891C26.3007 16.4929 26.1055 16.1135 26.4199 14.6285C26.4409 14.5065 26.4409 14.3819 26.4199 14.2599C26.3874 13.9673 26.2139 13.7179 25.9321 13.7938C25.3925 13.8928 24.8424 13.922 24.2953 13.8805C23.8509 13.9022 23.6341 14.054 23.6341 14.5418V16.0051C23.6341 16.0581 23.6404 16.1087 23.6465 16.1568C23.669 16.3354 23.6874 16.4818 23.3631 16.6013C23.1057 16.6961 22.8864 16.8206 22.6708 16.9429C22.5414 17.0164 22.4133 17.0891 22.2791 17.1542C22.1633 17.2257 22.0251 17.252 21.8911 17.228C21.7571 17.204 21.6366 17.1314 21.5528 17.0241C21.1734 16.5905 20.6098 16.0485 20.3496 15.7992C20.3225 15.7732 20.2972 15.7479 20.2733 15.7239C20.068 15.5182 19.9609 15.4109 19.6017 15.7992C19.2006 16.2328 18.7778 16.6447 18.3442 17.0566C18.2727 17.1041 18.214 17.1685 18.1734 17.2441C18.1328 17.3198 18.1115 17.4043 18.1115 17.4902C18.1115 17.5761 18.1328 17.6606 18.1734 17.7362C18.214 17.8119 18.2727 17.8763 18.3442 17.9238C18.5123 18.081 18.6749 18.249 18.8375 18.417C19 18.585 19.1626 18.753 19.3307 18.9102C19.4634 19.0159 19.5569 19.163 19.5962 19.3281C19.6355 19.4931 19.6183 19.6666 19.5475 19.8207L19.5052 19.9538C19.3421 20.4687 19.2559 20.7408 19.0703 20.8846C18.8623 21.0456 18.5295 21.0456 17.8239 21.0456C16.4364 21.0456 16.4364 21.0565 16.4364 22.444C16.4364 23.8315 16.4364 23.9182 17.8673 23.8315C18.2148 23.7563 18.5779 23.8195 18.8795 24.0077C19.181 24.196 19.3974 24.4944 19.4824 24.8396C19.5228 24.9402 19.5699 25.038 19.6233 25.1323C19.7751 25.3491 19.7101 25.5008 19.5258 25.6742C19.3352 25.8602 19.1486 26.0481 18.9625 26.2355C18.7148 26.485 18.468 26.7336 18.2142 26.975C18.1839 27.0066 18.1546 27.0353 18.1273 27.062C17.9292 27.2561 17.8331 27.3502 18.2142 27.7121C18.6477 28.124 19.0597 28.5468 19.4716 28.9804C19.519 29.0519 19.5835 29.1106 19.6591 29.1512C19.7348 29.1918 19.8193 29.2131 19.9052 29.2131C19.991 29.2131 20.0756 29.1918 20.1512 29.1512C20.2269 29.1106 20.2913 29.0519 20.3388 28.9804C20.7449 28.518 21.1991 28.1001 21.6937 27.7338C21.8238 27.6471 21.9214 27.5821 22.0948 27.5821C22.2978 27.6036 22.4946 27.6651 22.6738 27.763C22.853 27.8609 23.0111 27.9932 23.139 28.1523C23.267 28.3115 23.3622 28.4943 23.4192 28.6904C23.4763 28.8864 23.494 29.0918 23.4715 29.2947V29.4248L23.4688 29.6081C23.4585 30.2828 23.4534 30.6174 23.6182 30.7829C23.7803 30.9457 24.1069 30.9447 24.7547 30.9428C24.8286 30.9426 24.9066 30.9424 24.989 30.9424H25.3034C25.8454 30.9424 26.1164 30.9424 26.2519 30.8069C26.3874 30.6714 26.3874 30.4004 26.3874 29.8584Z" fill="#0066B3"/>
<path fill-rule="evenodd" clip-rule="evenodd" d="M21.9708 1.25472C23.6438 -0.41824 26.3562 -0.418242 28.0292 1.25472L48.7453 21.9708C50.4182 23.6438 50.4182 26.3562 48.7453 28.0292L28.0292 48.7453C26.3562 50.4182 23.6438 50.4182 21.9708 48.7453L1.25472 28.0292C-0.418239 26.3562 -0.418243 23.6438 1.25472 21.9708L21.9708 1.25472ZM26.8932 2.39066L47.6093 23.1068C48.6549 24.1524 48.6549 25.8476 47.6093 26.8932L26.8932 47.6093C25.8476 48.6549 24.1524 48.6549 23.1068 47.6093L2.39066 26.8932C1.34506 25.8476 1.34506 24.1524 2.39066 23.1068L23.1068 2.39066C24.1524 1.34506 25.8476 1.34506 26.8932 2.39066Z" fill="#0066B3"/>
</svg>
