<svg width="24" height="24" viewBox="0 0 24 24" fill="none" xmlns="http://www.w3.org/2000/svg">
<path d="M4.5 7H6.16667H19.5" stroke="#D71920" stroke-width="1.8" stroke-linecap="round" stroke-linejoin="round"/>
<path d="M8.66797 7.00002V5.33335C8.66797 4.89133 8.84356 4.4674 9.15612 4.15484C9.46868 3.84228 9.89261 3.66669 10.3346 3.66669H13.668C14.11 3.66669 14.5339 3.84228 14.8465 4.15484C15.159 4.4674 15.3346 4.89133 15.3346 5.33335V7.00002M17.8346 7.00002V18.6667C17.8346 19.1087 17.659 19.5326 17.3465 19.8452C17.0339 20.1578 16.61 20.3334 16.168 20.3334H7.83464C7.39261 20.3334 6.96868 20.1578 6.65612 19.8452C6.34356 19.5326 6.16797 19.1087 6.16797 18.6667V7.00002H17.8346Z" stroke="#D71920" stroke-width="1.8" stroke-linecap="round" stroke-linejoin="round"/>
<path d="M10.332 11.1667V16.1667" stroke="#D71920" stroke-width="1.8" stroke-linecap="round" stroke-linejoin="round"/>
<path d="M13.668 11.1667V16.1667" stroke="#D71920" stroke-width="1.8" stroke-linecap="round" stroke-linejoin="round"/>
</svg>
