<svg width="12" height="16" viewBox="0 0 12 16" fill="none" xmlns="http://www.w3.org/2000/svg">
<path d="M6.00033 14.667L5.6323 15.0055C5.72699 15.1084 5.86046 15.167 6.00033 15.167C6.14019 15.167 6.27366 15.1084 6.36835 15.0055L6.00033 14.667ZM9.77156 10.5665L10.1396 10.905L9.77156 10.5665ZM2.22909 10.5665L2.59711 10.228L2.22909 10.5665ZM2.22909 2.36548L1.86107 2.02701V2.02701L2.22909 2.36548ZM9.77156 2.36548L9.40354 2.70394L9.77156 2.36548ZM6.36835 15.0055L10.1396 10.905L9.40354 10.228L5.6323 14.3285L6.36835 15.0055ZM1.86107 10.905L5.6323 15.0055L6.36835 14.3285L2.59711 10.228L1.86107 10.905ZM1.86107 2.02701C-0.397701 4.48299 -0.397699 8.44897 1.86107 10.905L2.59711 10.228C0.690287 8.15471 0.690286 4.77725 2.59711 2.70394L1.86107 2.02701ZM10.1396 2.02701C7.85871 -0.453013 4.14194 -0.453013 1.86107 2.02701L2.59711 2.70394C4.48182 0.654675 7.51883 0.654675 9.40354 2.70394L10.1396 2.02701ZM10.1396 10.905C12.3984 8.44897 12.3984 4.48299 10.1396 2.02701L9.40354 2.70394C11.3104 4.77725 11.3104 8.15471 9.40354 10.228L10.1396 10.905ZM7.5 6.00037C7.5 6.82879 6.82843 7.50037 6 7.50037V8.50037C7.38071 8.50037 8.5 7.38108 8.5 6.00037H7.5ZM6 4.50037C6.82843 4.50037 7.5 5.17194 7.5 6.00037H8.5C8.5 4.61965 7.38071 3.50037 6 3.50037V4.50037ZM4.5 6.00037C4.5 5.17194 5.17157 4.50037 6 4.50037V3.50037C4.61929 3.50037 3.5 4.61965 3.5 6.00037H4.5ZM6 7.50037C5.17157 7.50037 4.5 6.82879 4.5 6.00037H3.5C3.5 7.38108 4.61929 8.50037 6 8.50037V7.50037Z" fill="#3B4255"/>
</svg>
