<svg width="65" height="65" viewBox="0 0 65 65" fill="none" xmlns="http://www.w3.org/2000/svg">
<path d="M8.67334 54.5339V3.34131H56.8495V53.8534H17.2503C16.8034 53.8534 16.4226 54.1683 16.3413 54.605C15.996 56.4788 14.8636 61.1913 12.1214 61.1913C10.6437 61.1913 8.67334 59.3327 8.67334 54.5339Z" fill="white"/>
<path fill-rule="evenodd" clip-rule="evenodd" d="M15.9307 14.4321C15.9307 13.8798 16.3784 13.4321 16.9307 13.4321H47.9885C48.5408 13.4321 48.9885 13.8798 48.9885 14.4321C48.9885 14.9844 48.5408 15.4321 47.9885 15.4321H16.9307C16.3784 15.4321 15.9307 14.9844 15.9307 14.4321ZM15.9307 21.8614C15.9307 21.3091 16.3784 20.8614 16.9307 20.8614H47.9885C48.5408 20.8614 48.9885 21.3091 48.9885 21.8614C48.9885 22.4137 48.5408 22.8614 47.9885 22.8614H16.9307C16.3784 22.8614 15.9307 22.4137 15.9307 21.8614ZM15.9307 29.2907C15.9307 28.7384 16.3784 28.2907 16.9307 28.2907H47.9885C48.5408 28.2907 48.9885 28.7384 48.9885 29.2907C48.9885 29.843 48.5408 30.2907 47.9885 30.2907H16.9307C16.3784 30.2907 15.9307 29.843 15.9307 29.2907ZM15.9307 36.7149C15.9307 36.1627 16.3784 35.7149 16.9307 35.7149H47.9885C48.5408 35.7149 48.9885 36.1627 48.9885 36.7149C48.9885 37.2672 48.5408 37.7149 47.9885 37.7149H16.9307C16.3784 37.7149 15.9307 37.2672 15.9307 36.7149ZM15.9307 44.1442C15.9307 43.592 16.3784 43.1442 16.9307 43.1442H30.21C30.7622 43.1442 31.21 43.592 31.21 44.1442C31.21 44.6965 30.7622 45.1442 30.21 45.1442H16.9307C16.3784 45.1442 15.9307 44.6965 15.9307 44.1442Z" fill="#B0BEC5"/>
<path d="M61.425 53.3102H57.7789V3.46836C57.7789 2.67617 57.134 2.03125 56.3418 2.03125H8.66329C7.8711 2.03125 7.22618 2.67617 7.22618 3.46836V53.9754C7.2211 56.4281 6.78438 62.9688 14.4828 62.9688H55.5395C61.3742 62.9688 62.2172 56.6719 62.3238 54.2445C62.3492 53.7316 61.9379 53.3102 61.425 53.3102ZM9.2625 53.9754V4.06758H55.7324V53.3051H17.1387C16.702 53.3051 16.3313 53.6148 16.25 54.0414C15.9148 55.8645 14.8078 60.4602 12.1367 60.4602C10.0395 60.4602 9.2625 58.6523 9.2625 53.9754Z" fill="#6FBFF0"/>
</svg>
