<svg width="65" height="65" viewBox="0 0 65 65" fill="none" xmlns="http://www.w3.org/2000/svg">
<path d="M11.0959 7.28213L14.3916 3.27041L17.6873 7.28213L20.983 3.27041L24.2787 7.28213L27.5744 3.27041L30.8701 7.28213L34.1658 3.27041L37.4615 7.28213L40.7572 3.27041L44.0529 7.28213L47.3486 3.27041L50.6443 7.28213L54.0924 3.0876H54.4326L54.3768 62.0142L14.2189 62.0751C5.74863 62.0751 7.44473 44.3981 7.44473 44.3981L7.43457 3.08252H7.62754L11.0959 7.28213Z" fill="white"/>
<path d="M31.6875 19.9214C29.4438 19.9214 27.625 18.1025 27.625 15.8589C27.625 13.6152 29.4438 11.7964 31.6875 11.7964C33.9312 11.7964 35.75 13.6152 35.75 15.8589C35.75 18.1025 33.9312 19.9214 31.6875 19.9214Z" fill="#94D1E0"/>
<path fill-rule="evenodd" clip-rule="evenodd" d="M49.542 24.1821C49.542 23.6298 49.0943 23.1821 48.542 23.1821H29.0014C28.4491 23.1821 28.0014 23.6298 28.0014 24.1821C28.0014 24.7344 28.4491 25.1821 29.0014 25.1821H48.542C49.0943 25.1821 49.542 24.7344 49.542 24.1821ZM21.0893 24.1821C21.0893 23.6298 20.6415 23.1821 20.0893 23.1821H14.1529C13.6006 23.1821 13.1529 23.6298 13.1529 24.1821C13.1529 24.7344 13.6006 25.1821 14.1529 25.1821H20.0893C20.6415 25.1821 21.0893 24.7344 21.0893 24.1821ZM49.542 30.8548C49.542 30.3025 49.0943 29.8548 48.542 29.8548H39.5943C39.0421 29.8548 38.5943 30.3025 38.5943 30.8548C38.5943 31.4071 39.0421 31.8548 39.5943 31.8548H48.542C49.0943 31.8548 49.542 31.4071 49.542 30.8548ZM35.8768 30.8548C35.8768 30.3025 35.429 29.8548 34.8768 29.8548H29.5092C28.9569 29.8548 28.5092 30.3025 28.5092 30.8548C28.5092 31.4071 28.9569 31.8548 29.5092 31.8548H34.8768C35.429 31.8548 35.8768 31.4071 35.8768 30.8548ZM21.0893 30.8548C21.0893 30.3025 20.6415 29.8548 20.0893 29.8548H14.1529C13.6006 29.8548 13.1529 30.3025 13.1529 30.8548C13.1529 31.4071 13.6006 31.8548 14.1529 31.8548H20.0893C20.6415 31.8548 21.0893 31.4071 21.0893 30.8548ZM49.542 37.5274C49.542 36.9752 49.0943 36.5274 48.542 36.5274H32.7186C32.1663 36.5274 31.7186 36.9752 31.7186 37.5274C31.7186 38.0797 32.1663 38.5274 32.7186 38.5274H48.542C49.0943 38.5274 49.542 38.0797 49.542 37.5274ZM21.0893 37.5274C21.0893 36.9752 20.6415 36.5274 20.0893 36.5274H14.1529C13.6006 36.5274 13.1529 36.9752 13.1529 37.5274C13.1529 38.0797 13.6006 38.5274 14.1529 38.5274H20.0893C20.6415 38.5274 21.0893 38.0797 21.0893 37.5274ZM24.2986 49.7353C24.2986 49.183 23.8509 48.7353 23.2986 48.7353H14.1529C13.6006 48.7353 13.1529 49.183 13.1529 49.7353C13.1529 50.2875 13.6006 50.7353 14.1529 50.7353H23.2986C23.8509 50.7353 24.2986 50.2875 24.2986 49.7353Z" fill="#82AEC0"/>
<path fill-rule="evenodd" clip-rule="evenodd" d="M49.3389 44.2002C49.3389 43.6479 48.8912 43.2002 48.3389 43.2002H48.1357C47.5835 43.2002 47.1357 43.6479 47.1357 44.2002C47.1357 44.7525 47.5835 45.2002 48.1357 45.2002H48.3389C48.8912 45.2002 49.3389 44.7525 49.3389 44.2002Z" fill="#82AEC0"/>
<path fill-rule="evenodd" clip-rule="evenodd" d="M45.3218 44.2002C45.3218 43.6479 44.8741 43.2002 44.3218 43.2002H18.8644C18.3121 43.2002 17.8644 43.6479 17.8644 44.2002C17.8644 44.7525 18.3121 45.2002 18.8644 45.2002H44.3218C44.8741 45.2002 45.3218 44.7525 45.3218 44.2002Z" fill="#82AEC0"/>
<path fill-rule="evenodd" clip-rule="evenodd" d="M15.9551 44.2002C15.9551 43.6479 15.5074 43.2002 14.9551 43.2002H14.752C14.1997 43.2002 13.752 43.6479 13.752 44.2002C13.752 44.7525 14.1997 45.2002 14.752 45.2002H14.9551C15.5074 45.2002 15.9551 44.7525 15.9551 44.2002Z" fill="#82AEC0"/>
<path d="M6.54078 1.54395H6.66774C6.70836 1.54395 7.42438 1.55918 8.54665 2.7627L11.0908 5.86035L14.3916 1.84863L17.6873 5.86035L20.9881 1.84863L24.2838 5.86035L27.5845 1.84863L30.8802 5.86035L34.1759 1.84863L37.4716 5.86035L40.7673 1.84863L44.063 5.86035L47.3588 1.84863L50.6545 5.85527L52.3709 3.65137C54.1177 1.5541 55.2095 1.75215 55.2552 1.75723L55.3568 1.77754L55.306 54.1229L58.0431 57.1037L60.9681 53.5947C60.9681 53.5947 62.7353 56.149 60.4552 59.6021C58.6322 62.3697 52.8127 62.0854 50.4361 62.0854L15.9201 62.1158C10.0548 62.0803 8.45524 60.8412 7.31774 55.5854C6.53571 51.9646 6.54078 46.6275 6.54078 44.6166V1.54395ZM29.1029 53.5998L32.3173 57.1088L35.5318 53.5998L38.7463 57.1088L41.9607 53.5998L45.1752 57.1088L48.3896 53.5998L51.6041 57.1088L53.4779 55.0623L53.5236 5.21035L50.6494 8.7041L47.3537 4.69238L44.058 8.7041L40.7623 4.69238L37.4666 8.7041L34.1709 4.69238L30.8752 8.7041L27.5795 4.69238L24.2787 8.7041L20.983 4.69238L17.6822 8.7041L14.3865 4.69238L11.0857 8.7041L8.35875 5.38301L8.36891 44.3627V44.8197C8.36383 46.9424 8.34352 51.9189 9.10524 55.1994C9.88727 58.5967 11.1213 59.9678 13.6502 60.2623C14.4017 60.3486 18.3474 60.4451 22.0037 53.61C22.0646 53.4932 22.1611 53.5186 22.1814 53.5236C22.1865 53.5236 22.1916 53.5287 22.1966 53.5287C22.2322 53.3764 22.2525 53.285 22.2525 53.285L25.8834 57.1037L29.1029 53.5998Z" fill="#6FBFF0"/>
</svg>
