<svg width="65" height="65" viewBox="0 0 65 65" fill="none" xmlns="http://www.w3.org/2000/svg">
<path d="M35.0846 2.15308C34.5361 2.64058 30.2705 11.1058 30.2705 11.1058L27.0967 23.9078L39.4467 22.7753C39.4467 22.7753 49.7197 3.67144 49.9279 3.22964C50.2986 2.4273 50.4967 2.09722 49.0799 2.09722C47.6631 2.09214 35.5975 1.69605 35.0846 2.15308Z" fill="#176CC7"/>
<path d="M41.4781 21.983C40.8636 21.6529 22.7652 21.3685 22.3386 21.983C21.9527 22.5416 22.171 25.4717 22.3183 25.822C22.5824 26.4314 28.3968 28.7928 28.3968 28.7928V30.2603C28.3968 30.2603 28.7929 30.4228 32.1851 30.4228C35.5773 30.4228 36.2527 30.2502 36.2527 30.2502L36.2781 28.8385C36.2781 28.8385 41.3257 26.2385 41.5898 25.8779C41.8234 25.5783 42.0925 22.3131 41.4781 21.983ZM36.2273 26.6244C36.2273 26.6244 36.2984 25.9236 35.948 25.751C35.5976 25.5732 29.5394 25.6037 29.062 25.6291C28.5847 25.6545 28.5847 26.5076 28.5847 26.5076L24.7913 24.5017L24.7253 23.8314L38.9136 23.9076L38.9441 24.8115L36.2273 26.6244Z" fill="#EAE1E1"/>
<path d="M29.9814 26.3252C29.5041 26.3252 29.1436 26.8635 29.1436 27.7166C29.1436 28.5189 29.4178 29.1791 30.0221 29.1436C30.5959 29.1131 30.8701 28.3869 30.8295 27.7064C30.7787 26.9092 30.5857 26.3252 29.9814 26.3252Z" fill="#FDFFFF"/>
<path d="M14.8838 46.7646C14.8838 58.9318 25.9084 63.9947 33.226 63.7763C41.7521 63.5224 50.9232 57.0529 50.1666 45.4443C49.4557 34.5517 40.1678 29.3517 32.1545 29.4126C22.8412 29.4787 14.8838 36.1361 14.8838 46.7646Z" fill="#0788EE"/>
<path d="M32.7642 61.5926C32.6373 61.5926 32.5052 61.5926 32.3783 61.5875C28.5697 61.4605 24.7002 60.0234 21.9478 57.3574C19.0025 54.5035 17.1845 50.893 17.1744 46.7441C17.149 35.8465 26.4876 31.8398 32.4951 31.8398H32.5459C40.6861 31.8754 47.7193 37.959 47.9021 46.5359C47.9834 50.3547 46.4193 54.3969 43.3521 57.4133C40.4931 60.2215 36.2732 61.5926 32.7642 61.5926Z" fill="#EAE1E1"/>
<path d="M12.9544 1.88909C12.6345 2.18362 24.8677 23.9688 24.8677 23.9688C24.8677 23.9688 26.9193 24.2328 31.4997 24.2735C36.0802 24.3141 38.3501 24.0094 38.3501 24.0094C38.3501 24.0094 28.8388 2.10745 28.27 1.88909C27.9907 1.77737 24.2228 1.73675 20.5411 1.69612C16.8544 1.65042 13.2591 1.60472 12.9544 1.88909Z" fill="#2E9DF4"/>
<path d="M26.5534 34.2012C25.812 33.5665 22.039 35.4809 19.3882 39.8633C17.6108 42.8036 17.4585 46.5665 18.5909 46.6274C19.7233 46.6883 19.7081 42.9661 22.171 39.711C25.1468 35.7958 27.6249 35.1204 26.5534 34.2012Z" fill="#FEFFFA"/>
<path d="M32.6881 33.9727C31.6979 33.9727 30.1541 40.5184 28.9404 41.3258C27.7268 42.1332 21.44 41.3613 21.369 42.2449C21.2979 43.1285 26.0358 46.8051 26.5893 48.1609C27.1428 49.5168 24.1975 55.5852 25.01 56.1742C25.8174 56.7633 30.8904 52.5332 32.5815 52.5332C34.3436 52.5332 38.8834 57.0477 39.64 56.4281C40.4373 55.7781 37.8779 49.8469 38.2791 48.4859C38.6854 47.125 44.1951 44.2203 43.9768 42.9C43.7584 41.5746 37.36 42.5699 36.1818 41.468C35.0037 40.366 33.7545 33.9727 32.6881 33.9727Z" fill="#0788EE"/>
</svg>
