<svg width="65" height="65" viewBox="0 0 65 65" fill="none" xmlns="http://www.w3.org/2000/svg">
<path d="M35.0846 2.15308C34.5361 2.64058 30.2705 11.1058 30.2705 11.1058L27.0967 23.9078L39.4467 22.7753C39.4467 22.7753 49.7197 3.67144 49.9279 3.22964C50.2986 2.4273 50.4967 2.09722 49.0799 2.09722C47.6631 2.09214 35.5975 1.69605 35.0846 2.15308Z" fill="#176CC7"/>
<path d="M41.4781 21.983C40.8636 21.6529 22.7652 21.3685 22.3386 21.983C21.9527 22.5416 22.171 25.4717 22.3183 25.822C22.5824 26.4314 28.3968 28.7928 28.3968 28.7928V30.2603C28.3968 30.2603 28.7929 30.4228 32.1851 30.4228C35.5773 30.4228 36.2527 30.2502 36.2527 30.2502L36.2781 28.8385C36.2781 28.8385 41.3257 26.2385 41.5898 25.8779C41.8234 25.5783 42.0925 22.3131 41.4781 21.983ZM36.2273 26.6244C36.2273 26.6244 36.2984 25.9236 35.948 25.751C35.5976 25.5732 29.5394 25.6037 29.062 25.6291C28.5847 25.6545 28.5847 26.5076 28.5847 26.5076L24.7913 24.5017L24.7253 23.8314L38.9136 23.9076L38.9441 24.8115L36.2273 26.6244Z" fill="#DCDDDE"/>
<path d="M29.9814 26.3252C29.5041 26.3252 29.1436 26.8635 29.1436 27.7166C29.1436 28.5189 29.4178 29.1791 30.0221 29.1436C30.5959 29.1131 30.8701 28.3869 30.8295 27.7064C30.7787 26.9092 30.5857 26.3252 29.9814 26.3252Z" fill="#FDFFFF"/>
<path d="M14.8838 46.7646C14.8838 58.9318 25.9084 63.9947 33.226 63.7763C41.7521 63.5224 50.9232 57.0529 50.1666 45.4443C49.4557 34.5517 40.1678 29.3517 32.1545 29.4126C22.8412 29.4787 14.8838 36.1361 14.8838 46.7646Z" fill="#AEB2B6"/>
<path d="M32.7642 61.5926C32.6373 61.5926 32.5052 61.5926 32.3783 61.5875C28.5697 61.4605 24.7002 60.0234 21.9478 57.3574C19.0025 54.5035 17.1845 50.893 17.1744 46.7441C17.149 35.8465 26.4876 31.8398 32.4951 31.8398H32.5459C40.6861 31.8754 47.7193 37.959 47.9021 46.5359C47.9834 50.3547 46.4193 54.3969 43.3521 57.4133C40.4931 60.2215 36.2732 61.5926 32.7642 61.5926Z" fill="#DCDDDE"/>
<path d="M12.9544 1.88909C12.6345 2.18362 24.8677 23.9688 24.8677 23.9688C24.8677 23.9688 26.9193 24.2328 31.4997 24.2735C36.0802 24.3141 38.3501 24.0094 38.3501 24.0094C38.3501 24.0094 28.8388 2.10745 28.27 1.88909C27.9907 1.77737 24.2228 1.73675 20.5411 1.69612C16.8544 1.65042 13.2591 1.60472 12.9544 1.88909Z" fill="#2E9DF4"/>
<path d="M26.5534 34.2012C25.812 33.5665 22.039 35.4809 19.3882 39.8633C17.6108 42.8036 17.4585 46.5665 18.5909 46.6274C19.7233 46.6883 19.7081 42.9661 22.171 39.711C25.1468 35.7958 27.6249 35.1204 26.5534 34.2012Z" fill="#FEFFFA"/>
<path d="M23.0763 50.0898C22.7829 50.0898 22.5563 50.0098 22.3963 49.8498C22.2363 49.6832 22.1562 49.4532 22.1562 49.1598V43.8998C22.1562 43.5932 22.2363 43.3598 22.3963 43.1998C22.5629 43.0332 22.7996 42.9498 23.1063 42.9498H26.4663C26.7129 42.9498 26.8996 43.0132 27.0262 43.1398C27.1596 43.2665 27.2263 43.4532 27.2263 43.6998C27.2263 43.9398 27.1596 44.1265 27.0262 44.2598C26.8996 44.3865 26.7129 44.4498 26.4663 44.4498H23.9963V49.1598C23.9963 49.4532 23.9196 49.6832 23.7663 49.8498C23.6129 50.0098 23.3829 50.0898 23.0763 50.0898Z" fill="#AEB2B6"/>
<path d="M31.5273 50.0898C31.2339 50.0898 31.0073 50.0098 30.8473 49.8498C30.6873 49.6832 30.6073 49.4532 30.6073 49.1598V44.4498H29.0373C28.7906 44.4498 28.6006 44.3865 28.4673 44.2598C28.3406 44.1265 28.2773 43.9398 28.2773 43.6998C28.2773 43.4532 28.3406 43.2665 28.4673 43.1398C28.6006 43.0132 28.7906 42.9498 29.0373 42.9498H34.0173C34.2639 42.9498 34.4506 43.0132 34.5773 43.1398C34.7106 43.2665 34.7773 43.4532 34.7773 43.6998C34.7773 43.9398 34.7106 44.1265 34.5773 44.2598C34.4506 44.3865 34.2639 44.4498 34.0173 44.4498H32.4473V49.1598C32.4473 49.4532 32.3706 49.6832 32.2173 49.8498C32.0639 50.0098 31.8339 50.0898 31.5273 50.0898Z" fill="#AEB2B6"/>
<path d="M39.4508 50.1098C38.7374 50.1098 38.1108 49.9598 37.5708 49.6598C37.0308 49.3532 36.6108 48.9265 36.3108 48.3798C36.0174 47.8332 35.8708 47.1965 35.8708 46.4698C35.8708 45.9232 35.9541 45.4265 36.1208 44.9798C36.2941 44.5332 36.5374 44.1498 36.8508 43.8298C37.1708 43.5098 37.5508 43.2665 37.9908 43.0998C38.4308 42.9265 38.9174 42.8398 39.4508 42.8398C40.1641 42.8398 40.7874 42.9898 41.3208 43.2898C41.8608 43.5898 42.2808 44.0132 42.5808 44.5598C42.8808 45.0998 43.0308 45.7365 43.0308 46.4698C43.0308 47.0165 42.9441 47.5132 42.7708 47.9598C42.6041 48.4065 42.3608 48.7932 42.0408 49.1198C41.7274 49.4398 41.3508 49.6865 40.9108 49.8598C40.4708 50.0265 39.9841 50.1098 39.4508 50.1098ZM39.4508 48.5698C39.8041 48.5698 40.1041 48.4865 40.3508 48.3198C40.5974 48.1532 40.7874 47.9132 40.9208 47.5998C41.0541 47.2865 41.1208 46.9098 41.1208 46.4698C41.1208 45.8098 40.9741 45.2965 40.6808 44.9298C40.3874 44.5632 39.9774 44.3798 39.4508 44.3798C39.1041 44.3798 38.8041 44.4632 38.5508 44.6298C38.3041 44.7898 38.1141 45.0265 37.9808 45.3398C37.8474 45.6465 37.7808 46.0232 37.7808 46.4698C37.7808 47.1298 37.9274 47.6465 38.2208 48.0198C38.5141 48.3865 38.9241 48.5698 39.4508 48.5698Z" fill="#AEB2B6"/>
</svg>
